<svg xmlns="http://www.w3.org/2000/svg" xmlns:xlink="http://www.w3.org/1999/xlink" width="900" zoomAndPan="magnify" viewBox="0 0 675 168.749997" height="225" preserveAspectRatio="xMidYMid meet" version="1.0"><defs><g/><clipPath id="2725aae8e5"><path d="M 480 18 L 543 18 L 543 73 L 480 73 Z M 480 18 " clip-rule="nonzero"/></clipPath><clipPath id="b0a3c1e436"><path d="M 485.460938 9.109375 L 545.953125 28.929688 L 530.796875 75.1875 L 470.304688 55.367188 Z M 485.460938 9.109375 " clip-rule="nonzero"/></clipPath><clipPath id="4901a3f7d3"><path d="M 485.460938 9.109375 L 545.953125 28.929688 L 530.796875 75.1875 L 470.304688 55.367188 Z M 485.460938 9.109375 " clip-rule="nonzero"/></clipPath><clipPath id="aa2a5aa1e5"><path d="M 485.460938 9.109375 L 545.953125 28.929688 L 530.796875 75.1875 L 470.304688 55.367188 Z M 485.460938 9.109375 " clip-rule="nonzero"/></clipPath><clipPath id="8e11a2fb32"><rect x="0" width="657" y="0" height="102"/></clipPath></defs><g clip-path="url(#2725aae8e5)"><g clip-path="url(#b0a3c1e436)"><g clip-path="url(#4901a3f7d3)"><g clip-path="url(#aa2a5aa1e5)"><path fill="#000000" d="M 480.46875 57.667969 C 481.574219 57.796875 483.78125 58.035156 485.988281 58.375 C 488.199219 58.710938 490.40625 59.152344 492.613281 59.695312 C 494.820312 60.238281 497.027344 60.875 498.667969 61.425781 C 500.304688 61.972656 501.382812 62.359375 502.421875 62.753906 C 503.460938 63.148438 504.460938 63.550781 505.425781 63.957031 C 506.390625 64.367188 507.316406 64.777344 508.441406 65.296875 C 509.570312 65.8125 510.917969 66.449219 512.300781 67.128906 C 513.679688 67.8125 515.097656 68.535156 516.546875 69.304688 C 517.996094 70.074219 519.476562 70.890625 520.632812 71.503906 C 521.785156 72.117188 522.316406 72.347656 522.8125 72.535156 C 523.304688 72.722656 523.8125 72.875 524.566406 72.957031 C 525.316406 73.039062 526.984375 72.566406 528.199219 70.082031 C 529.414062 67.597656 530.210938 65.015625 531.46875 61.988281 C 532.730469 58.960938 534.390625 55.484375 536.488281 51.574219 C 538.585938 47.664062 541.136719 43.34375 542.40625 39.132812 C 543.675781 34.921875 541.585938 33.980469 540.78125 34.148438 C 539.976562 34.320312 539.574219 34.53125 539.210938 34.765625 C 538.84375 34.996094 538.460938 35.273438 537.867188 35.71875 C 537.273438 36.167969 536.210938 36.984375 534.769531 38.09375 C 533.328125 39.207031 531.503906 40.621094 529.300781 42.34375 C 527.09375 44.070312 524.492188 46.078125 522.976562 47.261719 C 521.460938 48.445312 521.320312 48.539062 521.277344 48.570312 C 521.234375 48.601562 521.320312 48.582031 521.582031 48.585938 C 521.84375 48.589844 522.292969 48.59375 522.421875 48.664062 C 522.550781 48.730469 522.523438 48.679688 522.367188 48.394531 C 522.210938 48.109375 522 47.613281 521.765625 46.929688 C 521.527344 46.25 521.277344 45.390625 521.078125 44.585938 C 520.875 43.78125 520.664062 42.714844 520.359375 40.972656 C 520.054688 39.230469 519.683594 36.832031 519.234375 33.785156 C 518.789062 30.742188 518.261719 27.058594 517.933594 24.757812 C 517.605469 22.460938 517.507812 22.035156 517.363281 21.597656 C 517.21875 21.164062 517 20.695312 516.625 20.183594 C 516.25 19.667969 515.613281 19.144531 514.988281 18.863281 C 514.363281 18.582031 512.960938 18.507812 512.082031 18.855469 C 511.199219 19.203125 510.691406 19.597656 510.3125 19.988281 C 509.933594 20.375 509.605469 20.777344 506.46875 25.355469 C 503.332031 29.9375 497.660156 38.730469 497.460938 39.019531 C 497.265625 39.308594 497.089844 39.546875 496.972656 39.695312 C 496.851562 39.847656 496.8125 39.894531 496.929688 39.808594 C 497.046875 39.722656 500.277344 39.4375 500.226562 39.324219 C 500.175781 39.207031 499.230469 38.15625 497.816406 36.363281 C 496.402344 34.570312 494.558594 32.089844 492.304688 28.9375 C 490.050781 25.789062 487.371094 21.96875 487.039062 21.582031 C 486.707031 21.195312 486.316406 20.859375 485.714844 20.558594 C 485.117188 20.257812 484.265625 20.132812 483.40625 20.359375 C 482.542969 20.585938 481.0625 22.53125 480.835938 24.585938 C 480.613281 26.640625 480.585938 29.15625 480.730469 32.171875 C 480.871094 35.1875 481.1875 38.71875 481.648438 41.609375 C 482.105469 44.496094 485.574219 44.257812 485.445312 42.328125 C 485.445312 42.328125 485.730469 38.453125 485.765625 35.203125 C 485.800781 31.953125 485.933594 29.296875 486.175781 27.265625 C 486.417969 25.234375 486.742188 23.859375 485.789062 24.890625 C 484.835938 25.921875 484.125 26.011719 483.574219 25.875 C 483.019531 25.734375 482.730469 25.558594 482.617188 25.460938 C 482.503906 25.363281 482.40625 25.238281 484.699219 29.035156 C 486.992188 32.832031 488.972656 35.960938 490.632812 38.425781 C 492.292969 40.890625 493.660156 42.722656 494.847656 44.019531 C 496.035156 45.320312 497.582031 46.257812 499.574219 45.859375 C 501.566406 45.460938 501.949219 45.117188 502.265625 44.773438 C 502.585938 44.425781 502.882812 44.0625 503.183594 43.660156 C 503.484375 43.257812 503.832031 42.753906 509.421875 33.902344 C 515.011719 25.050781 515.105469 24.898438 515.183594 24.785156 C 515.265625 24.667969 515.230469 24.6875 514.945312 24.859375 C 514.660156 25.027344 513.890625 25.242188 513.03125 25.113281 C 512.171875 24.984375 511.921875 24.828125 511.582031 24.5 C 511.242188 24.175781 511.117188 23.964844 511.09375 23.894531 C 511.066406 23.824219 511.089844 23.871094 511.132812 23.992188 C 511.171875 24.109375 512.027344 28.175781 512.757812 31.625 C 513.492188 35.070312 514.109375 37.890625 514.59375 40.085938 C 515.082031 42.28125 515.453125 43.863281 515.726562 44.855469 C 515.996094 45.84375 516.332031 46.910156 516.675781 47.859375 C 517.019531 48.8125 517.375 49.640625 517.761719 50.367188 C 518.144531 51.089844 518.601562 51.730469 519.144531 52.242188 C 519.6875 52.753906 520.253906 53.085938 520.964844 53.160156 C 521.675781 53.234375 522.265625 53.167969 522.75 53.003906 C 523.234375 52.84375 523.65625 52.628906 524.054688 52.375 C 524.449219 52.121094 527.40625 50.035156 529.953125 48.242188 C 532.5 46.445312 534.65625 44.949219 536.410156 43.734375 C 538.160156 42.523438 539.511719 41.609375 540.460938 40.984375 C 541.410156 40.359375 541.777344 40.117188 542.027344 39.96875 C 542.273438 39.820312 542.398438 39.761719 542.273438 39.8125 C 542.148438 39.863281 541.316406 39.960938 540.179688 37.6875 C 539.042969 35.414062 535.839844 39.863281 533.070312 44.039062 C 530.296875 48.214844 528.015625 52.089844 526.25 55.683594 C 524.488281 59.28125 523.21875 62.59375 522.457031 65.523438 C 521.699219 68.457031 523.460938 66.113281 524.464844 65.914062 C 525.46875 65.714844 525.621094 65.746094 525.488281 65.707031 C 525.359375 65.667969 525.054688 65.558594 524.707031 65.417969 C 524.359375 65.28125 522.828125 64.511719 521.253906 63.746094 C 519.679688 62.984375 518.136719 62.269531 516.625 61.597656 C 515.109375 60.929688 513.625 60.308594 512.179688 59.746094 C 510.730469 59.179688 509.730469 58.808594 508.6875 58.445312 C 507.648438 58.082031 506.574219 57.730469 505.46875 57.386719 C 504.359375 57.046875 503.226562 56.710938 502.035156 56.378906 C 500.847656 56.046875 498.441406 55.488281 496.039062 55.03125 C 493.632812 54.574219 491.242188 54.238281 488.863281 54.011719 C 486.484375 53.785156 484.117188 53.675781 482.921875 53.707031 C 480.589844 53.707031 481.609375 57.699219 480.46875 57.667969 Z M 480.46875 57.667969 " fill-opacity="1" fill-rule="nonzero"/></g></g></g></g><g transform="matrix(1, 0, 0, 1, 9, 46)"><g clip-path="url(#8e11a2fb32)"><g fill="#000000" fill-opacity="1"><g transform="translate(0.907204, 81.236442)"><g><path d="M 37.328125 -65 C 46.796875 -65 54.285156 -62.628906 59.796875 -57.890625 C 65.304688 -53.160156 68.0625 -46.398438 68.0625 -37.609375 L 48.46875 -37.609375 C 48.46875 -41.316406 47.492188 -44.253906 45.546875 -46.421875 C 43.597656 -48.597656 40.828125 -49.6875 37.234375 -49.6875 C 33.085938 -49.6875 30.039062 -48.382812 28.09375 -45.78125 C 26.144531 -43.175781 25.171875 -39.554688 25.171875 -34.921875 L 25.171875 -28.96875 C 25.171875 -24.382812 26.144531 -20.773438 28.09375 -18.140625 C 30.039062 -15.515625 33.023438 -14.203125 37.046875 -14.203125 C 41.015625 -14.203125 44.019531 -15.222656 46.0625 -17.265625 C 48.101562 -19.316406 49.125 -22.195312 49.125 -25.90625 L 68.0625 -25.90625 C 68.0625 -17.175781 65.382812 -10.488281 60.03125 -5.84375 C 54.675781 -1.207031 47.109375 1.109375 37.328125 1.109375 C 26.429688 1.109375 18.179688 -1.671875 12.578125 -7.234375 C 6.972656 -12.804688 4.171875 -21.039062 4.171875 -31.9375 C 4.171875 -42.832031 6.972656 -51.066406 12.578125 -56.640625 C 18.179688 -62.210938 26.429688 -65 37.328125 -65 Z M 37.328125 -65 "/></g></g></g><g fill="#000000" fill-opacity="1"><g transform="translate(73.145186, 81.236442)"><g><path d="M 38.625 -65 C 49.644531 -65 58.15625 -62.179688 64.15625 -56.546875 C 70.164062 -50.910156 73.171875 -42.707031 73.171875 -31.9375 C 73.171875 -21.164062 70.164062 -12.960938 64.15625 -7.328125 C 58.15625 -1.703125 49.644531 1.109375 38.625 1.109375 C 27.601562 1.109375 19.101562 -1.6875 13.125 -7.28125 C 7.15625 -12.882812 4.171875 -21.101562 4.171875 -31.9375 C 4.171875 -42.769531 7.15625 -50.988281 13.125 -56.59375 C 19.101562 -62.195312 27.601562 -65 38.625 -65 Z M 38.625 -49.6875 C 34.226562 -49.6875 30.882812 -48.351562 28.59375 -45.6875 C 26.3125 -43.019531 25.171875 -39.429688 25.171875 -34.921875 L 25.171875 -28.96875 C 25.171875 -24.445312 26.3125 -20.851562 28.59375 -18.1875 C 30.882812 -15.53125 34.226562 -14.203125 38.625 -14.203125 C 43.019531 -14.203125 46.378906 -15.53125 48.703125 -18.1875 C 51.023438 -20.851562 52.1875 -24.445312 52.1875 -28.96875 L 52.1875 -34.921875 C 52.1875 -39.429688 51.023438 -43.019531 48.703125 -45.6875 C 46.378906 -48.351562 43.019531 -49.6875 38.625 -49.6875 Z M 38.625 -49.6875 "/></g></g></g><g fill="#000000" fill-opacity="1"><g transform="translate(150.489943, 81.236442)"><g><path d="M 6.875 -63.890625 L 27.390625 -63.890625 L 27.390625 -16.34375 L 60.171875 -16.34375 L 60.171875 0 L 6.875 0 Z M 6.875 -63.890625 "/></g></g></g><g fill="#000000" fill-opacity="1"><g transform="translate(212.42147, 81.236442)"><g><path d="M 6.875 -63.890625 L 27.390625 -63.890625 L 27.390625 -16.34375 L 60.171875 -16.34375 L 60.171875 0 L 6.875 0 Z M 6.875 -63.890625 "/></g></g></g><g fill="#000000" fill-opacity="1"><g transform="translate(274.352998, 81.236442)"><g><path d="M 6.875 -63.890625 L 62.125 -63.890625 L 62.125 -48.5625 L 27.390625 -48.5625 L 27.390625 -39.75 L 57.109375 -39.75 L 57.109375 -25.078125 L 27.390625 -25.078125 L 27.390625 -15.328125 L 62.765625 -15.328125 L 62.765625 0 L 6.875 0 Z M 6.875 -63.890625 "/></g></g></g><g fill="#000000" fill-opacity="1"><g transform="translate(341.391335, 81.236442)"><g><path d="M 37.328125 -65 C 46.796875 -65 54.285156 -62.628906 59.796875 -57.890625 C 65.304688 -53.160156 68.0625 -46.398438 68.0625 -37.609375 L 48.46875 -37.609375 C 48.46875 -41.316406 47.492188 -44.253906 45.546875 -46.421875 C 43.597656 -48.597656 40.828125 -49.6875 37.234375 -49.6875 C 33.085938 -49.6875 30.039062 -48.382812 28.09375 -45.78125 C 26.144531 -43.175781 25.171875 -39.554688 25.171875 -34.921875 L 25.171875 -28.96875 C 25.171875 -24.382812 26.144531 -20.773438 28.09375 -18.140625 C 30.039062 -15.515625 33.023438 -14.203125 37.046875 -14.203125 C 41.015625 -14.203125 44.019531 -15.222656 46.0625 -17.265625 C 48.101562 -19.316406 49.125 -22.195312 49.125 -25.90625 L 68.0625 -25.90625 C 68.0625 -17.175781 65.382812 -10.488281 60.03125 -5.84375 C 54.675781 -1.207031 47.109375 1.109375 37.328125 1.109375 C 26.429688 1.109375 18.179688 -1.671875 12.578125 -7.234375 C 6.972656 -12.804688 4.171875 -21.039062 4.171875 -31.9375 C 4.171875 -42.832031 6.972656 -51.066406 12.578125 -56.640625 C 18.179688 -62.210938 26.429688 -65 37.328125 -65 Z M 37.328125 -65 "/></g></g></g><g fill="#000000" fill-opacity="1"><g transform="translate(413.629317, 81.236442)"><g><path d="M 43.640625 -47.546875 L 43.640625 0 L 23.125 0 L 23.125 -47.546875 L 2.140625 -47.546875 L 2.140625 -63.890625 L 64.53125 -63.890625 L 64.53125 -47.546875 Z M 43.640625 -47.546875 "/></g></g></g><g fill="#000000" fill-opacity="1"><g transform="translate(480.667655, 81.236442)"><g><path d="M 7.796875 0 L 7.796875 -63.890625 L 28.328125 -63.890625 L 28.328125 0 Z M 7.796875 0 "/></g></g></g><g fill="#000000" fill-opacity="1"><g transform="translate(516.786629, 81.236442)"><g><path d="M 24.234375 0 L 1.578125 -63.890625 L 23.5 -63.890625 L 36.3125 -21.171875 L 36.671875 -21.171875 L 49.59375 -63.890625 L 70.578125 -63.890625 L 48.015625 0 Z M 24.234375 0 "/></g></g></g><g fill="#000000" fill-opacity="1"><g transform="translate(589.024611, 81.236442)"><g><path d="M 6.875 -63.890625 L 62.125 -63.890625 L 62.125 -48.5625 L 27.390625 -48.5625 L 27.390625 -39.75 L 57.109375 -39.75 L 57.109375 -25.078125 L 27.390625 -25.078125 L 27.390625 -15.328125 L 62.765625 -15.328125 L 62.765625 0 L 6.875 0 Z M 6.875 -63.890625 "/></g></g></g></g></g></svg>