<svg width="56" height="56" viewBox="0 0 56 56" fill="none" xmlns="http://www.w3.org/2000/svg">
<rect x="0.906219" y="0.4375" width="55" height="55" rx="27.5" fill="#FFFFEB" fill-opacity="0.1"/>
<path fill-rule="evenodd" clip-rule="evenodd" d="M28.4062 18.9375C28.8204 18.9375 29.1562 19.2733 29.1562 19.6875V27.1875H36.6562C37.0704 27.1875 37.4062 27.5233 37.4062 27.9375C37.4062 28.3517 37.0704 28.6875 36.6562 28.6875H29.1562V36.1875C29.1562 36.6017 28.8204 36.9375 28.4062 36.9375C27.992 36.9375 27.6562 36.6017 27.6562 36.1875V28.6875H20.1562C19.742 28.6875 19.4062 28.3517 19.4062 27.9375C19.4062 27.5233 19.742 27.1875 20.1562 27.1875H27.6562V19.6875C27.6562 19.2733 27.992 18.9375 28.4062 18.9375Z" fill="#FFFFEB"/>
</svg>
