<svg width="18" height="21" viewBox="0 0 18 21" fill="none" xmlns="http://www.w3.org/2000/svg">
<path d="M16.9556 7.15814C16.2692 7.5784 15.7006 8.16594 15.3031 8.86579C14.9055 9.56563 14.6921 10.3549 14.6826 11.1597C14.6853 12.0655 14.9537 12.9506 15.4545 13.7054C15.9553 14.4602 16.6665 15.0515 17.5 15.4061C17.1714 16.4664 16.685 17.4712 16.0572 18.3868C15.159 19.6798 14.2198 20.9727 12.7908 20.9727C11.3617 20.9727 10.9942 20.1425 9.34729 20.1425C7.74129 20.1425 7.16959 21 5.86297 21C4.55635 21 3.64455 19.8022 2.59649 18.3323C1.21208 16.2732 0.451222 13.8583 0.405212 11.3774C0.405212 7.29427 3.05931 5.13028 5.67241 5.13028C7.06069 5.13028 8.21769 6.04208 9.08869 6.04208C9.91899 6.04208 11.212 5.07572 12.7908 5.07572C13.6025 5.05478 14.4069 5.23375 15.1332 5.59689C15.8595 5.96003 16.4853 6.49619 16.9556 7.15814ZM12.0422 3.34726C12.7382 2.52858 13.1321 1.49589 13.1583 0.421702C13.1595 0.280092 13.1458 0.13875 13.1175 0C11.922 0.116777 10.8165 0.686551 10.0278 1.59245C9.32519 2.37851 8.91639 3.38362 8.87089 4.43697C8.87139 4.56507 8.88509 4.69278 8.91179 4.81808C9.00599 4.8359 9.10169 4.84503 9.19759 4.84536C9.74849 4.80152 10.2848 4.64611 10.7738 4.38858C11.2629 4.13104 11.6944 3.77676 12.0422 3.34726Z" fill="black"/>
</svg>
