<svg width="33" height="32" viewBox="0 0 33 32" fill="none" xmlns="http://www.w3.org/2000/svg">
<path d="M15.404 17.9933C11.6312 21.7057 7.85663 25.4161 4.08034 29.1245C3.32598 29.8623 2.5205 30.5508 1.70457 31.2206C1.56845 31.3302 1.40244 31.3963 1.22822 31.41C1.054 31.4238 0.879668 31.3847 0.72802 31.2978C0.475925 31.1679 0.417051 30.6846 0.631506 30.3906C0.838433 30.1063 1.02315 29.8021 1.25536 29.5399C2.73705 27.8677 4.17823 26.1556 5.72825 24.5488C8.91322 21.248 12.1418 17.9893 15.3816 14.7429C18.4552 11.6622 21.5709 8.62393 24.6555 5.55323C25.1506 5.06042 25.582 4.50372 26.032 3.96632C26.0567 3.92553 26.0707 3.87921 26.0728 3.83159C26.0748 3.78397 26.065 3.73657 26.044 3.69377C25.9766 3.60864 25.8268 3.50248 25.7476 3.52584C24.2878 3.95745 22.8136 4.35064 21.3817 4.86429C18.0526 6.05933 14.6218 6.87179 11.1882 7.68019C10.624 7.81281 10.0395 7.95874 9.4703 7.67112C9.36684 7.61881 9.19352 7.52521 9.20008 7.46653C9.20795 7.24177 9.27131 7.02246 9.38458 6.82818C9.52903 6.64504 9.72151 6.50557 9.94053 6.42532C10.7105 6.13578 11.4869 5.85995 12.2717 5.61461C17.88 3.85361 23.4936 2.11036 29.0994 0.341827C31.214 -0.325473 32.576 -0.285128 32.4967 2.97474C32.4741 3.91421 32.4455 4.8587 32.3305 5.78968C31.7972 10.1081 31.2439 14.4239 30.6705 18.7371C30.5755 19.314 30.4355 19.8826 30.2519 20.4377C30.1417 20.8094 29.8231 20.9729 29.4583 21.0241C29.0567 21.0805 28.4126 20.7206 28.2709 20.4209C27.9563 19.7555 27.946 19.0467 27.9958 18.3458C28.1873 15.6478 28.4031 12.9516 28.6205 10.2558C28.7622 8.49922 28.9259 6.74537 29.0645 4.9892C29.0712 4.90233 28.9486 4.7759 28.8562 4.7207C28.8114 4.70102 28.7625 4.69247 28.7138 4.69584C28.665 4.6992 28.6177 4.71436 28.5761 4.73999C28.0484 5.20326 27.511 5.65746 27.018 6.15566C23.1296 10.0851 19.2464 14.0197 15.3685 17.9596L15.404 17.9933Z" fill="#FFFFEB"/>
</svg>
