<svg width="740" height="264" viewBox="0 0 740 264" fill="none" xmlns="http://www.w3.org/2000/svg">
<path d="M690.238 77.1245L657.01 201.158L624.263 78.444L623.903 77.1245H571.243L538.015 201.158L505.267 78.444L504.907 77.1245H455.966L509.826 257.057L510.185 258.376H564.165L597.753 134.583L630.62 256.937L630.98 258.376H684.96L738.46 79.4037L739.179 77.1245H690.238Z" fill="#1A1A1A"/>
<path d="M436.29 98.1321C419.136 80.7386 395.505 71.6221 368.036 71.6221C340.566 71.6221 317.175 80.7386 300.021 98.1321C282.868 115.526 273.751 139.637 273.751 167.706C273.751 195.775 282.868 219.766 300.021 237.28C317.175 254.673 340.566 263.79 368.036 263.79C395.505 263.79 419.136 254.673 436.29 237.28C453.443 219.886 462.56 195.775 462.56 167.706C462.56 139.637 453.443 115.526 436.29 98.1321ZM414.218 167.706C414.218 183.3 409.78 196.735 401.383 206.211C393.106 215.688 381.47 220.726 367.916 220.726C354.361 220.726 342.845 215.688 334.688 206.211C326.411 196.615 322.093 183.3 322.093 167.586C322.093 151.872 326.411 138.557 334.688 128.961C342.965 119.484 354.481 114.446 367.916 114.446C381.351 114.446 392.986 119.484 401.383 128.961C409.78 138.557 414.218 151.872 414.218 167.586V167.706Z" fill="#1A1A1A"/>
<path d="M246.267 216.519C242.429 216.519 239.79 215.799 238.231 214.24C236.671 212.68 236.071 210.161 236.071 206.322V0H189.169V221.197C189.169 234.512 192.408 243.748 198.885 249.746C205.363 255.624 214.959 258.263 229.114 258.263H268.819V216.399H246.267V216.519Z" fill="#1A1A1A"/>
<path d="M159.777 45.4629V0H-0.00292969V258.263H48.4589V149.104H159.777V103.761H48.4589V45.4629H159.777Z" fill="#1A1A1A"/>
</svg>
