<svg width="33" height="34" viewBox="0 0 33 34" fill="none" xmlns="http://www.w3.org/2000/svg">
<path d="M32.4047 1.8C32.4047 0.805888 31.5988 0 30.6047 0C29.6106 0 28.8047 0.805888 28.8047 1.8V31.8C28.8047 32.7941 29.6106 33.6 30.6047 33.6C31.5988 33.6 32.4047 32.7941 32.4047 31.8V1.8Z" fill="white"/>
<path d="M25.1977 13.8C25.1977 12.8059 24.3918 12 23.3977 12C22.4036 12 21.5977 12.8059 21.5977 13.8V27C21.5977 27.9941 22.4036 28.8 23.3977 28.8C24.3918 28.8 25.1977 27.9941 25.1977 27V13.8Z" fill="white"/>
<path d="M18.0023 6.5988C18.0023 5.60469 17.1964 4.7988 16.2023 4.7988C15.2082 4.7988 14.4023 5.60469 14.4023 6.5988V24.5988C14.4023 25.5929 15.2082 26.3988 16.2023 26.3988C17.1964 26.3988 18.0023 25.5929 18.0023 24.5988V6.5988Z" fill="white"/>
<path d="M10.7953 13.8C10.7953 12.8059 9.98942 12 8.99531 12C8.0012 12 7.19531 12.8059 7.19531 13.8V27C7.19531 27.9941 8.0012 28.8 8.99531 28.8C9.98942 28.8 10.7953 27.9941 10.7953 27V13.8Z" fill="white"/>
<path d="M3.6 1.8C3.6 0.805888 2.79411 0 1.8 0C0.805887 0 0 0.805888 0 1.8V31.8C0 32.7941 0.805887 33.6 1.8 33.6C2.79411 33.6 3.6 32.7941 3.6 31.8V1.8Z" fill="white"/>
</svg>
