<svg width="271" height="205" viewBox="0 0 271 205" fill="none" xmlns="http://www.w3.org/2000/svg">
<g clip-path="url(#clip0_7490_588)">
<path d="M0.179199 0.716797L270.179 0.716797V172.274C270.179 190.192 255.654 204.717 237.736 204.717H32.6222C14.7044 204.717 0.179199 190.192 0.179199 172.274L0.179199 0.716797Z" fill="#1A1A1A"/>
<mask id="path-3-inside-1_7490_588" fill="white">
<path d="M5.58545 0.314453L267.833 0.314453V200.38H5.58545L5.58545 0.314453Z"/>
</mask>
<path d="M5.58545 0.314453V5.72162L267.833 5.72162V0.314453V-5.09271L5.58545 -5.09271V0.314453Z" fill="#FFFFEB" mask="url(#path-3-inside-1_7490_588)"/>
<path fill-rule="evenodd" clip-rule="evenodd" d="M35.0254 164.978C34.1307 165.306 33.2913 165.828 32.5732 166.546C31.4687 167.651 30.8265 169.042 30.6463 170.481L33.9882 170.481C34.0535 168.645 34.3297 166.97 34.7591 165.682C34.8405 165.438 34.9292 165.202 35.0254 164.978ZM39.6803 164.979C39.7765 165.202 39.8651 165.438 39.9466 165.682C40.3759 166.97 40.6522 168.645 40.7173 170.481L44.0588 170.481C43.8786 169.042 43.2363 167.651 42.1318 166.546C41.414 165.829 40.5748 165.306 39.6803 164.979ZM45.7591 170.481C45.5721 168.608 44.7612 166.786 43.3267 165.352C40.0272 162.052 34.6778 162.052 31.3784 165.352C29.9438 166.786 29.133 168.608 28.9459 170.481L28.059 170.481C27.5924 170.481 27.2142 170.859 27.2142 171.326C27.2142 171.792 27.5924 172.171 28.059 172.171L28.9459 172.171C29.133 174.043 29.9439 175.865 31.3784 177.3C33.0194 178.941 35.1677 179.766 37.3185 179.774C37.3298 179.775 37.3413 179.775 37.3528 179.775C37.3644 179.775 37.3758 179.775 37.3873 179.774C39.5379 179.766 41.6858 178.941 43.3267 177.3C44.7612 175.865 45.572 174.043 45.7591 172.171L46.6462 172.171C47.1128 172.171 47.4911 171.792 47.491 171.326C47.4911 170.859 47.1128 170.481 46.6462 170.481L45.7591 170.481ZM44.0588 172.171L40.7174 172.171C40.6522 174.007 40.3759 175.682 39.9466 176.97C39.8652 177.214 39.7767 177.449 39.6806 177.673C40.5749 177.345 41.4141 176.823 42.1318 176.105C43.2363 175.001 43.8786 173.609 44.0588 172.171ZM37.3561 178.085C37.3582 178.084 37.3612 178.084 37.3657 178.082C37.3751 178.079 37.3938 178.072 37.4216 178.055C37.48 178.019 37.5679 177.946 37.6759 177.809C37.8957 177.53 38.1306 177.074 38.3435 176.436C38.7069 175.345 38.9619 173.858 39.0265 172.171L35.6791 172.171C35.7437 173.858 35.9987 175.345 36.3621 176.436C36.575 177.074 36.81 177.53 37.0298 177.809C37.1378 177.946 37.2256 178.019 37.284 178.055C37.3119 178.072 37.3305 178.08 37.3399 178.082C37.3444 178.084 37.3475 178.084 37.3496 178.085C37.3518 178.085 37.3539 178.085 37.3561 178.085ZM35.0252 177.673C34.929 177.449 34.8404 177.214 34.759 176.97C34.3296 175.682 34.0534 174.007 33.9882 172.171L30.6463 172.171C30.8265 173.609 31.4688 175.001 32.5732 176.105C33.2912 176.823 34.1305 177.346 35.0252 177.673ZM35.6791 170.481L39.0265 170.481C38.9619 168.794 38.7069 167.307 38.3435 166.216C38.1306 165.578 37.8957 165.122 37.6758 164.843C37.5679 164.706 37.48 164.633 37.4216 164.597C37.3937 164.58 37.3752 164.572 37.3657 164.57C37.3572 164.567 37.3529 164.567 37.3529 164.567C37.3529 164.567 37.3484 164.567 37.3399 164.57C37.3305 164.572 37.3119 164.58 37.284 164.597C37.2256 164.633 37.1378 164.706 37.0298 164.843C36.81 165.122 36.575 165.578 36.3621 166.216C35.9987 167.307 35.7438 168.794 35.6791 170.481Z" fill="#FFFFEB"/>
<rect x="17.7495" y="17.8887" width="32.443" height="32.443" rx="16.2215" fill="#FFFFEB" fill-opacity="0.1"/>
<path fill-rule="evenodd" clip-rule="evenodd" d="M29.5717 29.7108C29.9016 29.3809 30.4366 29.3809 30.7665 29.7108L33.971 32.9153L37.1755 29.7108C37.5054 29.3809 38.0404 29.3809 38.3704 29.7108C38.7002 30.0408 38.7002 30.5757 38.3704 30.9057L35.1658 34.1102L38.3704 37.3146C38.7002 37.6446 38.7002 38.1796 38.3704 38.5095C38.0404 38.8394 37.5054 38.8394 37.1755 38.5095L33.971 35.305L30.7665 38.5095C30.4366 38.8394 29.9016 38.8394 29.5717 38.5095C29.2417 38.1796 29.2417 37.6446 29.5717 37.3146L32.7762 34.1102L29.5717 30.9057C29.2417 30.5757 29.2417 30.0408 29.5717 29.7108Z" fill="#FFFFEB"/>
<rect x="221.873" y="17.8887" width="32.443" height="32.443" rx="16.2215" fill="#FFFFEB"/>
<path fill-rule="evenodd" clip-rule="evenodd" d="M242.217 29.7418C242.608 29.9972 242.718 30.5208 242.462 30.9113L237.675 38.2335C237.529 38.456 237.287 38.5971 237.022 38.6143C236.757 38.6315 236.499 38.5228 236.326 38.321L233.791 35.364C233.488 35.0097 233.529 34.4763 233.883 34.1727C234.237 33.869 234.771 33.91 235.074 34.2643L236.876 36.3667L241.048 29.9866C241.303 29.5961 241.827 29.4865 242.217 29.7418Z" fill="#1A1A1A"/>
</g>
<path d="M267.476 3.41992V172.273C267.476 188.698 254.16 202.014 237.736 202.014H32.6226C16.1979 202.014 2.88232 188.698 2.88232 172.273L2.88232 3.41992L267.476 3.41992Z" stroke="#FFFFEB" stroke-width="5.40717"/>
<defs>
<clipPath id="clip0_7490_588">
<path d="M0.179199 0.716797L270.179 0.716797V172.274C270.179 190.192 255.654 204.717 237.736 204.717H32.6222C14.7044 204.717 0.179199 190.192 0.179199 172.274L0.179199 0.716797Z" fill="white"/>
</clipPath>
</defs>
</svg>
