<svg width="20" height="20" viewBox="0 0 20 20" fill="none" xmlns="http://www.w3.org/2000/svg">
<path d="M19.1667 4.90259C19.0283 3.15766 17.6366 2.52559 16.7495 2.50005C16.7137 2.49902 16.68 2.51421 16.6561 2.54042L10.4112 9.39648C10.3994 9.40948 10.3905 9.4248 10.3851 9.44144L9.40126 12.4687M19.1078 4.96122L12.9483 12.1444C12.9332 12.162 12.9134 12.1751 12.8912 12.1822L10.2573 13.0293M12.8663 12.1713C12.7092 11.4483 12.0184 10.0258 10.511 9.65068M9.51034 13.2696L9.33182 13.327C9.23423 13.3584 9.14158 13.2677 9.17286 13.1715L9.20971 13.0581M9.51034 13.2696C9.54064 13.2661 9.52294 13.2189 9.20971 13.0581M9.51034 13.2696L9.81647 13.1711M9.20971 13.0581L9.27503 12.8571M9.81647 13.1711C9.69505 13.0665 9.41677 12.8571 9.27503 12.8571M9.81647 13.1711L10.087 13.0841M9.27503 12.8571L9.34724 12.6349M10.087 13.0841C9.92356 12.9512 9.54674 12.6752 9.34724 12.6349M10.087 13.0841L10.2573 13.0293M9.34724 12.6349L9.40126 12.4687M10.2573 13.0293C10.1663 12.8947 9.86773 12.5941 9.40126 12.4687M3.07822 14.9939C3.1367 15.0019 3.19566 15.0021 3.25293 14.9939C3.29064 14.9885 4.20355 14.871 4.16552 14.0512C4.16313 13.9996 4.1578 13.9512 4.14981 13.9058M3.07822 14.9939C3.42979 14.9609 4.13631 14.6971 4.14981 13.9058M3.07822 14.9939C2.99947 14.9831 2.92159 14.958 2.84987 14.92M4.14981 13.9058C4.01196 13.123 3.08212 13.254 2.75861 13.6414C2.64847 13.7734 2.41765 14.1081 2.53013 14.5264C2.5784 14.706 2.70084 14.841 2.84987 14.92M4.14981 13.9058C3.80298 14.6971 3.13867 14.9116 2.84987 14.92M6.41155 14.9939C6.47004 15.0019 6.529 15.0021 6.58626 14.9939C6.62397 14.9885 7.53688 14.871 7.49885 14.0512C7.49646 13.9996 7.49113 13.9512 7.48314 13.9058M6.41155 14.9939C6.76312 14.9609 7.46964 14.6971 7.48314 13.9058M6.41155 14.9939C6.33281 14.9831 6.25493 14.958 6.18321 14.92M7.48314 13.9058C7.3453 13.123 6.41545 13.254 6.09194 13.6414C5.9818 13.7734 5.75098 14.1081 5.86347 14.5264C5.91174 14.706 6.03417 14.841 6.18321 14.92M7.48314 13.9058C7.13631 14.6971 6.472 14.9116 6.18321 14.92M10 5.95181C7.50575 6.07662 4.97358 6.23672 3.10137 6.09311C-0.167257 5.68571 1.05848 14.2409 1.05848 15.8704C1.05848 17.5 3.10127 17.5 3.91853 17.5H17.4016C19.6162 17.5 19.1633 12.1807 19.0551 8.75001" stroke="black" stroke-linecap="round"/>
</svg>
