<svg width="20" height="22" viewBox="0 0 20 22" fill="none" xmlns="http://www.w3.org/2000/svg">
<path d="M0.660156 4.77792V7.27792M0.660156 14.7779V17.2779M0.660156 9.77792V12.2779M4.65308 1.72535C7.23354 1.06434 15.2945 1.19661 17.617 1.72542M3.68541 2.38644C3.5425 8.04862 3.29318 18.1359 3.37697 21.2778M18.6602 2.07773C18.2947 7.89737 18.1395 16.9779 18.3526 18.3762C18.612 20.0786 18.107 19.6658 16.1423 19.6658C14.8004 19.6658 10.1111 19.8162 6.96016 20.3225M6.96016 20.3225C5.49783 20.5575 4.36681 20.8691 4.05542 21.2778M6.96016 20.3225C7.18218 20.2855 7.05267 9.1258 6.96016 3.55056" stroke="#1A1A1A" stroke-linecap="round"/>
</svg>
