<svg width="19" height="19" viewBox="0 0 19 19" fill="none" xmlns="http://www.w3.org/2000/svg">
<path d="M8.84035 4.39074C9.18144 4.01975 9.74296 3.91306 10.2057 4.16489C10.6594 4.41183 10.8752 4.92574 10.7643 5.40561M8.84035 4.39074C8.77921 4.45723 8.72516 4.53221 8.68003 4.61514C8.38307 5.16077 8.58465 5.84382 9.13028 6.14078C9.6759 6.43773 10.359 6.23615 10.6559 5.69052C10.7059 5.59862 10.7418 5.50281 10.7643 5.40561M8.84035 4.39074C9.33744 4.2116 10.4182 4.16377 10.7643 5.40561M8.16797 8.23075C8.83464 8.23075 10.318 8.14342 10.918 7.79409C11.668 7.35744 6.41797 15.8723 11.168 14.344M8.87186 17.4675C9.24517 17.414 18.283 16.2503 17.9065 8.13514C17.8719 7.38953 17.7756 6.71126 17.6259 6.09641C17.4384 5.32664 17.1672 4.65627 16.8288 4.07756C14.054 -0.666778 6.7568 0.750583 3.97808 4.07756C2.88773 5.38415 0.602577 8.69769 1.71619 12.8396C2.41427 15.436 4.67905 17.0918 7.04297 17.4531C7.65443 17.5466 8.27253 17.5534 8.87186 17.4675Z" stroke="#1A1A1A" stroke-linecap="round"/>
</svg>
