<svg width="18" height="18" viewBox="0 0 18 18" fill="none" xmlns="http://www.w3.org/2000/svg">
<path d="M10.7304 12.7586V15.3892C10.7304 15.4192 10.7633 15.4358 10.7853 15.4169L12.171 14.2281C12.1839 14.2171 12.2025 14.2176 12.2148 14.2295L12.925 14.914M13.5637 12.7586V14.6742M7.10479 6.24595C7.24109 6.22749 10.5409 5.82604 10.4035 3.02667C10.3909 2.76946 10.3557 2.53549 10.301 2.3234M7.10479 6.24595C8.91346 6.13696 9.83253 5.49081 10.2439 4.71642M7.10479 6.24595C6.88597 6.27558 6.66029 6.27322 6.43703 6.24098M10.301 2.3234C10.2326 2.05786 10.1336 1.82661 10.01 1.62698M10.301 2.3234C10.5474 2.94585 10.6764 3.90204 10.2439 4.71642M10.01 1.62698C8.99688 -0.00961677 6.33255 0.479312 5.31799 1.62698C4.91989 2.07769 4.08554 3.22073 4.49214 4.64952C4.74702 5.54516 5.57393 6.11635 6.43703 6.24098M10.01 1.62698C10.3955 2.12087 10.9548 3.27746 10.4766 4.32636M10.2439 4.71642C10.3396 4.58914 10.4163 4.45861 10.4766 4.32636M6.43703 6.24098C7.57835 6.42205 9.98411 6.29262 10.4766 4.32636M8.925 8.42395H4.75347C3.56457 8.42395 2.4777 9.03656 1.94601 10.0064L1.82558 10.226C1.45329 10.9051 1.36222 11.7068 1.75372 12.3768C2.94866 14.4218 5.01472 15.2967 7.10479 15.3491M15 9.51276C15 11.0939 13.7912 12.3756 12.3 12.3756C10.8088 12.3756 9.6 11.0939 9.6 9.51276C9.6 7.93168 10.8088 6.64995 12.3 6.64995C13.7912 6.64995 15 7.93168 15 9.51276ZM12.71 8.69266L13.6549 8.60672C13.7587 8.59727 13.813 8.73139 13.7334 8.79746C13.3843 9.08719 12.9903 9.47556 13.0684 9.65156C13.1952 9.93691 13.6388 10.9832 13.3536 10.9515C13.0684 10.9198 12.3713 10.1271 12.1812 10.254C11.9911 10.3808 11.2306 11.3319 11.0722 10.9515C10.9138 10.571 11.6425 9.90521 11.3891 9.65156C11.1356 9.39792 10.4068 8.98576 10.8504 8.89064C11.1535 8.82566 11.4781 8.8023 11.6585 8.79686C11.7053 8.79545 11.7459 8.76489 11.7587 8.72078C11.8839 8.28782 12.1328 7.60505 12.2763 7.84437C12.4089 8.06546 12.535 8.41503 12.6002 8.6201C12.615 8.66659 12.6606 8.69716 12.71 8.69266Z" stroke="#1A1A1A" stroke-linecap="round"/>
</svg>
