<svg width="19" height="19" viewBox="0 0 19 19" fill="none" xmlns="http://www.w3.org/2000/svg">
<path d="M6.13003 1.80529C4.79467 3.34791 2.11379 6.45504 1.63117 7.05374C1.14161 7.66106 1.60851 8.36117 1.90315 8.6353C4.78158 11.1869 5.42526 11.8364 6.1868 12.4943L11.3452 17.1125C11.6686 17.4259 12.5177 17.8647 13.3262 17.1125L17.918 11.9028M6.13003 1.80529C6.13129 1.80383 6.13256 1.80237 6.13382 1.80091M6.13003 1.80529C6.13074 1.79609 6.13148 1.78694 6.13225 1.77783C6.13275 1.78551 6.13327 1.7932 6.13382 1.80091M6.13003 1.80529C5.94986 4.13406 7.73925 9.65726 16.7394 10.7778C9.29744 8.90844 6.31592 4.37068 6.13382 1.80091M6.13382 1.80091C6.15173 1.78022 6.16939 1.75982 6.1868 1.73971C6.58555 1.20295 7.45208 0.564329 8.55739 1.51926C9.50932 2.34167 12.7731 5.18847 15.5608 7.35288" stroke="#1A1A1A" stroke-linecap="round"/>
</svg>
