<svg width="18" height="18" viewBox="0 0 18 18" fill="none" xmlns="http://www.w3.org/2000/svg">
<path d="M9.46347 0.55578C9.05743 0.490906 8.71397 0.487139 8.4272 0.52132C8.11717 0.558273 7.87339 0.639579 7.68843 0.735974C7.53158 0.81772 7.41703 0.910315 7.34024 0.995914C7.30235 1.03815 7.27366 1.07869 7.25361 1.11537L7.14989 1.3095L7.05064 1.49526L6.95139 1.68102L6.82158 1.92399L6.65085 2.24353L6.50621 2.51424L6.41053 2.69331C6.39596 2.72058 6.41651 2.7529 6.44846 2.75232C7.59743 2.73149 9.94571 3.14036 10.6775 4.67162C10.6925 4.70292 10.7394 4.70469 10.7555 4.6739L10.9028 4.39133L10.9645 4.27308L11.0538 4.09761L11.2179 3.77515L11.3579 3.5L11.4341 3.35015L11.5104 3.20031L11.5806 3.06237L11.6508 2.92444L11.7911 2.64858C11.7958 2.63939 11.7968 2.62924 11.7936 2.6195C11.7267 2.41902 11.6009 2.14924 11.4121 1.87001C11.0309 1.30638 10.3927 0.704245 9.46347 0.55578Z" fill="#1A1A1A"/>
<path d="M4.50155 15.4383H14.5227M2.25 13.3463V15.3625C2.38343 15.6823 2.69683 15.3625 2.87543 15.225L4.50155 14.1458M6.04429 13.0667L2.58084 15.4383C2.44236 15.5331 2.25 15.4382 2.25 15.2751V10.9083M4.29545 9.02273L6.04429 5.61364M7.70455 5.27273L4.97727 10.3864M8.38636 6.63636L6.65085 10.0455M5.86429 3.81663L2.37423 10.6289C2.35838 10.6599 2.38795 10.6949 2.42315 10.6878C2.94615 10.5817 3.84181 10.6376 3.91412 11.5948C3.9165 11.6263 3.9534 11.6453 3.98148 11.6289C4.44201 11.3606 5.23085 11.166 5.21376 12.2549C5.21321 12.2899 5.25625 12.3114 5.28538 12.2903C5.69285 11.9956 6.36515 11.7428 6.41743 12.6423C6.41993 12.6853 6.48445 12.7004 6.50426 12.6618L10.0197 5.97081M5.86429 3.81663L6.33623 2.87411M5.86429 3.81663C5.85105 3.84308 5.8719 3.8738 5.9025 3.87437C8.61181 3.9251 9.71413 5.23008 9.9359 5.96127C9.94695 5.99768 10.0011 6.00429 10.0197 5.97081M10.0197 5.97081L10.6726 4.79271M7.25361 1.11537L7.14989 1.3095M7.25361 1.11537C7.27366 1.07869 7.30235 1.03815 7.34024 0.995914M7.25361 1.11537C8.16976 1.14123 10.3178 1.56682 11.5806 3.06237M11.7936 2.6195C11.7968 2.62924 11.7958 2.63939 11.7911 2.64858L11.6508 2.92444M11.7936 2.6195C10.5944 1.20205 8.55717 0.77321 7.68843 0.735974M11.7936 2.6195C11.7267 2.41902 11.6009 2.14924 11.4121 1.87001M6.50621 2.51423L6.41053 2.69331C6.39596 2.72058 6.41651 2.7529 6.44846 2.75232C7.59743 2.73149 9.94571 3.14036 10.6775 4.67162C10.6925 4.70292 10.7394 4.70469 10.7555 4.6739L10.9028 4.39133M6.50621 2.51423C7.54164 2.43704 9.87056 2.70439 10.9028 4.39133M6.50621 2.51423L6.65085 2.24353M10.9028 4.39133L10.9645 4.27308L11.0538 4.09761M6.65085 2.24353C7.60613 2.18576 9.82411 2.4757 11.0538 4.09761M6.65085 2.24353L6.82158 1.92399M11.0538 4.09761L11.2179 3.77515M6.82158 1.92399C7.69676 1.88276 9.80128 2.19526 11.2179 3.77515M6.82158 1.92399L6.95139 1.68102M11.2179 3.77515L11.3579 3.5M6.95139 1.68102C7.87664 1.66234 10.0533 2 11.3579 3.5M6.95139 1.68102L7.05064 1.49526M11.3579 3.5L11.4341 3.35015M7.14989 1.3095C8.11064 1.33987 10.3278 1.76055 11.5104 3.20031M7.14989 1.3095L7.05064 1.49526M11.5104 3.20031L11.4341 3.35015M11.5104 3.20031L11.5806 3.06237M7.34024 0.995914C8.33113 1.02927 10.5805 1.46168 11.6508 2.92444M7.34024 0.995914C7.41703 0.910315 7.53158 0.81772 7.68843 0.735974M11.6508 2.92444L11.5806 3.06237M7.68843 0.735974C7.87339 0.639579 8.11717 0.558273 8.4272 0.52132M8.4272 0.52132C8.71397 0.487139 9.05743 0.490906 9.46347 0.55578C10.3927 0.704245 11.0309 1.30638 11.4121 1.87001M8.4272 0.52132C9.07501 0.619406 10.5789 1.02646 11.4121 1.87001M7.05064 1.49526C7.93682 1.4727 10.0542 1.81209 11.4341 3.35015" stroke="#1A1A1A" stroke-linecap="round"/>
</svg>
