<svg width="19" height="19" viewBox="0 0 19 19" fill="none" xmlns="http://www.w3.org/2000/svg">
<path d="M9.19152 10.2166C8.63391 8.64883 7.46777 5.32509 7.26412 4.57255C7.09039 3.93058 6.62204 3.59403 6.31507 3.46406C6.23272 3.4292 6.14109 3.46656 6.0942 3.54233L1.44817 11.0492C1.38733 11.1475 1.42146 11.2763 1.52311 11.3321L12.7646 17.5026C12.8608 17.5554 12.9818 17.5227 13.0379 17.4288L17.4103 10.1081C17.4931 9.99041 17.5182 9.72344 16.9787 9.57612C16.9518 9.56878 16.9233 9.56774 16.8958 9.57227L10.137 10.687M1.86495 11.2584C2.14274 11.0651 2.93748 10.6784 3.89406 10.6784C4.82382 10.6784 8.08814 10.4045 9.73437 10.256C9.81803 10.2484 9.8973 10.2927 9.93467 10.3675L12.554 15.6084M12.554 15.6084C12.6989 15.8984 12.9453 16.6234 12.7714 17.2034M12.554 15.6084L10.4537 10.687M6.42321 3.27266L7.16044 1.16373C7.19555 1.0633 7.3029 1.00704 7.4061 1.03498L17.6537 3.80875M17.0592 9.4555L17.918 6.69778M9.79236 6.23817L13.8221 7.22307M15.168 2.50527L15.0185 2.21873C14.9813 2.14754 14.9053 2.10489 14.8248 2.11002L12.0645 2.28593L15.168 2.50527ZM15.168 2.50527L15.3539 2.86153M15.3539 2.86153L15.5398 3.2178M15.3539 2.86153L13.9894 2.67783M9.79236 7.94532L13.0955 8.66758" stroke="#1A1A1A" stroke-linecap="round"/>
</svg>
