<svg width="19" height="19" viewBox="0 0 19 19" fill="none" xmlns="http://www.w3.org/2000/svg">
<path d="M1.85421 6.10186C4.57874 8.69023 6.85713 12.1442 10.043 11.8058M17.0743 6.0612C14.5712 9.52005 12.5427 11.1613 10.793 11.6589M6.89185 4.93052C6.64941 4.30237 6.45546 2.97068 7.61917 2.66917C9.0738 2.29227 11.6195 2.66917 11.6195 3.79984V5.30741M10.793 11.6589C11.8094 11.6152 14.5498 10.4778 17.3801 6.27783M10.793 11.6589C10.5372 11.7316 10.2874 11.7799 10.043 11.8058M17.3801 6.27783C16.963 5.74144 16.2914 5.68431 15.6196 5.68431C13.8741 5.68431 7.13429 5.18173 3.98258 4.93044C0.346001 4.55355 1.80084 10.2071 1.43698 13.9759C1.21974 16.226 2.89161 15.8603 5.07356 15.8603C7.25551 15.8603 14.165 16.2372 16.347 15.8603C18.5289 15.4834 17.8016 10.5839 17.8016 7.94566C17.8016 7.43255 17.7371 7.03527 17.6239 6.72783M17.3801 6.27783C17.4758 6.4009 17.558 6.5492 17.6239 6.72783M10.043 11.8058C11.5969 11.7632 15.2886 10.6878 17.6239 6.72783" stroke="#1A1A1A" stroke-linecap="round"/>
</svg>
