<svg width="19" height="19" viewBox="0 0 19 19" fill="none" xmlns="http://www.w3.org/2000/svg">
<path d="M12.0173 14.5814H14.9637M14.9637 14.5814H17.9102M14.9637 14.5814V17.5278M14.9637 14.5814V11.635M7.58975 1.17887C6.45131 0.955779 2.89498 1.00042 1.87039 1.17889M8.01666 1.40199C8.07971 3.31297 8.1897 6.71742 8.15274 7.77781M7.85342 7.77783C7.42003 7.34261 3.38776 7.23377 2.52098 7.23377C1.6542 7.23377 1.43142 7.3731 1.54585 6.79854C1.63984 6.32661 1.5714 3.26192 1.41016 1.2978M17.3397 1.17887C16.2013 0.955779 12.645 1.00042 11.6204 1.17889M17.7667 1.40199C17.8297 3.31297 17.9397 6.71742 17.9027 7.77781M17.6034 7.77783C17.17 7.34261 13.1378 7.23377 12.271 7.23377C11.4042 7.23377 11.1814 7.3731 11.2959 6.79854C11.3898 6.32661 11.3214 3.26192 11.1602 1.2978M7.58975 10.9289C6.45131 10.7058 2.89498 10.7504 1.87039 10.9289M8.01666 11.152C8.07971 13.063 8.1897 16.4674 8.15274 17.5278M7.85342 17.5278C7.42003 17.0926 3.38776 16.9838 2.52098 16.9838C1.6542 16.9838 1.43142 17.1231 1.54585 16.5485C1.63984 16.0766 1.5714 13.0119 1.41016 11.0478" stroke="#1A1A1A" stroke-linecap="round"/>
</svg>
