<svg width="24" height="24" viewBox="0 0 24 24" fill="none" xmlns="http://www.w3.org/2000/svg">
<g clip-path="url(#clip0_1051_8641)">
<path fill-rule="evenodd" clip-rule="evenodd" d="M12.44 10.28L12.5 9.41999C12.5174 9.07909 12.4312 8.7409 12.2527 8.44995C12.0742 8.15899 11.8118 7.92891 11.5 7.78999C10.6902 7.53613 9.84851 7.3981 9.00001 7.37999C8.389 7.30457 7.77103 7.30457 7.16001 7.37999C6.68409 7.44471 6.23836 7.65017 5.88001 7.96999C5.6467 8.19723 5.48061 8.48443 5.40001 8.79999C5.29518 9.31968 5.2582 9.85078 5.29001 10.38C4.29001 10.38 3.23001 10.47 2.20001 10.47C2.1231 10.47 2.04934 10.5005 1.99495 10.5549C1.94057 10.6093 1.91001 10.6831 1.91001 10.76C1.91001 10.8369 1.94057 10.9107 1.99495 10.9651C2.04934 11.0194 2.1231 11.05 2.20001 11.05C4.33001 11.2 6.47001 11.3 8.62001 11.33H11.81H14.99C16.05 11.33 16.83 11.44 17.75 11.54C17.8982 12.1787 17.9454 12.8367 17.89 13.49C17.9211 14.2199 17.6745 14.9345 17.2 15.49C16.8487 15.6247 16.4762 15.6958 16.1 15.7L14.42 15.87L11.2 16.13V15.78C11.1471 15.4577 11.0061 15.1564 10.7925 14.9093C10.579 14.6622 10.3012 14.479 9.99001 14.38C9.67949 14.2823 9.34655 14.2817 9.03565 14.3781C8.72475 14.4746 8.45068 14.6637 8.25001 14.92C7.98634 15.2562 7.81719 15.6566 7.76002 16.08C7.76002 16.08 7.76002 16.16 7.76002 16.19C7.02001 16.13 5.45001 16.05 4.04001 15.88C3.54263 15.8321 3.04846 15.7553 2.56001 15.65C2.30407 15.6163 2.05846 15.5276 1.84001 15.39C1.40286 15.0497 1.11872 14.5497 1.05001 14C0.965128 13.0743 0.981895 12.1421 1.10001 11.22C1.1108 11.1799 1.11285 11.138 1.10602 11.097C1.0992 11.0561 1.08366 11.017 1.06046 10.9826C1.03726 10.9482 1.00694 10.9191 0.971552 10.8974C0.93616 10.8757 0.89652 10.8619 0.855314 10.8568C0.814108 10.8518 0.772296 10.8556 0.732705 10.8681C0.693113 10.8806 0.656665 10.9015 0.625825 10.9292C0.594985 10.957 0.570472 10.9911 0.553943 11.0292C0.537413 11.0673 0.529253 11.1085 0.530015 11.15C0.286036 12.1149 0.155156 13.1049 0.140015 14.1C0.148453 14.8752 0.456656 15.617 1.00001 16.17C1.65165 16.5793 2.40081 16.8072 3.17001 16.83C4.65555 16.912 6.14448 16.912 7.63001 16.83C7.64317 17.1348 7.67321 17.4386 7.72001 17.74C7.73002 17.816 7.76876 17.8853 7.82827 17.9337C7.88778 17.982 7.96355 18.0058 8.04001 18C8.11339 17.99 8.18016 17.9523 8.22664 17.8947C8.27312 17.837 8.2958 17.7638 8.29001 17.69C8.26579 17.2724 8.28591 16.8534 8.35001 16.44C8.39841 16.0891 8.56405 15.7649 8.82001 15.52C8.91242 15.4244 9.03156 15.3589 9.16182 15.3321C9.29208 15.3053 9.42739 15.3185 9.55001 15.37C9.67185 15.4133 9.77932 15.4894 9.86052 15.59C9.94171 15.6906 9.99346 15.8118 10.01 15.94C10.01 16.11 10.06 16.29 10.08 16.48C10.1099 16.7558 10.1099 17.0341 10.08 17.31C10.0446 17.5873 9.94902 17.8535 9.80001 18.09C9.66787 18.2575 9.50062 18.3941 9.31001 18.49C9.24167 18.5396 9.16315 18.5734 9.08014 18.589C8.99713 18.6046 8.91169 18.6015 8.83001 18.58C8.78337 18.5513 8.74265 18.514 8.71001 18.47C8.65454 18.3831 8.60445 18.293 8.56001 18.2C8.53061 18.1179 8.46994 18.0509 8.39125 18.0134C8.31256 17.9759 8.22224 17.9711 8.14001 18C8.10088 18.0172 8.0656 18.0422 8.03626 18.0733C8.00692 18.1044 7.98412 18.1411 7.9692 18.1812C7.95428 18.2213 7.94756 18.264 7.94941 18.3067C7.95127 18.3494 7.96168 18.3913 7.98001 18.43C8.02798 18.5845 8.09517 18.7323 8.18001 18.87C8.25899 18.989 8.36099 19.091 8.48001 19.17C8.63054 19.2557 8.79772 19.3081 8.97024 19.3236C9.14276 19.3391 9.3166 19.3174 9.48001 19.26C9.8884 19.1483 10.2584 18.927 10.55 18.62C10.8321 18.291 11.0249 17.895 11.11 17.47C11.1652 17.227 11.1953 16.9791 11.2 16.73C12.25 16.73 14.04 16.85 15.48 16.73C16.3097 16.7469 17.1318 16.5688 17.88 16.21C18.4252 15.5988 18.7276 14.809 18.73 13.99C19 10.27 18.16 10.56 12.44 10.28ZM7.92001 10.28L5.86001 10.36C5.89088 9.98845 5.95446 9.62036 6.05001 9.25999C6.10686 9.02872 6.23658 8.82187 6.42001 8.66999C6.67254 8.5141 6.96325 8.43104 7.26002 8.42999C7.798 8.40571 8.33708 8.4325 8.87001 8.50999H9.87001C10.2943 8.48508 10.7198 8.52898 11.13 8.63999C11.3123 8.69647 11.473 8.80708 11.5909 8.95712C11.7088 9.10716 11.7783 9.28953 11.79 9.47999V10.24C10.5 10.2 9.21001 10.2 7.92001 10.23V10.28Z" fill="black"/>
<path fill-rule="evenodd" clip-rule="evenodd" d="M17.06 17C17.018 16.9987 16.9761 17.0056 16.9368 17.0205C16.8974 17.0353 16.8614 17.0578 16.8308 17.0866C16.8001 17.1154 16.7755 17.1499 16.7582 17.1883C16.7409 17.2266 16.7313 17.268 16.73 17.31L16.53 20.97C16.5447 21.3158 16.5145 21.662 16.44 22C16.4092 22.1686 16.3251 22.3228 16.2 22.44C15.9037 22.6465 15.5594 22.7739 15.2 22.81C14.5847 22.9055 13.9627 22.9523 13.34 22.95H10.92C9.01002 22.88 7.09002 22.75 5.17002 22.74C4.42071 22.7855 3.66933 22.7855 2.92002 22.74C2.50099 22.73 2.09688 22.5824 1.77002 22.32C1.66174 22.205 1.59488 22.0572 1.58002 21.9C1.54713 21.5675 1.54713 21.2325 1.58002 20.9V18.26V17.14C1.58921 17.1019 1.59081 17.0624 1.58473 17.0237C1.57865 16.985 1.56501 16.9479 1.54458 16.9144C1.52415 16.881 1.49734 16.8519 1.46567 16.8289C1.434 16.8058 1.3981 16.7892 1.36002 16.78C1.32194 16.7708 1.28241 16.7692 1.24371 16.7753C1.20501 16.7814 1.16788 16.795 1.13446 16.8154C1.10103 16.8359 1.07195 16.8627 1.04888 16.8943C1.02582 16.926 1.00921 16.9619 1.00002 17L0.830019 20.83C0.780226 21.2179 0.766835 21.6096 0.790019 22C0.816361 22.3331 0.94965 22.6488 1.17002 22.9C1.50501 23.2397 1.93294 23.4728 2.40002 23.57C3.32079 23.7315 4.25564 23.7985 5.19002 23.77C7.09002 23.77 9.00002 23.96 10.91 24H13.41C14.0818 23.9777 14.7507 23.9007 15.41 23.77C15.9121 23.6776 16.3831 23.461 16.78 23.14C17.0329 22.8956 17.2011 22.5767 17.26 22.23C17.3269 21.8169 17.3503 21.398 17.33 20.98V17.35C17.3387 17.2681 17.3154 17.1861 17.2652 17.1209C17.2149 17.0557 17.1414 17.0124 17.06 17Z" fill="black"/>
<path fill-rule="evenodd" clip-rule="evenodd" d="M23.57 5.14998C23.29 4.50998 22.85 3.85998 22.57 3.33998C22.39 2.98998 22.22 2.50998 21.99 2.11998C21.8661 1.89929 21.7074 1.70006 21.52 1.52998C21.1944 1.28888 20.8183 1.12477 20.42 1.04998C19.66 0.879982 18.69 0.839982 18.22 0.739982C17.45 0.579982 16.7 0.339982 15.93 0.179982C15.5746 0.0949822 15.2138 0.0348366 14.85 -1.81012e-05C14.5374 -0.0308371 14.2226 -0.0308371 13.91 -1.80993e-05C13.7067 0.0203616 13.5129 0.0964919 13.35 0.219982C13.1633 0.37423 13.039 0.590978 13 0.829982C12.88 1.32998 12.87 2.14998 12.8 2.41998C12.652 2.93033 12.4648 3.42847 12.24 3.90998C11.88 4.64998 11.46 5.35998 11.04 6.04998C11.0195 6.08078 11.0052 6.11535 10.9981 6.15168C10.991 6.18802 10.9912 6.22541 10.9986 6.26168C11.0061 6.29795 11.0206 6.33238 11.0415 6.36299C11.0623 6.39359 11.089 6.41976 11.12 6.43998C11.1838 6.48201 11.2616 6.49718 11.3365 6.4822C11.4114 6.46722 11.4773 6.4233 11.52 6.35998C11.98 5.66998 12.45 4.95998 12.85 4.20998C13.1197 3.70633 13.3471 3.1812 13.53 2.63998L13.89 0.919982H14.76C15.0776 0.954856 15.392 1.01505 15.7 1.09998C16.47 1.28998 17.22 1.54998 17.98 1.73998C18.39 1.82998 19.18 1.87998 19.88 2.00998C20.0765 2.04254 20.2703 2.08933 20.46 2.14998C20.37 2.35998 20.28 2.56998 20.18 2.76998C20 3.14998 19.81 3.50998 19.6 3.86998C19.39 4.22998 19.28 4.38998 19.15 4.64998C19.0229 4.89529 18.948 5.16428 18.93 5.43998C18.9202 5.7221 19.0085 5.99888 19.1799 6.22317C19.3514 6.44746 19.5952 6.60537 19.87 6.66998L20.46 6.79998H21.54L22.82 6.61998C22.82 6.69998 22.82 6.78998 22.75 6.87998C22.6 7.32998 22.38 7.80998 22.28 8.12998C21.8995 9.44696 21.4387 10.7394 20.9 12C20.5366 12.8175 20.1121 13.6064 19.63 14.36C19.6064 14.3954 19.59 14.4352 19.5817 14.477C19.5734 14.5188 19.5735 14.5618 19.5818 14.6036C19.5902 14.6454 19.6067 14.6851 19.6304 14.7205C19.6541 14.756 19.6846 14.7863 19.72 14.81C19.7555 14.8336 19.7952 14.85 19.837 14.8583C19.8789 14.8666 19.9219 14.8665 19.9637 14.8582C20.0054 14.8498 20.0452 14.8333 20.0806 14.8096C20.116 14.7859 20.1464 14.7554 20.17 14.72C20.7025 13.9567 21.1708 13.1506 21.57 12.31C22.1734 11.0629 22.701 9.78059 23.15 8.46998C23.28 8.09998 23.58 7.52998 23.74 7.01998C23.8384 6.74453 23.8792 6.45184 23.86 6.15998C23.8161 5.81035 23.7183 5.46964 23.57 5.14998ZM21.51 5.99998L20.62 5.89998L20.27 5.76998C20.11 5.69998 20.02 5.64998 20.02 5.54998C20.0396 5.35718 20.0974 5.17022 20.19 4.99998C20.3 4.76998 20.41 4.51998 20.5 4.28998C20.59 4.05998 20.73 3.63998 20.83 3.28998C20.93 2.93998 20.96 2.82998 21.02 2.59998C21.02 2.64998 21.09 2.69998 21.12 2.75998C21.3 3.11998 21.46 3.51998 21.62 3.75998C21.78 3.99998 22.23 4.75998 22.51 5.23998C22.6147 5.43306 22.7049 5.63361 22.78 5.83998L21.51 5.99998Z" fill="black"/>
<path fill-rule="evenodd" clip-rule="evenodd" d="M6.41002 6.99997C6.39774 7.03605 6.39295 7.07425 6.39595 7.11224C6.39894 7.15023 6.40967 7.18721 6.42745 7.22091C6.44524 7.25462 6.46972 7.28433 6.49939 7.30824C6.52907 7.33215 6.56331 7.34976 6.60002 7.35997C6.6392 7.38176 6.68318 7.39346 6.72801 7.394C6.77283 7.39454 6.81709 7.38392 6.85678 7.36308C6.89647 7.34224 6.93035 7.31185 6.95536 7.27464C6.98036 7.23744 6.99571 7.19459 7.00002 7.14997C7.26779 6.47536 7.4655 5.77502 7.59002 5.05997C7.6864 4.35017 7.74647 3.6359 7.77002 2.91997C7.77002 2.76997 7.61002 2.27997 7.59002 1.97997C8.69863 2.0342 9.80354 2.14769 10.9 2.31997C10.9848 2.33787 11.0733 2.32169 11.1463 2.27491C11.2192 2.22813 11.2709 2.15451 11.29 2.06997C11.2971 2.02583 11.2951 1.98072 11.2841 1.93737C11.2732 1.89402 11.2536 1.85335 11.2265 1.81781C11.1994 1.78228 11.1653 1.75262 11.1264 1.73065C11.0874 1.70867 11.0445 1.69483 11 1.68997C9.86903 1.37284 8.72038 1.12241 7.56002 0.939972C7.40128 0.915383 7.23888 0.931885 7.08832 0.987906C6.93777 1.04393 6.80408 1.13759 6.70002 1.25997C6.62496 1.41622 6.58405 1.58667 6.58002 1.75997C6.58002 2.12997 6.64002 2.67997 6.58002 2.89997C6.63574 3.72236 6.63574 4.54758 6.58002 5.36997C6.56397 5.91678 6.50714 6.46162 6.41002 6.99997Z" fill="black"/>
<path fill-rule="evenodd" clip-rule="evenodd" d="M15.82 4.40999C16.0843 4.52474 16.3547 4.62489 16.63 4.70999C17.05 4.84999 17.47 4.93999 17.87 5.08999C17.9412 5.13329 18.0261 5.14808 18.1077 5.13138C18.1893 5.11469 18.2616 5.06775 18.31 4.99999C18.331 4.9627 18.3442 4.92159 18.349 4.87909C18.3538 4.83659 18.35 4.79355 18.3379 4.75253C18.3258 4.71151 18.3056 4.67334 18.2785 4.64027C18.2513 4.6072 18.2179 4.5799 18.18 4.55999C17.8298 4.28485 17.4587 4.03744 17.07 3.81999C16.9061 3.72467 16.7357 3.64113 16.56 3.56999C16.38 3.50332 16.2 3.44332 16.02 3.38999C15.58 3.27999 15.15 3.23999 14.72 3.16999C14.6522 3.15788 14.5824 3.17027 14.5229 3.20494C14.4635 3.2396 14.4183 3.29429 14.3954 3.35921C14.3726 3.42414 14.3736 3.49508 14.3982 3.55934C14.4229 3.6236 14.4696 3.677 14.53 3.70999C15 3.90999 15.36 4.18999 15.82 4.40999Z" fill="black"/>
<path fill-rule="evenodd" clip-rule="evenodd" d="M13.48 5.79997C13.4737 5.87349 13.4946 5.94677 13.5389 6.0058C13.5832 6.06484 13.6477 6.10548 13.72 6.11997C14.2067 6.28397 14.684 6.47425 15.15 6.68997C15.4771 6.82102 15.8109 6.93451 16.15 7.02997C16.71 7.20997 17.28 7.32997 17.87 7.45997C17.9093 7.47578 17.9514 7.48338 17.9937 7.48229C18.0361 7.4812 18.0777 7.47146 18.1161 7.45366C18.1545 7.43586 18.1889 7.41037 18.2171 7.37878C18.2453 7.34719 18.2667 7.31016 18.28 7.26997C18.296 7.22999 18.3037 7.18721 18.3027 7.14419C18.3017 7.10116 18.2921 7.05878 18.2743 7.01957C18.2566 6.98036 18.2311 6.94513 18.1995 6.91599C18.1678 6.88685 18.1306 6.86439 18.09 6.84997C17.6 6.60997 17.16 6.33997 16.69 6.10997C16.3684 5.9545 16.0338 5.82735 15.69 5.72997C15.0867 5.59297 14.4685 5.5325 13.85 5.54997C13.8091 5.536 13.7655 5.53171 13.7226 5.53744C13.6797 5.54316 13.6387 5.55875 13.6029 5.58297C13.567 5.60719 13.5373 5.63939 13.516 5.67704C13.4946 5.71469 13.4823 5.75677 13.48 5.79997Z" fill="black"/>
</g>
<defs>
<clipPath id="clip0_1051_8641">
<rect width="24" height="24" fill="white"/>
</clipPath>
</defs>
</svg>
