<svg width="18" height="18" viewBox="0 0 18 18" fill="none" xmlns="http://www.w3.org/2000/svg">
<path d="M15.1025 3.86811C14.9157 1.47514 13.0369 0.608334 11.8393 0.57331C11.7911 0.571898 11.7456 0.592734 11.7133 0.628677L3.2827 10.0309C3.26671 10.0488 3.25467 10.0698 3.24737 10.0926L1.91923 14.2441M15.0231 3.94852L6.7077 13.7993C6.68733 13.8235 6.66064 13.8414 6.63063 13.8513L3.07493 15.013M6.597 13.8362C6.38492 12.8447 5.45233 10.894 3.41737 10.3795M2.06648 15.3425L1.82549 15.4212C1.69374 15.4642 1.56866 15.3399 1.61089 15.2079L1.66063 15.0524M2.06648 15.3425C2.10739 15.3377 2.0835 15.2729 1.66063 15.0524M2.06648 15.3425L2.47977 15.2074M1.66063 15.0524L1.74882 14.7768M2.47977 15.2074C2.31585 15.0639 1.94017 14.7768 1.74882 14.7768M2.47977 15.2074L2.84503 15.0881M1.74882 14.7768L1.84629 14.4721M2.84503 15.0881C2.62434 14.9058 2.11563 14.5274 1.84629 14.4721M2.84503 15.0881L3.07493 15.013M1.84629 14.4721L1.91923 14.2441M3.07493 15.013C2.95209 14.8283 2.54897 14.4161 1.91923 14.2441" stroke="#1A1A1A" stroke-linecap="round"/>
</svg>
