<svg width="19" height="19" viewBox="0 0 19 19" fill="none" xmlns="http://www.w3.org/2000/svg">
<path d="M12.9591 6.25514C14.2045 5.11877 16.6275 3.25514 16.3558 4.8915C16.0161 6.93696 16.3558 10.687 16.3558 11.0279C16.3558 11.3688 16.6955 12.0506 15.6765 11.3688C14.6574 10.687 13.6384 10.0052 13.2987 9.66427M1.41985 5.8637C1.33172 5.1683 1.80655 3.88997 4.41381 3.88997C7.77135 3.88997 11.5017 3.55079 11.5017 5.58589C11.5017 7.62098 12.2478 13.7263 9.63641 13.3871C7.54728 13.1157 4.53793 13.274 3.2944 13.3871C2.67271 13.5001 1.42934 13.3192 1.42934 11.6912V5.98609C1.42934 5.94471 1.42505 5.90474 1.41985 5.8637Z" stroke="#1A1A1A" stroke-linecap="round"/>
</svg>
