<svg width="102" height="40" viewBox="0 0 102 40" fill="none" xmlns="http://www.w3.org/2000/svg">
<g clip-path="url(#clip0_718_46103)">
<mask id="mask0_718_46103" style="mask-type:luminance" maskUnits="userSpaceOnUse" x="0" y="0" width="102" height="40">
<path d="M102 0H0V40H102V0Z" fill="white"/>
</mask>
<g mask="url(#mask0_718_46103)">
<mask id="mask1_718_46103" style="mask-type:luminance" maskUnits="userSpaceOnUse" x="0" y="0" width="102" height="40">
<path d="M101.429 0H0V40H101.429V0Z" fill="white"/>
</mask>
<g mask="url(#mask1_718_46103)">
<path d="M41.2824 4.54933V0.469443H26.6909V20.985H41.2704V16.9341H31.2066V12.6784H40.2671V8.77433H31.2066V4.54933H41.2807H41.2824ZM58.7671 0.469443V13.6753L48.8388 0.469443H44.613V20.985H49.1269V8.12905L58.7671 20.985H63.2828V0.469443H58.7671ZM71.7653 16.9051V0.469443H67.2496V20.9833H80.3919V16.9034H71.7653V16.9051ZM18.2084 0.469443L11.4151 13.6275L4.62194 0.469443H0.0874023V20.985H4.60136V10.3039L10.1169 20.985H12.7134L18.2084 10.3414V20.985H22.724V0.469443H18.2084ZM90.9788 17.1833C87.3892 17.1833 84.4805 14.2335 84.4805 10.5958C84.4805 6.95801 87.3892 4.00819 90.9788 4.00819C94.5684 4.00819 97.477 6.95801 97.477 10.5958C97.477 14.2335 94.5666 17.1833 90.9788 17.1833ZM90.9788 0C85.206 0 80.5274 4.74394 80.5274 10.5958C80.5274 16.4476 85.206 21.1915 90.9788 21.1915C96.7516 21.1915 101.429 16.4476 101.429 10.5958C101.429 4.74394 96.7499 0 90.9788 0Z" fill="#1A1A1A"/>
<path d="M7.46211 30.7031L4.5054 38.3781H4.4488L1.40634 30.7031H0.133789L3.74907 39.8257H5.09023L8.71923 30.7031H7.46211Z" fill="#1A1A1A"/>
<path d="M21.1017 39.8257H14.6892V30.7031H20.9748V31.7461H15.8897V34.6123H19.9321V35.6417H15.8897V38.7827H21.1017V39.8257Z" fill="#1A1A1A"/>
<path d="M33.6574 37.6833V30.7031H34.8151V39.8257H33.8289L28.6015 32.4989V39.8257H27.4438V30.7031H28.7301L33.6574 37.6833Z" fill="#1A1A1A"/>
<path d="M44.1843 39.8257V31.7461H40.9138V30.7031H48.7394V31.7461H45.4123V39.8257H44.1843Z" fill="#1A1A1A"/>
<path d="M54.4385 36.3364V30.7031H55.6664V36.3501C55.6664 38.0879 56.5085 38.9431 58.0812 38.9431C59.6539 38.9431 60.5234 38.0879 60.5234 36.3654V30.7031H61.7376V36.3364C61.7376 39.0012 60.1084 39.9998 58.0812 39.9998C56.054 39.9998 54.4385 39.0012 54.4385 36.3364Z" fill="#1A1A1A"/>
<path d="M71.8649 35.1486C73.393 35.1486 74.079 34.5699 74.079 33.4398C74.079 32.3968 73.393 31.7311 71.8649 31.7311H69.493V35.1486H71.8649ZM74.1648 39.826C73.9933 39.5802 73.8646 38.9144 73.7926 37.8424C73.736 36.8284 73.2644 36.149 72.0364 36.149H69.4947V39.8277H68.2805V30.7051H71.9369C74.2231 30.7051 75.3224 31.7772 75.3224 33.3989C75.3224 34.8038 74.3791 35.5412 73.2798 35.6727C74.3791 35.8895 74.9074 36.5706 74.9931 37.6426C75.108 38.9759 75.1509 39.4965 75.451 39.8294H74.1648V39.826Z" fill="#1A1A1A"/>
<path d="M88.1764 39.8257H81.7622V30.7031H88.0478V31.7461H82.9627V34.6123H87.0051V35.6417H82.9627V38.7827H88.1764V39.8257Z" fill="#1A1A1A"/>
<path d="M94.6473 36.4955C94.7194 38.1616 95.8462 39.0151 97.3605 39.0151C98.7034 39.0151 99.5455 38.4364 99.5455 37.4361C99.5455 36.5962 99.0035 36.1899 97.8322 35.9595L96.0468 35.6112C94.7194 35.35 93.8036 34.6262 93.8036 33.2077C93.8036 31.615 95.0469 30.5293 97.0175 30.5293C99.2745 30.5293 100.574 31.7464 100.588 33.8017L99.4597 33.8598C99.4168 32.3541 98.5165 31.4989 97.0312 31.4989C95.7312 31.4989 95.0024 32.122 95.0024 33.1343C95.0024 34.0322 95.5872 34.3224 96.6299 34.5238L98.2575 34.843C99.9005 35.1623 100.729 35.8861 100.729 37.349C100.729 39.0288 99.3002 39.9984 97.3571 39.9984C95.143 39.9984 93.5291 38.7676 93.5291 36.5672L94.6439 36.4955H94.6473Z" fill="#1A1A1A"/>
<path d="M100.811 25.4473H0V26.2274H100.811V25.4473Z" fill="#1A1A1A"/>
</g>
</g>
</g>
<defs>
<clipPath id="clip0_718_46103">
<rect width="102" height="40" fill="white"/>
</clipPath>
</defs>
</svg>
