<svg width="160" height="31" viewBox="0 0 160 31" fill="none" xmlns="http://www.w3.org/2000/svg">
<path d="M25.5402 13.9241C25.5753 14.4834 25.6117 15.0414 25.6117 15.5658C25.6117 18.3584 24.9093 20.7312 23.4693 22.825C22.2787 24.5354 20.6882 25.9337 18.834 26.9C16.9799 27.8662 14.9174 28.3715 12.8234 28.3727C9.13431 28.3727 6.00715 27.0125 3.54862 24.4292C1.19285 21.9518 0 18.8802 0 15.2158C0 11.7954 1.33463 8.65538 3.79317 6.24642C6.25301 3.83875 9.34504 2.58325 12.8924 2.58325C18.2335 2.58325 22.9047 5.82921 24.908 11.1341H17.9512C16.4059 9.52983 14.7889 8.72642 12.8221 8.72642C9.16943 8.72642 6.28813 11.6921 6.28813 15.2506C6.28813 19.1941 9.37886 22.2295 12.8221 22.2295C15.1415 22.2295 17.2137 21.0438 18.4429 18.8789H11.3119V13.9241H25.5402ZM39.4901 19.3685L45.6026 27.8831H38.0488L33.2709 19.8916V27.8831L27.1584 27.8844V3.0715H35.4498C38.0839 3.0715 40.0872 3.24588 41.773 4.43421C43.987 5.96871 45.146 8.30792 45.146 11.3782C45.1473 15.3914 43.0387 18.3907 39.4901 19.3685ZM38.962 11.5177C38.962 9.45879 37.6624 8.6205 34.9567 8.6205H33.2709V14.5183H34.465C37.4868 14.5183 38.962 13.7497 38.962 11.5177ZM153.858 3.0715V16.8562L144.687 3.0715H139.173V27.8844H145.284V14.0662L154.594 27.8857H159.969V3.0715H153.858ZM134.11 6.28388C136.64 8.76129 137.976 11.9375 137.976 15.323C137.976 18.8815 136.71 22.0577 134.357 24.4667C131.932 26.979 128.628 28.3404 125.151 28.3404C121.462 28.3404 118.3 27.0151 115.841 24.4318C113.487 21.9544 112.291 18.8841 112.291 15.2183C112.291 11.7967 113.626 8.65538 116.085 6.24771C118.544 3.84004 121.635 2.61942 125.185 2.61942C128.526 2.61942 131.687 3.91108 134.11 6.28388ZM131.651 15.2868C131.651 11.6572 128.735 8.76129 125.221 8.76129C121.497 8.76129 118.581 11.6572 118.581 15.2868C118.581 19.1954 121.708 22.1959 125.153 22.1959C128.735 22.1959 131.651 19.3336 131.651 15.2868ZM67.9128 6.28388C70.4429 8.76129 71.7789 11.9375 71.7789 15.323C71.7789 18.8815 70.5132 22.0577 68.16 24.4667C65.7353 26.979 62.4325 28.3404 58.9541 28.3404C55.265 28.3404 52.1028 27.0151 49.6442 24.4318C47.2898 21.9544 46.0956 18.8841 46.0956 15.2183C46.0956 11.7967 47.4302 8.65538 49.8901 6.24771C52.3499 3.84004 55.4407 2.61942 58.9906 2.61942C62.3272 2.61942 65.4881 3.91108 67.9128 6.28388ZM65.453 15.2868C65.453 11.6572 62.5366 8.76129 59.0231 8.76129C55.2989 8.76129 52.3824 11.6572 52.3824 15.2868C52.3824 19.1954 55.5096 22.1959 58.9528 22.1959C62.5379 22.1959 65.453 19.3336 65.453 15.2868ZM111.486 11.4131C111.486 14.6242 110.01 17.276 107.516 18.7756C105.934 19.7172 103.966 19.8916 101.366 19.8916H99.6085V27.8831L93.4959 27.8844V3.0715H101.787C104.42 3.0715 106.423 3.24588 108.111 4.43421C110.326 5.96871 111.486 8.30792 111.486 11.4131ZM105.301 11.5177C105.301 9.45879 104.001 8.6205 101.296 8.6205H99.68V14.5183H100.803C103.826 14.5183 105.301 13.7497 105.301 11.5177ZM85.6208 18.3571C85.6208 21.1833 84.6023 22.5795 82.4585 22.5795C80.3863 22.5795 79.507 21.1484 79.507 18.3571V3.0715H73.3581V18.6012C73.3581 24.8141 76.7649 28.2668 82.4221 28.2668C88.0078 28.2668 91.732 24.6733 91.732 18.6012V3.0715H85.6208V18.3571Z" fill="#1A1A1A"/>
</svg>
