<svg width="198" height="46" viewBox="0 0 198 46" fill="none" xmlns="http://www.w3.org/2000/svg">
<g clip-path="url(#clip0_720_46244)">
<path d="M22.7914 0C10.2441 0 0.0343761 10.2607 0 22.9133V23.0174C0 35.7046 10.2441 46 22.7914 46C35.3731 46 45.5827 35.67 45.5827 23.0174C45.5827 10.2954 35.3731 0 22.7914 0ZM17.085 2.18388C18.8037 1.69856 20.6256 1.42125 22.5163 1.38659C22.6194 1.38659 22.6882 1.38659 22.7914 1.38659C22.8945 1.38659 22.9976 1.38659 23.0664 1.38659C25.9883 1.49059 28.4978 3.36247 29.5634 5.92766C29.8041 6.48229 29.9416 7.03692 30.0447 7.66088C30.1135 8.00754 30.1135 8.38885 30.1135 8.77016C30.1135 10.4341 29.5634 11.9593 28.6697 13.2072C27.7072 12.6179 26.6415 12.1673 25.5414 11.89C26.4008 11.1274 26.9165 10.0181 26.9165 8.77016C26.9165 7.86887 26.6415 7.03692 26.1259 6.34363C25.3696 5.3037 24.1664 4.61039 22.7914 4.61039C20.385 4.61039 18.1161 5.06104 16.0193 5.92766C15.4349 6.17031 14.8849 6.44763 14.3348 6.72494C11.1035 8.45818 8.42215 11.1274 6.70334 14.4206C4.91578 14.8364 3.33448 15.807 2.16569 17.159C4.19388 9.91409 9.86594 4.19442 17.085 2.18388ZM31.4886 8.45818C33.8261 9.87942 35.7856 11.8553 37.1949 14.2125C37.0918 14.2125 36.9887 14.2125 36.8855 14.2125C34.9605 14.2125 33.173 14.8364 31.7291 15.9458C31.1792 15.2178 30.526 14.5591 29.8041 14.0045C30.8698 12.5486 31.5229 10.746 31.5229 8.80482C31.4886 8.66617 31.4886 8.56217 31.4886 8.45818ZM39.2919 19.6201C38.6044 19.1348 37.7794 18.8229 36.8855 18.8229C35.648 18.8229 34.548 19.3429 33.7918 20.2095C33.1386 20.9375 32.7605 21.9081 32.7605 22.9826C32.7605 24.7852 32.2791 26.4838 31.4541 27.9397C31.2135 28.3557 30.9729 28.7371 30.6635 29.1183C30.1478 29.8116 29.5291 30.401 28.8759 30.9209C28.0509 30.0889 27.0541 29.4302 25.9196 29.0144C27.1227 28.3903 28.1197 27.3851 28.7385 26.1718C29.2541 25.2359 29.5291 24.1266 29.5291 22.9826C29.5291 21.076 30.251 19.3429 31.4198 18.0257C31.7291 17.679 32.0729 17.367 32.4511 17.0551C33.6886 16.1191 35.2011 15.599 36.8512 15.599C37.2293 15.599 37.6075 15.6338 37.9512 15.6685C38.57 16.9164 39.0168 18.2335 39.2919 19.6201ZM39.6356 22.844C39.6356 22.8787 39.6356 22.948 39.6356 22.9826C39.6356 23.0174 39.6356 23.0867 39.6356 23.1213C39.567 24.5772 38.3637 25.7558 36.8855 25.7558C35.3731 25.7558 34.1355 24.5079 34.1355 22.9826C34.1355 21.4574 35.3731 20.2095 36.8855 20.2095C38.3637 20.2095 39.567 21.3881 39.6356 22.844ZM29.8041 31.9954C30.526 31.4409 31.1792 30.7822 31.7291 30.0542C33.173 31.1289 34.9605 31.7528 36.8855 31.7528C36.9887 31.7528 37.0918 31.7528 37.1949 31.7528C35.7856 34.11 33.8261 36.0858 31.4886 37.5071C31.4886 37.4032 31.4886 37.2992 31.4886 37.1952C31.4886 35.254 30.8698 33.4513 29.8041 31.9954ZM25.5414 34.11C24.8195 33.4513 23.857 33.0701 22.8257 33.0701C21.0381 33.0701 19.3537 32.5848 17.91 31.7528C17.4975 31.5101 17.1193 31.2675 16.7411 30.9556C16.0537 30.4356 15.4349 29.8116 14.9192 29.1183C15.7443 28.2864 16.3974 27.281 16.8442 26.1718C17.463 27.3851 18.46 28.3903 19.6976 29.049C20.6256 29.5689 21.7257 29.8462 22.8602 29.8462C24.7509 29.8462 26.4696 30.5742 27.7758 31.7528C28.1197 32.0649 28.4291 32.4115 28.7385 32.7928C29.6665 34.0407 30.1822 35.5659 30.1822 37.2298C30.1822 37.6112 30.1479 37.9578 30.1135 38.3391C28.876 38.9284 27.5696 39.379 26.1945 39.6563C26.6759 38.963 26.9853 38.1311 26.9853 37.2298C26.9165 35.9819 26.3665 34.8726 25.5414 34.11ZM25.5414 37.2298C25.5414 38.6511 24.4758 39.8297 23.1008 39.9684C22.9976 39.9684 22.9288 39.9684 22.8257 39.9684C22.7226 39.9684 22.6194 39.9684 22.5508 39.9684C21.1757 39.8297 20.11 38.6511 20.11 37.2298C20.11 35.7046 21.3475 34.4567 22.8602 34.4567C24.3039 34.4567 25.5414 35.7046 25.5414 37.2298ZM14.0942 37.5071C11.7566 36.0858 9.76281 34.0754 8.35339 31.7182C8.45652 31.7182 8.59403 31.7182 8.69716 31.7182C10.6222 31.7182 12.4098 31.0941 13.8192 30.0196C14.4036 30.7475 15.0567 31.4062 15.7786 31.9954C14.713 33.4513 14.0598 35.254 14.0598 37.1952C14.0942 37.3339 14.0942 37.4378 14.0942 37.5071ZM8.69716 27.1078C9.90033 27.1078 11.0004 26.5879 11.7566 25.7212C11.791 25.6865 11.8254 25.6173 11.8598 25.5825C11.9285 25.4785 11.9973 25.4092 12.066 25.3052C12.1004 25.2705 12.1348 25.2012 12.1348 25.1666C12.1692 25.1318 12.1692 25.0972 12.2035 25.0625C12.2379 24.9932 12.2723 24.924 12.341 24.8545C12.341 24.8545 12.341 24.8545 12.341 24.8199C12.3754 24.7852 12.3754 24.7159 12.4098 24.6813C12.4442 24.6119 12.4442 24.5772 12.4785 24.5079C12.4785 24.4733 12.5129 24.4387 12.5129 24.4039C12.5473 24.3692 12.5473 24.2999 12.5473 24.2653C12.5817 24.196 12.5817 24.0919 12.616 24.0226C12.616 24.0226 12.616 24.0226 12.616 23.988C12.616 23.9532 12.6504 23.9186 12.6504 23.8493C12.6504 23.8146 12.6848 23.78 12.6848 23.7453V23.7106C12.6848 23.6759 12.6848 23.6413 12.6848 23.6066C12.6848 23.572 12.6848 23.5373 12.6848 23.5027C12.6848 23.4333 12.6848 23.364 12.7192 23.2947C12.7192 23.26 12.7192 23.2253 12.7192 23.1906C12.7192 23.1213 12.7192 23.0867 12.7192 23.0174V22.9826C12.7192 21.1801 13.2004 19.4816 14.0255 18.0257C14.2661 17.6097 14.5067 17.2283 14.8161 16.8471C15.3318 16.1884 15.9162 15.5644 16.6037 15.0444C17.4287 15.8765 18.4255 16.535 19.56 16.9856C18.3569 17.6097 17.3599 18.6149 16.7411 19.8282C16.2255 20.7641 15.9505 21.8388 15.9505 22.9826V23.0174C15.9505 24.924 15.1943 26.6571 14.0255 27.9397C13.7161 28.2864 13.3723 28.5983 12.9942 28.8756C11.7566 29.777 10.2785 30.3315 8.6284 30.3315C8.25026 30.3315 7.87212 30.2969 7.49399 30.2623C6.9096 29.0144 6.46271 27.697 6.1877 26.3104C6.97835 26.8305 7.80338 27.1078 8.69716 27.1078ZM5.94707 22.9826C5.94707 22.9133 5.94707 22.8787 5.94707 22.8094C6.01582 21.3535 7.21898 20.1749 8.69716 20.1749C10.2097 20.1749 11.4472 21.4228 11.4472 22.948V22.9826C11.4129 24.4733 10.2097 25.6865 8.69716 25.6865C7.18461 25.7212 5.98144 24.5079 5.94707 22.9826ZM15.7786 14.0045C15.0567 14.5591 14.4379 15.2178 13.8879 15.9111C12.4442 14.8364 10.6566 14.1778 8.69716 14.1778C8.59403 14.1778 8.4909 14.1778 8.42215 14.1778C9.83157 11.8553 11.791 9.87942 14.0942 8.45818C14.0942 8.56217 14.0942 8.66617 14.0942 8.77016C14.0942 10.7114 14.713 12.5139 15.7786 14.0045ZM20.0756 11.89C20.7975 12.5486 21.7601 12.9299 22.8257 12.9299C24.6133 12.9299 26.2977 13.4152 27.7415 14.2472C28.154 14.4899 28.5322 14.7325 28.9103 15.0444C29.5979 15.5644 30.1822 16.1884 30.6978 16.8471C29.8728 17.6789 29.2197 18.6842 28.8071 19.8282C28.1884 18.6149 27.1915 17.6097 25.9883 16.9856C25.0602 16.4657 23.9601 16.1884 22.8257 16.1884C20.935 16.1884 19.2163 15.4605 17.91 14.2818C17.5662 13.9699 17.2568 13.6232 16.9474 13.2419C16.0193 11.994 15.5037 10.4687 15.5037 8.80482C15.5037 8.42351 15.538 8.04219 15.5723 7.69556C16.8099 7.10625 18.1161 6.65561 19.4913 6.3783C19.01 7.07159 18.7006 7.90355 18.7006 8.80482C18.6663 10.0181 19.2163 11.1274 20.0756 11.89ZM20.0413 8.77016C20.0413 7.27957 21.2101 6.06632 22.6539 5.99699C22.6882 5.99699 22.757 5.99699 22.7914 5.99699C22.8257 5.99699 22.8945 5.99699 22.9288 5.99699C24.3727 6.06632 25.5414 7.27957 25.5414 8.77016C25.5414 10.2954 24.3039 11.5433 22.7914 11.5433C21.2789 11.5433 20.0413 10.2954 20.0413 8.77016ZM28.1884 22.9826C28.1884 25.9985 25.782 28.425 22.7914 28.425C19.8007 28.425 17.3944 25.9985 17.3944 22.9826V22.948C17.4287 19.9669 19.835 17.5404 22.7914 17.5404C25.7477 17.5404 28.1884 20.0015 28.1884 22.9826ZM2.13132 28.7023C1.65005 26.9691 1.40942 25.1666 1.37504 23.2947C1.37504 23.1906 1.37504 23.1213 1.37504 23.0174V22.948C1.37504 22.844 1.37504 22.7747 1.37504 22.6707C1.51255 19.7242 3.33448 17.2283 5.91269 16.1538C6.46271 15.9458 7.01273 15.7724 7.6315 15.6685C7.97525 15.599 8.35339 15.599 8.69716 15.599C10.3472 15.599 11.8598 16.1538 13.0973 17.0897C12.5129 18.0603 12.066 19.1349 11.791 20.2442C11.0347 19.3775 9.9347 18.8576 8.69716 18.8576C7.80338 18.8576 6.97835 19.1348 6.29083 19.6201C5.25955 20.3829 4.57202 21.5961 4.57202 22.948V23.0174C4.57202 25.4093 5.01892 27.697 5.84393 29.7769C6.08457 30.3662 6.3252 30.9209 6.6346 31.4755C8.35339 34.8033 11.0347 37.5071 14.3004 39.2404C14.713 41.0429 15.7099 42.6375 17.0505 43.8162C9.83157 41.8055 4.12514 36.0166 2.13132 28.7023ZM28.5322 43.8162C26.8133 44.3015 24.9914 44.5787 23.1008 44.5787C22.9976 44.5787 22.9288 44.5787 22.8257 44.5787C22.7226 44.5787 22.6194 44.5787 22.5508 44.5787C19.6288 44.4748 17.1193 42.6029 16.0537 40.0377C15.8131 39.4831 15.6755 38.9284 15.5723 38.3045C15.5037 37.9578 15.5037 37.5765 15.5037 37.1952C15.5037 35.5313 16.0537 34.0061 16.9474 32.758C17.91 33.3474 18.9757 33.7981 20.0756 34.0754C19.2163 34.838 18.7006 35.9473 18.7006 37.1952C18.7006 38.0965 18.9757 38.9284 19.4913 39.6217C20.1788 40.5923 21.2444 41.2509 22.482 41.355H22.5163C22.6194 41.355 22.7226 41.355 22.8257 41.355C22.9288 41.355 23.032 41.355 23.1351 41.355H23.1696C25.4383 41.3202 27.604 40.8349 29.5979 40.0377C30.1822 39.795 30.7323 39.5524 31.2823 39.2404C34.548 37.5071 37.2293 34.8033 38.9482 31.5101C40.7357 31.0941 42.317 30.0889 43.4515 28.7371C41.4576 36.0512 35.7511 41.8055 28.5322 43.8162ZM44.2077 22.9826C44.2077 23.0867 44.2077 23.156 44.2077 23.26C44.1046 26.2065 42.2482 28.7023 39.7044 29.7769C39.1544 30.0196 38.6044 30.1583 37.9857 30.2623C37.6418 30.3315 37.2637 30.3315 36.8855 30.3315C35.2355 30.3315 33.723 29.777 32.5199 28.8756C33.1042 27.905 33.551 26.8305 33.8261 25.7212C34.5823 26.5879 35.6824 27.1078 36.92 27.1078C37.8137 27.1078 38.6388 26.7957 39.3262 26.3104C40.3575 25.5478 41.0451 24.3346 41.0451 22.948C41.0451 20.5561 40.5983 18.2337 39.7387 16.1191C39.4982 15.5297 39.2231 14.9752 38.9482 14.4206C37.2293 11.1274 34.548 8.42351 31.2823 6.69028C30.8698 4.88772 29.8728 3.29314 28.5322 2.11455C35.7511 4.12509 41.4576 9.87943 43.4515 17.159C43.9326 18.8922 44.2077 20.7295 44.2077 22.636C44.2077 22.7747 44.2077 22.8787 44.2077 22.9826Z" fill="#1A1A1A"/>
<path fill-rule="evenodd" clip-rule="evenodd" d="M63.0295 14.6223H67.5194L71.7131 26.1913H71.7814L75.9295 14.6223H80.4421V30.9063H77.5932V17.8193H77.5476L72.6475 30.9063H70.6419L65.8101 17.8193H65.7645V30.9063H63.0295V14.6223ZM88.3026 14.6223H98.9918V17.1523H91.1743V21.2923H98.5815V23.7303H91.1743V28.3303H99.402V30.9063H88.3026V14.6223ZM111.73 21.6373C112.14 21.6373 112.55 21.6066 112.96 21.5453C113.371 21.4839 113.739 21.3689 114.066 21.2003C114.392 21.0316 114.662 20.7901 114.875 20.4758C115.088 20.1614 115.194 19.7589 115.194 19.2683C115.194 18.8236 115.095 18.4594 114.898 18.1758C114.7 17.8921 114.449 17.6659 114.146 17.4973C113.842 17.3286 113.496 17.2136 113.108 17.1523C112.721 17.0909 112.345 17.0603 111.98 17.0603H109.382V21.6373H111.73ZM106.51 14.6223H112.117C112.877 14.6223 113.614 14.7028 114.328 14.8638C115.042 15.0248 115.676 15.2893 116.231 15.6573C116.786 16.0253 117.23 16.5083 117.564 17.1063C117.898 17.7043 118.066 18.4326 118.066 19.2913C118.066 20.4719 117.735 21.4341 117.074 22.1778C116.413 22.9214 115.513 23.4236 114.373 23.6843L118.681 30.9063H115.217L111.479 24.0063H109.382V30.9063H106.51V14.6223ZM136.798 18.4403C136.372 17.8576 135.818 17.4321 135.134 17.1638C134.45 16.8954 133.781 16.7613 133.128 16.7613C132.293 16.7613 131.533 16.9146 130.849 17.2213C130.165 17.5279 129.576 17.9496 129.083 18.4863C128.589 19.0229 128.209 19.6516 127.943 20.3723C127.677 21.0929 127.544 21.8749 127.544 22.7183C127.544 23.6076 127.673 24.4203 127.932 25.1563C128.19 25.8923 128.559 26.5248 129.037 27.0538C129.516 27.5828 130.089 27.9929 130.758 28.2843C131.426 28.5756 132.179 28.7213 133.014 28.7213C133.88 28.7213 134.648 28.5488 135.316 28.2038C135.985 27.8588 136.524 27.4026 136.934 26.8353L139.236 28.4683C138.522 29.3729 137.648 30.0744 136.615 30.5728C135.582 31.0711 134.374 31.3203 132.991 31.3203C131.73 31.3203 130.572 31.1094 129.516 30.6878C128.46 30.2661 127.552 29.6757 126.792 28.9167C126.032 28.1577 125.44 27.2531 125.015 26.2028C124.589 25.1524 124.376 23.9909 124.376 22.7183C124.376 21.4149 124.6 20.2381 125.049 19.1878C125.497 18.1374 126.112 17.2443 126.895 16.5083C127.677 15.7723 128.6 15.2049 129.664 14.8063C130.727 14.4076 131.882 14.2083 133.128 14.2083C133.645 14.2083 134.184 14.2581 134.746 14.3578C135.309 14.4574 135.848 14.6108 136.365 14.8178C136.881 15.0248 137.367 15.2816 137.823 15.5883C138.279 15.8949 138.667 16.2629 138.986 16.6923L136.798 18.4403ZM158.174 24.9263C158.174 25.9076 158.007 26.7931 157.672 27.5828C157.337 28.3724 156.882 29.0433 156.305 29.5952C155.728 30.1472 155.044 30.5728 154.253 30.8718C153.463 31.1708 152.605 31.3203 151.678 31.3203C150.751 31.3203 149.893 31.1708 149.103 30.8718C148.312 30.5728 147.625 30.1472 147.04 29.5952C146.454 29.0433 145.999 28.3724 145.672 27.5828C145.346 26.7931 145.182 25.9076 145.182 24.9263V14.6223H148.054V24.8113C148.054 25.2866 148.115 25.7581 148.236 26.2258C148.358 26.6934 148.56 27.1112 148.84 27.4792C149.121 27.8472 149.494 28.1463 149.957 28.3763C150.42 28.6063 150.994 28.7213 151.678 28.7213C152.362 28.7213 152.936 28.6063 153.399 28.3763C153.862 28.1463 154.235 27.8472 154.516 27.4792C154.796 27.1112 154.998 26.6934 155.119 26.2258C155.241 25.7581 155.302 25.2866 155.302 24.8113V14.6223H158.174V24.9263ZM171.116 21.6373C171.526 21.6373 171.937 21.6066 172.347 21.5453C172.757 21.4839 173.126 21.3689 173.452 21.2003C173.778 21.0316 174.049 20.7901 174.261 20.4758C174.474 20.1614 174.58 19.7589 174.58 19.2683C174.58 18.8236 174.482 18.4594 174.284 18.1758C174.086 17.8921 173.835 17.6659 173.532 17.4973C173.229 17.3286 172.883 17.2136 172.495 17.1523C172.108 17.0909 171.732 17.0603 171.367 17.0603H168.769V21.6373H171.116ZM165.897 14.6223H171.504C172.263 14.6223 173.001 14.7028 173.714 14.8638C174.428 15.0248 175.063 15.2893 175.617 15.6573C176.172 16.0253 176.616 16.5083 176.951 17.1063C177.286 17.7043 177.452 18.4326 177.452 19.2913C177.452 20.4719 177.122 21.4341 176.461 22.1778C175.8 22.9214 174.9 23.4236 173.76 23.6843L178.068 30.9063H174.603L170.865 24.0063H168.769V30.9063H165.897V14.6223ZM188.275 23.8453L182.213 14.6223H185.723L189.779 21.4763L193.882 14.6223H197.209L191.147 23.8453V30.9063H188.275V23.8453Z" fill="#1A1A1A"/>
</g>
<defs>
<clipPath id="clip0_720_46244">
<rect width="198" height="46" fill="white"/>
</clipPath>
</defs>
</svg>
