<svg width="200" height="59" viewBox="0 0 200 59" fill="none" xmlns="http://www.w3.org/2000/svg">
<path d="M59.8704 0.00732422H14.4431C14.3643 0.00732422 14.3004 0.0714882 14.3004 0.150639V1.90227C14.3004 1.98142 14.3643 2.04558 14.4431 2.04558H59.8704C59.9492 2.04558 60.013 1.98142 60.013 1.90227V0.150639C60.013 0.0714882 59.9492 0.00732422 59.8704 0.00732422Z" fill="#1A1A1A"/>
<path d="M126.796 15.7348C126.77 15.7115 126.755 15.6794 126.752 15.645C126.749 15.6106 126.759 15.5764 126.78 15.5491L128.006 13.9779C128.021 13.9596 128.039 13.9446 128.06 13.9338C128.081 13.923 128.103 13.9167 128.127 13.9152C128.15 13.9137 128.173 13.9171 128.195 13.9251C128.217 13.9332 128.237 13.9457 128.254 13.962C131.379 16.9415 135.066 17.9182 139.315 16.892C139.956 16.7363 140.65 16.2922 141.397 15.5597C141.53 15.4303 141.632 15.2746 141.699 15.1032C143.707 10.0288 136.419 10.257 132.609 10.0022C132.26 9.97747 131.483 9.74392 130.278 9.30159C128.355 8.59563 127.451 6.87585 127.668 4.99153C128.022 1.96068 130.331 0.538148 133.148 0.140051C136.527 -0.341204 139.761 0.417834 142.851 2.41717C142.889 2.44177 142.922 2.47424 142.947 2.51251C142.972 2.55078 142.988 2.594 142.996 2.63944C143.003 2.68487 143.001 2.73152 142.99 2.77641C142.979 2.82131 142.958 2.86346 142.93 2.90019L142 4.08917C141.934 4.17318 141.837 4.22786 141.731 4.24172C141.624 4.25558 141.516 4.22753 141.429 4.16348C139.586 2.80465 137.441 2.11992 134.992 2.1093C133.016 2.09869 130.484 2.66664 130.115 4.80575C129.824 6.48306 131.082 7.25802 132.604 7.54465C136.44 8.27184 144.774 7.1784 144.473 13.5692C144.267 18.0544 140.33 19.2646 136.477 19.3708C132.806 19.4663 129.579 18.2543 126.796 15.7348Z" fill="#1A1A1A"/>
<path d="M98.7393 0.686881C98.7393 0.640425 98.7577 0.595872 98.7904 0.563023C98.8231 0.530173 98.8674 0.511719 98.9137 0.511719H100.922C100.97 0.511719 101.015 0.530733 101.049 0.564577C101.083 0.598422 101.102 0.644326 101.102 0.692189C101.087 6.13462 101.091 9.98112 101.112 12.2317C101.147 15.6252 99.6078 17.8546 96.4933 18.9197C92.6672 20.2308 88.2333 19.0683 86.3203 15.1033C86.2774 15.0157 86.2699 14.9145 86.2993 14.82C86.3287 14.7255 86.3928 14.6447 86.4788 14.5937L87.7366 13.8612C87.7854 13.8329 87.8395 13.8149 87.8956 13.8083C87.9516 13.8018 88.0084 13.8069 88.0624 13.8234C88.1164 13.8398 88.1665 13.8672 88.2095 13.9038C88.2525 13.9405 88.2876 13.9856 88.3126 14.0364C89.3554 16.156 91.0289 17.207 93.333 17.1893C95.1404 17.1787 96.5074 16.6904 97.434 15.7243C98.9031 14.2009 98.7552 12.5289 98.7552 10.0607C98.7552 6.16469 98.7499 3.04008 98.7393 0.686881Z" fill="#1A1A1A"/>
<path d="M114.688 17.184C116.01 17.1804 117.112 16.9274 117.997 16.4249C120.539 14.9705 120.338 12.8367 120.327 9.65727C120.317 6.37341 120.308 3.37264 120.301 0.65497C120.301 0.615553 120.316 0.577751 120.344 0.549878C120.372 0.522006 120.41 0.506348 120.449 0.506348H122.563C122.605 0.506348 122.645 0.523124 122.675 0.552987C122.705 0.582851 122.721 0.623354 122.721 0.665587C122.711 6.46895 122.714 9.76166 122.732 10.5437C122.781 12.858 122.621 14.4026 122.251 15.1775C120.808 18.1659 117.923 19.3921 114.694 19.3974C111.465 19.4027 108.569 18.1765 107.126 15.1935C106.753 14.4185 106.589 12.8739 106.635 10.5596C106.649 9.77758 106.645 6.48488 106.624 0.68151C106.624 0.639277 106.641 0.598775 106.67 0.568912C106.7 0.539049 106.741 0.522271 106.783 0.522271L108.896 0.516964C108.936 0.516964 108.973 0.532622 109.001 0.560495C109.029 0.588367 109.044 0.626169 109.044 0.665587C109.044 3.38326 109.043 6.38403 109.039 9.66788C109.034 12.8474 108.838 14.9811 111.38 16.4302C112.265 16.9327 113.367 17.184 114.688 17.184Z" fill="#1A1A1A"/>
<path d="M154.688 0.517027C157.443 0.517027 160.142 0.515257 162.785 0.511719C162.839 0.511719 162.892 0.533529 162.93 0.572351C162.969 0.611173 162.991 0.663827 162.991 0.718729V2.47036C162.991 2.49615 162.986 2.52168 162.976 2.54551C162.966 2.56934 162.952 2.59099 162.933 2.60923C162.915 2.62746 162.894 2.64193 162.87 2.6518C162.846 2.66167 162.821 2.66675 162.795 2.66675H156.242C156.165 2.66675 156.091 2.69695 156.037 2.7507C155.982 2.80446 155.951 2.87736 155.951 2.95338V18.6225C155.952 18.6995 155.922 18.7735 155.869 18.829C155.815 18.8844 155.743 18.917 155.666 18.9197C155.36 18.9339 155.034 18.941 154.688 18.941C154.343 18.941 154.017 18.9339 153.711 18.9197C153.634 18.917 153.561 18.8844 153.508 18.829C153.455 18.7735 153.425 18.6995 153.425 18.6225L153.42 2.95338C153.42 2.87736 153.389 2.80446 153.335 2.7507C153.28 2.69695 153.206 2.66675 153.129 2.66675H146.576C146.551 2.66675 146.525 2.66167 146.502 2.6518C146.478 2.64193 146.456 2.62746 146.438 2.60923C146.42 2.59099 146.406 2.56934 146.396 2.54551C146.386 2.52168 146.381 2.49615 146.381 2.47036V0.718729C146.381 0.663827 146.403 0.611173 146.441 0.572351C146.48 0.533529 146.532 0.511719 146.587 0.511719C149.229 0.515257 151.93 0.517027 154.688 0.517027Z" fill="#1A1A1A"/>
<path d="M33.9436 6.21765V52.2854C33.9436 52.3699 33.9102 52.4509 33.8507 52.5106C33.7913 52.5703 33.7106 52.6039 33.6265 52.6039H14.4748C14.4369 52.6039 14.4006 52.5888 14.3739 52.5619C14.3471 52.535 14.3321 52.4986 14.3321 52.4606V50.7408C14.3321 50.7098 14.3443 50.6801 14.3661 50.6582C14.388 50.6363 14.4175 50.624 14.4484 50.624H31.7505C31.8037 50.624 31.8548 50.6028 31.8925 50.5649C31.9301 50.5271 31.9513 50.4758 31.9513 50.4223V8.12851C31.9513 8.07643 31.9307 8.02647 31.894 7.98964C31.8573 7.95281 31.8076 7.93212 31.7557 7.93212H24.7852C24.6983 7.93212 24.615 7.96735 24.5535 8.03006C24.4921 8.09277 24.4576 8.17783 24.4576 8.26652C24.447 20.9844 24.4505 27.7733 24.4681 28.6332C24.5562 32.6849 24.3272 35.3513 23.7811 36.6322C21.8469 41.1971 17.9627 44.3712 12.8894 44.626C5.97699 44.9657 0.0792704 39.679 0 32.5876C0 32.527 0.0239415 32.469 0.0665577 32.4262C0.109174 32.3834 0.166974 32.3593 0.227242 32.3593H1.70167C1.76575 32.3593 1.82738 32.3848 1.87367 32.4303C1.91995 32.4758 1.94732 32.5378 1.95005 32.6035C2.23014 41.4041 12.2922 45.7248 18.8505 40.247C21.9791 37.6301 22.5445 34.5887 22.5128 30.3317C22.4811 26.0393 22.4793 18.6913 22.5075 8.28775C22.5075 8.19906 22.4719 8.11401 22.4085 8.05129C22.345 7.98858 22.259 7.95335 22.1693 7.95335H14.4272C14.3964 7.95335 14.3668 7.94049 14.345 7.91759C14.3232 7.8947 14.311 7.86364 14.311 7.83127V6.02656C14.311 5.99277 14.3238 5.96037 14.3466 5.93648C14.3694 5.91259 14.4003 5.89917 14.4325 5.89917H33.6265C33.7106 5.89917 33.7913 5.93272 33.8507 5.99245C33.9102 6.05218 33.9436 6.13318 33.9436 6.21765Z" fill="#1A1A1A"/>
<path d="M71.2378 43.5804H49.8929C49.8466 43.5804 49.8023 43.5619 49.7696 43.5291C49.7368 43.4962 49.7185 43.4517 49.7185 43.4052V8.10728C49.7185 8.06082 49.7001 8.01627 49.6674 7.98342C49.6347 7.95057 49.5903 7.93212 49.5441 7.93212H42.341C42.2948 7.93212 42.2504 7.95057 42.2177 7.98342C42.185 8.01627 42.1666 8.06082 42.1666 8.10728V50.4436C42.1666 50.49 42.185 50.5346 42.2177 50.5674C42.2504 50.6003 42.2948 50.6187 42.341 50.6187H59.6484C59.6947 50.6187 59.739 50.6372 59.7717 50.67C59.8044 50.7029 59.8228 50.7474 59.8228 50.7939V52.4287C59.8228 52.4752 59.8044 52.5197 59.7717 52.5526C59.739 52.5854 59.6947 52.6039 59.6484 52.6039H40.3857C40.3394 52.6039 40.2951 52.5854 40.2624 52.5526C40.2297 52.5197 40.2113 52.4752 40.2113 52.4287V6.07433C40.2113 6.02788 40.2297 5.98332 40.2624 5.95047C40.2951 5.91762 40.3394 5.89917 40.3857 5.89917H59.6748C59.7211 5.89917 59.7654 5.91762 59.7982 5.95047C59.8309 5.98332 59.8492 6.02788 59.8492 6.07433V7.77819C59.8492 7.82464 59.8309 7.8692 59.7982 7.90205C59.7654 7.9349 59.7211 7.95335 59.6748 7.95335H51.8271C51.7808 7.95335 51.7365 7.9718 51.7037 8.00465C51.671 8.0375 51.6527 8.08206 51.6527 8.12851V41.4147C51.6527 41.4612 51.671 41.5057 51.7037 41.5386C51.7365 41.5714 51.7808 41.5899 51.8271 41.5899H71.2378C71.284 41.5899 71.3284 41.6083 71.3611 41.6412C71.3938 41.674 71.4122 41.7186 71.4122 41.765V43.4052C71.4122 43.4517 71.3938 43.4962 71.3611 43.5291C71.3284 43.5619 71.284 43.5804 71.2378 43.5804Z" fill="#1A1A1A"/>
<path d="M169.829 33.0174C169.896 33.0174 169.956 32.998 170.009 32.959C170.015 32.955 170.021 32.9495 170.025 32.9431L173.777 28.1182C173.839 28.0357 173.92 27.9688 174.013 27.9228C174.105 27.8767 174.207 27.8528 174.31 27.8528H175.204C175.232 27.8531 175.261 27.8613 175.285 27.8766C175.31 27.8918 175.33 27.9135 175.342 27.939C175.355 27.9646 175.36 27.993 175.357 28.0209C175.354 28.0489 175.343 28.0752 175.325 28.0969L170.632 34.0896C170.516 34.2407 170.453 34.4255 170.453 34.6151V39.6736C170.453 39.756 170.424 39.8359 170.371 39.8984C170.317 39.9609 170.243 40.0017 170.162 40.0133C170.056 40.0275 169.952 40.0345 169.85 40.0345C169.734 40.0345 169.623 40.0257 169.517 40.008C169.436 39.9964 169.362 39.9556 169.308 39.8931C169.255 39.8306 169.226 39.7507 169.227 39.6683L169.248 34.6151C169.25 34.4243 169.189 34.2375 169.073 34.0843L164.407 28.0757C164.389 28.054 164.378 28.0276 164.375 27.9997C164.372 27.9717 164.377 27.9433 164.39 27.9178C164.402 27.8922 164.422 27.8706 164.447 27.8553C164.471 27.8401 164.5 27.8318 164.529 27.8315H165.422C165.525 27.8322 165.628 27.8569 165.72 27.9039C165.813 27.9509 165.893 28.0188 165.955 28.1022L169.686 32.9431C169.69 32.9495 169.696 32.955 169.702 32.959C169.752 32.998 169.794 33.0174 169.829 33.0174Z" fill="#1A1A1A"/>
<path d="M89.0525 27.9114H88.0695C87.9761 27.9114 87.9004 27.9874 87.9004 28.0812V39.8437C87.9004 39.9375 87.9761 40.0135 88.0695 40.0135H89.0525C89.1459 40.0135 89.2216 39.9375 89.2216 39.8437V28.0812C89.2216 27.9874 89.1459 27.9114 89.0525 27.9114Z" fill="#1A1A1A"/>
<path d="M101.704 34.3871C100.598 33.1026 99.4563 31.7172 98.2795 30.231C98.2684 30.2145 98.2521 30.2022 98.2332 30.1959C98.2143 30.1897 98.1939 30.19 98.1752 30.1967C98.1565 30.2033 98.1405 30.216 98.1297 30.2328C98.1189 30.2496 98.114 30.2695 98.1157 30.2894V39.7588C98.1157 39.8334 98.0862 39.9049 98.0337 39.9577C97.9812 40.0105 97.9099 40.0401 97.8356 40.0401H97.1275C97.0942 40.0401 97.0612 40.0336 97.0304 40.0211C96.9996 40.0086 96.9717 39.9902 96.9481 39.967C96.9246 39.9439 96.9059 39.9164 96.8931 39.8861C96.8804 39.8558 96.8738 39.8234 96.8738 39.7906V28.4369C96.8723 28.2892 96.917 28.1447 97.0015 28.0238C97.0861 27.9029 97.2063 27.8117 97.3452 27.763C97.4841 27.7144 97.6347 27.7107 97.7758 27.7526C97.9168 27.7944 98.0413 27.8797 98.1316 27.9963C99.6677 29.9284 101.188 31.7721 102.692 33.5272C103.795 34.8153 104.935 36.2024 106.111 37.6887C106.123 37.7052 106.139 37.7175 106.158 37.7237C106.177 37.7299 106.197 37.7297 106.216 37.723C106.235 37.7163 106.251 37.7036 106.261 37.6868C106.272 37.6701 106.277 37.6502 106.275 37.6303V28.1609C106.275 28.1239 106.283 28.0874 106.297 28.0532C106.311 28.0191 106.331 27.9881 106.357 27.962C106.383 27.9358 106.414 27.9151 106.448 27.901C106.482 27.8868 106.519 27.8796 106.555 27.8796H107.264C107.331 27.8796 107.395 27.9058 107.443 27.9526C107.49 27.9994 107.517 28.0629 107.517 28.129V39.4828C107.519 39.6305 107.474 39.775 107.389 39.8959C107.305 40.0168 107.185 40.108 107.046 40.1566C106.907 40.2053 106.756 40.209 106.615 40.1671C106.474 40.1252 106.35 40.04 106.259 39.9233C104.727 37.9912 103.208 36.1458 101.704 34.3871Z" fill="#1A1A1A"/>
<path d="M113.436 37.6089C113.415 37.5738 113.401 37.5347 113.394 37.4941C113.388 37.4535 113.39 37.4122 113.4 37.3726C113.41 37.333 113.427 37.296 113.452 37.2636C113.476 37.2313 113.507 37.2043 113.542 37.1843L114.017 36.9083C114.059 36.8843 114.104 36.8687 114.151 36.8624C114.199 36.8561 114.247 36.8592 114.292 36.8715C114.338 36.8839 114.381 36.9052 114.418 36.9343C114.455 36.9634 114.486 36.9997 114.509 37.041C115.502 38.8103 116.998 39.5198 118.996 39.1695C121.363 38.7555 122.034 37.0834 122.018 34.6524C122.001 31.4676 121.995 29.3038 122.003 28.1608C122.004 28.0815 122.036 28.0059 122.091 27.9503C122.146 27.8947 122.221 27.8635 122.298 27.8635H122.943C123.015 27.8635 123.083 27.8926 123.134 27.9444C123.184 27.9961 123.213 28.0663 123.213 28.1395V36.542C123.213 36.6441 123.197 36.7462 123.165 36.8446C122.616 38.4016 121.8 39.3889 120.718 39.8064C117.544 41.0414 115.117 40.3089 113.436 37.6089Z" fill="#1A1A1A"/>
<path d="M135.669 39.2597C136.99 39.2597 138.311 38.7342 139.114 37.7151C139.505 37.2162 139.697 36.3793 139.69 35.2044C139.676 31.2942 139.669 28.9446 139.669 28.1555C139.669 28.0851 139.697 28.0176 139.747 27.9678C139.796 27.918 139.863 27.8901 139.934 27.8901H140.695C140.767 27.8901 140.837 27.9192 140.889 27.9709C140.94 28.0227 140.969 28.0929 140.969 28.1661C140.952 32.922 140.936 35.4858 140.922 35.8573C140.827 38.8669 138.544 40.3532 135.669 40.3479C132.789 40.3479 130.511 38.8616 130.416 35.852C130.405 35.4805 130.393 32.9167 130.379 28.1608C130.379 28.1245 130.386 28.0886 130.4 28.0552C130.414 28.0217 130.434 27.9912 130.459 27.9656C130.485 27.94 130.515 27.9196 130.548 27.9058C130.582 27.8919 130.617 27.8848 130.654 27.8848H131.415C131.485 27.8848 131.552 27.9127 131.601 27.9625C131.651 28.0123 131.679 28.0798 131.679 28.1502C131.679 28.9393 131.67 31.2889 131.652 35.1991C131.642 36.374 131.832 37.2108 132.223 37.7098C133.026 38.7342 134.348 39.2597 135.669 39.2597Z" fill="#1A1A1A"/>
<path d="M156.543 34.7107C156.518 34.7167 156.495 34.7283 156.475 34.7447C156.455 34.7611 156.439 34.7819 156.428 34.8055C156.418 34.8291 156.412 34.8548 156.413 34.8807C156.414 34.9065 156.42 34.9319 156.432 34.9549L159.202 39.7798C159.216 39.8063 159.224 39.8362 159.224 39.8666C159.225 39.8969 159.217 39.9267 159.203 39.953C159.188 39.9792 159.167 40.001 159.142 40.0163C159.117 40.0315 159.088 40.0397 159.059 40.0399H158.282C158.186 40.04 158.091 40.0145 158.009 39.966C157.926 39.9174 157.858 39.8476 157.812 39.7639L155.164 35.1619C155.115 35.0772 155.045 35.0071 154.961 34.9586C154.876 34.9101 154.78 34.885 154.683 34.8859H149.927C149.858 34.8859 149.792 34.9133 149.744 34.962C149.695 35.0108 149.668 35.077 149.668 35.146V39.8541C149.668 39.9006 149.65 39.9451 149.617 39.978C149.584 40.0108 149.54 40.0293 149.494 40.0293H148.563C148.519 40.0293 148.476 40.0114 148.444 39.9795C148.412 39.9477 148.394 39.9045 148.394 39.8594L148.389 28.2297C148.389 28.1853 148.398 28.1414 148.415 28.1005C148.432 28.0596 148.457 28.0225 148.488 27.9913C148.52 27.9602 148.557 27.9357 148.598 27.9192C148.639 27.9027 148.683 27.8946 148.727 27.8953C149.731 27.913 151.248 27.913 153.277 27.8953C154.799 27.8847 155.809 27.9307 156.306 28.0333C158.816 28.5429 160.184 31.2712 158.53 33.4315C157.995 34.1286 157.333 34.555 156.543 34.7107ZM149.615 29.2435L149.647 33.6597C149.648 33.7024 149.666 33.7429 149.697 33.7727C149.727 33.8024 149.768 33.819 149.811 33.819L155.333 33.7818C155.69 33.7794 156.043 33.7158 156.372 33.5947C156.701 33.4736 157 33.2973 157.25 33.0759C157.501 32.8546 157.699 32.5925 157.834 32.3047C157.968 32.0169 158.036 31.709 158.034 31.3985V31.3773C158.029 30.7513 157.738 30.1532 157.226 29.7142C156.713 29.2753 156.021 29.0316 155.301 29.0365L149.779 29.0737C149.757 29.0736 149.735 29.0781 149.715 29.0867C149.695 29.0953 149.676 29.1079 149.661 29.1237C149.646 29.1396 149.634 29.1583 149.626 29.1789C149.618 29.1995 149.614 29.2215 149.615 29.2435Z" fill="#1A1A1A"/>
<path d="M189.277 55.6349C191.856 57.5298 194.551 58.4534 197.457 57.0309C198.974 56.2878 199.349 54.2708 197.753 53.3206C196.142 52.3652 193.515 52.5828 192.252 52.4077C189.691 52.0503 188.683 50.7091 189.229 48.3842C189.271 48.206 189.35 48.0409 189.462 47.9012C191.644 45.1464 196.12 45.8576 198.636 47.4606C198.759 47.5388 198.846 47.6626 198.878 47.8056C198.911 47.9485 198.886 48.0991 198.81 48.225L198.757 48.3099C198.723 48.366 198.677 48.4144 198.623 48.4518C198.569 48.4893 198.507 48.5151 198.443 48.5275C198.378 48.54 198.312 48.5389 198.248 48.5243C198.184 48.5097 198.123 48.4819 198.07 48.4426C196.474 47.2696 192.786 46.4097 191 47.9277C190.383 48.4515 190.168 49.138 190.355 49.9872C190.393 50.1598 190.485 50.3161 190.619 50.4331C192.743 52.275 196.723 50.4437 199.175 52.7314C200.565 54.0266 200.063 56.5107 198.678 57.6785C198.542 57.7981 198.387 57.8965 198.218 57.9704C194.889 59.4106 191.778 59.0072 188.886 56.7602C188.76 56.6632 188.667 56.5284 188.622 56.375C188.576 56.2216 188.58 56.0574 188.632 55.9056L188.658 55.8313C188.679 55.7711 188.713 55.7166 188.758 55.6722C188.803 55.6277 188.858 55.5946 188.918 55.5754C188.978 55.5563 189.042 55.5517 189.104 55.562C189.167 55.5724 189.226 55.5973 189.277 55.6349Z" fill="#1A1A1A"/>
<path d="M88.0748 46.2769H89.0419C89.0881 46.2769 89.1325 46.2953 89.1652 46.3282C89.1979 46.361 89.2163 46.4056 89.2163 46.452V57.1794C89.2163 57.2259 89.2347 57.2704 89.2674 57.3033C89.3001 57.3361 89.3444 57.3546 89.3907 57.3546H96.7734C96.7963 57.3546 96.819 57.3591 96.8401 57.3679C96.8613 57.3767 96.8805 57.3896 96.8967 57.4059C96.9129 57.4221 96.9258 57.4414 96.9345 57.4627C96.9433 57.4839 96.9478 57.5067 96.9478 57.5297V58.2728C96.9478 58.2958 96.9433 58.3186 96.9345 58.3399C96.9258 58.3611 96.9129 58.3804 96.8967 58.3967C96.8805 58.413 96.8613 58.4259 96.8401 58.4347C96.819 58.4435 96.7963 58.448 96.7734 58.448H88.0748C88.0285 58.448 87.9842 58.4295 87.9515 58.3967C87.9188 58.3638 87.9004 58.3193 87.9004 58.2728V46.452C87.9004 46.4056 87.9188 46.361 87.9515 46.3282C87.9842 46.2953 88.0285 46.2769 88.0748 46.2769Z" fill="#1A1A1A"/>
<path d="M107.301 46.2185C107.699 46.222 108.017 46.4892 108.257 47.02C110.318 51.599 112.046 55.3517 113.441 58.2782C113.45 58.2977 113.454 58.3191 113.453 58.3405C113.451 58.3618 113.444 58.3825 113.433 58.4005C113.421 58.4185 113.405 58.4332 113.386 58.4434C113.367 58.4536 113.346 58.4588 113.325 58.4587H112.427C112.352 58.4586 112.28 58.4375 112.218 58.398C112.156 58.3584 112.107 58.3021 112.078 58.2357L110.566 54.9236C110.526 54.8312 110.46 54.752 110.377 54.6949C110.294 54.6377 110.197 54.6048 110.096 54.5998C109.874 54.5927 108.937 54.5874 107.285 54.5838C105.632 54.5803 104.697 54.5821 104.478 54.5892C104.377 54.5932 104.279 54.6257 104.195 54.6829C104.111 54.7401 104.044 54.8198 104.003 54.9129L102.476 58.2145C102.446 58.2809 102.397 58.3372 102.335 58.3768C102.274 58.4163 102.201 58.4374 102.127 58.4374L101.228 58.4321C101.207 58.4323 101.186 58.427 101.167 58.4169C101.148 58.4067 101.133 58.3919 101.121 58.3739C101.109 58.3559 101.102 58.3353 101.101 58.3139C101.099 58.2925 101.103 58.2711 101.112 58.2516C102.521 55.3323 104.265 51.5884 106.344 47.02C106.587 46.4857 106.906 46.2185 107.301 46.2185ZM109.853 53.3842L107.406 48.0126C107.392 47.9797 107.368 47.9518 107.338 47.9321C107.308 47.9125 107.273 47.9021 107.237 47.9021C107.201 47.9021 107.166 47.9125 107.136 47.9321C107.106 47.9518 107.082 47.9797 107.068 48.0126L104.674 53.3896C104.665 53.41 104.661 53.4323 104.663 53.4545C104.664 53.4767 104.671 53.498 104.683 53.5166C104.694 53.5351 104.71 53.5502 104.729 53.5605C104.748 53.5707 104.769 53.5758 104.79 53.5753H109.731C109.754 53.5758 109.777 53.5705 109.797 53.5597C109.817 53.549 109.834 53.5333 109.846 53.5141C109.858 53.4949 109.865 53.4729 109.866 53.4501C109.868 53.4274 109.863 53.4047 109.853 53.3842Z" fill="#1A1A1A"/>
<path d="M125.839 46.1865C126.142 46.1865 126.338 46.321 126.426 46.5899C127.458 49.7535 128.473 52.9453 129.47 56.1655C129.482 56.2005 129.505 56.2307 129.536 56.2521C129.566 56.2735 129.602 56.285 129.639 56.285C129.676 56.285 129.712 56.2735 129.742 56.2521C129.773 56.2307 129.796 56.2005 129.808 56.1655L132.942 46.3829C132.953 46.3507 132.973 46.3227 133.001 46.3027C133.028 46.2827 133.061 46.2718 133.095 46.2714H134.2C134.21 46.2719 134.219 46.2746 134.228 46.2792C134.237 46.2838 134.245 46.2903 134.25 46.2981C134.256 46.3058 134.26 46.3147 134.261 46.3239C134.262 46.3331 134.261 46.3424 134.258 46.3511L130.553 57.9383C130.497 58.1136 130.388 58.2664 130.24 58.3752C130.093 58.4839 129.914 58.5431 129.731 58.5443C129.547 58.5454 129.368 58.4886 129.217 58.3817C129.067 58.2749 128.954 58.1235 128.894 57.949C128.045 55.4436 127.106 52.4924 126.077 49.0953C126.01 48.8688 125.931 48.7556 125.839 48.7556C125.751 48.7556 125.672 48.8688 125.601 49.0953C124.576 52.4924 123.639 55.4436 122.79 57.949C122.73 58.1235 122.616 58.2749 122.466 58.3817C122.316 58.4886 122.136 58.5454 121.953 58.5443C121.769 58.5431 121.591 58.4839 121.443 58.3752C121.296 58.2664 121.186 58.1136 121.131 57.9383L117.421 46.3564C117.417 46.3477 117.416 46.3384 117.418 46.3292C117.419 46.32 117.422 46.3111 117.428 46.3034C117.434 46.2956 117.441 46.2891 117.45 46.2845C117.459 46.2799 117.469 46.2772 117.479 46.2768H118.583C118.617 46.2771 118.65 46.2881 118.678 46.308C118.705 46.328 118.726 46.356 118.737 46.3882L121.876 56.1655C121.888 56.2005 121.911 56.2307 121.941 56.2521C121.972 56.2735 122.008 56.285 122.045 56.285C122.082 56.285 122.118 56.2735 122.148 56.2521C122.178 56.2307 122.201 56.2005 122.214 56.1655C123.211 52.9453 124.224 49.7535 125.253 46.5899C125.341 46.321 125.536 46.1865 125.839 46.1865Z" fill="#1A1A1A"/>
<path d="M144.293 58.464C144.191 58.464 144.086 58.4552 143.976 58.4375C143.896 58.4248 143.823 58.3834 143.771 58.321C143.718 58.2586 143.69 58.1794 143.691 58.0978L143.707 53.034C143.708 52.8454 143.647 52.6607 143.532 52.5085L138.855 46.4893C138.838 46.4676 138.826 46.4412 138.823 46.4133C138.82 46.3853 138.825 46.3569 138.838 46.3314C138.851 46.3058 138.871 46.2842 138.895 46.2689C138.92 46.2536 138.948 46.2454 138.977 46.2451L139.87 46.2504C139.974 46.251 140.076 46.2758 140.169 46.3228C140.261 46.3697 140.342 46.4376 140.404 46.5211L144.145 51.362C144.149 51.3684 144.155 51.3738 144.161 51.3779C144.211 51.4168 144.269 51.4363 144.336 51.4363C144.371 51.4363 144.415 51.4168 144.468 51.3779C144.474 51.3738 144.48 51.3684 144.484 51.362L148.236 46.5317C148.298 46.4492 148.379 46.3824 148.472 46.3363C148.564 46.2903 148.666 46.2663 148.77 46.2663H149.663C149.691 46.2666 149.72 46.2749 149.744 46.2902C149.769 46.3054 149.789 46.3271 149.801 46.3526C149.814 46.3782 149.819 46.4066 149.816 46.4345C149.813 46.4624 149.802 46.4888 149.784 46.5105L145.091 52.5085C144.975 52.66 144.912 52.8448 144.912 53.034L144.917 58.0978C144.918 58.1802 144.889 58.2601 144.835 58.3226C144.782 58.3851 144.708 58.4259 144.626 58.4375C144.521 58.4552 144.41 58.464 144.293 58.464Z" fill="#1A1A1A"/>
<path d="M165.3 47.4181H157.209C157.163 47.4181 157.119 47.4365 157.086 47.4694C157.053 47.5022 157.035 47.5468 157.035 47.5932V51.3194C157.035 51.3659 157.053 51.4104 157.086 51.4433C157.119 51.4761 157.163 51.4946 157.209 51.4946H162.002C162.049 51.4946 162.093 51.513 162.126 51.5459C162.158 51.5787 162.177 51.6233 162.177 51.6697V52.4129C162.177 52.4593 162.158 52.5039 162.126 52.5367C162.093 52.5696 162.049 52.588 162.002 52.588H157.209C157.163 52.588 157.119 52.6065 157.086 52.6393C157.053 52.6722 157.035 52.7167 157.035 52.7632V57.1794C157.035 57.2259 157.053 57.2704 157.086 57.3033C157.119 57.3361 157.163 57.3546 157.209 57.3546H165.749C165.772 57.3546 165.795 57.3591 165.816 57.3679C165.837 57.3767 165.856 57.3896 165.873 57.4059C165.889 57.4221 165.902 57.4414 165.91 57.4627C165.919 57.4839 165.924 57.5067 165.924 57.5297V58.2728C165.924 58.2958 165.919 58.3186 165.91 58.3399C165.902 58.3611 165.889 58.3804 165.873 58.3967C165.856 58.413 165.837 58.4259 165.816 58.4347C165.795 58.4435 165.772 58.448 165.749 58.448H155.983C155.937 58.448 155.892 58.4295 155.86 58.3967C155.827 58.3638 155.809 58.3193 155.809 58.2728V46.452C155.809 46.4056 155.827 46.361 155.86 46.3282C155.892 46.2953 155.937 46.2769 155.983 46.2769H165.3C165.346 46.2769 165.391 46.2953 165.423 46.3282C165.456 46.361 165.474 46.4056 165.474 46.452V47.2429C165.474 47.2659 165.47 47.2887 165.461 47.3099C165.452 47.3312 165.44 47.3505 165.423 47.3668C165.407 47.383 165.388 47.3959 165.367 47.4047C165.346 47.4135 165.323 47.4181 165.3 47.4181Z" fill="#1A1A1A"/>
<path d="M180.198 53.1082C180.172 53.1139 180.148 53.1256 180.127 53.1424C180.107 53.1591 180.09 53.1805 180.079 53.2048C180.069 53.229 180.064 53.2555 180.065 53.2821C180.066 53.3086 180.074 53.3345 180.087 53.3576L182.866 58.1985C182.881 58.2254 182.889 58.2558 182.889 58.2866C182.889 58.3175 182.881 58.3476 182.866 58.374C182.851 58.4004 182.83 58.4222 182.804 58.437C182.778 58.4519 182.748 58.4593 182.718 58.4586H181.942C181.845 58.4587 181.751 58.4332 181.668 58.3846C181.586 58.3361 181.518 58.2663 181.471 58.1826L178.813 53.5646C178.765 53.4794 178.696 53.4085 178.611 53.3591C178.527 53.3096 178.43 53.2835 178.332 53.2833H173.56C173.491 53.2833 173.426 53.3107 173.377 53.3595C173.328 53.4083 173.301 53.4744 173.301 53.5434V58.2675C173.301 58.314 173.283 58.3585 173.25 58.3914C173.217 58.4242 173.173 58.4427 173.127 58.4427H172.191C172.146 58.4427 172.103 58.4248 172.072 58.3929C172.04 58.3611 172.022 58.3179 172.022 58.2728V46.6059C172.022 46.5616 172.031 46.5176 172.048 46.4767C172.065 46.4358 172.09 46.3987 172.122 46.3676C172.153 46.3364 172.19 46.3119 172.231 46.2954C172.272 46.2789 172.316 46.2708 172.36 46.2715C173.368 46.2892 174.89 46.2892 176.926 46.2715C178.452 46.2609 179.463 46.3069 179.96 46.4095C182.481 46.9244 183.855 49.6633 182.19 51.8289C181.654 52.5261 180.99 52.9525 180.198 53.1082ZM173.365 47.5083L173.322 52.02C173.322 52.0496 173.334 52.0779 173.355 52.0989C173.376 52.1198 173.404 52.1315 173.433 52.1315L179.061 52.1846C179.4 52.1876 179.736 52.1298 180.05 52.0143C180.365 51.8988 180.651 51.728 180.892 51.5116C181.133 51.2952 181.326 51.0375 181.458 50.7531C181.59 50.4687 181.659 50.1634 181.662 49.8544V49.8225C181.667 49.1992 181.4 48.5992 180.92 48.1543C180.441 47.7094 179.787 47.456 179.104 47.4499L173.476 47.3968C173.446 47.3968 173.418 47.4085 173.397 47.4294C173.376 47.4504 173.365 47.4787 173.365 47.5083Z" fill="#1A1A1A"/>
<path d="M59.8439 57.0361H14.4801C14.3837 57.0361 14.3057 57.1146 14.3057 57.2113V58.8249C14.3057 58.9217 14.3837 59.0001 14.4801 59.0001H59.8439C59.9402 59.0001 60.0183 58.9217 60.0183 58.8249V57.2113C60.0183 57.1146 59.9402 57.0361 59.8439 57.0361Z" fill="#1A1A1A"/>
</svg>
