<svg width="20" height="28" viewBox="0 0 20 28" fill="none" xmlns="http://www.w3.org/2000/svg">
<g clip-path="url(#clip0_766_1470)">
<mask id="mask0_766_1470" style="mask-type:luminance" maskUnits="userSpaceOnUse" x="0" y="0" width="20" height="28">
<path d="M19.6777 0.285645H0.512817V27.7142H19.6777V0.285645Z" fill="white"/>
</mask>
<g mask="url(#mask0_766_1470)">
<path d="M10.9395 0.357178C11.204 0.407806 11.469 0.45615 11.733 0.509521C14.0013 0.968835 15.4822 2.31946 16.204 4.50712C16.5609 5.58906 16.7054 6.71363 16.7779 7.84701C16.8378 8.78312 16.887 9.71992 16.9428 10.6563C16.951 10.7913 16.97 10.9257 16.9863 11.0839C17.1552 11.1462 17.3123 11.2195 17.4768 11.2623C18.6535 11.5679 19.188 12.4052 19.3642 13.539C19.4032 13.7904 19.4348 14.043 19.4489 14.2963C19.6273 17.5175 19.6795 20.7399 19.4831 23.962C19.4523 24.7475 19.2093 25.5098 18.7799 26.1677C18.44 26.6988 17.9189 27.0879 17.3138 27.2628C16.3363 27.5403 15.3242 27.6763 14.3083 27.6666C11.1478 27.6683 7.98735 27.6422 4.8269 27.5886C4.16385 27.568 3.50406 27.4869 2.85578 27.346C1.48686 27.0691 0.7878 26.306 0.627177 24.9187C0.556801 24.2779 0.531069 23.6331 0.550176 22.9887C0.610068 20.5079 0.679994 18.0272 0.775023 15.5477C0.816205 14.4703 0.973285 13.4161 1.58758 12.474C2.03774 11.7836 2.62181 11.319 3.41897 11.1192C3.56921 11.0816 3.71557 11.0263 3.92707 10.9592C3.95582 10.6976 3.9905 10.4143 4.01765 10.1301C4.13708 8.88609 4.19743 7.63272 4.39159 6.40061C4.52816 5.53384 4.76474 4.68593 5.09658 3.87386C5.83444 2.07878 7.28113 1.0846 9.10638 0.589515C9.44004 0.499001 9.78078 0.434195 10.1182 0.357624L10.9395 0.357178ZM9.48067 26.4476C9.48067 26.4215 9.4817 26.3955 9.48227 26.3695C10.4777 26.3695 11.4743 26.3978 12.4684 26.3624C13.7535 26.3167 15.0438 26.3268 16.3136 26.0552C17.3202 25.84 17.7422 25.4468 17.8571 24.4358C17.9232 23.7757 17.9544 23.1125 17.9504 22.4491C17.9554 21.7261 17.8603 20.9988 17.9107 20.2806C18.0399 18.439 17.8915 16.6077 17.7947 14.7735C17.7772 14.4421 17.7678 14.108 17.7246 13.7792C17.6676 13.3414 17.4726 13.0021 16.9909 12.9119C16.149 12.7548 15.3139 12.5088 14.4651 12.453C12.7719 12.3413 11.0722 12.3193 9.37444 12.2857C7.61118 12.2508 5.87233 12.5017 4.13834 12.7912C3.91688 12.8205 3.70462 12.8984 3.51676 13.0195C3.3289 13.1405 3.17007 13.3018 3.05165 13.4915C2.6339 14.1262 2.54321 14.8483 2.5051 15.5619C2.35053 18.4503 2.23497 21.3408 2.11291 24.2309C2.10059 24.5222 2.1436 24.8158 2.15694 25.1085C2.18079 25.6278 2.45286 25.947 2.95069 26.0554C3.36559 26.1621 3.78877 26.2334 4.21568 26.2686C5.96993 26.3447 7.72558 26.3905 9.48067 26.4476ZM15.1046 10.7184C15.039 9.61261 15.0171 8.59695 14.9083 7.59066C14.8038 6.62358 14.6883 5.64482 14.4354 4.70985C14.0715 3.36505 13.2139 2.42253 11.8131 2.06264C11.0954 1.8625 10.3378 1.85542 9.6165 2.04208C8.08855 2.45854 6.98867 3.33818 6.49278 4.9055C6.0077 6.43878 5.74764 8.01249 5.55471 9.60175C5.51147 9.95866 5.48284 10.3174 5.44155 10.7353L6.66901 10.5823C6.72604 9.70438 6.77284 8.88724 6.83181 8.07089C6.89398 7.21192 7.01627 6.36026 7.32358 5.55201C7.80998 4.27281 9.11627 3.32929 10.4998 3.35261C11.8834 3.37592 12.9206 4.02058 13.4551 5.34961C13.6182 5.74558 13.7601 6.14998 13.8802 6.56106C14.1704 7.58575 14.2031 8.64015 14.2018 9.69718C14.2018 10.0027 14.2231 10.308 14.236 10.6393L15.1046 10.7184ZM12.3597 10.491C12.3476 9.41512 12.4595 8.32506 12.2722 7.24529C12.1807 6.70855 12.0327 6.18306 11.8306 5.67762C11.5246 4.92128 10.7681 4.61911 9.99341 4.88254C9.69324 4.97332 9.41907 5.13464 9.19375 5.35307C8.96844 5.57151 8.7985 5.84072 8.6981 6.13832C8.21107 7.52701 8.13913 8.98484 7.93375 10.491H12.3597Z" fill="#1A1A1A"/>
<path d="M9.03956 21.9278C9.01379 21.4449 9.03236 20.9854 8.66676 20.5619C8.31076 20.1495 8.4079 19.4973 8.76613 19.0419C9.10642 18.6093 9.6055 18.4818 10.176 18.6812C11.152 19.0225 11.405 19.7775 10.7945 20.6301C10.7213 20.7287 10.6706 20.8423 10.6461 20.9628C10.6216 21.0832 10.6238 21.2077 10.6526 21.3272C10.7277 21.7879 10.7518 22.2555 10.7244 22.7215C10.6853 23.2278 10.3137 23.5571 9.90299 23.5653C9.47213 23.574 9.10859 23.2185 9.04448 22.6884C9.02768 22.4351 9.02602 22.1812 9.03956 21.9278Z" fill="#1A1A1A"/>
</g>
</g>
<defs>
<clipPath id="clip0_766_1470">
<rect width="20" height="28" fill="white"/>
</clipPath>
</defs>
</svg>
