<svg width="210" height="47" viewBox="0 0 210 47" fill="none" xmlns="http://www.w3.org/2000/svg">
<path d="M23.1132 0C10.4132 0 0.0131836 10.3 0.0131836 23V23.1C0.0131836 35.9 10.4132 46.2 23.1132 46.2C35.9132 46.2 46.2132 35.8 46.2132 23.1C46.3132 10.4 35.9132 0 23.1132 0ZM17.3132 2.2C19.0132 1.7 20.9132 1.4 22.8132 1.4C22.9132 1.4 23.0132 1.4 23.1132 1.4C23.2132 1.4 23.3132 1.4 23.4132 1.4C26.4132 1.5 28.9132 3.4 30.0132 6C30.2132 6.6 30.4132 7.1 30.5132 7.7C30.6132 8 30.6132 8.4 30.6132 8.8C30.6132 10.5 30.0132 12 29.1132 13.3C28.1132 12.7 27.0132 12.3 25.9132 12C26.8132 11.2 27.3132 10.1 27.3132 8.9C27.3132 8 27.0132 7.2 26.5132 6.5C25.7132 5.5 24.5132 4.8 23.1132 4.8C20.7132 4.8 18.4132 5.3 16.2132 6.1C15.6132 6.3 15.0132 6.6 14.5132 6.9C11.2132 8.6 8.51318 11.3 6.81318 14.6C5.01318 15 3.41318 16 2.21318 17.4C4.31318 10 10.0132 4.2 17.3132 2.2ZM32.0132 8.5C34.4132 9.9 36.4132 11.9 37.8132 14.3C37.7132 14.3 37.6132 14.3 37.5132 14.3C35.5132 14.3 33.7132 14.9 32.3132 16C31.7132 15.3 31.1132 14.6 30.3132 14C31.4132 12.5 32.0132 10.7 32.0132 8.8C32.0132 8.7 32.0132 8.6 32.0132 8.5ZM39.9132 19.7C39.2132 19.2 38.4132 18.9 37.5132 18.9C36.2132 18.9 35.1132 19.4 34.4132 20.3C33.7132 21 33.4132 22 33.4132 23.1C33.4132 24.9 32.9132 26.6 32.1132 28.1C31.9132 28.5 31.6132 28.9 31.3132 29.3C30.8132 30 30.1132 30.6 29.5132 31.1C28.7132 30.3 27.7132 29.6 26.5132 29.2C27.7132 28.6 28.7132 27.6 29.4132 26.3C29.9132 25.4 30.2132 24.2 30.2132 23.1C30.2132 21.2 30.9132 19.4 32.1132 18.1C32.4132 17.8 32.8132 17.4 33.1132 17.1C34.4132 16.2 35.9132 15.6 37.6132 15.6C38.0132 15.6 38.4132 15.6 38.7132 15.7C39.2132 17 39.6132 18.3 39.9132 19.7ZM40.2132 23V23.1V23.2C40.1132 24.7 38.9132 25.9 37.4132 25.9C35.9132 25.9 34.6132 24.6 34.6132 23.1C34.6132 21.6 35.9132 20.3 37.4132 20.3C38.9132 20.3 40.2132 21.5 40.2132 23ZM30.3132 32.2C31.0132 31.6 31.7132 31 32.3132 30.2C33.8132 31.3 35.6132 31.9 37.5132 31.9C37.6132 31.9 37.7132 31.9 37.8132 31.9C36.4132 34.3 34.4132 36.3 32.0132 37.7C32.0132 37.6 32.0132 37.5 32.0132 37.4C32.0132 35.5 31.3132 33.6 30.3132 32.2ZM25.9132 34.3C25.2132 33.6 24.2132 33.3 23.1132 33.3C21.3132 33.3 19.6132 32.8 18.1132 32C17.7132 31.8 17.3132 31.5 16.9132 31.2C16.2132 30.7 15.6132 30 15.1132 29.4C15.9132 28.6 16.6132 27.6 17.1132 26.4C17.7132 27.6 18.7132 28.6 20.0132 29.3C20.9132 29.8 22.1132 30.1 23.2132 30.1C25.1132 30.1 26.9132 30.8 28.2132 32C28.5132 32.3 28.9132 32.7 29.2132 33C30.1132 34.3 30.7132 35.8 30.7132 37.5C30.7132 37.9 30.7132 38.2 30.6132 38.6C29.3132 39.2 28.0132 39.6 26.6132 39.9C27.1132 39.2 27.4132 38.4 27.4132 37.5C27.3132 36.2 26.8132 35.1 25.9132 34.3ZM25.9132 37.4C25.9132 38.8 24.8132 40 23.4132 40.2C23.3132 40.2 23.2132 40.2 23.1132 40.2C23.0132 40.2 22.9132 40.2 22.8132 40.2C21.4132 40.1 20.3132 38.9 20.3132 37.4C20.3132 35.9 21.6132 34.6 23.1132 34.6C24.7132 34.7 25.9132 35.9 25.9132 37.4ZM14.3132 37.7C11.9132 36.3 9.91318 34.2 8.51318 31.9C8.61318 31.9 8.71318 31.9 8.81318 31.9C10.8132 31.9 12.6132 31.3 14.0132 30.2C14.6132 30.9 15.3132 31.6 16.0132 32.2C14.9132 33.7 14.3132 35.5 14.3132 37.4C14.3132 37.6 14.3132 37.7 14.3132 37.7ZM8.81318 27.3C10.0132 27.3 11.1132 26.8 11.9132 25.9L12.0132 25.8C12.1132 25.7 12.1132 25.6 12.2132 25.5L12.3132 25.4C12.3132 25.4 12.3132 25.3 12.4132 25.3C12.4132 25.2 12.5132 25.2 12.5132 25.1C12.5132 25.1 12.5132 25 12.6132 25C12.6132 24.9 12.6132 24.9 12.7132 24.8V24.7V24.6C12.7132 24.5 12.7132 24.4 12.8132 24.4V24.3V24.2V24.1V24C12.8132 23.9 12.8132 23.9 12.8132 23.8V23.7C12.8132 23.6 12.8132 23.6 12.8132 23.5C12.8132 21.7 13.3132 20 14.1132 18.5C14.3132 18.1 14.6132 17.7 14.9132 17.3C15.4132 16.6 16.0132 16 16.7132 15.5C17.5132 16.3 18.5132 17 19.7132 17.5C18.5132 18.1 17.5132 19.1 16.8132 20.4C16.3132 21.3 16.0132 22.4 16.0132 23.6C16.0132 25.5 15.2132 27.3 14.0132 28.6C13.7132 28.9 13.3132 29.3 13.0132 29.5C11.7132 30.4 10.2132 31 8.61318 31C8.21318 31 7.81318 31 7.41318 30.9C6.81318 29.6 6.41318 28.3 6.11318 26.9C7.11318 27 7.91318 27.3 8.81318 27.3ZM6.01318 23.1C6.01318 23 6.01318 23 6.01318 22.9C6.11318 21.4 7.31318 20.2 8.81318 20.2C10.3132 20.2 11.6132 21.5 11.6132 23C11.6132 24.5 10.3132 25.7 8.81318 25.7C7.31318 25.9 6.11318 24.7 6.01318 23.1ZM16.0132 14.1C15.3132 14.7 14.6132 15.3 14.1132 16C12.6132 14.9 10.8132 14.3 8.81318 14.3C8.71318 14.3 8.61318 14.3 8.51318 14.3C9.91318 12 11.9132 10 14.3132 8.5C14.3132 8.6 14.3132 8.7 14.3132 8.8C14.3132 10.8 14.9132 12.6 16.0132 14.1ZM20.4132 12C21.1132 12.7 22.1132 13 23.2132 13C25.0132 13 26.7132 13.5 28.2132 14.3C28.6132 14.5 29.0132 14.8 29.4132 15.1C30.1132 15.6 30.7132 16.3 31.2132 16.9C30.4132 17.7 29.7132 18.7 29.3132 19.9C28.7132 18.7 27.7132 17.7 26.4132 17C25.5132 16.5 24.3132 16.2 23.2132 16.2C21.3132 16.2 19.5132 15.5 18.2132 14.3C17.9132 14 17.5132 13.6 17.2132 13.3C16.3132 12 15.7132 10.5 15.7132 8.8C15.7132 8.4 15.7132 8 15.8132 7.7C17.1132 7.1 18.4132 6.7 19.8132 6.4C19.3132 7.1 19.0132 8 19.0132 8.9C18.9132 10.1 19.5132 11.2 20.4132 12ZM20.3132 8.8C20.3132 7.3 21.5132 6.1 23.0132 6H23.1132H23.2132C24.7132 6.1 25.9132 7.3 25.9132 8.8C25.9132 10.3 24.6132 11.6 23.1132 11.6C21.6132 11.6 20.3132 10.4 20.3132 8.8ZM28.6132 23.1C28.6132 26.1 26.2132 28.6 23.1132 28.6C20.0132 28.6 17.6132 26.2 17.6132 23.1C17.6132 20.1 20.1132 17.7 23.1132 17.7C26.1132 17.7 28.6132 20.1 28.6132 23.1ZM2.21318 28.9C1.71318 27.2 1.51318 25.3 1.41318 23.5C1.41318 23.4 1.41318 23.3 1.41318 23.2V23.1C1.41318 23 1.41318 22.9 1.41318 22.8C1.51318 19.8 3.41318 17.3 6.01318 16.2C6.61318 16 7.11318 15.8 7.71318 15.7C8.01318 15.6 8.41318 15.6 8.81318 15.6C10.5132 15.6 12.0132 16.2 13.3132 17.1C12.7132 18.1 12.3132 19.2 12.0132 20.3C11.2132 19.4 10.1132 18.9 8.91318 18.9C8.01318 18.9 7.21318 19.2 6.51318 19.7C5.51318 20.5 4.81318 21.7 4.81318 23V23.1C4.81318 25.5 5.31318 27.8 6.11318 29.9C6.31318 30.5 6.61318 31.1 6.91318 31.6C8.61318 34.9 11.4132 37.7 14.7132 39.4C15.1132 41.2 16.1132 42.8 17.5132 44C10.0132 42.1 4.21318 36.2 2.21318 28.9ZM29.0132 44.1C27.3132 44.6 25.4132 44.9 23.5132 44.9C23.4132 44.9 23.3132 44.9 23.2132 44.9C23.1132 44.9 23.0132 44.9 22.9132 44.9C19.9132 44.8 17.4132 42.9 16.3132 40.3C16.1132 39.7 15.9132 39.2 15.8132 38.6C15.7132 38.3 15.7132 37.9 15.7132 37.5C15.7132 35.8 16.3132 34.3 17.2132 33C18.2132 33.6 19.3132 34 20.4132 34.3C19.5132 35 19.0132 36.2 19.0132 37.4C19.0132 38.3 19.3132 39.1 19.8132 39.8C20.5132 40.8 21.6132 41.4 22.8132 41.5C22.9132 41.5 23.0132 41.5 23.1132 41.5C23.2132 41.5 23.3132 41.5 23.4132 41.5C25.7132 41.5 27.9132 41 29.9132 40.2C30.5132 40 31.1132 39.7 31.6132 39.4C34.9132 37.7 37.6132 34.9 39.4132 31.6C41.2132 31.2 42.8132 30.2 44.0132 28.8C42.1132 36.3 36.3132 42.1 29.0132 44.1ZM44.9132 23.1C44.9132 23.2 44.9132 23.3 44.9132 23.4C44.8132 26.4 42.9132 28.9 40.3132 30C39.7132 30.2 39.2132 30.4 38.6132 30.5C38.3132 30.6 37.9132 30.6 37.5132 30.6C35.8132 30.6 34.3132 30 33.1132 29.1C33.7132 28.1 34.1132 27 34.4132 25.9C35.2132 26.8 36.3132 27.3 37.5132 27.3C38.4132 27.3 39.2132 27 39.9132 26.5C40.9132 25.7 41.6132 24.5 41.6132 23.1C41.6132 20.7 41.1132 18.4 40.3132 16.2C40.1132 15.6 39.8132 15 39.5132 14.5C37.8132 11.2 35.0132 8.5 31.7132 6.7C31.3132 4.9 30.3132 3.3 28.9132 2.1C36.2132 4.1 42.0132 9.9 44.0132 17.2C44.5132 18.9 44.8132 20.8 44.8132 22.7C44.9132 22.9 44.9132 23 44.9132 23.1Z" fill="#FFFFEB"/>
<path fill-rule="evenodd" clip-rule="evenodd" d="M67.1132 13.8H71.9132L76.4132 26H76.5132L80.9132 13.8H85.7132V31H82.7132V17.2L77.4132 31H75.3132L70.2132 17.2V31H67.3132V13.8H67.1132ZM94.0132 13.8H105.413V16.5H97.1132V20.9H105.013V23.5H97.1132V28.4H105.913V31H94.0132V13.8ZM119.013 21.2C119.413 21.2 119.913 21.2 120.313 21.1C120.713 21 121.113 20.9 121.513 20.7C121.813 20.5 122.113 20.3 122.413 19.9C122.613 19.6 122.713 19.1 122.713 18.6C122.713 18.1 122.613 17.7 122.413 17.4C122.213 17.1 121.913 16.9 121.613 16.7C121.313 16.5 120.913 16.4 120.513 16.3C120.113 16.2 119.713 16.2 119.313 16.2H116.513V21H119.013V21.2ZM113.413 13.8H119.413C120.213 13.8 121.013 13.9 121.813 14.1C122.613 14.3 123.213 14.5 123.813 14.9C124.413 15.3 124.913 15.8 125.213 16.4C125.613 17 125.713 17.8 125.713 18.7C125.713 19.9 125.313 21 124.613 21.7C123.913 22.5 122.913 23 121.713 23.3L126.313 30.9H122.613L118.613 23.6H116.413V31H113.313V13.8H113.413ZM145.713 17.8C145.213 17.2 144.713 16.7 143.913 16.5C143.213 16.2 142.513 16.1 141.813 16.1C140.913 16.1 140.113 16.3 139.413 16.6C138.713 16.9 138.013 17.4 137.513 17.9C137.013 18.5 136.613 19.1 136.313 19.9C136.013 20.7 135.913 21.5 135.913 22.4C135.913 23.3 136.013 24.2 136.313 25C136.613 25.8 137.013 26.4 137.513 27C138.013 27.6 138.613 28 139.313 28.3C140.013 28.6 140.813 28.8 141.713 28.8C142.613 28.8 143.413 28.6 144.213 28.3C144.913 27.9 145.513 27.5 145.913 26.9L148.413 28.6C147.613 29.6 146.713 30.3 145.613 30.8C144.513 31.3 143.213 31.6 141.713 31.6C140.413 31.6 139.113 31.4 138.013 30.9C136.913 30.5 135.913 29.8 135.113 29C134.313 28.2 133.713 27.2 133.213 26.1C132.713 25 132.513 23.8 132.513 22.4C132.513 21 132.713 19.8 133.213 18.7C133.713 17.6 134.313 16.6 135.213 15.9C136.013 15.1 137.013 14.5 138.113 14.1C139.213 13.7 140.513 13.5 141.813 13.5C142.413 13.5 142.913 13.6 143.513 13.7C144.113 13.8 144.713 14 145.213 14.2C145.813 14.4 146.313 14.7 146.813 15C147.313 15.3 147.713 15.7 148.013 16.2L145.713 17.8ZM168.413 24.7C168.413 25.7 168.213 26.7 167.913 27.5C167.513 28.3 167.113 29 166.413 29.6C165.813 30.2 165.113 30.6 164.213 30.9C163.413 31.2 162.413 31.4 161.513 31.4C160.613 31.4 159.613 31.2 158.813 30.9C158.013 30.6 157.213 30.1 156.613 29.6C156.013 29 155.513 28.3 155.113 27.5C154.713 26.7 154.613 25.7 154.613 24.7V13.8H157.713V24.6C157.713 25.1 157.813 25.6 157.913 26.1C158.013 26.6 158.213 27 158.513 27.4C158.813 27.8 159.213 28.1 159.713 28.3C160.213 28.5 160.813 28.7 161.513 28.7C162.213 28.7 162.813 28.6 163.313 28.3C163.813 28 164.213 27.7 164.513 27.4C164.813 27 165.013 26.6 165.113 26.1C165.213 25.6 165.313 25.1 165.313 24.6V13.8H168.413V24.7ZM182.213 21.2C182.613 21.2 183.113 21.2 183.513 21.1C183.913 21 184.313 20.9 184.713 20.7C185.013 20.5 185.313 20.3 185.613 19.9C185.813 19.6 185.913 19.1 185.913 18.6C185.913 18.1 185.813 17.7 185.613 17.4C185.413 17.1 185.113 16.9 184.813 16.7C184.513 16.5 184.113 16.4 183.713 16.3C183.313 16.2 182.913 16.2 182.513 16.2H179.713V21H182.213V21.2ZM176.713 13.8H182.713C183.513 13.8 184.313 13.9 185.113 14.1C185.913 14.3 186.513 14.5 187.113 14.9C187.713 15.3 188.213 15.8 188.513 16.4C188.913 17 189.013 17.8 189.013 18.7C189.013 19.9 188.613 21 187.913 21.7C187.213 22.5 186.213 23 185.013 23.3L189.613 30.9H185.913L181.913 23.6H179.713V31H176.613V13.8H176.713ZM200.513 23.5L194.013 13.8H197.713L202.013 21L206.413 13.8H209.913L203.413 23.5V31H200.313V23.5H200.513Z" fill="#FFFFEB"/>
</svg>
