<svg width="258" height="18" viewBox="0 0 258 18" fill="none" xmlns="http://www.w3.org/2000/svg">
<path d="M6.94403 17.6412C4.4181 17.6412 2.14905 16.7421 0.179688 14.9868L1.33562 13.6168C2.23468 14.4303 3.09092 15.0296 3.98998 15.3721C4.88904 15.7574 5.91653 15.9287 7.02965 15.9287C8.14277 15.9287 9.04183 15.6718 9.68401 15.1581C10.369 14.6015 10.7115 13.9165 10.7115 13.0603C10.7115 12.2468 10.4118 11.6047 9.81245 11.1337C9.21308 10.6628 8.09996 10.2347 6.43028 9.89216C4.46092 9.46404 3.04811 8.90748 2.19186 8.17967C1.33562 7.45186 0.907496 6.42436 0.907496 5.09718C0.907496 3.77 1.42124 2.6997 2.44874 1.84345C3.47623 0.987205 4.7606 0.559082 6.34466 0.559082C8.52808 0.559082 10.4546 1.24408 12.1671 2.57126L11.0968 4.02688C9.6412 2.82813 8.05715 2.22877 6.34466 2.22877C5.27435 2.22877 4.4181 2.48564 3.77592 2.99939C3.13373 3.51313 2.79124 4.15532 2.79124 4.92594C2.79124 5.73937 3.09092 6.38156 3.73311 6.85249C4.37529 7.32342 5.53122 7.75155 7.28653 8.13686C9.17027 8.56498 10.5403 9.12154 11.3537 9.84935C12.2099 10.5772 12.6381 11.5618 12.6381 12.8462C12.6381 14.259 12.1243 15.3721 11.054 16.2284C9.94089 17.2131 8.57089 17.6412 6.94403 17.6412Z" fill="#FFFFEB"/>
<path d="M32.4609 17.6411C30.3631 17.6411 28.6934 16.999 27.4519 15.7574C26.2103 14.5158 25.5681 12.7177 25.5681 10.4487V0.815918H27.4519V10.3202C27.4519 12.1184 27.88 13.4883 28.779 14.473C29.6781 15.4149 30.9197 15.9287 32.5037 15.9287C34.0449 15.9287 35.2865 15.4577 36.1856 14.5158C37.0846 13.574 37.5127 12.2468 37.5127 10.4487V0.815918H39.3965V10.2774C39.3965 12.6321 38.7543 14.4302 37.5127 15.7146C36.2284 17.0418 34.5587 17.6411 32.4609 17.6411Z" fill="#FFFFEB"/>
<path d="M53.1799 17.3844V0.858887H59.3877C61.2715 0.858887 62.7699 1.32982 63.883 2.27169C64.9961 3.21356 65.5527 4.49792 65.5527 6.12479C65.5527 7.83728 64.9105 9.16447 63.6689 10.1063C62.4274 11.0482 60.8861 11.5191 59.0452 11.5191H55.0209V17.3416H53.1799V17.3844ZM55.0637 9.84946H59.1308C60.5008 9.84946 61.6139 9.50697 62.4274 8.86479C63.2408 8.17979 63.6689 7.28072 63.6689 6.16761C63.6689 5.01167 63.2836 4.15544 62.4702 3.51325C61.6996 2.87107 60.5864 2.57138 59.2165 2.57138H55.0209L55.0637 9.84946Z" fill="#FFFFEB"/>
<path d="M78.4402 17.3844V0.858887H90.3848V2.57138H80.2811V8.2226H89.3145V9.93509H80.2811V15.7147H90.4704V17.4272H78.4402V17.3844Z" fill="#FFFFEB"/>
<path d="M103.7 17.3844V0.858887H110.807C112.819 0.858887 114.404 1.41544 115.517 2.52856C116.373 3.38481 116.801 4.49793 116.801 5.82511C116.801 7.15229 116.373 8.2226 115.559 9.03603C114.746 9.84946 113.633 10.406 112.306 10.6629L117.4 17.4272H115.089L110.294 11.0054H105.584V17.4272H103.7V17.3844ZM105.584 9.29291H110.679C111.92 9.29291 112.948 8.99322 113.761 8.35103C114.532 7.75166 114.96 6.89542 114.96 5.82511C114.96 4.79762 114.575 4.02699 113.847 3.42762C113.119 2.82825 112.092 2.57138 110.764 2.57138H105.67V9.29291H105.584Z" fill="#FFFFEB"/>
<path d="M130.245 17.3844V0.858887H132.129V8.2226H141.676V0.858887H143.56V17.3844H141.676V9.93509H132.129V17.3844H130.245Z" fill="#FFFFEB"/>
<path d="M164.237 17.6411C162.139 17.6411 160.47 16.999 159.228 15.7574C157.987 14.5158 157.344 12.7177 157.344 10.4487V0.815918H159.228V10.3202C159.228 12.1184 159.656 13.4883 160.555 14.473C161.454 15.4149 162.696 15.9287 164.28 15.9287C165.821 15.9287 167.063 15.4577 167.962 14.5158C168.861 13.574 169.289 12.2468 169.289 10.4487V0.815918H171.173V10.2774C171.173 12.6321 170.531 14.4302 169.289 15.7146C168.048 17.0418 166.335 17.6411 164.237 17.6411Z" fill="#FFFFEB"/>
<path d="M184.998 17.3844V0.858887H186.882L192.918 9.89228L198.955 0.858887H200.838V17.3844H198.955V3.98418L192.918 12.8463H192.832L186.796 4.02699V17.3844H184.998Z" fill="#FFFFEB"/>
<path d="M213.554 17.3844L221.089 0.730469H222.845L230.38 17.3844H228.367L226.441 13.0176H217.45L215.481 17.3844H213.554ZM218.135 11.3479H225.67L221.903 2.91388L218.135 11.3479Z" fill="#FFFFEB"/>
<path d="M243.056 17.3844V0.858887H244.812L255.215 14.1307V0.858887H257.013V17.3844H255.515L244.855 3.81293V17.3844H243.056Z" fill="#FFFFEB"/>
</svg>
