<svg width="133" height="23" viewBox="0 0 133 23" fill="none" xmlns="http://www.w3.org/2000/svg">
<path d="M21.1481 11.213C21.1481 11.8003 21.1042 12.3876 21.0382 12.9297C20.9722 13.4718 20.8622 14.0139 20.7083 14.5334C20.5763 15.0529 20.3784 15.5498 20.1585 16.0241C19.9385 16.4985 19.6746 16.9728 19.3887 17.4019C18.8829 18.1247 18.3111 18.7798 17.6733 19.367C17.0355 19.9543 16.3317 20.4512 15.562 20.8578C14.7923 21.2644 14.0005 21.5806 13.1648 21.7839C12.3291 21.9872 11.4714 22.1001 10.5917 22.1001C9.84391 22.1001 9.09616 22.0323 8.39239 21.8968C7.68863 21.7613 7.02884 21.558 6.36906 21.2644C5.73128 20.9707 5.11548 20.6319 4.56567 20.2028C3.99386 19.7962 3.46603 19.2993 2.93821 18.7346C2.45437 18.2377 2.01452 17.673 1.66263 17.0857C1.31075 16.4985 1.00285 15.866 0.738941 15.211C0.497022 14.556 0.299088 13.8558 0.189125 13.1555C0.0791614 12.4328 0.0131836 11.6874 0.0131836 10.8742C0.0131836 10.1514 0.0791615 9.45123 0.211118 8.75103C0.343074 8.05082 0.541007 7.39578 0.804919 6.74075C1.06883 6.08572 1.39872 5.47587 1.79459 4.8886C2.19046 4.27875 2.6523 3.73665 3.15813 3.23973C3.64197 2.74281 4.19179 2.29106 4.7636 1.90708C5.33541 1.5231 5.92921 1.18429 6.567 0.913241C7.20479 0.642194 7.86457 0.438905 8.52435 0.303382C9.22811 0.167858 9.93188 0.100098 10.6356 0.100098C11.7353 0.100098 12.7909 0.2808 13.8026 0.619609C14.8142 0.958418 15.7599 1.45534 16.6176 2.06519C17.4754 2.69764 18.2451 3.4656 18.9269 4.36909C19.6087 5.27258 20.1585 6.28901 20.5543 7.44096H14.8362C14.5064 7.07956 14.1985 6.78593 13.8466 6.51488C13.5167 6.26642 13.1868 6.06314 12.8129 5.85985C12.483 5.67915 12.1092 5.56622 11.7573 5.47587C11.3834 5.40811 10.9875 5.36294 10.6137 5.36294C9.8659 5.36294 9.16213 5.49846 8.50235 5.79209C7.86457 6.06314 7.27076 6.46971 6.78693 6.96663C6.30309 7.46355 5.90722 8.07341 5.64331 8.75103C5.37939 9.42865 5.22545 10.1514 5.22545 10.8968C5.22545 11.7325 5.3794 12.5231 5.6653 13.2459C5.9512 13.9687 6.34707 14.6011 6.8529 15.1432C7.35873 15.6853 7.93054 16.0919 8.56833 16.3855C9.20612 16.6792 9.88789 16.8373 10.6137 16.8373C11.0755 16.8373 11.5373 16.7695 11.9772 16.6566C12.417 16.5436 12.8569 16.3629 13.2528 16.1145C13.6706 15.866 14.0445 15.5724 14.3524 15.211C14.6823 14.8496 14.9682 14.443 15.2101 13.9687H9.36007V9.76745H21.1042C21.1042 9.88039 21.1042 10.0159 21.1261 10.1288C21.1481 10.2418 21.1481 10.3773 21.1481 10.4902V11.213ZM22.4677 21.7161V0.574432H29.3074C29.8352 0.574432 30.3411 0.574433 30.8249 0.59702C31.3088 0.619608 31.7706 0.664778 32.1885 0.755127C32.6063 0.845476 33.0242 0.958414 33.3981 1.11652C33.7939 1.27464 34.1678 1.47793 34.4977 1.74897C34.9156 2.06519 35.3114 2.42659 35.6633 2.83316C36.0152 3.23973 36.3011 3.69148 36.543 4.1884C36.7849 4.7079 36.9609 5.25 37.0928 5.79209C37.2248 6.35677 37.2908 6.96663 37.2908 7.62166C37.2908 8.47998 37.1808 9.29312 36.9609 10.0159C36.7409 10.7387 36.433 11.4163 36.0152 12.0036C35.6193 12.5909 35.1135 13.1104 34.5637 13.5169C33.9919 13.9235 33.3321 14.2397 32.5843 14.4656L37.6426 21.7161H31.4187L27.46 14.9173V21.7161H22.4677ZM28.4717 10.3095C29.1095 10.3095 29.6593 10.2644 30.1211 10.174C30.583 10.0837 30.9789 9.94815 31.2648 9.74487C31.5727 9.54158 31.7926 9.29312 31.9465 8.95431C32.1005 8.6155 32.1665 8.23151 32.1665 7.75718C32.1665 7.30544 32.1005 6.92145 31.9685 6.62782C31.8366 6.3116 31.6386 6.06314 31.3527 5.85985C31.0668 5.65657 30.7369 5.52104 30.3411 5.4307C29.9452 5.34035 29.4394 5.29517 28.8676 5.29517H27.482V10.3095H28.4717ZM41.1835 3.23973C41.6893 2.74281 42.2391 2.29106 42.8109 1.90708C43.3827 1.5231 43.9765 1.20688 44.6143 0.935829C45.2521 0.687369 45.9119 0.484083 46.5937 0.348559C47.2974 0.213035 48.0012 0.145275 48.705 0.145275C49.4087 0.145275 50.0905 0.213035 50.7503 0.348559C51.41 0.484083 52.0698 0.687371 52.6856 0.958418C53.3014 1.22947 53.9172 1.54569 54.467 1.95226C55.0388 2.33624 55.5667 2.78798 56.0505 3.2849C56.5563 3.80441 57.0182 4.36909 57.436 4.97895C57.8319 5.56622 58.1618 6.19866 58.4477 6.85369C58.7116 7.50872 58.9095 8.18635 59.0415 8.86396C59.1735 9.54158 59.2394 10.2418 59.2394 10.9646C59.2394 11.7325 59.1735 12.4779 59.0635 13.2007C58.9535 13.9009 58.7556 14.6011 58.4917 15.2562C58.2278 15.9112 57.9199 16.5436 57.546 17.1309C57.1721 17.7408 56.7543 18.2829 56.2704 18.7798C55.7866 19.3219 55.2368 19.7962 54.643 20.2028C54.0712 20.6093 53.4334 20.9482 52.7956 21.2418C52.1578 21.5128 51.476 21.7161 50.7943 21.8742C50.0905 22.0323 49.3867 22.1001 48.661 22.1001C47.9132 22.1001 47.1655 22.0323 46.4617 21.8742C45.7799 21.7387 45.0982 21.5128 44.4384 21.2418C43.8006 20.9707 43.1848 20.6319 42.613 20.2028C42.0412 19.7962 41.4914 19.2993 41.0075 18.7346C40.5237 18.2377 40.0838 17.673 39.7319 17.0857C39.3801 16.4985 39.0722 15.866 38.8083 15.211C38.5663 14.556 38.3684 13.8558 38.2584 13.1555C38.1485 12.4328 38.0825 11.6874 38.0825 10.8742C38.0825 10.1514 38.1485 9.45123 38.2804 8.75103C38.4124 8.05082 38.6103 7.39578 38.8742 6.74075C39.1381 6.08572 39.468 5.47587 39.8639 4.8886C40.2378 4.30133 40.6776 3.75923 41.1835 3.23973ZM48.661 16.8824C49.4087 16.8824 50.1125 16.7243 50.7723 16.4307C51.432 16.1371 51.9819 15.7305 52.4657 15.211C52.9495 14.6915 53.3234 14.0816 53.6093 13.3588C53.8952 12.636 54.0492 11.8455 54.0492 10.9872C54.0492 10.2192 53.8952 9.47381 53.6093 8.7962C53.3234 8.11858 52.9275 7.53131 52.4657 7.03439C51.9819 6.53747 51.432 6.15349 50.7943 5.85985C50.1565 5.56622 49.4747 5.40811 48.7489 5.40811C47.9572 5.40811 47.2314 5.56622 46.5717 5.85985C45.9119 6.15349 45.3181 6.56006 44.8342 7.03439C44.3504 7.53131 43.9545 8.11858 43.6906 8.7962C43.4047 9.47381 43.2728 10.2192 43.2728 10.9872C43.2728 11.8229 43.4267 12.5909 43.7126 13.3137C43.9985 14.0364 44.3944 14.6463 44.9002 15.1658C45.4061 15.6853 45.9999 16.1145 46.6376 16.4081C47.2974 16.7243 47.9572 16.8824 48.661 16.8824ZM65.6393 0.574432V13.5847C65.6393 14.172 65.6833 14.7141 65.7713 15.1658C65.8592 15.6176 66.0132 16.0015 66.2111 16.2952C66.409 16.5888 66.673 16.8147 66.9809 16.9728C67.2888 17.1309 67.6626 17.1987 68.0805 17.1987C68.5203 17.1987 68.8942 17.1309 69.2241 16.9728C69.554 16.8373 69.8399 16.5888 70.0598 16.2952C70.2798 16.0015 70.4337 15.6176 70.5437 15.1884C70.6536 14.7367 70.6976 14.1946 70.6976 13.5847V0.574432H75.7559V13.8106C75.7559 15.098 75.558 16.25 75.1841 17.2664C74.8102 18.3054 74.2824 19.1638 73.6226 19.864C72.9629 20.5642 72.1491 21.1063 71.2034 21.4902C70.2578 21.8742 69.2021 22.0775 68.0585 22.0775C66.8929 22.0775 65.8592 21.8968 64.9355 21.5128C64.0118 21.1289 63.2201 20.6093 62.5823 19.9091C61.9445 19.2089 61.4607 18.3506 61.1088 17.3342C60.7569 16.3178 60.581 15.1432 60.581 13.8106V0.574432H65.6393ZM77.1635 21.7161V0.574432H84.0032C84.553 0.574432 85.0588 0.574433 85.5427 0.59702C86.0045 0.619608 86.4664 0.664778 86.9062 0.755127C87.3461 0.845476 87.7419 0.958414 88.1158 1.11652C88.4897 1.27464 88.8636 1.47793 89.1935 1.74897C89.6553 2.08778 90.0732 2.44918 90.4031 2.83316C90.7549 3.23973 91.0408 3.69148 91.2828 4.1884C91.5247 4.68532 91.6786 5.25 91.8106 5.81468C91.9205 6.40195 91.9865 7.0118 91.9865 7.66683C91.9865 8.34445 91.9205 8.99948 91.7666 9.60934C91.6346 10.1966 91.4147 10.7839 91.1288 11.326C90.8429 11.8681 90.513 12.365 90.0951 12.7941C89.6993 13.2459 89.2154 13.6073 88.7096 13.9009C88.3797 14.1042 88.0278 14.2849 87.654 14.3978C87.2581 14.5108 86.8622 14.6237 86.4664 14.6915C86.0485 14.7592 85.6086 14.827 85.1468 14.8496C84.685 14.8722 84.1791 14.8948 83.6293 14.8948H82.1998V21.6935H77.1635V21.7161ZM83.2114 10.3095C83.8272 10.3095 84.3551 10.2644 84.8169 10.174C85.2788 10.0837 85.6746 9.94815 85.9605 9.74487C86.2684 9.56417 86.5103 9.29312 86.6643 8.95431C86.8182 8.6155 86.9062 8.23151 86.9062 7.75718C86.9062 7.30544 86.8402 6.92145 86.7083 6.62782C86.5763 6.3116 86.3784 6.06314 86.0925 5.85985C85.8066 5.65657 85.4767 5.52104 85.0368 5.4307C84.619 5.34035 84.1351 5.29517 83.5853 5.29517H82.2438V10.3095H83.2114ZM95.7913 3.23973C96.2971 2.74281 96.8469 2.29106 97.4187 1.90708C97.9905 1.5231 98.5843 1.20688 99.2221 0.935829C99.8599 0.687369 100.52 0.484083 101.201 0.348559C101.905 0.213035 102.609 0.145275 103.313 0.145275C104.017 0.145275 104.676 0.213035 105.336 0.348559C105.996 0.484083 106.634 0.687371 107.249 0.958418C107.887 1.22947 108.481 1.56827 109.053 1.95226C109.625 2.33624 110.174 2.78798 110.658 3.2849C111.164 3.80441 111.626 4.36909 112.022 4.97895C112.418 5.56622 112.748 6.19866 113.034 6.85369C113.297 7.50872 113.517 8.16376 113.649 8.86396C113.781 9.54158 113.847 10.2418 113.847 10.9646C113.847 11.7325 113.781 12.4779 113.649 13.2007C113.517 13.9009 113.341 14.6011 113.077 15.2562C112.836 15.9112 112.506 16.5436 112.132 17.1309C111.758 17.7182 111.34 18.2829 110.878 18.7798C110.372 19.2993 109.823 19.7736 109.229 20.2028C108.657 20.6093 108.041 20.9482 107.403 21.2418C106.766 21.5128 106.084 21.7161 105.402 21.8742C104.698 22.0323 103.995 22.1001 103.269 22.1001C102.521 22.1001 101.773 22.0323 101.069 21.8742C100.388 21.7387 99.7059 21.5128 99.0462 21.2418C98.4084 20.9707 97.7926 20.6319 97.2208 20.2028C96.649 19.7962 96.0992 19.2993 95.6153 18.7346C95.1315 18.2377 94.6916 17.673 94.3397 17.0857C93.9879 16.4985 93.68 15.866 93.416 15.211C93.1741 14.556 92.9762 13.8558 92.8442 13.1555C92.7123 12.4328 92.6463 11.6874 92.6463 10.8742C92.6463 10.1514 92.7123 9.45123 92.8662 8.75103C92.9982 8.07341 93.2181 7.39578 93.482 6.74075C93.7459 6.08572 94.0758 5.47587 94.4717 4.8886C94.8456 4.30133 95.3074 3.75923 95.7913 3.23973ZM103.269 16.8824C104.017 16.8824 104.72 16.7243 105.38 16.4307C106.04 16.1371 106.59 15.7305 107.073 15.211C107.557 14.6915 107.931 14.0816 108.195 13.3588C108.481 12.636 108.613 11.8455 108.613 10.9872C108.613 10.2192 108.481 9.47381 108.195 8.7962C107.909 8.11858 107.535 7.53131 107.073 7.03439C106.59 6.53747 106.04 6.15349 105.38 5.85985C104.72 5.56622 104.038 5.40811 103.313 5.40811C102.565 5.40811 101.839 5.56622 101.179 5.85985C100.52 6.15349 99.9259 6.56006 99.442 7.03439C98.9582 7.53131 98.5623 8.11858 98.2984 8.7962C98.0125 9.47381 97.8806 10.2192 97.8806 10.9872C97.8806 11.8229 98.0345 12.5909 98.3204 13.3137C98.6063 14.0364 99.0022 14.6463 99.508 15.1658C100.014 15.6853 100.608 16.1145 101.245 16.4081C101.905 16.7243 102.587 16.8824 103.269 16.8824ZM114.859 21.7161V0.574432H119.389L126.955 12.3198V0.574432H132.013V21.7161H127.571L119.917 9.92556V21.7161H114.859Z" fill="#FFFFEB"/>
</svg>
