<svg width="103" height="41" viewBox="0 0 103 41" fill="none" xmlns="http://www.w3.org/2000/svg">
<g clip-path="url(#clip0_13386_632)">
<mask id="mask0_13386_632" style="mask-type:luminance" maskUnits="userSpaceOnUse" x="0" y="0" width="102" height="41">
<path d="M101.442 0.100098H0.0131836V40.1001H101.442V0.100098Z" fill="white"/>
</mask>
<g mask="url(#mask0_13386_632)">
<path d="M41.2956 4.64943V0.569541H26.7041V21.0851H41.2836V17.0342H31.2198V12.7785H40.2803V8.87443H31.2198V4.64943H41.2939H41.2956ZM58.7803 0.569541V13.7754L48.852 0.569541H44.6262V21.0851H49.1401V8.22915L58.7803 21.0851H63.296V0.569541H58.7803ZM71.7785 17.0052V0.569541H67.2628V21.0834H80.4051V17.0035H71.7785V17.0052ZM18.2216 0.569541L11.4283 13.7276L4.63512 0.569541H0.100586V21.0851H4.61454V10.404L10.1301 21.0851H12.7266L18.2216 10.4415V21.0851H22.7372V0.569541H18.2216ZM90.992 17.2834C87.4024 17.2834 84.4937 14.3336 84.4937 10.6959C84.4937 7.05811 87.4024 4.10829 90.992 4.10829C94.5816 4.10829 97.4902 7.05811 97.4902 10.6959C97.4902 14.3336 94.5798 17.2834 90.992 17.2834ZM90.992 0.100098C85.2192 0.100098 80.5406 4.84404 80.5406 10.6959C80.5406 16.5477 85.2192 21.2916 90.992 21.2916C96.7648 21.2916 101.442 16.5477 101.442 10.6959C101.442 4.84404 96.7631 0.100098 90.992 0.100098Z" fill="#FFFFEB"/>
<path d="M7.47529 30.8032L4.51858 38.4782H4.46198L1.41952 30.8032H0.146973L3.76225 39.9258H5.10341L8.73241 30.8032H7.47529Z" fill="#FFFFEB"/>
<path d="M21.1149 39.9258H14.7024V30.8032H20.988V31.8462H15.9029V34.7124H19.9453V35.7418H15.9029V38.8828H21.1149V39.9258Z" fill="#FFFFEB"/>
<path d="M33.6706 37.7834V30.8032H34.8282V39.9258H33.8421L28.6147 32.599V39.9258H27.457V30.8032H28.7433L33.6706 37.7834Z" fill="#FFFFEB"/>
<path d="M44.1975 39.9258V31.8462H40.927V30.8032H48.7526V31.8462H45.4255V39.9258H44.1975Z" fill="#FFFFEB"/>
<path d="M54.4517 36.4365V30.8032H55.6796V36.4502C55.6796 38.188 56.5217 39.0432 58.0944 39.0432C59.6671 39.0432 60.5366 38.188 60.5366 36.4655V30.8032H61.7508V36.4365C61.7508 39.1013 60.1216 40.0999 58.0944 40.0999C56.0672 40.0999 54.4517 39.1013 54.4517 36.4365Z" fill="#FFFFEB"/>
<path d="M71.8781 35.2487C73.4062 35.2487 74.0922 34.67 74.0922 33.5399C74.0922 32.4969 73.4062 31.8312 71.8781 31.8312H69.5062V35.2487H71.8781ZM74.178 39.9261C74.0065 39.6803 73.8778 39.0145 73.8058 37.9425C73.7492 36.9285 73.2776 36.2491 72.0496 36.2491H69.5079V39.9278H68.2937V30.8052H71.9501C74.2363 30.8052 75.3356 31.8773 75.3356 33.499C75.3356 34.9039 74.3923 35.6413 73.293 35.7728C74.3923 35.9896 74.9206 36.6707 75.0063 37.7427C75.1212 39.076 75.1641 39.5966 75.4642 39.9295H74.178V39.9261Z" fill="#FFFFEB"/>
<path d="M88.1897 39.9258H81.7755V30.8032H88.0611V31.8462H82.976V34.7124H87.0184V35.7418H82.976V38.8828H88.1897V39.9258Z" fill="#FFFFEB"/>
<path d="M94.6604 36.5956C94.7325 38.2617 95.8593 39.1152 97.3736 39.1152C98.7165 39.1152 99.5586 38.5365 99.5586 37.5362C99.5586 36.6963 99.0166 36.29 97.8453 36.0596L96.0599 35.7113C94.7325 35.4501 93.8167 34.7263 93.8167 33.3078C93.8167 31.7151 95.06 30.6294 97.0306 30.6294C99.2876 30.6294 100.587 31.8465 100.601 33.9018L99.4728 33.9599C99.4299 32.4542 98.5296 31.599 97.0443 31.599C95.7443 31.599 95.0155 32.2221 95.0155 33.2344C95.0155 34.1323 95.6003 34.4225 96.643 34.6239L98.2706 34.9431C99.9136 35.2624 100.742 35.9862 100.742 37.4491C100.742 39.1289 99.3133 40.0985 97.3702 40.0985C95.1561 40.0985 93.5422 38.8677 93.5422 36.6673L94.657 36.5956H94.6604Z" fill="#FFFFEB"/>
<path d="M100.824 25.5474H0.0131836V26.3275H100.824V25.5474Z" fill="#FFFFEB"/>
</g>
</g>
<defs>
<clipPath id="clip0_13386_632">
<rect width="102" height="40" fill="white" transform="translate(0.0131836 0.100098)"/>
</clipPath>
</defs>
</svg>
