<svg width="299" height="297" viewBox="0 0 299 297" fill="none" xmlns="http://www.w3.org/2000/svg">
<g clip-path="url(#clip0_13492_1398)">
<path d="M140.803 38.3023C135.801 38.3707 130.785 38.2886 125.783 38.2066C121.122 38.1245 116.461 38.0561 111.8 38.0971C110.491 38.0971 109.169 38.0834 107.861 38.0561C106.075 38.0287 104.303 38.0014 102.532 38.0287C102.286 38.0287 102.041 38.0287 101.796 38.0287C100.814 38.0561 99.8193 38.0834 98.9198 37.6047C97.6932 37.0575 96.78 35.3202 97.8022 34.1848C98.5654 33.3778 99.6831 33.2273 100.733 33.1589C109.305 32.598 117.933 32.7075 126.519 32.8579C139.821 32.7485 153.096 33.3367 166.385 33.7061C177.847 33.9933 189.337 33.966 200.799 34.1848C206.673 34.1985 212.602 34.048 218.463 33.7197C218.612 33.7061 218.762 33.6924 218.912 33.6787C219.471 33.6787 220.03 33.624 220.589 33.5966C221.107 33.5693 221.611 33.5419 222.129 33.5146H222.156C222.66 33.4872 223.178 33.4462 223.683 33.4188C224.091 33.3914 224.487 33.3641 224.896 33.3094C224.868 33.3094 224.855 33.3094 224.827 33.3094C225.086 33.282 225.359 33.2273 225.618 33.1726C226.013 33.1042 226.422 33.0084 226.804 32.8579C227.117 32.7348 227.431 32.5844 227.676 32.3245C227.894 32.0782 228.044 31.8183 228.153 31.5037C228.262 31.1617 228.289 30.8197 228.18 30.4777C228.085 30.1768 227.908 29.8895 227.676 29.6843C227.417 29.4381 227.104 29.2876 226.763 29.1919C226.722 29.1919 226.681 29.1645 226.64 29.1645C226.436 29.0825 226.218 29.0551 225.986 29.0277C225.836 29.0141 225.672 29.0004 225.509 29.0004C225.332 28.9867 225.168 28.973 224.991 28.973C224.773 28.973 224.555 28.9867 224.337 29.0004C224.201 29.0004 224.064 29.0004 223.928 29.0141C223.928 29.0141 223.942 29.0141 223.955 29.0141H223.928C223.928 29.0141 223.914 29.0141 223.901 29.0141C223.792 29.0141 223.683 29.0277 223.587 29.0414C223.587 29.0414 223.574 29.0414 223.56 29.0414C223.124 29.0688 222.688 29.0688 222.252 29.0825C221.802 29.0961 221.352 29.1235 220.889 29.1372C220.889 29.1372 220.902 29.1372 220.916 29.1372C220.916 29.1372 220.889 29.1372 220.875 29.1372C220.875 29.1372 220.82 29.1372 220.793 29.1372C220.766 29.1372 220.725 29.1372 220.698 29.1372H220.739C220.452 29.1372 220.166 29.1372 219.866 29.1508C219.239 29.1508 218.612 29.1919 217.986 29.1919C217.713 29.1919 217.427 29.2056 217.154 29.2192C216.909 29.2192 216.663 29.2466 216.418 29.2329H216.459C216.241 29.2329 216.037 29.2329 215.818 29.2192C215.6 29.2192 215.382 29.2192 215.164 29.2192C214.824 29.2192 214.469 29.2192 214.115 29.2192C213.788 29.2192 213.461 29.2192 213.147 29.2192H213.12C213.12 29.2192 213.12 29.2192 213.106 29.2192C213.024 29.2192 212.943 29.2192 212.875 29.2192C212.37 29.2192 211.866 29.2329 211.362 29.2192C211.13 29.2192 210.885 29.2192 210.653 29.2192C210.38 29.2329 210.108 29.2466 209.822 29.2466C209.535 29.2466 209.249 29.2466 208.949 29.2466C208.731 29.2466 208.5 29.2466 208.268 29.2603C207.477 29.2466 206.687 29.2192 205.896 29.1782C193.984 28.8773 182.059 28.8773 170.133 28.8773C153.873 28.8773 137.6 28.8773 121.354 28.0975C112.944 27.3589 104.494 27.3315 96.0713 26.798C94.1087 26.6612 92.773 25.1154 92.7048 23.7065C93.3045 23.7338 93.9042 23.7749 94.5175 23.8022C96.1667 23.8706 97.8295 23.9117 99.4786 23.9253C100.392 23.9253 101.305 23.9253 102.218 23.9253C103.199 23.9253 104.181 23.9253 105.148 23.9117C106.116 23.9117 107.097 23.8843 108.065 23.8843C109.019 23.8843 109.973 23.9117 110.927 23.9117C112.863 23.9117 114.798 23.8296 116.733 23.7749C117.674 23.7475 118.601 23.7612 119.541 23.7338C120.468 23.7202 121.395 23.6791 122.321 23.6518C123.48 23.6107 124.638 23.5834 125.797 23.556C126.178 23.556 126.56 23.556 126.928 23.556C128.059 23.556 129.191 23.597 130.335 23.6107C130.962 23.6107 131.603 23.6107 132.23 23.6107C132.68 23.6107 133.129 23.6107 133.579 23.6107H133.606C134.22 23.6107 134.819 23.6381 135.433 23.6518C135.651 23.6518 135.883 23.6518 136.101 23.6518C136.387 23.6518 136.673 23.6518 136.959 23.6518C138.063 23.6518 139.154 23.6518 140.258 23.6244C140.803 23.6107 141.362 23.5834 141.907 23.5834C142.438 23.5834 142.983 23.5834 143.515 23.597C144.374 23.597 145.232 23.6244 146.105 23.6107C147.059 23.6107 148.013 23.5697 148.967 23.5423C150.016 23.515 151.066 23.515 152.101 23.4876C152.66 23.4876 153.205 23.4602 153.764 23.4329C158.984 23.4602 164.191 23.4466 169.411 23.4329C182.181 23.4192 194.952 23.3919 207.709 23.8159C210.285 23.898 212.847 23.8843 215.423 23.8569C217.699 23.8433 219.989 23.8296 222.265 23.8843C225.277 23.939 228.385 24.1579 230.961 25.8678C234.15 27.7008 235.513 32.1466 232.801 35.0056C229.448 38.6853 223.996 38.7948 219.362 39.1504C214.06 39.4787 208.731 39.5471 203.416 39.6292C182.522 39.4377 161.615 39.1231 140.735 38.3023H140.803Z" fill="#1A1A1A"/>
<path d="M17.8675 39.1365C13.2471 38.7672 7.79542 38.6714 4.42897 34.9917C1.71674 32.1327 3.07967 27.6869 6.26893 25.8539C8.8585 24.144 11.966 23.9388 14.9644 23.8704C17.2405 23.8157 19.5303 23.8293 21.8064 23.843C24.3823 23.8567 26.9446 23.8841 29.5205 23.802C42.2776 23.3916 55.0619 23.4053 67.8326 23.419C74.4292 23.419 81.0121 23.4326 87.6087 23.3916C88.1811 23.419 88.7672 23.46 89.3396 23.4874C89.4214 23.4874 89.5032 23.4874 89.585 23.501C89.5441 23.501 89.4895 23.501 89.4487 23.501C89.5577 23.501 89.6531 23.5147 89.7621 23.5147C89.7485 23.5147 89.7212 23.5147 89.7076 23.5147C89.7485 23.5147 89.803 23.5147 89.8439 23.5147C89.8575 23.5147 89.8712 23.5147 89.8984 23.5147C89.8984 23.5147 89.8848 23.5147 89.8712 23.5147C89.8712 23.5147 89.8848 23.5147 89.8984 23.5147C89.9121 23.5147 89.9393 23.5147 89.9529 23.5147C89.9529 23.5147 89.9666 23.5147 89.9802 23.5147H89.9529C91.4931 23.6105 93.0332 23.7062 94.5733 23.7746C96.2224 23.843 97.8852 23.8841 99.5344 23.8977C100.448 23.8977 101.361 23.8977 102.274 23.8977C103.255 23.8977 104.236 23.8977 105.204 23.8841C106.172 23.8841 107.153 23.8567 108.121 23.8567C109.075 23.8567 110.029 23.8841 110.983 23.8841C112.918 23.8841 114.854 23.802 116.789 23.7473C117.73 23.7199 118.656 23.7336 119.597 23.7062C120.524 23.6925 121.45 23.6515 122.377 23.6242C123.536 23.5831 124.694 23.5558 125.853 23.5284C126.234 23.5284 126.616 23.5284 126.997 23.5284C128.129 23.5284 129.26 23.5694 130.405 23.5831C131.032 23.5831 131.672 23.5831 132.299 23.5831C132.749 23.5831 133.199 23.5831 133.649 23.5831H133.676C134.289 23.5831 134.889 23.6105 135.502 23.6242C135.72 23.6242 135.952 23.6242 136.17 23.6242C136.456 23.6242 136.742 23.6242 137.029 23.6242C138.133 23.6242 139.223 23.6241 140.327 23.5968C140.872 23.5831 141.431 23.5558 141.976 23.5558C142.508 23.5558 143.053 23.5558 143.584 23.5694H144.552C144.552 25.0194 143.189 26.6199 141.186 26.7704C132.763 27.3039 124.312 27.3312 115.903 28.0699C99.6434 28.8497 83.3836 28.8497 67.1102 28.8497C55.1846 28.8497 43.2725 28.8497 31.3469 29.1506C26.454 29.3558 21.5474 29.2874 16.6545 29.26C16.0548 29.3011 15.4278 29.3011 14.8009 29.3011C14.4738 29.3011 14.133 29.2874 13.8059 29.2737C13.4243 29.2737 13.0291 29.2737 12.6475 29.2737C12.3067 29.2737 11.9524 29.3011 11.6116 29.3147C11.2164 29.3147 10.8211 29.3284 10.4259 29.4379C10.276 29.4789 10.126 29.5336 10.0034 29.6157C9.89433 29.6841 9.79893 29.7525 9.70352 29.8346C9.48545 30.0124 9.3219 30.2313 9.21286 30.4912C9.21286 30.4638 9.22649 30.4501 9.24012 30.4228C9.24012 30.4501 9.22649 30.4638 9.21286 30.4912C9.14472 30.669 9.07657 30.8468 9.06294 31.0383C9.03568 31.2709 9.03568 31.5034 9.10383 31.7223C9.17198 31.9412 9.26738 32.16 9.40368 32.3516C9.49908 32.4747 9.60812 32.5841 9.71715 32.6799C9.71715 32.6799 9.70352 32.6662 9.68989 32.6525C9.93522 32.8714 10.2078 33.0492 10.5076 33.1723C10.5076 33.1723 10.494 33.1723 10.4804 33.1723C10.5894 33.2134 10.6985 33.2681 10.8075 33.2954C11.1346 33.3912 11.489 33.4322 11.8433 33.4733C12.1841 33.5143 12.5248 33.528 12.8792 33.5417H12.8246C12.8246 33.5417 12.8655 33.5417 12.8928 33.5417C12.8928 33.5417 12.8928 33.5417 12.8792 33.5417C12.92 33.5417 12.9473 33.5417 12.9882 33.5417C13.07 33.5417 13.1517 33.5417 13.2335 33.5417C13.2335 33.5417 13.2335 33.5417 13.2199 33.5417C13.2471 33.5417 13.2744 33.5417 13.3017 33.5417H13.2471C13.2471 33.5417 13.3017 33.5417 13.3289 33.5417C13.3289 33.5417 13.3289 33.5417 13.3153 33.5417C13.3562 33.5417 13.3834 33.5417 13.4243 33.5417C13.4243 33.5417 13.4243 33.5417 13.438 33.5417C13.438 33.5417 13.438 33.5417 13.4243 33.5417C13.4516 33.5417 13.4925 33.5417 13.5197 33.5417H13.4652C13.4652 33.5417 13.5061 33.5417 13.5334 33.5417C13.5334 33.5417 13.5742 33.5417 13.6015 33.5417H13.5742C13.5742 33.5417 13.6288 33.5417 13.656 33.5417C13.7787 33.5417 13.8877 33.5417 14.0104 33.5417C14.0104 33.5417 14.0104 33.5417 13.9968 33.5417C14.2012 33.5417 14.392 33.5417 14.5964 33.5417C14.9508 33.5417 15.3188 33.5417 15.6732 33.569C16.0684 33.569 16.45 33.6101 16.8453 33.6374C17.2678 33.6648 17.6903 33.7058 18.0992 33.6921H18.0583C18.0583 33.6921 18.1537 33.6921 18.2082 33.6921C18.399 33.6921 18.5898 33.6921 18.7806 33.6921C18.8352 33.6921 18.8897 33.6921 18.9442 33.6921C19.394 33.7195 19.8301 33.7469 20.2799 33.7605C20.2935 33.7605 20.3208 33.7605 20.3344 33.7605C25.718 34.0341 31.1424 34.1709 36.5396 34.1572C48.0155 33.9384 59.4914 33.9794 70.9537 33.6785C84.2423 33.3091 97.5309 32.7346 110.819 32.8303C119.406 32.6662 128.033 32.5567 136.606 33.1313C137.656 33.1997 138.773 33.3502 139.536 34.1572C140.559 35.2926 139.645 37.0299 138.419 37.5771C137.519 38.0558 136.524 38.0285 135.543 38.0011C135.298 38.0011 135.052 37.9874 134.807 38.0011C133.035 37.9738 131.25 38.0011 129.478 38.0285C128.17 38.0422 126.848 38.0695 125.539 38.0695C120.878 38.0285 116.217 38.0969 111.555 38.179C106.553 38.261 101.552 38.3431 96.5359 38.2747C75.6558 39.0955 54.7484 39.4101 33.8547 39.6016C28.5392 39.5195 23.2238 39.4511 17.9084 39.1228L17.8675 39.1365Z" fill="#1A1A1A"/>
<path d="M133.702 28.9319C124.666 28.8362 115.616 29.0961 106.594 28.713C100.91 28.4395 95.2133 28.2753 89.5298 28.3574C81.5294 28.2069 73.6108 28.0564 65.6376 28.3163C52.5126 28.5215 39.3603 29.1234 26.2489 28.4668C22.9233 28.3984 19.5842 28.3847 16.2859 27.8649C15.9315 27.8102 15.4954 27.5777 15.5771 27.1536C15.6589 26.7159 16.4222 26.6611 16.7493 26.6201C18.7528 26.4286 20.7835 26.4149 22.787 26.2918C27.1348 26.0866 31.4826 25.7309 35.8439 25.813C40.9277 25.9772 45.6025 26.0319 50.6181 26.0045C59.559 26.1003 68.4862 25.6215 77.427 25.6352C86.0271 25.6762 94.6272 25.471 103.227 25.1291C112.536 24.6229 121.804 25.047 131.086 25.4163C141.757 25.9225 152.565 26.0319 163.183 26.155C163.973 26.3192 164.736 26.6611 165.377 27.1536C165.077 27.5777 164.641 27.8923 164.164 28.1111C162.474 28.7814 160.579 28.4805 158.808 28.6173C156.504 28.6446 154.201 28.672 151.898 28.713C145.846 28.7814 139.781 28.9319 133.73 28.9046L133.702 28.9319Z" fill="#1A1A1A"/>
<path d="M208.105 27.6048C205.924 27.6048 203.226 27.4954 201.168 27.3723C196.057 27.3312 190.877 27.3175 185.794 26.9892C173.527 26.7567 161.261 26.4147 148.995 26.2916C124.271 26.4421 99.561 26.0317 74.8375 26.2232C70.5442 26.2916 66.251 26.1958 61.9578 26.2369C59.2455 26.1274 56.4924 26.4694 53.8211 25.9907C53.0033 25.8128 52.1992 25.5256 51.4768 25.1289C52.5808 24.3081 53.8756 23.8293 55.2658 23.7336C59.559 23.6788 63.8659 23.6378 68.1727 23.5831C74.0333 23.5147 79.9076 23.5557 85.7682 23.6788C95.7994 23.5831 105.817 23.4326 115.848 23.4737C129 23.3505 142.153 22.9812 155.305 23.1727C167.067 23.2411 178.829 23.5831 190.578 24.0482C195.103 24.1576 199.628 23.8567 204.125 24.4039C205.611 24.4996 207.301 24.7185 208.705 24.9647C210.585 25.2383 212.534 25.3067 214.374 25.7171C214.715 25.7991 215.042 26.0317 215.11 26.401C215.519 27.851 209.045 27.5638 208.091 27.5911L208.105 27.6048Z" fill="#1A1A1A"/>
<path d="M228.153 30.4639C228.262 30.8059 228.221 31.1479 228.126 31.4899C228.03 31.8045 227.867 32.0644 227.649 32.3106C227.417 32.5706 227.104 32.721 226.777 32.8441C226.395 32.9946 226 33.0904 225.591 33.1588C225.332 33.2135 225.073 33.2545 224.814 33.2956C224.432 33.3366 224.064 33.364 223.683 33.3913C223.178 33.4323 222.674 33.4734 222.156 33.4871H222.129C221.611 33.5144 221.107 33.5418 220.589 33.5691C220.03 33.5965 219.471 33.6375 218.912 33.6512C218.762 33.6649 218.613 33.6786 218.463 33.6923C212.602 34.0206 206.687 34.1847 200.799 34.1574C189.323 33.9385 177.847 33.9795 166.385 33.6786C154.364 33.3503 142.357 32.8305 130.335 32.8305C126.247 32.6937 122.144 32.68 118.042 32.721C114.539 32.6937 111.036 32.721 107.547 32.8168C95.3354 32.8168 83.1371 33.3366 70.9389 33.6786C59.4766 33.9658 48.0008 33.9385 36.5249 34.1574C31.1413 34.171 25.7168 34.0479 20.3332 33.7607C20.3196 33.7607 20.2923 33.7607 20.2787 33.7607C19.8289 33.7333 19.3928 33.7059 18.943 33.6923C18.8885 33.6923 18.834 33.6923 18.7795 33.6923C18.5887 33.6923 18.3979 33.6923 18.2071 33.6923C18.1525 33.6923 18.1117 33.6923 18.0571 33.6923C17.6483 33.6923 17.253 33.6649 16.8441 33.6375C16.4489 33.6102 16.0673 33.5828 15.672 33.5691C15.3176 33.5555 14.9497 33.5555 14.5953 33.5418C14.3909 33.5418 14.2 33.5418 13.9956 33.5418C13.9956 33.5418 13.9956 33.5418 14.0092 33.5418C13.8866 33.5418 13.7775 33.5418 13.6549 33.5418H13.6821H13.6412C13.6412 33.5418 13.6004 33.5418 13.5731 33.5418C13.5731 33.5418 13.5458 33.5418 13.5322 33.5418H13.4641C13.4641 33.5418 13.4368 33.5418 13.4095 33.5418C13.3823 33.5418 13.355 33.5418 13.3278 33.5418C13.3141 33.5418 13.2869 33.5418 13.2596 33.5418C13.246 33.5418 13.2324 33.5418 13.2051 33.5418C13.2051 33.5418 13.2051 33.5418 13.2187 33.5418C13.137 33.5418 13.0552 33.5418 12.9734 33.5418C12.9461 33.5418 12.9053 33.5418 12.878 33.5418C12.878 33.5418 12.878 33.5418 12.8916 33.5418C12.8644 33.5418 12.8507 33.5418 12.8235 33.5418H12.878C12.5373 33.5418 12.1829 33.5144 11.8422 33.4734C11.5014 33.4323 11.1471 33.3913 10.8063 33.2956C10.6973 33.2682 10.5883 33.2135 10.4792 33.1724H10.5065C10.2067 33.0493 9.93406 32.8715 9.68874 32.6526C9.68874 32.6526 9.70237 32.6663 9.71599 32.68C9.60696 32.5842 9.49793 32.4748 9.40252 32.3517C9.26623 32.1602 9.17082 31.955 9.10268 31.7224C9.03453 31.5036 9.04816 31.2573 9.06179 31.0385C9.07542 30.847 9.14356 30.6691 9.21171 30.4913C9.32074 30.2314 9.4843 30.0125 9.70237 29.8347C9.79777 29.7526 9.89318 29.6842 10.0022 29.6158C10.1385 29.5337 10.2748 29.479 10.4247 29.438C10.8063 29.3422 11.2152 29.3285 11.6105 29.3149C11.9512 29.3149 12.3056 29.2738 12.6463 29.2738C13.0279 29.2738 13.4232 29.2602 13.8048 29.2738C14.1319 29.2738 14.4726 29.2875 14.7997 29.3012C15.4267 29.3012 16.0536 29.3012 16.6533 29.2602C21.5462 29.2875 26.4528 29.3559 31.3457 29.1507C43.2577 28.8498 55.1834 28.8498 67.1091 28.8498C78.9938 28.8498 90.8786 28.8498 102.763 28.5488C104.045 28.6035 105.312 28.6583 106.593 28.713C115.616 29.096 124.666 28.8361 133.702 28.9318C138.404 28.9455 143.106 28.8635 147.808 28.7951C155.263 28.8635 162.719 28.8635 170.174 28.8635C182.1 28.8635 194.025 28.8635 205.937 29.1644C206.728 29.1918 207.518 29.2191 208.309 29.2465C208.54 29.2465 208.759 29.2328 208.99 29.2328C209.276 29.2328 209.563 29.2328 209.863 29.2328C210.162 29.2328 210.408 29.2328 210.694 29.2054C210.926 29.2054 211.171 29.2054 211.403 29.2054C211.907 29.2054 212.411 29.2054 212.916 29.2054C212.997 29.2054 213.079 29.2054 213.147 29.2054C213.147 29.2054 213.147 29.2054 213.161 29.2054C213.174 29.2054 213.174 29.2054 213.174 29.2054C213.502 29.1918 213.815 29.1918 214.142 29.2054C214.483 29.2054 214.837 29.2054 215.192 29.2054C215.41 29.2054 215.614 29.2054 215.832 29.2054C216.05 29.2054 216.255 29.2191 216.473 29.2191C216.704 29.2191 216.936 29.2054 217.168 29.2054C217.454 29.2054 217.727 29.1781 217.999 29.1781C218.626 29.1781 219.253 29.1507 219.88 29.137C220.166 29.137 220.453 29.137 220.752 29.1234C220.766 29.1234 220.78 29.1234 220.807 29.1234C220.834 29.1234 220.861 29.1234 220.889 29.1234C221.338 29.1234 221.788 29.096 222.252 29.0686C222.688 29.055 223.124 29.055 223.56 29.0276C223.56 29.0276 223.574 29.0276 223.587 29.0276C223.696 29.0276 223.805 29.0139 223.901 29.0002C224.037 29.0002 224.173 29.0002 224.31 28.9866C224.528 28.9866 224.746 28.9592 224.964 28.9592C225.141 28.9592 225.318 28.9729 225.482 28.9866C225.645 28.9866 225.795 29.0002 225.959 29.0139C226.177 29.0413 226.409 29.0686 226.613 29.1507C226.654 29.1507 226.695 29.1644 226.722 29.1781C227.063 29.2738 227.376 29.4243 227.635 29.6705C227.867 29.8894 228.044 30.163 228.139 30.4639H228.153Z" fill="#F0D7FF"/>
<path d="M100.926 28.0425C101.008 29.0821 101.062 30.1218 101.035 31.1751C101.035 31.476 101.035 31.777 101.008 32.0779C101.008 32.1463 101.008 32.201 101.008 32.2694C100.967 33.268 100.871 34.2529 100.721 35.2378C100.163 38.986 98.9905 42.5973 97.1778 45.9214C93.4433 52.7747 87.2011 58.0823 79.7867 60.5309C76.8156 61.5158 73.6808 61.9946 70.5461 61.9946C66.3073 61.9946 62.055 61.1054 58.1979 59.3134C54.7361 57.713 51.5741 55.4832 48.9572 52.7063C46.5176 50.1209 44.5413 47.1525 43.1102 43.8968C39.9346 36.6878 39.7029 28.3845 42.238 20.9429C43.2329 18.0156 44.6912 15.266 46.4903 12.7627C47.2127 11.7915 47.9759 10.8476 48.7937 9.95843C48.7937 9.95843 48.8073 9.93107 48.8209 9.91739C49.6251 8.93248 50.4292 8.01597 51.3696 7.16785C53.3595 5.44425 55.5674 3.89849 58.0344 2.94094C58.416 2.77678 58.7976 2.61263 59.1928 2.46216C59.4791 2.33905 59.7789 2.21593 60.0788 2.09282C60.6921 1.84659 61.3054 1.62772 61.9323 1.42253C63.377 0.957434 64.8626 0.615451 66.3482 0.369223C69.0877 -0.0685159 71.8817 -0.0958746 74.6349 0.232429C76.543 0.478657 78.3966 0.889037 80.2365 1.47725C82.0356 2.05178 83.7529 2.81782 85.402 3.72066C90.2404 6.37445 94.302 10.4372 97.0142 15.2523C99.2358 19.192 100.544 23.5557 100.939 28.0562L100.926 28.0425Z" fill="#1A1A1A"/>
<path d="M81.4879 32.6114C81.5152 32.2147 81.5288 31.8043 81.5288 31.4076C81.5016 30.9562 81.4607 30.5185 81.3925 30.067C81.3107 29.6293 81.2153 29.1916 81.0927 28.7538C80.9291 28.2477 80.7383 27.7416 80.5339 27.2491C80.2885 26.743 80.016 26.2368 79.7161 25.7581C79.3754 25.2519 78.9938 24.7595 78.5849 24.2944C78.1215 23.8019 77.6172 23.3368 77.0857 22.9128C76.5269 22.4887 75.9272 22.1057 75.3002 21.7774C74.646 21.4491 73.9645 21.1755 73.2694 20.9566C72.588 20.7651 71.8793 20.6146 71.1842 20.5326C70.53 20.4642 69.8757 20.4505 69.2215 20.4778C68.6082 20.5189 67.9949 20.601 67.3952 20.7241C66.8364 20.8609 66.2776 21.0387 65.7324 21.2302C65.2418 21.4354 64.7784 21.6543 64.315 21.9005C63.9197 22.133 63.5517 22.3793 63.1838 22.6392C62.843 22.8991 62.5023 23.1863 62.1888 23.4873C61.889 23.7882 61.6164 24.0892 61.3438 24.4038C61.0848 24.7321 60.8531 25.0604 60.6214 25.4024C60.417 25.7307 60.2398 26.0727 60.0626 26.4283C59.9127 26.7703 59.7628 27.126 59.6401 27.4817C59.5175 27.8647 59.4084 28.2477 59.3267 28.6307C59.2585 29.0274 59.1904 29.4241 59.1495 29.8208C59.1222 30.2312 59.1086 30.6553 59.1222 31.0656C59.1495 31.5171 59.1904 31.9685 59.2449 32.4062C59.3267 32.8576 59.4357 33.309 59.5584 33.7605C59.7083 34.2256 59.8855 34.6907 60.0763 35.1284C60.3352 35.6619 60.6078 36.1817 60.9213 36.6878C61.262 37.194 61.63 37.6591 62.0253 38.1105C62.5023 38.6166 63.0202 39.0954 63.5654 39.5195C64.1242 39.9435 64.7102 40.3129 65.3236 40.6548C65.9641 40.9695 66.6183 41.2294 67.2862 41.4619C67.9676 41.6671 68.6764 41.8039 69.3715 41.8997C70.0666 41.9681 70.7617 41.9817 71.4568 41.9544C72.0564 41.8997 72.6425 41.8176 73.2286 41.6945C73.7874 41.5577 74.3462 41.3935 74.8913 41.1883C75.3684 40.9968 75.8318 40.778 76.2815 40.5317C76.6904 40.2992 77.0857 40.0393 77.4673 39.752C77.808 39.4784 78.1487 39.2048 78.4622 38.9039C78.7484 38.6166 79.0347 38.302 79.2936 37.9874C79.5389 37.6728 79.757 37.3581 79.9751 37.0298C80.1795 36.6878 80.3703 36.3322 80.5475 35.9765C80.7111 35.6209 80.8473 35.2515 80.9836 34.8822C81.0927 34.5402 81.1881 34.1845 81.2699 33.8289C81.3516 33.4185 81.4062 32.9944 81.4607 32.5704L81.4879 32.6114ZM86.7216 27.9331C86.9669 29.5883 87.0078 31.2435 86.817 32.9123C86.6398 34.5539 86.1764 36.1954 85.5358 37.7138C84.241 40.8053 82.0604 43.4865 79.3209 45.4153C77.3582 46.7969 75.1094 47.6997 72.7515 48.1374C71.8384 48.3016 70.9116 48.3837 69.9848 48.3837C68.2402 48.3837 66.4957 48.0964 64.8465 47.5629C60.0626 46.0171 56.2464 42.0912 54.6245 37.3444C54.3928 36.6878 54.2157 36.0176 54.0794 35.3883C54.0794 35.3609 54.0794 35.3336 54.0657 35.2925C53.984 34.9095 53.9158 34.5128 53.8613 34.1298C53.8068 33.8152 53.7659 33.4869 53.7386 33.1586C53.6705 32.4062 53.6705 31.6402 53.7114 30.8741C53.7386 30.2859 53.7932 29.6977 53.8886 29.1232C54.1339 27.4543 54.5973 25.8128 55.3196 24.2807C55.8512 23.159 56.4509 22.092 57.1732 21.0934C57.8274 20.1906 58.5907 19.3698 59.3812 18.6038C60.7577 17.2769 62.4205 16.2099 64.1651 15.4438C67.3952 14.0349 71.0479 13.6519 74.4688 14.4863C77.7944 15.2934 80.7519 17.1401 82.9872 19.7392C84.977 22.0646 86.2037 24.9236 86.7216 27.9331Z" fill="#FFFFEB"/>
<path d="M230.048 103.703C233.237 105.536 234.6 109.982 231.888 112.841C228.535 116.521 223.083 116.63 218.45 116.986C213.148 117.314 207.819 117.382 202.503 117.465C181.609 117.273 160.702 116.958 139.822 116.138C134.82 116.206 129.804 116.124 124.802 116.042C122.254 116.001 119.691 115.96 117.143 115.932C114.935 115.96 112.727 115.987 110.519 116.028C105.517 116.11 100.515 116.192 95.4994 116.124C74.6193 116.945 53.7119 117.259 32.8182 117.451C27.5027 117.369 22.1873 117.3 16.8719 116.972C12.2515 116.603 6.79981 116.507 3.43337 112.827C0.721134 109.968 2.08407 105.523 5.27333 103.689C7.8629 101.98 10.9704 101.774 13.9688 101.706C16.2449 101.651 18.5347 101.665 20.8108 101.679C23.3867 101.692 25.949 101.72 28.5249 101.638C41.282 101.227 54.0663 101.241 66.837 101.255C73.4336 101.255 80.0165 101.268 86.6131 101.227C87.1855 101.255 87.758 101.296 88.3304 101.323C88.4122 101.323 88.4939 101.323 88.5757 101.337C88.5348 101.337 88.4803 101.337 88.4394 101.337C88.5485 101.337 88.6439 101.35 88.7529 101.35C88.7393 101.35 88.712 101.35 88.6984 101.35C88.7393 101.35 88.7938 101.35 88.8347 101.35C88.8347 101.35 88.8619 101.35 88.8756 101.35C88.8892 101.35 88.9165 101.35 88.9301 101.35C89.557 101.391 90.1976 101.432 90.8246 101.46C98.8386 101.378 106.839 101.282 114.853 101.309C128.005 101.186 141.158 100.83 154.31 101.008C159.366 101.036 164.437 101.118 169.493 101.241C181.909 101.227 194.339 101.214 206.742 101.624C209.318 101.706 211.88 101.692 214.456 101.665C216.732 101.651 219.022 101.638 221.298 101.692C224.31 101.747 227.418 101.966 229.994 103.676L230.048 103.703Z" fill="#7F1C34"/>
<path d="M155.618 136.232C152.156 134.632 148.994 132.402 146.377 129.625C143.937 127.04 141.961 124.071 140.53 120.816C137.354 113.607 137.123 105.303 139.658 97.8619C140.653 94.9345 142.111 92.185 143.91 89.6816C146.132 86.6585 148.803 84.0458 151.938 81.9939C152.892 81.3646 153.873 80.8038 154.882 80.3113C155.1 80.1198 155.345 79.9556 155.522 79.8599C155.604 79.8188 155.672 79.7915 155.754 79.7641C156.34 79.5179 156.912 79.2443 157.512 79.0118C158.125 78.7655 158.739 78.5467 159.366 78.3415C160.81 77.8764 162.296 77.5344 163.782 77.2882C166.521 76.8504 169.315 76.8231 172.068 77.1514C173.976 77.3976 175.83 77.808 177.67 78.3962C179.469 78.9707 181.186 79.7368 182.835 80.6396C187.674 83.2934 191.735 87.3561 194.448 92.1713C196.669 96.1109 197.978 100.475 198.373 104.975C198.455 106.015 198.509 107.068 198.482 108.108C198.482 108.409 198.482 108.71 198.455 109.011C198.455 109.079 198.455 109.134 198.455 109.202C198.414 110.201 198.318 111.186 198.168 112.17C197.61 115.919 196.438 119.53 194.625 122.854C190.89 129.707 184.648 135.015 177.234 137.464C174.263 138.448 171.128 138.927 167.993 138.927C163.754 138.927 159.502 138.024 155.645 136.246L155.618 136.232ZM169.86 132.361C170.964 132.293 172.055 132.156 173.145 131.951C173.513 131.882 173.908 131.773 174.303 131.705C174.481 131.663 174.658 131.609 174.835 131.568C175.966 131.267 177.057 130.897 178.147 130.46C179.278 129.981 180.369 129.42 181.432 128.805C182.427 128.189 183.381 127.519 184.294 126.794C185.112 126.11 185.888 125.385 186.624 124.619C187.306 123.88 187.946 123.114 188.546 122.307C189.132 121.486 189.677 120.638 190.182 119.762C190.631 118.914 191.054 118.053 191.422 117.177C191.749 116.329 192.049 115.467 192.308 114.605C192.54 113.73 192.744 112.827 192.894 111.938C193.017 111.049 193.112 110.173 193.153 109.27C193.153 109.188 193.153 109.12 193.153 109.038C193.166 108.135 193.153 107.232 193.098 106.329C193.003 105.331 192.867 104.332 192.676 103.347C192.458 102.362 192.199 101.391 191.885 100.434C191.531 99.4213 191.122 98.4364 190.659 97.4652C190.141 96.4529 189.582 95.4817 188.955 94.5378C188.233 93.4845 187.429 92.4859 186.57 91.542C185.629 90.5434 184.607 89.6132 183.531 88.7651C182.386 87.8896 181.186 87.1099 179.919 86.426C178.515 85.701 177.057 85.0854 175.544 84.5929C174.099 84.1552 172.613 83.8269 171.114 83.6354C169.588 83.4575 168.048 83.4028 166.508 83.4849C165.036 83.5807 163.591 83.7995 162.16 84.1142C160.851 84.4288 159.57 84.8528 158.316 85.359C158.03 85.4821 157.73 85.6052 157.444 85.742C157.131 85.8925 156.817 86.0293 156.49 86.0977C156.054 86.3165 155.631 86.5627 155.209 86.809C154.132 87.4656 153.096 88.2043 152.115 88.984C151.311 89.6543 150.548 90.3793 149.812 91.1316C149.117 91.884 148.462 92.6637 147.849 93.4845C147.263 94.3052 146.731 95.1397 146.227 96.0015C145.791 96.8086 145.382 97.643 145.014 98.4911C144.646 99.4076 144.333 100.338 144.06 101.282C143.828 102.171 143.638 103.074 143.488 103.977C143.365 104.893 143.27 105.823 143.229 106.753C143.215 107.684 143.229 108.614 143.297 109.53C143.392 110.515 143.528 111.486 143.719 112.458C143.937 113.456 144.21 114.441 144.523 115.412C144.878 116.425 145.287 117.396 145.75 118.367C146.268 119.393 146.854 120.378 147.481 121.336C148.203 122.375 148.994 123.36 149.852 124.304C150.779 125.275 151.774 126.192 152.824 127.026C154.009 127.929 155.263 128.736 156.572 129.447C157.921 130.145 159.311 130.72 160.742 131.198C162.242 131.664 163.768 131.992 165.322 132.211C166.848 132.389 168.361 132.43 169.888 132.361H169.86Z" fill="#1A1A1A"/>
<path d="M151.49 83.6489C151.422 82.6777 152.566 82.3083 153.207 81.8159C155.047 80.6395 157.091 79.7366 159.231 79.2852C159.231 79.2852 159.231 79.2852 159.218 79.2852C159.218 79.2852 159.218 79.2852 159.204 79.2852C161.494 78.6423 163.742 78.0951 166.1 77.7942C166.523 77.7942 167.313 77.4111 167.545 77.9173C167.572 78.0677 167.463 78.2045 167.327 78.2592C166.7 78.4508 166.019 78.5192 165.378 78.6696C163.088 79.0937 160.826 79.8187 158.604 80.3659C156.832 80.8857 155.17 81.7748 153.616 82.7734C152.975 83.1838 152.307 83.731 151.49 83.6352V83.6489Z" fill="#1A1A1A"/>
<path d="M152.991 82.3085C150.96 81.8297 156.466 79.5452 156.957 79.3811C157.434 79.2169 162.626 77.083 162 78.4235C161.836 78.615 161.563 78.6287 161.386 78.6698C159.424 79.2169 157.529 79.9693 155.703 80.8311C154.762 81.2278 154.013 82.1853 152.977 82.3085H152.991Z" fill="#1A1A1A"/>
<path d="M145.179 88.8747C144.784 88.2728 145.901 87.3153 146.228 86.8502C147.046 85.8516 147.864 84.9214 148.818 84.0733C148.818 84.0733 148.804 84.087 148.791 84.1006C150.794 82.3634 153.002 80.8313 155.469 79.8601C156.764 79.2992 158.072 78.7931 159.449 78.4921C159.776 78.4374 160.076 78.1365 160.348 78.4237C160.539 78.6563 160.267 78.9299 160.021 78.9435C160.062 78.9435 160.089 78.9435 160.13 78.9299C156.028 80.2157 152.116 82.3634 148.9 85.2087C147.823 86.2346 146.801 87.3016 145.915 88.4917C145.751 88.7106 145.465 88.8884 145.193 88.8884L145.179 88.8747Z" fill="#1A1A1A"/>
<path d="M146.079 94.6199C145.643 94.3053 146.502 93.6487 146.679 93.3341C148.097 91.3916 149.787 89.668 151.804 88.3411C151.804 88.3411 151.804 88.3411 151.79 88.3411C153.657 87.0006 155.674 85.9199 157.746 84.9213C158.455 84.634 159.136 84.2647 159.872 84.0458C160.663 83.9227 160.472 84.4152 159.927 84.6477C157.61 85.5232 155.375 86.768 153.385 88.177C152.608 88.7241 151.858 89.285 151.136 89.9006C151.136 89.9006 151.163 89.8869 151.163 89.8732C151.163 89.8732 151.163 89.8732 151.177 89.8595C150.005 90.8444 148.982 91.9114 147.933 93.0195C147.647 93.3614 147.374 93.7034 147.102 94.0044C146.843 94.2916 146.529 94.8798 146.066 94.6199H146.079Z" fill="#1A1A1A"/>
<path d="M193.1 106.343C193.154 107.246 193.182 108.149 193.154 109.052C193.154 109.134 193.154 109.216 193.154 109.284C193.1 110.173 193.018 111.062 192.882 111.952C192.732 112.854 192.541 113.744 192.296 114.619C192.037 115.495 191.751 116.343 191.41 117.191C191.042 118.08 190.619 118.928 190.17 119.776C189.665 120.652 189.12 121.5 188.534 122.32C187.934 123.114 187.294 123.894 186.612 124.619C185.876 125.385 185.1 126.11 184.282 126.794C183.369 127.519 182.415 128.189 181.433 128.791C180.37 129.42 179.28 129.967 178.149 130.446C177.072 130.884 175.968 131.253 174.837 131.554C174.66 131.595 174.482 131.65 174.305 131.691C173.91 131.746 173.528 131.869 173.147 131.937C172.056 132.142 170.966 132.265 169.862 132.347C168.335 132.416 166.809 132.361 165.296 132.197C163.742 131.978 162.216 131.65 160.717 131.185C159.286 130.706 157.895 130.131 156.546 129.434C155.238 128.722 153.997 127.915 152.812 127.012C151.762 126.178 150.767 125.262 149.841 124.29C148.982 123.346 148.205 122.362 147.469 121.322C146.842 120.364 146.256 119.379 145.738 118.353C145.275 117.396 144.866 116.411 144.511 115.399C144.198 114.428 143.925 113.443 143.707 112.444C143.517 111.473 143.38 110.502 143.285 109.517C143.217 108.586 143.203 107.67 143.217 106.74C143.258 105.81 143.353 104.893 143.476 103.963C143.626 103.06 143.816 102.157 144.048 101.268C144.321 100.324 144.648 99.3939 145.002 98.4911C145.37 97.643 145.765 96.8085 146.201 96.0015C146.706 95.126 147.237 94.2915 147.823 93.4845C148.437 92.6637 149.091 91.884 149.786 91.1316C149.868 91.0359 149.963 90.9538 150.059 90.858C150.399 90.5297 150.767 90.2014 151.135 89.9005C151.135 89.9005 151.163 89.8868 151.163 89.8731C151.871 89.2712 152.607 88.7241 153.371 88.1906C154.706 87.2467 156.165 86.3712 157.664 85.6462C157.868 85.5505 158.073 85.4684 158.277 85.3726C159.531 84.8665 160.812 84.4561 162.121 84.1278C163.552 83.7995 165.01 83.5943 166.468 83.4986C168.008 83.4302 169.549 83.4712 171.075 83.649C172.574 83.8542 174.06 84.1688 175.505 84.6066C177.017 85.099 178.476 85.7009 179.88 86.4396C181.147 87.1236 182.346 87.9033 183.491 88.7788C184.568 89.6269 185.59 90.5571 186.531 91.5557C187.389 92.4996 188.193 93.4981 188.916 94.5515C189.543 95.4953 190.115 96.4666 190.619 97.4788C191.083 98.4501 191.492 99.435 191.846 100.447C192.16 101.405 192.419 102.376 192.637 103.361C192.827 104.346 192.977 105.344 193.059 106.343H193.1Z" fill="#FFA946"/>
<path d="M184.159 104.852C184.404 106.507 184.445 108.162 184.254 109.831C184.077 111.473 183.613 113.114 182.973 114.633C181.678 117.724 179.497 120.405 176.758 122.334C174.795 123.716 172.546 124.619 170.189 125.056C169.275 125.221 168.349 125.303 167.422 125.303C165.677 125.303 163.933 125.015 162.284 124.482C157.5 122.936 153.683 119.01 152.062 114.263C151.83 113.607 151.653 112.937 151.516 112.307C151.516 112.28 151.516 112.253 151.503 112.211C151.421 111.828 151.353 111.432 151.298 111.049C151.244 110.734 151.203 110.406 151.176 110.078C151.107 109.325 151.108 108.559 151.148 107.793C151.176 107.205 151.23 106.617 151.326 106.042C151.571 104.373 152.034 102.732 152.743 101.2C153.275 100.078 153.874 99.0109 154.597 98.0124C155.251 97.1095 156.014 96.2888 156.805 95.5227C158.181 94.1958 159.844 93.1288 161.588 92.3628C164.819 90.9538 168.471 90.5708 171.892 91.4052C175.218 92.2123 178.175 94.059 180.411 96.6581C182.4 98.9836 183.627 101.843 184.145 104.852H184.159Z" fill="#1A1A1A"/>
<path d="M137.82 195.86C132.818 195.929 127.803 195.847 122.801 195.765C118.14 195.683 113.478 195.614 108.817 195.655C107.509 195.655 106.187 195.642 104.878 195.614C103.093 195.587 101.321 195.559 99.5491 195.587C99.3038 195.587 99.0585 195.587 98.8132 195.587C97.8319 195.614 96.8369 195.642 95.9374 195.163C94.7107 194.616 93.7976 192.878 94.8198 191.743C95.583 190.936 96.7006 190.785 97.7501 190.717C106.323 190.156 114.95 190.266 123.537 190.416C136.839 190.307 150.114 190.895 163.403 191.264C174.865 191.551 186.354 191.524 197.817 191.743C203.691 191.757 209.62 191.606 215.48 191.278C215.63 191.264 215.78 191.25 215.93 191.237C216.489 191.237 217.048 191.182 217.606 191.155C218.124 191.127 218.628 191.1 219.146 191.073H219.174C219.678 191.045 220.196 191.004 220.7 190.977C221.109 190.95 221.504 190.922 221.913 190.867C221.886 190.867 221.872 190.867 221.845 190.867C222.104 190.84 222.377 190.785 222.636 190.731C223.031 190.662 223.44 190.567 223.821 190.416C224.135 190.293 224.448 190.142 224.694 189.883C224.912 189.636 225.062 189.376 225.171 189.062C225.28 188.72 225.307 188.378 225.198 188.036C225.102 187.735 224.925 187.448 224.694 187.242C224.435 186.996 224.121 186.846 223.78 186.75C223.74 186.75 223.699 186.723 223.658 186.723C223.453 186.641 223.235 186.613 223.004 186.586C222.854 186.572 222.69 186.558 222.526 186.558C222.349 186.545 222.186 186.531 222.009 186.531C221.791 186.531 221.572 186.545 221.354 186.558C221.218 186.558 221.082 186.558 220.945 186.572C220.945 186.572 220.959 186.572 220.973 186.572H220.945C220.945 186.572 220.932 186.572 220.918 186.572C220.809 186.572 220.7 186.586 220.605 186.6C220.605 186.6 220.591 186.6 220.577 186.6C220.141 186.627 219.705 186.627 219.269 186.641C218.819 186.654 218.37 186.682 217.906 186.695C217.906 186.695 217.92 186.695 217.933 186.695C217.933 186.695 217.906 186.695 217.893 186.695C217.893 186.695 217.838 186.695 217.811 186.695C217.783 186.695 217.743 186.695 217.715 186.695H217.756C217.47 186.695 217.184 186.695 216.884 186.709C216.257 186.709 215.63 186.75 215.003 186.75C214.731 186.75 214.444 186.764 214.172 186.777C213.926 186.777 213.681 186.805 213.436 186.791H213.477C213.259 186.791 213.054 186.791 212.836 186.777C212.618 186.777 212.4 186.777 212.182 186.777C211.841 186.777 211.487 186.777 211.132 186.777C210.805 186.777 210.478 186.777 210.165 186.777H210.137C210.137 186.777 210.137 186.777 210.124 186.777C210.042 186.777 209.96 186.777 209.892 186.777C209.388 186.777 208.884 186.791 208.379 186.777C208.148 186.777 207.902 186.777 207.671 186.777C207.398 186.791 207.125 186.805 206.839 186.805C206.553 186.805 206.267 186.805 205.967 186.805C205.749 186.805 205.517 186.805 205.285 186.818C204.495 186.805 203.704 186.777 202.914 186.736C191.002 186.435 179.076 186.435 167.151 186.435C150.891 186.435 134.617 186.435 118.371 185.656C109.962 184.917 101.512 184.89 93.0889 184.356C91.1262 184.219 89.7906 182.674 89.7224 181.265C90.3221 181.292 90.9218 181.333 91.5351 181.36C93.1843 181.429 94.847 181.47 96.4962 181.483C97.4093 181.483 98.3225 181.483 99.2357 181.483C100.217 181.483 101.198 181.483 102.166 181.47C103.134 181.47 104.115 181.442 105.083 181.442C106.037 181.442 106.991 181.47 107.945 181.47C109.88 181.47 111.816 181.388 113.751 181.333C114.691 181.306 115.618 181.319 116.559 181.292C117.485 181.278 118.412 181.237 119.339 181.21C120.497 181.169 121.656 181.141 122.814 181.114C123.196 181.114 123.578 181.114 123.946 181.114C125.077 181.114 126.208 181.155 127.353 181.169C127.98 181.169 128.62 181.169 129.247 181.169C129.697 181.169 130.147 181.169 130.597 181.169H130.624C131.237 181.169 131.837 181.196 132.45 181.21C132.668 181.21 132.9 181.21 133.118 181.21C133.404 181.21 133.691 181.21 133.977 181.21C135.081 181.21 136.171 181.21 137.275 181.183C137.82 181.169 138.379 181.141 138.924 181.141C139.456 181.141 140.001 181.141 140.533 181.155C141.391 181.155 142.25 181.183 143.122 181.169C144.076 181.169 145.03 181.128 145.984 181.1C147.034 181.073 148.083 181.073 149.119 181.046C149.678 181.046 150.223 181.018 150.782 180.991C156.002 181.018 161.208 181.005 166.428 180.991C179.199 180.977 191.97 180.95 204.727 181.374C207.303 181.456 209.865 181.442 212.441 181.415C214.717 181.401 217.007 181.388 219.283 181.442C222.295 181.497 225.402 181.716 227.978 183.426C231.167 185.259 232.53 189.705 229.818 192.564C226.465 196.243 221.014 196.353 216.38 196.709C211.078 197.037 205.749 197.105 200.433 197.187C179.54 196.996 158.632 196.681 137.752 195.86H137.82Z" fill="#1A1A1A"/>
<path d="M14.8851 196.695C10.2647 196.326 4.81299 196.23 1.44655 192.55C-1.26568 189.691 0.0972495 185.246 3.28651 183.412C5.87608 181.703 8.98357 181.497 11.982 181.429C14.2581 181.374 16.5478 181.388 18.8239 181.402C21.3999 181.415 23.9622 181.443 26.5381 181.361C39.2952 180.95 52.0795 180.964 64.8501 180.978C71.4467 180.978 78.0297 180.991 84.6263 180.95C85.1987 180.978 85.7848 181.019 86.3572 181.046C86.439 181.046 86.5208 181.046 86.6025 181.06C86.5616 181.06 86.5071 181.06 86.4662 181.06C86.5753 181.06 86.6707 181.073 86.7797 181.073C86.7661 181.073 86.7388 181.073 86.7252 181.073C86.7661 181.073 86.8206 181.073 86.8615 181.073C86.8751 181.073 86.8887 181.073 86.916 181.073C86.916 181.073 86.9024 181.073 86.8887 181.073C86.8887 181.073 86.9024 181.073 86.916 181.073C86.9296 181.073 86.9569 181.073 86.9705 181.073C86.9705 181.073 86.9842 181.073 86.9978 181.073H86.9705C88.5106 181.169 90.0507 181.265 91.5909 181.333C93.24 181.402 94.9028 181.443 96.5519 181.456C97.4651 181.456 98.3783 181.456 99.2914 181.456C100.273 181.456 101.254 181.456 102.222 181.443C103.189 181.443 104.171 181.415 105.138 181.415C106.092 181.415 107.047 181.443 108.001 181.443C109.936 181.443 111.871 181.361 113.807 181.306C114.747 181.278 115.674 181.292 116.614 181.265C117.541 181.251 118.468 181.21 119.395 181.183C120.553 181.142 121.712 181.114 122.87 181.087C123.252 181.087 123.633 181.087 124.015 181.087C125.146 181.087 126.277 181.128 127.422 181.142C128.049 181.142 128.69 181.142 129.317 181.142C129.767 181.142 130.216 181.142 130.666 181.142H130.693C131.307 181.142 131.906 181.169 132.52 181.183C132.738 181.183 132.969 181.183 133.188 181.183C133.474 181.183 133.76 181.183 134.046 181.183C135.15 181.183 136.241 181.183 137.344 181.155C137.89 181.142 138.448 181.114 138.994 181.114C139.525 181.114 140.07 181.114 140.602 181.128H141.57C141.57 182.578 140.207 184.179 138.203 184.329C129.78 184.862 121.33 184.89 112.921 185.629C96.661 186.408 80.4012 186.408 64.1278 186.408C52.2021 186.408 40.2901 186.408 28.3645 186.709C23.4715 186.914 18.565 186.846 13.6721 186.819C13.0724 186.86 12.4454 186.86 11.8185 186.86C11.4914 186.86 11.1506 186.846 10.8235 186.832C10.4419 186.832 10.0467 186.832 9.66503 186.832C9.3243 186.832 8.96994 186.86 8.6292 186.873C8.23395 186.873 7.8387 186.887 7.44345 186.996C7.29353 187.037 7.14361 187.092 7.02094 187.174C6.91191 187.243 6.8165 187.311 6.7211 187.393C6.50303 187.571 6.33948 187.79 6.23044 188.05C6.23044 188.022 6.24407 188.009 6.2577 187.981C6.2577 188.009 6.24407 188.022 6.23044 188.05C6.1623 188.228 6.09415 188.405 6.08052 188.597C6.05326 188.829 6.05326 189.062 6.12141 189.281C6.18955 189.5 6.28496 189.719 6.42125 189.91C6.51666 190.033 6.62569 190.143 6.73473 190.238C6.73473 190.238 6.7211 190.225 6.70747 190.211C6.9528 190.43 7.22538 190.608 7.52523 190.731C7.52523 190.731 7.5116 190.731 7.49797 190.731C7.607 190.772 7.71604 190.827 7.82507 190.854C8.15218 190.95 8.50654 190.991 8.8609 191.032C9.20163 191.073 9.54237 191.087 9.89673 191.1H9.84221C9.84221 191.1 9.8831 191.1 9.91036 191.1C9.91036 191.1 9.91036 191.1 9.89673 191.1C9.93762 191.1 9.96488 191.1 10.0058 191.1C10.0875 191.1 10.1693 191.1 10.2511 191.1C10.2511 191.1 10.2511 191.1 10.2375 191.1C10.2647 191.1 10.292 191.1 10.3192 191.1H10.2647C10.2647 191.1 10.3192 191.1 10.3465 191.1C10.3465 191.1 10.3465 191.1 10.3329 191.1C10.3738 191.1 10.401 191.1 10.4419 191.1C10.4419 191.1 10.4419 191.1 10.4555 191.1C10.4555 191.1 10.4555 191.1 10.4419 191.1C10.4692 191.1 10.51 191.1 10.5373 191.1H10.4828C10.4828 191.1 10.5237 191.1 10.5509 191.1C10.5509 191.1 10.5918 191.1 10.6191 191.1H10.5918C10.5918 191.1 10.6463 191.1 10.6736 191.1C10.7963 191.1 10.9053 191.1 11.028 191.1C11.028 191.1 11.028 191.1 11.0143 191.1C11.2188 191.1 11.4096 191.1 11.614 191.1C11.9684 191.1 12.3364 191.1 12.6907 191.128C13.086 191.128 13.4676 191.169 13.8629 191.196C14.2854 191.223 14.7079 191.264 15.1168 191.251H15.0759C15.0759 191.251 15.1713 191.251 15.2258 191.251C15.4166 191.251 15.6074 191.251 15.7982 191.251C15.8527 191.251 15.9073 191.251 15.9618 191.251C16.4115 191.278 16.8477 191.305 17.2974 191.319C17.3111 191.319 17.3383 191.319 17.352 191.319C22.7355 191.593 28.16 191.729 33.5572 191.716C45.0331 191.497 56.509 191.538 67.9713 191.237C81.2598 190.868 94.5484 190.293 107.837 190.389C116.423 190.225 125.051 190.115 133.624 190.69C134.673 190.758 135.791 190.909 136.554 191.716C137.576 192.851 136.663 194.588 135.436 195.136C134.537 195.614 133.542 195.587 132.561 195.56C132.315 195.56 132.07 195.546 131.825 195.56C130.053 195.532 128.267 195.56 126.496 195.587C125.187 195.601 123.865 195.628 122.557 195.628C117.895 195.587 113.234 195.655 108.573 195.738C103.571 195.82 98.5691 195.902 93.5535 195.833C72.6734 196.654 51.766 196.969 30.8722 197.16C25.5568 197.078 20.2414 197.01 14.9259 196.681L14.8851 196.695Z" fill="#1A1A1A"/>
<path d="M130.72 186.491C121.684 186.395 112.634 186.655 103.611 186.272C97.9279 185.998 92.2308 185.834 86.5474 185.916C78.547 185.766 70.6284 185.615 62.6552 185.875C49.5302 186.08 36.3779 186.682 23.2665 186.025C19.9409 185.957 16.6017 185.943 13.3034 185.424C12.9491 185.369 12.5129 185.136 12.5947 184.712C12.6765 184.274 13.4397 184.22 13.7668 184.179C15.7704 183.987 17.8011 183.973 19.8046 183.85C24.1524 183.645 28.5001 183.29 32.8615 183.372C37.9453 183.536 42.6201 183.59 47.6357 183.563C56.5765 183.659 65.5037 183.18 74.4446 183.194C83.0447 183.235 91.6448 183.03 100.245 182.688C109.554 182.182 118.822 182.606 128.103 182.975C138.775 183.481 149.583 183.59 160.2 183.714C160.991 183.878 161.754 184.22 162.395 184.712C162.095 185.136 161.659 185.451 161.182 185.67C159.492 186.34 157.597 186.039 155.825 186.176C153.522 186.203 151.219 186.231 148.915 186.272C142.864 186.34 136.799 186.491 130.747 186.463L130.72 186.491Z" fill="#1A1A1A"/>
<path d="M205.123 185.163C202.942 185.163 200.243 185.054 198.185 184.931C193.074 184.89 187.895 184.876 182.811 184.548C170.545 184.315 158.279 183.973 146.012 183.85C121.289 184.001 96.5786 183.59 71.855 183.782C67.5618 183.85 63.2686 183.754 58.9753 183.795C56.2631 183.686 53.51 184.028 50.8386 183.549C50.0209 183.371 49.2167 183.084 48.4944 182.687C49.5984 181.867 50.8931 181.388 52.2833 181.292C56.5766 181.237 60.8834 181.196 65.1903 181.142C71.0509 181.073 76.9251 181.114 82.7858 181.237C92.8169 181.142 102.834 180.991 112.866 181.032C126.018 180.909 139.17 180.54 152.323 180.731C164.085 180.8 175.847 181.142 187.595 181.607C192.12 181.716 196.645 181.415 201.143 181.962C202.628 182.058 204.318 182.277 205.722 182.523C207.603 182.797 209.552 182.865 211.392 183.276C211.733 183.358 212.06 183.59 212.128 183.96C212.537 185.41 206.063 185.122 205.109 185.15L205.123 185.163Z" fill="#1A1A1A"/>
<path d="M225.171 188.023C225.28 188.365 225.239 188.706 225.143 189.048C225.048 189.363 224.884 189.623 224.666 189.869C224.435 190.129 224.121 190.28 223.794 190.403C223.412 190.553 223.017 190.649 222.608 190.717C222.349 190.772 222.09 190.813 221.831 190.854C221.45 190.895 221.082 190.923 220.7 190.95C220.196 190.991 219.692 191.032 219.174 191.046C219.16 191.046 219.146 191.046 219.146 191.046C218.629 191.073 218.124 191.1 217.606 191.128C217.048 191.155 216.489 191.196 215.93 191.21C215.78 191.223 215.63 191.237 215.48 191.251C209.62 191.579 203.704 191.743 197.817 191.716C186.341 191.497 174.865 191.538 163.403 191.237C151.382 190.909 139.374 190.389 127.353 190.389C123.264 190.252 119.162 190.239 115.059 190.28C111.557 190.252 108.054 190.28 104.565 190.375C92.353 190.375 80.1547 190.895 67.9565 191.237C56.4942 191.524 45.0183 191.497 33.5424 191.716C28.1452 191.73 22.7208 191.607 17.3372 191.319C17.3236 191.319 17.2963 191.319 17.2827 191.319C16.8329 191.292 16.3968 191.278 15.947 191.251C15.8925 191.251 15.838 191.251 15.7834 191.251C15.5926 191.251 15.4018 191.251 15.211 191.251C15.1565 191.251 15.1156 191.251 15.0611 191.251C14.6522 191.251 14.257 191.223 13.8481 191.196C13.4528 191.169 13.0712 191.141 12.676 191.128C12.3216 191.114 11.9536 191.114 11.5992 191.1C11.3948 191.1 11.204 191.1 10.9995 191.1C10.9995 191.1 10.9995 191.1 11.0132 191.1C10.8905 191.1 10.7815 191.1 10.6588 191.1H10.6861H10.6452C10.6452 191.1 10.6043 191.1 10.577 191.1C10.5634 191.1 10.5498 191.1 10.5362 191.1H10.468C10.468 191.1 10.4407 191.1 10.4271 191.1C10.3999 191.1 10.3726 191.1 10.3453 191.1H10.2772C10.2772 191.1 10.2499 191.1 10.2227 191.1C10.2227 191.1 10.2227 191.1 10.2363 191.1C10.1545 191.1 10.0728 191.1 9.99098 191.1C9.96372 191.1 9.93646 191.1 9.9092 191.1H9.89558C9.55484 191.1 9.20048 191.073 8.85975 191.032C8.51901 190.991 8.16465 190.95 7.82392 190.854C7.71488 190.827 7.60585 190.772 7.49681 190.731H7.52407C7.22423 190.608 6.95164 190.43 6.70631 190.211C6.70631 190.211 6.71994 190.225 6.73357 190.239C6.62454 190.143 6.5155 190.033 6.4201 189.91C6.28381 189.719 6.1884 189.514 6.12025 189.281C6.05211 189.062 6.06574 188.816 6.07937 188.597C6.093 188.406 6.16114 188.228 6.22929 188.05C6.33832 187.79 6.50187 187.571 6.71994 187.393C6.81535 187.311 6.91075 187.243 7.01979 187.174C7.15608 187.092 7.29238 187.038 7.4423 186.997C7.82392 186.901 8.2328 186.887 8.62805 186.873C8.96878 186.873 9.32314 186.832 9.66388 186.832C10.0455 186.832 10.4407 186.819 10.8224 186.832C11.1495 186.832 11.4766 186.846 11.8173 186.86C12.4443 186.86 13.0712 186.86 13.6709 186.832C18.5638 186.86 23.4704 186.928 28.3633 186.723C40.2753 186.422 52.201 186.422 64.1266 186.422C76.025 186.422 87.9234 186.422 99.8082 186.121C101.076 186.176 102.343 186.231 103.611 186.285C112.633 186.668 121.683 186.408 130.719 186.504C135.394 186.531 140.083 186.436 144.771 186.367C152.254 186.436 159.723 186.436 167.205 186.436C179.131 186.436 191.056 186.436 202.969 186.737C203.759 186.764 204.55 186.791 205.34 186.819C205.572 186.819 205.79 186.805 206.021 186.805C206.308 186.805 206.594 186.805 206.894 186.805C207.194 186.805 207.439 186.805 207.725 186.778C207.957 186.778 208.202 186.778 208.434 186.778C208.938 186.778 209.442 186.778 209.947 186.778C210.028 186.778 210.11 186.778 210.178 186.778C210.178 186.778 210.178 186.778 210.192 186.778C210.206 186.778 210.206 186.778 210.206 186.778C210.533 186.764 210.846 186.764 211.173 186.778C211.514 186.778 211.868 186.778 212.223 186.778C212.441 186.778 212.645 186.778 212.863 186.778C213.081 186.778 213.286 186.791 213.504 186.791C213.736 186.791 213.967 186.778 214.199 186.778C214.485 186.778 214.758 186.75 215.03 186.75C215.657 186.75 216.284 186.723 216.911 186.709C217.198 186.709 217.484 186.709 217.784 186.696C217.797 186.696 217.811 186.696 217.838 186.696C217.865 186.696 217.893 186.696 217.92 186.696C218.37 186.696 218.819 186.668 219.283 186.641C219.719 186.627 220.155 186.627 220.591 186.6C220.591 186.6 220.605 186.6 220.618 186.6C220.728 186.6 220.837 186.586 220.932 186.573C221.068 186.573 221.205 186.573 221.341 186.559C221.559 186.559 221.777 186.531 221.995 186.531C222.172 186.531 222.349 186.545 222.513 186.559C222.676 186.559 222.826 186.573 222.99 186.586C223.208 186.614 223.44 186.641 223.644 186.723C223.685 186.723 223.726 186.75 223.767 186.75C224.108 186.846 224.421 186.997 224.68 187.243C224.912 187.462 225.089 187.735 225.184 188.036L225.171 188.023Z" fill="#FFFFEB"/>
<path d="M93.224 216.489C89.7622 214.889 86.6002 212.659 83.9833 209.882C81.5437 207.297 79.5675 204.328 78.1364 201.073C74.9607 193.864 74.729 185.56 77.2641 178.119C78.259 175.191 79.7174 172.442 81.5164 169.938C83.738 166.915 86.4094 164.303 89.5441 162.251C90.4982 161.621 91.4795 161.061 92.488 160.568C92.7061 160.377 92.9514 160.212 93.1286 160.117C93.2104 160.076 93.2785 160.048 93.3603 160.021C93.9464 159.775 94.5188 159.501 95.1185 159.269C95.7318 159.022 96.3451 158.804 96.9721 158.598C98.4168 158.133 99.9024 157.791 101.388 157.545C104.127 157.107 106.921 157.08 109.675 157.408C111.583 157.654 113.436 158.065 115.276 158.653C117.075 159.228 118.793 159.994 120.442 160.896C125.28 163.55 129.342 167.613 132.054 172.428C134.276 176.368 135.584 180.731 135.979 185.232C136.061 186.272 136.115 187.325 136.088 188.365C136.088 188.665 136.088 188.966 136.061 189.267C136.061 189.336 136.061 189.39 136.061 189.459C136.02 190.457 135.925 191.442 135.775 192.427C135.216 196.175 134.044 199.787 132.231 203.111C128.497 209.964 122.254 215.272 114.84 217.72C111.869 218.705 108.734 219.184 105.599 219.184C101.361 219.184 97.1084 218.281 93.2513 216.503L93.224 216.489ZM107.467 212.618C108.571 212.55 109.661 212.413 110.751 212.208C111.119 212.139 111.515 212.03 111.91 211.961C112.087 211.92 112.264 211.866 112.441 211.825C113.573 211.524 114.663 211.154 115.753 210.717C116.885 210.238 117.975 209.677 119.038 209.061C120.033 208.446 120.987 207.776 121.9 207.05C122.718 206.367 123.495 205.642 124.231 204.875C124.912 204.137 125.553 203.371 126.152 202.564C126.739 201.743 127.284 200.895 127.788 200.019C128.238 199.171 128.66 198.309 129.028 197.434C129.355 196.586 129.655 195.724 129.914 194.862C130.146 193.987 130.35 193.084 130.5 192.195C130.623 191.306 130.718 190.43 130.759 189.527C130.759 189.445 130.759 189.377 130.759 189.295C130.773 188.392 130.759 187.489 130.705 186.586C130.609 185.588 130.473 184.589 130.282 183.604C130.064 182.619 129.805 181.648 129.492 180.69C129.137 179.678 128.728 178.693 128.265 177.722C127.747 176.71 127.188 175.739 126.561 174.795C125.839 173.741 125.035 172.743 124.176 171.799C123.236 170.8 122.214 169.87 121.137 169.022C119.992 168.146 118.793 167.367 117.525 166.683C116.121 165.958 114.663 165.342 113.15 164.85C111.705 164.412 110.22 164.084 108.721 163.892C107.194 163.714 105.654 163.66 104.114 163.742C102.642 163.837 101.197 164.056 99.7661 164.371C98.4577 164.686 97.1765 165.11 95.9226 165.616C95.6364 165.739 95.3366 165.862 95.0504 165.999C94.7369 166.149 94.4234 166.286 94.0963 166.354C93.6602 166.573 93.2377 166.82 92.8151 167.066C91.7384 167.722 90.7026 168.461 89.7213 169.241C88.9172 169.911 88.1539 170.636 87.4179 171.388C86.7228 172.141 86.0686 172.921 85.4553 173.741C84.8693 174.562 84.3377 175.397 83.8334 176.258C83.3973 177.065 82.9884 177.9 82.6204 178.748C82.2524 179.664 81.9389 180.595 81.6664 181.539C81.4347 182.428 81.2439 183.331 81.0939 184.233C80.9713 185.15 80.8759 186.08 80.835 187.01C80.8213 187.94 80.835 188.871 80.9031 189.787C80.9985 190.772 81.1348 191.743 81.3256 192.715C81.5437 193.713 81.8163 194.698 82.1298 195.669C82.4841 196.682 82.893 197.653 83.3564 198.624C83.8743 199.65 84.4604 200.635 85.0873 201.592C85.8097 202.632 86.6002 203.617 87.4588 204.561C88.3856 205.532 89.3806 206.449 90.43 207.283C91.6158 208.186 92.8697 208.993 94.1781 209.704C95.5274 210.402 96.9176 210.976 98.3487 211.455C99.8479 211.92 101.374 212.249 102.928 212.468C104.455 212.645 105.967 212.686 107.494 212.618H107.467Z" fill="#1A1A1A"/>
<path d="M89.0961 163.906C89.0279 162.935 90.1728 162.565 90.8133 162.073C92.6533 160.896 94.6977 159.993 96.8375 159.542C96.8375 159.542 96.8375 159.542 96.8239 159.542C96.8239 159.542 96.8239 159.542 96.8102 159.542C99.1 158.899 101.349 158.352 103.707 158.051C104.129 158.051 104.92 157.668 105.151 158.174C105.179 158.325 105.07 158.461 104.933 158.516C104.306 158.708 103.625 158.776 102.984 158.926C100.695 159.351 98.4321 160.076 96.2105 160.623C94.4387 161.143 92.776 162.032 91.2222 163.03C90.5816 163.441 89.9138 163.988 89.0961 163.892V163.906Z" fill="#1A1A1A"/>
<path d="M90.5926 162.579C88.5618 162.1 94.0681 159.816 94.5587 159.652C95.0358 159.487 100.229 157.353 99.6016 158.694C99.438 158.886 99.1654 158.899 98.9883 158.94C97.0256 159.487 95.1312 160.24 93.3048 161.102C92.3644 161.498 91.6148 162.456 90.579 162.579H90.5926Z" fill="#1A1A1A"/>
<path d="M82.7852 169.131C82.39 168.529 83.5076 167.572 83.8347 167.107C84.6524 166.108 85.4702 165.178 86.4242 164.33C86.4242 164.33 86.4106 164.343 86.397 164.357C88.4005 162.62 90.6084 161.088 93.0753 160.116C94.3701 159.556 95.6785 159.049 97.0551 158.748C97.3822 158.694 97.6821 158.393 97.9546 158.68C98.1455 158.913 97.8729 159.186 97.6275 159.2C97.6684 159.2 97.6957 159.2 97.7366 159.186C93.6341 160.472 89.7225 162.62 86.506 165.465C85.4293 166.491 84.4071 167.558 83.5212 168.748C83.3576 168.967 83.0714 169.145 82.7988 169.145L82.7852 169.131Z" fill="#1A1A1A"/>
<path d="M83.6987 174.876C83.2625 174.562 84.1212 173.905 84.2984 173.59C85.7158 171.648 87.4058 169.924 89.423 168.597C89.423 168.597 89.423 168.597 89.4093 168.597C91.2766 167.257 93.2937 166.176 95.3654 165.178C96.0741 164.89 96.7555 164.521 97.4915 164.302C98.282 164.179 98.0912 164.672 97.5461 164.904C95.2291 165.78 92.9939 167.024 91.004 168.433C90.2271 168.98 89.4775 169.541 88.7551 170.157C88.7551 170.157 88.7824 170.143 88.7824 170.13C88.7824 170.13 88.7824 170.13 88.796 170.116C87.6239 171.101 86.6017 172.168 85.5523 173.276C85.266 173.618 84.9934 173.96 84.7209 174.261C84.4619 174.548 84.1484 175.136 83.685 174.876H83.6987Z" fill="#1A1A1A"/>
<path d="M130.707 186.614C130.762 187.516 130.789 188.419 130.762 189.322C130.762 189.404 130.762 189.486 130.762 189.555C130.707 190.444 130.625 191.333 130.503 192.222C130.353 193.125 130.162 194.014 129.916 194.89C129.658 195.765 129.371 196.627 129.031 197.461C128.649 198.35 128.24 199.199 127.79 200.047C127.286 200.922 126.741 201.77 126.155 202.591C125.555 203.384 124.915 204.164 124.233 204.889C123.497 205.655 122.72 206.38 121.902 207.064C120.989 207.789 120.035 208.459 119.04 209.061C117.977 209.691 116.887 210.238 115.756 210.717C114.679 211.154 113.575 211.537 112.444 211.825C112.267 211.866 112.089 211.92 111.912 211.961C111.517 212.016 111.135 212.139 110.754 212.208C109.663 212.413 108.573 212.536 107.469 212.618C105.943 212.686 104.416 212.632 102.903 212.467C101.349 212.249 99.8229 211.92 98.3237 211.455C96.8926 210.976 95.5025 210.402 94.1532 209.704C92.8447 208.993 91.6045 208.186 90.4051 207.283C89.3556 206.449 88.3607 205.532 87.4339 204.561C86.5752 203.617 85.7984 202.632 85.0624 201.592C84.4354 200.635 83.8494 199.65 83.3315 198.624C82.8681 197.666 82.4592 196.682 82.1048 195.669C81.7914 194.698 81.5188 193.713 81.3007 192.715C81.1099 191.743 80.9736 190.772 80.8782 189.787C80.81 188.857 80.7964 187.94 80.81 187.01C80.8509 186.08 80.9463 185.164 81.069 184.233C81.2189 183.33 81.4097 182.428 81.6414 181.539C81.914 180.595 82.2411 179.664 82.5955 178.762C82.9635 177.913 83.3587 177.079 83.8085 176.272C84.2992 175.41 84.8443 174.562 85.4304 173.755C86.0437 172.934 86.6979 172.154 87.393 171.402C87.4748 171.32 87.5566 171.224 87.652 171.142C88.0063 170.814 88.3607 170.486 88.7423 170.171C88.7423 170.171 88.7696 170.157 88.7696 170.144C89.4783 169.542 90.2143 168.995 90.9639 168.461C92.3132 167.517 93.7579 166.642 95.2708 165.917C95.4752 165.821 95.6796 165.739 95.8841 165.643C97.138 165.137 98.4191 164.727 99.7275 164.398C101.159 164.07 102.617 163.865 104.075 163.769C105.615 163.701 107.156 163.742 108.682 163.92C110.181 164.125 111.667 164.439 113.112 164.877C114.624 165.37 116.083 165.971 117.487 166.71C118.754 167.394 119.953 168.174 121.098 169.049C122.175 169.897 123.197 170.828 124.138 171.826C124.996 172.77 125.8 173.769 126.523 174.822C127.15 175.766 127.722 176.737 128.226 177.749C128.69 178.721 129.099 179.705 129.453 180.718C129.767 181.675 130.026 182.647 130.244 183.631C130.434 184.616 130.571 185.615 130.666 186.614H130.707Z" fill="#044F46"/>
<path d="M116.532 189.787C116.559 189.39 116.572 188.98 116.572 188.583C116.545 188.132 116.504 187.694 116.45 187.243C116.368 186.805 116.273 186.367 116.15 185.93C115.986 185.423 115.796 184.917 115.591 184.425C115.346 183.919 115.073 183.413 114.773 182.934C114.433 182.428 114.051 181.935 113.642 181.47C113.179 180.978 112.674 180.513 112.143 180.089C111.584 179.664 110.984 179.295 110.371 178.953C109.717 178.625 109.035 178.351 108.34 178.132C107.659 177.941 106.964 177.79 106.255 177.708C105.601 177.64 104.947 177.626 104.292 177.654C103.679 177.695 103.066 177.777 102.466 177.9C101.894 178.037 101.348 178.214 100.803 178.406C100.313 178.611 99.8492 178.83 99.3858 179.076C98.9906 179.309 98.6226 179.555 98.2546 179.815C97.9139 180.075 97.5731 180.362 97.2597 180.663C96.9598 180.964 96.6872 181.265 96.4146 181.58C96.1693 181.908 95.924 182.236 95.7059 182.578C95.5015 182.906 95.3243 183.248 95.1471 183.604C94.9972 183.946 94.8473 184.302 94.7246 184.657C94.602 185.04 94.4929 185.423 94.4111 185.807C94.343 186.203 94.2748 186.6 94.234 186.997C94.2067 187.407 94.1931 187.831 94.2067 188.241C94.234 188.693 94.2748 189.144 94.3294 189.582C94.4111 190.033 94.5202 190.485 94.6428 190.936C94.7928 191.401 94.9563 191.866 95.1608 192.304C95.4197 192.838 95.6923 193.357 96.0058 193.864C96.3465 194.37 96.7145 194.835 97.1097 195.286C97.5868 195.792 98.1047 196.257 98.6499 196.695C99.2087 197.119 99.7947 197.489 100.408 197.831C101.049 198.145 101.703 198.405 102.371 198.638C103.052 198.843 103.747 198.98 104.456 199.075C105.151 199.144 105.846 199.158 106.541 199.13C107.141 199.075 107.727 198.993 108.313 198.87C108.872 198.733 109.431 198.569 109.976 198.364C110.453 198.173 110.916 197.954 111.366 197.708C111.775 197.461 112.17 197.215 112.552 196.928C112.892 196.654 113.233 196.381 113.547 196.08C113.833 195.792 114.119 195.478 114.378 195.163C114.623 194.849 114.841 194.534 115.06 194.206C115.264 193.864 115.455 193.508 115.632 193.152C115.796 192.797 115.932 192.427 116.068 192.058C116.177 191.716 116.273 191.36 116.354 191.005C116.436 190.594 116.491 190.17 116.545 189.746L116.532 189.787ZM121.765 185.109C122.011 186.764 122.051 188.419 121.861 190.088C121.683 191.73 121.22 193.371 120.579 194.89C119.285 197.981 117.104 200.662 114.364 202.591C112.402 203.973 110.153 204.875 107.795 205.313C106.882 205.477 105.955 205.559 105.028 205.559C103.284 205.559 101.553 205.272 99.8901 204.739C95.1062 203.193 91.29 199.267 89.6681 194.52C89.4501 193.864 89.2593 193.193 89.123 192.564C89.123 192.537 89.123 192.509 89.1093 192.468C89.0276 192.085 88.9594 191.689 88.9049 191.306C88.8504 190.991 88.8095 190.663 88.7822 190.334C88.7277 189.582 88.7141 188.816 88.755 188.05C88.7822 187.462 88.8367 186.873 88.9322 186.299C89.1775 184.63 89.6409 182.989 90.3496 181.456C90.8811 180.335 91.4808 179.268 92.2032 178.269C92.8574 177.366 93.6206 176.546 94.4111 175.78C95.7877 174.453 97.4505 173.386 99.195 172.62C102.425 171.211 106.078 170.828 109.499 171.662C112.824 172.469 115.782 174.316 118.017 176.915C120.007 179.24 121.234 182.099 121.752 185.109H121.765Z" fill="#FFFFEB"/>
<path d="M169.875 225.531C160.621 221.783 149.745 207.967 150.222 197.639C150.454 187.667 159.04 184.466 167.122 189.117C168.69 189.965 170.093 191.045 171.402 192.277C172.342 193.234 173.474 194.137 173.896 195.464C174.605 197.789 172.479 199.527 170.475 198.008C168.976 196.996 167.708 195.642 166.1 194.766C164.642 194 163.061 193.412 161.412 193.179C156.287 192.92 155.088 198.09 156.178 202.194C157.909 208.555 162.543 213.849 167.599 217.884C169.984 219.676 173.146 220.976 175.886 219.129C176.813 218.555 176.867 217.269 177.849 216.763C178.68 216.297 179.716 216.434 180.493 216.954C184.213 219.526 181.379 224.149 178.026 225.435C175.463 226.639 172.52 226.625 169.903 225.545L169.875 225.531Z" fill="#1A1A1A"/>
<path d="M260.294 210.894C247.087 200.156 235.066 187.954 223.836 175.15C216.244 166.259 209.157 156.943 202.247 147.518C197.626 141.171 192.829 134.96 188.031 128.736C182.212 121.171 176.692 113.388 170.968 105.741C169.932 104.647 168.732 103.211 167.124 103.211C165.652 103.402 164.221 104.51 163.73 105.919C163.185 108.203 163.88 110.597 164.603 112.759C166.238 117.095 168.937 120.912 171.158 124.947C174.716 131.376 178.995 137.354 182.73 143.688C184.979 147.34 187.405 151.293 189.735 154.836C191.166 157.011 192.652 159.145 194.151 161.279C195.568 163.659 200.121 168.584 196.25 170.609C194.928 171.142 193.565 170.157 192.774 169.159C191.78 168.051 190.757 166.97 189.681 165.944C187.732 164.371 184.093 160.335 181.435 162.004C180.126 163.017 179.731 164.822 179.636 166.395C179.772 171.074 183.752 174.384 186.314 177.927C187.486 179.309 188.999 181.019 188.222 182.961C187.827 184.11 186.478 184.739 185.346 184.302C184.488 184.001 183.875 183.371 183.248 182.742C182.13 181.634 181.04 180.499 179.895 179.404C175.165 174.521 166.961 172.195 165.23 180.895C164.126 188.187 170.845 189.842 170.082 193.645C169.823 195.19 167.887 195.82 166.688 194.889C165.325 193.918 164.126 192.66 163.144 191.305C159.342 186.408 158.197 179.131 161.509 173.7C164.657 168.858 169.387 167.832 174.675 169.555C172.494 163.181 175.833 153.332 183.984 155.616C180.522 150.267 177.319 144.755 173.911 139.379C169.536 132.977 165.816 126.151 161.918 119.462C158.933 113.88 155.376 104.797 160.432 99.5171C165.897 94.1001 172.044 98.1081 175.765 103.306C184.392 115.371 193.456 127.122 202.451 138.914C209.525 148.612 216.721 158.229 224.299 167.531C232.79 177.64 242.004 187.202 251.612 196.216C254.038 198.473 256.546 200.648 259.054 202.796C260.022 203.617 260.976 204.451 261.971 205.245C262.87 205.915 263.729 206.736 264.029 207.871C264.805 210.32 262.679 212.44 260.294 210.881V210.894Z" fill="#1A1A1A"/>
<path d="M211.962 256.871C205.815 252.096 200.145 246.734 194.312 241.591C190.046 238.048 186.175 234.094 182.168 230.278C180.451 228.677 178.87 226.927 177.33 225.162C176.948 224.724 176.539 224.273 176.253 223.753C175.353 222.344 176.253 219.854 178.161 220.429C179.469 220.88 180.519 221.851 181.582 222.713C190.932 230.77 199.927 239.293 209.345 247.295C210.449 248.239 211.539 249.196 212.67 250.113C214.183 251.262 216.037 252.452 216.023 254.6C216.16 256.939 213.883 258.457 211.962 256.871Z" fill="#1A1A1A"/>
<path d="M212.304 256.405C210.083 254.64 212.1 252.479 213.681 251.166C215.453 249.497 217.102 247.719 218.819 246.009C224.584 240.25 230.758 234.819 236.714 229.334C242.684 223.766 248.599 218.144 254.61 212.645C255.659 211.715 256.736 210.798 257.785 209.854C259.08 208.705 260.416 207.118 262.297 207.146C263.005 207.146 263.741 207.502 264.055 208.172C265.363 210.347 258.985 215.367 257.513 216.981C254.8 219.608 252.143 222.289 249.335 224.806C240.585 233.219 231.372 241.153 222.758 249.716C221.15 251.33 219.596 252.999 217.933 254.558C216.557 256.118 214.349 257.718 212.304 256.405Z" fill="#1A1A1A"/>
<path d="M258.371 209.307C258.18 209.485 257.989 209.663 257.799 209.841C256.749 210.785 255.686 211.701 254.623 212.631C248.613 218.13 242.697 223.766 236.728 229.32C230.772 234.819 224.598 240.25 218.832 246.009C217.156 247.664 215.561 249.388 213.858 251.002C213.462 250.687 213.067 250.4 212.686 250.113C211.554 249.21 210.45 248.239 209.36 247.295C199.942 239.292 190.947 230.77 181.597 222.713C181.543 222.672 181.488 222.617 181.434 222.576C182.592 220.73 182.701 218.472 180.48 216.94C179.703 216.421 178.667 216.284 177.835 216.749C176.854 217.255 176.813 218.541 175.873 219.115C173.133 220.962 169.971 219.663 167.586 217.871C162.53 213.835 157.909 208.541 156.165 202.18C155.074 198.077 156.287 192.906 161.398 193.166C163.034 193.398 164.615 193.986 166.087 194.752C167.695 195.628 168.963 196.969 170.462 197.995C172.465 199.513 174.592 197.776 173.883 195.45C173.46 194.123 172.329 193.22 171.389 192.263C170.585 191.497 169.74 190.799 168.84 190.17C167.15 188.05 164.506 185.683 165.242 180.895C166.973 172.209 175.178 174.521 179.907 179.404C181.038 180.499 182.142 181.62 183.26 182.742C183.887 183.371 184.5 184.001 185.359 184.301C186.49 184.726 187.839 184.11 188.235 182.961C189.011 181.018 187.499 179.309 186.327 177.927C183.751 174.398 179.771 171.074 179.648 166.395C179.73 164.808 180.139 163.016 181.447 162.004C184.105 160.335 187.744 164.357 189.693 165.944C190.77 166.97 191.792 168.064 192.787 169.158C193.577 170.157 194.94 171.142 196.262 170.608C200.133 168.584 195.581 163.646 194.163 161.279C192.664 159.145 191.179 157.011 189.747 154.836C187.417 151.28 184.991 147.34 182.742 143.688C179.008 137.354 174.728 131.39 171.171 124.947C168.963 120.911 166.251 117.095 164.615 112.759C163.893 110.584 163.198 108.203 163.743 105.919C164.233 104.496 165.664 103.402 167.136 103.21C168.745 103.21 169.944 104.647 170.98 105.741C176.704 113.374 182.224 121.171 188.044 128.736C192.841 134.946 197.639 141.157 202.259 147.518C209.169 156.943 216.27 166.258 223.848 175.15C234.52 187.325 245.928 198.966 258.385 209.307H258.371Z" fill="#FFFFEB"/>
<path d="M217.063 296.773C217.063 296.773 217.049 296.773 217.035 296.759C217.035 296.759 217.049 296.759 217.063 296.759V296.773Z" fill="#1A1A1A"/>
<path d="M215.617 296.923C215.699 296.992 215.781 297.046 215.863 297.115C215.781 297.06 215.699 296.992 215.617 296.923Z" fill="#1A1A1A"/>
<path d="M292.499 201.428C292.786 201.647 293.072 201.866 293.358 202.098C293.317 202.235 293.276 202.372 293.249 202.509C293.222 202.646 293.181 202.782 293.14 202.905C292.418 204.903 291.627 206.886 290.646 208.774C285.617 219.553 279.006 229.32 272.028 238.964C261.724 252.821 250.603 266.145 237.573 277.499C232.326 282.04 226.738 286.213 220.85 289.879C220.019 290.385 219.201 290.905 218.383 291.411C217.729 290.727 216.911 290.152 216.161 289.55C216.052 289.468 215.943 289.372 215.834 289.29C215.616 289.113 215.412 288.935 215.221 288.743C206.117 280.946 197.08 273.08 188.017 265.228C187.908 265.133 187.785 265.037 187.676 264.941C187.567 264.845 187.458 264.736 187.349 264.64C187.69 264.462 188.044 264.271 188.371 264.066C189.83 263.218 191.22 262.26 192.583 261.248C198.43 256.939 203.841 252.028 209.074 247.008C214.376 241.946 219.514 236.721 224.53 231.372C229.355 226.229 234.057 220.976 238.65 215.627C243.12 210.402 247.495 205.08 251.652 199.595C253.778 196.804 255.836 193.959 257.799 191.059C259.789 188.118 261.724 185.122 263.278 181.921C263.387 181.703 263.482 181.484 263.592 181.265C263.687 181.046 263.796 180.827 263.891 180.608C264.082 180.17 264.259 179.719 264.423 179.254C265.036 179.787 265.65 180.321 266.263 180.841C266.563 181.087 266.863 181.347 267.162 181.593C267.162 181.593 267.19 181.62 267.203 181.62C267.571 181.935 267.953 182.25 268.321 182.551C268.689 182.852 269.043 183.153 269.411 183.44C269.466 183.481 269.52 183.522 269.575 183.577C269.929 183.864 270.297 184.165 270.652 184.452C271.047 184.767 271.428 185.081 271.824 185.382C272.192 185.67 272.56 185.97 272.928 186.258C273.486 186.695 274.032 187.133 274.59 187.557C276.253 188.857 277.93 190.143 279.592 191.442C279.919 191.716 280.247 191.976 280.587 192.249C280.914 192.523 281.255 192.783 281.582 193.043C282.046 193.412 282.523 193.781 282.986 194.151C283.245 194.356 283.504 194.561 283.763 194.766C286.652 196.996 289.596 199.171 292.499 201.414V201.428Z" fill="#F0D7FF"/>
<path d="M293.249 202.509C293.29 202.372 293.331 202.235 293.358 202.098C293.072 201.879 292.785 201.647 292.499 201.428C289.596 199.198 286.666 197.023 283.763 194.78C283.504 194.575 283.245 194.369 282.986 194.164C282.509 193.795 282.046 193.425 281.582 193.056C281.241 192.796 280.914 192.523 280.587 192.263C280.26 192.003 279.919 191.729 279.592 191.456C277.929 190.156 276.253 188.87 274.59 187.571C274.031 187.133 273.486 186.709 272.928 186.271C272.56 185.984 272.192 185.697 271.824 185.396C271.428 185.081 271.033 184.78 270.651 184.466C270.283 184.178 269.929 183.891 269.575 183.59C269.52 183.549 269.466 183.508 269.411 183.453C269.043 183.152 268.689 182.865 268.321 182.564C267.939 182.249 267.571 181.949 267.203 181.634C267.203 181.634 267.176 181.62 267.162 181.607C266.862 181.36 266.563 181.1 266.263 180.854C265.649 180.334 265.036 179.801 264.423 179.267C264.259 179.719 264.082 180.17 263.891 180.622C263.796 180.84 263.7 181.059 263.591 181.278C263.496 181.497 263.387 181.716 263.278 181.935C261.724 185.136 259.789 188.132 257.799 191.073C255.836 193.973 253.765 196.818 251.652 199.609C247.495 205.094 243.12 210.415 238.65 215.641C234.07 221.003 229.355 226.242 224.53 231.386C219.514 236.734 214.376 241.96 209.074 247.021C203.827 252.041 198.43 256.952 192.583 261.261C191.22 262.26 189.83 263.217 188.371 264.079C188.031 264.271 187.69 264.462 187.349 264.654C187.458 264.749 187.567 264.859 187.676 264.955C187.785 265.05 187.894 265.146 188.017 265.242C197.08 273.094 206.117 280.959 215.221 288.757C215.412 288.948 215.616 289.126 215.834 289.304C215.943 289.386 216.052 289.482 216.161 289.564C216.925 290.166 217.729 290.74 218.383 291.424C219.201 290.918 220.019 290.385 220.85 289.892C226.738 286.226 232.339 282.068 237.573 277.512C250.603 266.158 261.724 252.835 272.028 238.978C279.006 229.334 285.616 219.58 290.646 208.787C291.613 206.9 292.404 204.916 293.14 202.919C293.167 202.782 293.208 202.659 293.249 202.522V202.509ZM294.653 196.093C296.547 197.379 299.382 198.706 298.96 201.318C298.919 202.55 298.496 203.931 298.21 204.889C297.61 207.118 296.683 209.225 295.607 211.263C292.567 218.089 288.588 224.642 284.403 230.784C279.674 237.856 274.658 244.709 269.357 251.357C258.317 265.119 246.255 278.306 231.931 288.688C229.096 290.795 226.179 292.806 223.153 294.639C221.913 295.309 220.359 296.595 218.819 297.197C218.71 297.211 218.587 297.238 218.478 297.252C218.056 297.347 217.606 297.32 217.184 297.169C216.407 296.882 215.807 296.349 215.166 295.87C215.139 295.856 215.126 295.843 215.098 295.815C215.098 295.815 215.112 295.829 215.126 295.829C214.035 295.008 212.959 294.105 211.95 293.148L211.746 292.997C204.958 287.238 198.28 281.342 191.601 275.46C187.881 272.259 184.242 268.922 181.025 265.201C180.889 265.091 180.766 264.982 180.643 264.873C180.248 264.476 179.867 263.997 179.648 263.464C179.267 262.52 179.062 261.521 179.158 260.495C179.253 259.346 179.553 258.279 179.962 257.212C180.589 255.571 181.434 253.984 182.32 252.479C182.552 252.082 182.783 251.699 183.015 251.316C185.182 247.377 189.38 241.262 192.992 236.666C193.005 236.638 193.032 236.625 193.046 236.597C193.182 236.406 193.332 236.214 193.482 236.037L193.728 235.722C193.728 235.722 193.728 235.722 193.741 235.722C193.823 235.804 193.918 235.886 194 235.968C194.068 236.037 194.15 236.105 194.218 236.16C194.245 236.187 194.273 236.214 194.3 236.228C194.382 236.296 194.464 236.365 194.545 236.433C194.641 236.515 194.722 236.584 194.818 236.666C194.9 236.748 194.995 236.816 195.09 236.885C195.881 237.514 196.685 238.13 197.517 238.69C197.517 238.69 197.626 238.759 197.68 238.8C197.735 238.841 197.789 238.868 197.844 238.909C197.953 238.991 198.075 239.06 198.184 239.142C198.239 239.169 198.293 239.21 198.348 239.238C198.484 239.32 198.62 239.402 198.757 239.484C198.307 240.099 197.857 240.715 197.407 241.33C197.789 241.631 198.13 241.905 198.402 242.11C199.588 243.164 200.883 244.08 202.001 245.202C203.336 243.971 204.658 242.712 205.967 241.467C209.388 238.198 212.74 234.833 216.039 231.44C220.836 226.488 225.511 221.427 230.077 216.256C234.752 210.976 239.318 205.586 243.693 200.046C244.96 198.446 246.228 196.818 247.468 195.19C247.345 195.067 247.236 194.958 247.114 194.848C245.737 193.562 244.456 192.194 243.311 190.703C242.848 191.127 242.384 191.551 241.934 191.975C241.785 191.825 241.648 191.675 241.498 191.538C240.912 190.95 240.313 190.348 239.727 189.759C239.181 189.212 238.636 188.679 238.091 188.118L237.546 187.557C241.485 183.864 245.546 180.266 249.826 176.969C251.284 175.848 252.756 174.767 254.296 173.755C255.741 172.811 257.267 171.881 258.917 171.333C259.503 171.142 260.102 170.991 260.729 170.964C260.811 170.964 260.879 170.964 260.961 170.964C261.111 170.95 261.261 170.937 261.411 170.964C262.746 171.115 263.81 172.099 264.818 172.893C274.686 180.731 284.621 188.474 294.653 196.107V196.093Z" fill="#1A1A1A"/>
</g>
<defs>
<clipPath id="clip0_13492_1398">
<rect width="299" height="297" fill="white"/>
</clipPath>
</defs>
</svg>
