<svg width="228" height="228" viewBox="0 0 228 228" fill="none" xmlns="http://www.w3.org/2000/svg">
<circle cx="114" cy="114" r="114" fill="#F0D7FF"/>
<path d="M118 51C118 48.7909 116.209 47 114 47C111.791 47 110 48.7909 110 51L114 51L118 51ZM111.172 135.828C112.734 137.391 115.266 137.391 116.828 135.828L142.284 110.373C143.846 108.81 143.846 106.278 142.284 104.716C140.722 103.154 138.19 103.154 136.627 104.716L114 127.343L91.3726 104.716C89.8105 103.154 87.2778 103.154 85.7157 104.716C84.1536 106.278 84.1536 108.81 85.7157 110.373L111.172 135.828ZM114 51L110 51L110 133L114 133L118 133L118 51L114 51Z" fill="#1A1A1A"/>
<path d="M61.75 141V161C61.75 163.209 63.5409 165 65.75 165H162.75C164.959 165 166.75 163.209 166.75 161V141" stroke="black" stroke-width="8" stroke-linecap="round"/>
</svg>
