<svg width="24" height="24" viewBox="0 0 24 24" fill="none" xmlns="http://www.w3.org/2000/svg">
<path d="M11.5 2H19C21.2091 2 23 3.68965 23 5.77394V14.2653C23 16.3496 21.2091 18.0392 19 18.0392H12.7814C11.6475 18.0392 10.5668 18.4933 9.80827 19.2885L7.37165 21.8429C7.0651 22.1642 6.5 21.9597 6.5 21.5273V18.9827C6.5 18.4616 6.05228 18.0392 5.5 18.0392H5C2.79086 18.0392 1 16.3496 1 14.2653V5.77394C1 3.68965 2.79086 2 5 2H6M8 2H9.5M6 8H18M6 12H14" stroke="#1A1A1A" stroke-width="1.25" stroke-linecap="round"/>
</svg>
