<svg width="24" height="24" viewBox="0 0 24 24" fill="none" xmlns="http://www.w3.org/2000/svg">
<g clip-path="url(#clip0_3010_1459)">
<path fill-rule="evenodd" clip-rule="evenodd" d="M21.49 5C20.3708 3.48875 18.8919 2.28099 17.1874 1.4864C15.483 0.691809 13.6071 0.335562 11.73 0.450005C9.23247 0.55248 6.82619 1.41716 4.83467 2.92778C2.84316 4.4384 1.36188 6.52254 0.589994 8.9C-0.241363 11.2511 -0.233483 13.8174 0.612296 16.1634C1.45807 18.5093 3.08963 20.4903 5.22999 21.77C6.34856 22.4523 7.57664 22.9361 8.85999 23.2C10.123 23.4598 11.4107 23.5806 12.7 23.56C12.7902 23.56 12.8766 23.5242 12.9404 23.4604C13.0042 23.3967 13.04 23.3102 13.04 23.22C13.04 23.1298 13.0042 23.0434 12.9404 22.9796C12.8766 22.9158 12.7902 22.88 12.7 22.88C11.4549 22.8782 10.2138 22.7373 8.99999 22.46C7.81226 22.1957 6.68121 21.7216 5.65999 21.06C3.73988 19.8563 2.29357 18.0273 1.56492 15.8814C0.836262 13.7355 0.869842 11.404 1.65999 9.28C2.38096 7.14191 3.73697 5.2746 5.54699 3.92736C7.35702 2.58012 9.53493 1.81704 11.79 1.74C13.4644 1.62815 15.1404 1.93529 16.6663 2.63367C18.1923 3.33205 19.5202 4.39965 20.53 5.74C21.5413 7.10109 22.2613 8.656 22.645 10.3077C23.0287 11.9594 23.0678 13.6725 22.76 15.34C22.3185 17.3377 21.2708 19.1504 19.76 20.53C18.235 21.9125 16.2674 22.7067 14.21 22.77C14.1092 22.77 14.0126 22.81 13.9413 22.8813C13.87 22.9526 13.83 23.0492 13.83 23.15C13.83 23.2508 13.87 23.3474 13.9413 23.4187C14.0126 23.49 14.1092 23.53 14.21 23.53C16.4668 23.5109 18.6405 22.6763 20.33 21.18C22.0159 19.6891 23.197 17.7113 23.71 15.52C24.0845 13.7082 24.0807 11.8384 23.6987 10.0282C23.3167 8.21786 22.5647 6.50602 21.49 5Z" fill="#1A1A1A"/>
<path fill-rule="evenodd" clip-rule="evenodd" d="M5.28 10.67C5.13836 10.7964 5.02373 10.9502 4.94296 11.122C4.8622 11.2939 4.81697 11.4802 4.81 11.67C4.75567 12.303 4.82011 12.9406 5 13.55C5.56667 15.0448 6.38516 16.4315 7.42 17.65C8.07738 18.509 8.91326 19.2152 9.87 19.72C10.507 20.1333 11.2506 20.3522 12.01 20.35C14.28 20.35 14.39 19.93 17.25 15.96C17.6735 15.3827 18.0291 14.7586 18.31 14.1C18.4947 13.6416 18.5963 13.154 18.61 12.66C18.6057 12.314 18.5273 11.973 18.38 11.66C18.2672 11.3762 18.0766 11.1301 17.83 10.95C17.7235 10.8835 17.6005 10.8482 17.475 10.8482C17.3495 10.8482 17.2265 10.8835 17.12 10.95C16.9942 11.0198 16.8768 11.1037 16.77 11.2C16.8588 10.5341 16.8351 9.85802 16.7 9.19997C16.6197 8.83218 16.4551 8.48808 16.219 8.1948C15.983 7.90151 15.6821 7.66708 15.34 7.50998C15.1734 7.41885 14.9843 7.37704 14.7948 7.38943C14.6053 7.40183 14.4233 7.46792 14.27 7.57997C14.2669 7.01596 14.1758 6.45589 14 5.91997C13.8643 5.55228 13.6353 5.22619 13.3355 4.97373C13.0357 4.72127 12.6754 4.55112 12.29 4.47997C12.0867 4.44227 11.8769 4.46368 11.6855 4.54167C11.4941 4.61967 11.329 4.75097 11.21 4.91997C10.9641 5.24308 10.781 5.6094 10.67 5.99997C10.534 5.80887 10.3725 5.63728 10.19 5.48997C9.96316 5.30296 9.67331 5.20992 9.38 5.22997C9.18553 5.25982 9.00085 5.33515 8.84098 5.44984C8.68112 5.56452 8.55059 5.71532 8.46 5.88997C8.22318 6.38514 8.06785 6.9153 8 7.45998C7.93355 7.8765 7.90676 8.29839 7.92 8.71997C7.92 9.80998 8.21 10.89 8.3 11.98C7.82333 11.4955 7.28545 11.0752 6.7 10.73C6.49572 10.5808 6.25182 10.4955 5.99909 10.4848C5.74636 10.4741 5.49613 10.5385 5.28 10.67ZM7.68 12.89L8.16 13.4C8.21 13.47 8.29 13.63 8.35 13.7C8.40225 13.7717 8.4708 13.83 8.55 13.87C8.6326 13.9089 8.72333 13.9273 8.81455 13.9238C8.90578 13.9203 8.99483 13.895 9.07421 13.8499C9.15359 13.8048 9.22099 13.7413 9.27072 13.6648C9.32045 13.5882 9.35107 13.5008 9.36 13.41C9.53 11.84 9.08 10.28 9.07 8.70997C9.06561 8.35456 9.09575 7.99956 9.16 7.64998C9.20789 7.33476 9.29177 7.02608 9.41 6.72997V6.64998C9.53 6.77998 9.76 6.90997 9.81 6.99997C10.0075 7.36082 10.1523 7.74809 10.24 8.14997C10.24 8.28997 10.24 8.41998 10.31 8.55998C10.38 8.69998 10.31 8.99997 10.31 9.20997C10.3093 10.1429 10.3694 11.0749 10.49 12V12.12C10.5325 12.2664 10.6244 12.3936 10.75 12.48C10.8548 12.5688 10.9877 12.6175 11.125 12.6175C11.2623 12.6175 11.3952 12.5688 11.5 12.48C11.5887 12.4219 11.6604 12.3413 11.7079 12.2464C11.7553 12.1516 11.7767 12.0458 11.77 11.94V11.31V10.09C11.77 9.59997 11.72 9.08997 11.66 8.57997C11.682 7.90914 11.7521 7.24075 11.87 6.57997C11.9511 6.29359 12.0514 6.01297 12.17 5.73997C12.3777 5.83708 12.5563 5.98702 12.6879 6.17479C12.8195 6.36256 12.8996 6.58158 12.92 6.80997C13.0839 7.86029 13.0839 8.92966 12.92 9.97997L12.72 11.46L12.64 12.31C12.629 12.4131 12.6454 12.5174 12.6875 12.6122C12.7297 12.707 12.796 12.789 12.88 12.85C12.88 12.85 13.69 13.19 13.83 12.47L14 11.45C14.0946 10.7761 14.2281 10.1084 14.4 9.44997C14.4754 9.16242 14.5898 8.88653 14.74 8.62997C14.8 8.53997 14.82 8.41998 14.9 8.45998C15.0922 8.5478 15.2611 8.67951 15.3931 8.84451C15.5251 9.00951 15.6165 9.20319 15.66 9.40997C15.8049 10.2034 15.8049 11.0165 15.66 11.81L15.43 13.06C15.43 13.22 15.27 13.61 15.25 13.72C15.2347 13.7847 15.233 13.8519 15.2451 13.9173C15.2571 13.9827 15.2826 14.0449 15.32 14.1C15.3678 14.1984 15.4512 14.2748 15.5534 14.3139C15.6556 14.3529 15.7688 14.3515 15.87 14.31C15.9415 14.2921 16.0082 14.2586 16.0652 14.2119C16.1223 14.1652 16.1683 14.1065 16.2 14.04C16.43 13.61 16.67 12.97 16.98 12.43C17.0928 12.2102 17.2415 12.0108 17.42 11.84C17.42 11.9 17.53 11.95 17.55 11.99C17.6733 12.2482 17.7251 12.5349 17.7 12.82C17.6715 13.1379 17.6009 13.4507 17.49 13.75C17.2383 14.3454 16.9231 14.912 16.55 15.44C15.65 16.76 14.46 18.07 13.72 19.25C13.1785 19.4779 12.5975 19.5968 12.01 19.6C11.3838 19.5926 10.7742 19.3975 10.26 19.04H10.2C9.14848 18.4223 8.26034 17.5616 7.61 16.53C6.87204 15.5364 6.29498 14.4329 5.9 13.26C5.8032 12.9117 5.75607 12.5515 5.76 12.19C5.76 11.89 5.76 11.58 5.87 11.47C5.98 11.36 5.93 11.47 5.98 11.47C6.21611 11.5644 6.43556 11.6961 6.63 11.86C6.99916 12.1832 7.34972 12.5271 7.68 12.89Z" fill="#1A1A1A"/>
</g>
<defs>
<clipPath id="clip0_3010_1459">
<rect width="24" height="24" fill="white"/>
</clipPath>
</defs>
</svg>
