<svg width="110" height="24" viewBox="0 0 110 24" fill="none" xmlns="http://www.w3.org/2000/svg">
<path d="M87.3933 1.63992L82.9483 10.4578L78.501 1.63992H71.9648L82.9483 23.4236L93.925 1.63992H87.3933ZM51.2674 9.3395C51.2674 8.67719 51.0327 8.18244 50.5667 7.86316C50.1026 7.54058 49.4683 7.38048 48.6741 7.38048H45.6992V11.392H48.6439C49.4602 11.392 50.1026 11.2162 50.5667 10.8648C51.0327 10.5131 51.2674 10.0229 51.2674 9.39871V9.3395ZM67.6629 0.354591L78.6441 22.138H72.1071L67.6629 13.3192L63.2218 22.138H58.7852H56.6886H51.0044L47.1557 16.2816H47.1004H45.6992V22.138H38.8788V1.63992H48.8487C50.6746 1.63992 52.1755 1.85023 53.3498 2.26985C54.5278 2.68886 55.4724 3.26136 56.192 3.9838C56.8148 4.60674 57.2808 5.31142 57.593 6.08946C57.9022 6.87074 58.059 7.79134 58.059 8.84121V8.90335C58.059 10.4053 57.6994 11.6746 56.9786 12.7086C56.2616 13.7431 55.2808 14.5658 54.0347 15.169L57.5793 20.3694L67.6629 0.354591ZM98.2253 0.354591L87.2456 22.138H93.7819L98.2253 13.3192L102.671 22.138H109.206L98.2253 0.354591ZM19.0885 7.43485H25.0925V22.138H31.9144V7.43485H37.9199V1.63992H19.0885V7.43485ZM18.8428 12.884C19.2595 13.6061 19.4687 14.4862 19.4687 15.5189V15.579C19.4687 16.6516 19.2565 17.62 18.8269 18.4779C18.4004 19.3379 17.7967 20.0642 17.0201 20.6608C16.2417 21.2549 15.2987 21.7136 14.1922 22.0361C13.086 22.3603 11.8402 22.5219 10.4628 22.5219C8.38486 22.5219 6.44496 22.2315 4.64737 21.6571C2.8501 21.0798 1.30143 20.2156 0 19.0663L3.64245 14.7046C4.74899 15.5618 5.91713 16.1776 7.13898 16.5479C8.36267 16.9192 9.57833 17.1046 10.7829 17.1046C11.4058 17.1046 11.8512 17.0259 12.1238 16.8715C12.3982 16.7147 12.5312 16.4994 12.5312 16.2271V16.1692C12.5312 15.8736 12.3297 15.6267 11.9337 15.4348C11.5377 15.2396 10.791 15.0359 9.70359 14.8214C8.55757 14.5856 7.46388 14.3111 6.42583 13.9996C5.38593 13.6895 4.47306 13.2877 3.68668 12.7987C2.89907 12.3118 2.27315 11.6945 1.80539 10.9534C1.33939 10.2109 1.10654 9.30228 1.10654 8.22965V8.17044C1.10654 7.19332 1.29516 6.28471 1.67569 5.446C2.05109 4.60674 2.60585 3.87323 3.33485 3.25029C4.06422 2.62519 4.96929 2.13798 6.04859 1.7841C7.12314 1.43299 8.36267 1.25759 9.76366 1.25759C11.7436 1.25759 13.4775 1.49243 14.9643 1.96258C16.451 2.42749 17.7856 3.13164 18.9726 4.06816L15.6506 8.69703C14.6791 7.99204 13.6536 7.47991 12.5757 7.15695C11.4946 6.83406 10.4834 6.67249 9.52936 6.67249C9.0251 6.67249 8.65115 6.75055 8.40874 6.90734C8.16158 7.06359 8.04405 7.2696 8.04405 7.5222V7.58049C8.04405 7.85594 8.22639 8.09024 8.59736 8.2861C8.96832 8.48011 9.68622 8.68588 10.753 8.90096C12.0556 9.13342 13.2399 9.41763 14.3112 9.74744C15.3779 10.0829 16.2985 10.5056 17.0643 11.0243C17.8317 11.5419 18.4258 12.1588 18.8428 12.884Z" fill="#FFFFEB"/>
</svg>
