<svg width="139" height="31" viewBox="0 0 139 31" fill="none" xmlns="http://www.w3.org/2000/svg">
<path fill-rule="evenodd" clip-rule="evenodd" d="M4.34191 0.706543L12.8415 8.53762V8.53583V0.724613H14.496V8.57266L23.0336 0.706543V9.63513H26.5389V22.5138H23.0444V30.4643L14.496 22.9539V30.5505H12.8415V23.0777L4.35154 30.5554V22.5138H0.846191V9.63513H4.34191V0.706543ZM11.5941 11.2695H2.50072V20.8795H4.34947V17.8481L11.5941 11.2695ZM6.00598 18.5733V26.9086L12.8415 20.8881V12.3647L6.00598 18.5733ZM14.5436 20.8084V12.3567L21.3811 18.5656V22.5138H21.3899V26.8235L14.5436 20.8084ZM23.0444 20.8795H24.8844V11.2695H15.8587L23.0444 17.78V20.8795ZM21.3791 9.63513V4.46583L15.7685 9.63513H21.3791ZM11.607 9.63513H5.99644V4.46583L11.607 9.63513Z" fill="#FFFFEB"/>
<mask id="mask0_7404_3998" style="mask-type:luminance" maskUnits="userSpaceOnUse" x="33" y="4" width="106" height="23">
<path d="M138.756 4.67139H33.6235V26.5857H138.756V4.67139Z" fill="white"/>
</mask>
<g mask="url(#mask0_7404_3998)">
<path d="M67.4171 9.43663H68.4676V11.6014H67.1077C66.042 11.6014 65.2473 11.8578 64.7205 12.372C64.1968 12.8846 63.9335 13.7278 63.9335 14.8997V21.9981H61.7866V9.48603H63.9335V11.4826C63.9335 11.5953 63.9901 11.6509 64.1004 11.6509C64.1632 11.6509 64.2106 11.6354 64.2443 11.603C64.2779 11.5705 64.307 11.5072 64.3408 11.41C64.7542 10.0959 65.7817 9.43814 67.4186 9.43814H67.4171V9.43663ZM81.6977 12.1188C82.2612 13.1209 82.5445 14.3284 82.5445 15.7397C82.5445 17.151 82.2627 18.3586 81.6977 19.3607C81.1326 20.3629 80.4007 21.1133 79.5018 21.6105C78.603 22.1078 77.6367 22.3564 76.6032 22.3564C74.5665 22.3564 73.1348 21.538 72.3079 19.9012C72.2451 19.773 72.164 19.7081 72.0691 19.7081C71.9741 19.7081 71.9251 19.756 71.9251 19.8533V26.5672H69.7783V9.48442H71.9251V11.6262C71.9251 11.7219 71.9726 11.7714 72.0691 11.7714C72.1655 11.7714 72.2436 11.708 72.3079 11.5783C73.1348 9.94151 74.5665 9.12312 76.6032 9.12312C77.6367 9.12312 78.603 9.37173 79.5018 9.86896C80.4007 10.3662 81.1311 11.1166 81.6977 12.1188ZM80.3992 15.7397C80.3992 14.2635 80.0056 13.1131 79.2185 12.2871C78.4315 11.461 77.3948 11.0487 76.104 11.0487C74.8131 11.0487 73.7764 11.4625 72.9894 12.2871C72.2007 13.1131 71.9129 14.2651 71.9129 15.7397C71.9129 17.2144 72.2023 18.3663 72.9894 19.1924C73.7764 20.0201 74.8146 20.4308 76.104 20.4308C77.3933 20.4308 78.4315 20.017 79.2185 19.1924C80.0056 18.3679 80.3992 17.2144 80.3992 15.7397ZM45.5414 12.1373C46.1049 13.1394 46.3882 14.347 46.3882 15.7583C46.3882 17.1697 46.1064 18.3771 45.5414 19.3792C44.9763 20.3814 44.2444 21.1319 43.3456 21.629C42.4467 22.1263 41.4805 22.3749 40.4468 22.3749C38.4103 22.3749 36.9785 21.5565 36.1516 19.9197C36.0889 19.7915 36.0078 19.7267 35.9127 19.7267C35.8178 19.7267 35.7689 19.7745 35.7689 19.8718V26.5857H33.6235V9.50303H35.7704V11.6447C35.7704 11.7405 35.8178 11.7899 35.9143 11.7899C36.0108 11.7899 36.0889 11.7266 36.1532 11.5968C36.9801 9.96002 38.4118 9.14163 40.4484 9.14163C41.482 9.14163 42.4482 9.39025 43.3471 9.88748C44.246 10.3847 44.9764 11.1352 45.543 12.1373H45.5414ZM44.2413 15.7583C44.2413 14.2821 43.8478 13.1317 43.0608 12.3056C42.2737 11.481 41.2355 11.0672 39.9461 11.0672C38.6568 11.0672 37.6187 11.481 36.8315 12.3056C36.0445 13.1333 35.7551 14.2837 35.7551 15.7583C35.7551 17.2329 36.0445 18.3849 36.8315 19.211C37.6187 20.0386 38.6552 20.4493 39.9461 20.4493C41.237 20.4493 42.2737 20.0355 43.0608 19.211C43.8478 18.3864 44.2413 17.2329 44.2413 15.7583ZM57.9921 18.0236H60.2585C59.9568 19.1955 59.3397 20.21 58.4102 21.067C57.4791 21.9255 56.147 22.3532 54.412 22.3532C53.1074 22.3532 51.959 22.0846 50.9652 21.5472C49.9714 21.0099 49.2042 20.2455 48.6621 19.2495C48.1201 18.2552 47.8506 17.0846 47.8506 15.7366C47.8506 14.3886 48.1139 13.2182 48.6376 12.2237C49.1613 11.2294 49.8979 10.4634 50.8442 9.92611C51.7905 9.38874 52.8991 9.12 54.1716 9.12C55.4441 9.12 56.4991 9.38562 57.3812 9.91373C58.2647 10.4434 58.9231 11.1459 59.3611 12.0184C59.799 12.8939 60.0165 13.8512 60.0165 14.8936V16.3373H50.1153C50.1933 17.5881 50.6129 18.5841 51.3678 19.3206C52.1228 20.0587 53.138 20.4277 54.4105 20.4277C55.4441 20.4277 56.2373 20.2162 56.7855 19.79C57.3336 19.3638 57.7349 18.7755 57.9906 18.0204L57.9921 18.0236ZM50.0709 14.5353H57.5634C57.5634 13.4452 57.2847 12.5897 56.7273 11.9721C56.1699 11.3559 55.2956 11.0455 54.1027 11.0455C52.9895 11.0455 52.0784 11.3467 51.371 11.9489C50.6635 12.5496 50.2302 13.4128 50.0709 14.5353ZM84.2763 21.9951H86.4247V4.67139H84.2763V21.9966V21.9951ZM114.47 8.11789H116.978V5.40949H114.47V8.11789ZM123.732 20.1313C123.342 20.1715 123.106 20.1915 123.028 20.1915C122.918 20.1915 122.827 20.1591 122.765 20.0942C122.702 20.0309 122.669 19.9429 122.669 19.8286C122.669 19.7499 122.689 19.512 122.73 19.1183C122.768 18.7261 122.789 18.1192 122.789 17.3024V11.3158H125.852L125.248 9.48291H122.79V6.11361H120.644V9.4814H118.308V11.3143H120.644V17.9015C120.644 19.282 120.98 20.3088 121.647 20.9821C122.314 21.6553 123.333 21.9935 124.702 21.9935H126.372V20.0695H125.536C124.725 20.0695 124.124 20.0896 123.734 20.1297L123.732 20.1313ZM136.71 9.48291L133.154 19.9815C133.107 20.1112 133.032 20.2795 132.789 20.2795C132.545 20.2795 132.469 20.1112 132.42 19.9815L128.865 9.48291H126.675L130.793 21.9951H132.249C132.344 21.9951 132.417 22.0043 132.466 22.0197C132.513 22.0352 132.553 22.0754 132.585 22.1402C132.647 22.2359 132.64 22.381 132.56 22.5726L131.892 24.4008C131.796 24.6417 131.614 24.7621 131.345 24.7621C131.248 24.7621 131.026 24.742 130.677 24.7019C130.326 24.6617 129.875 24.6417 129.317 24.6417H127.575V26.5656H129.865C131.202 26.5656 132.006 26.3371 132.698 25.88C133.391 25.4231 133.926 24.6169 134.309 23.462L138.756 9.96314V9.48291H136.713H136.71ZM107.203 14.1509L103.838 9.48291H101.476V9.96314L105.507 15.3768L100.592 21.5132V21.9935H103.002L106.916 16.9642L110.567 21.9935H112.882V21.5132L108.609 15.7382L113.241 9.98788V9.48291H110.83L107.204 14.1509H107.203ZM114.698 21.9951H116.846V9.48442H114.698V21.9966V21.9951ZM100.562 18.0236C100.259 19.1955 99.6443 20.21 98.7148 21.067C97.7835 21.9255 96.4516 22.3532 94.7164 22.3532C93.4119 22.3532 92.2633 22.0846 91.2696 21.5472C90.274 21.0099 89.5089 20.2455 88.9666 19.2495C88.4261 18.2552 88.1566 17.0846 88.1566 15.7366C88.1566 14.3886 88.4199 13.2182 88.9437 12.2237C89.4693 11.2294 90.2041 10.4634 91.1506 9.92611C92.0961 9.38874 93.2051 9.12 94.4793 9.12C95.7536 9.12 96.8068 9.38562 97.69 9.91373C98.5722 10.4434 99.2325 11.1459 99.6698 12.0184C100.108 12.8939 100.325 13.8512 100.325 14.8936V16.3373H90.4233C90.5026 17.5881 90.9201 18.5841 91.6758 19.3206C92.4305 20.0587 93.446 20.4277 94.7183 20.4277C95.7517 20.4277 96.5451 20.2162 97.093 19.79C97.6409 19.3638 98.0423 18.7755 98.2964 18.0204H100.564L100.562 18.0236ZM90.429 14.5353H97.9214C97.9214 13.4452 97.6427 12.5897 97.0873 11.9721C96.5291 11.3559 95.6553 11.0455 94.4623 11.0455C93.3487 11.0455 92.4381 11.3467 91.7306 11.9489C91.0231 12.5496 90.5886 13.4128 90.4308 14.5353H90.429Z" fill="#FFFFEB"/>
</g>
</svg>
