<svg width="327" height="23" viewBox="0 0 327 23" fill="none" xmlns="http://www.w3.org/2000/svg">
<path d="M9.25645 22.5432C6.05355 22.5432 3.17637 21.4032 0.679199 19.1775L2.14493 17.4403C3.28495 18.4717 4.37068 19.2317 5.51069 19.666C6.65071 20.1546 7.95358 20.3718 9.36503 20.3718C10.7765 20.3718 11.9165 20.046 12.7308 19.3946C13.5994 18.6889 14.0337 17.8203 14.0337 16.7346C14.0337 15.7031 13.6537 14.8888 12.8936 14.2917C12.1336 13.6945 10.7222 13.1517 8.60502 12.7174C6.10784 12.1745 4.31639 11.4688 3.23066 10.5459C2.14493 9.62306 1.60207 8.32018 1.60207 6.6373C1.60207 4.95442 2.25351 3.59726 3.55638 2.51153C4.85925 1.4258 6.48785 0.882935 8.49645 0.882935C11.2651 0.882935 13.7079 1.75152 15.8794 3.4344L14.5222 5.28014C12.6765 3.76012 10.6679 3.00012 8.49645 3.00012C7.13928 3.00012 6.05356 3.32583 5.23926 3.97727C4.42496 4.6287 3.99067 5.443 3.99067 6.42016C3.99067 7.4516 4.37068 8.26589 5.18497 8.86304C5.99927 9.4602 7.465 10.0031 9.69075 10.4916C12.0794 11.0345 13.8165 11.7402 14.848 12.6631C15.9337 13.586 16.4766 14.8346 16.4766 16.4631C16.4766 18.2546 15.8251 19.666 14.468 20.7518C13.0565 22.0004 11.3193 22.5432 9.25645 22.5432Z" fill="#FFFFEB"/>
<path d="M41.6112 22.5432C38.9512 22.5432 36.834 21.7289 35.2597 20.1546C33.6854 18.5803 32.8711 16.3002 32.8711 13.4231V1.20862H35.2597V13.2602C35.2597 15.5402 35.8026 17.2774 36.9426 18.526C38.0826 19.7203 39.6569 20.3717 41.6655 20.3717C43.6198 20.3717 45.1941 19.7746 46.3341 18.5803C47.4741 17.386 48.017 15.7031 48.017 13.4231V1.20862H50.4056V13.2059C50.4056 16.1917 49.5913 18.4717 48.017 20.1003C46.3884 21.7832 44.2712 22.5432 41.6112 22.5432Z" fill="#FFFFEB"/>
<path d="M67.8857 22.2174V1.26282H75.7573C78.1459 1.26282 80.0459 1.85996 81.4573 3.05426C82.8688 4.24856 83.5745 5.87716 83.5745 7.94004C83.5745 10.1115 82.7602 11.7944 81.1859 12.9887C79.6116 14.183 77.6573 14.7801 75.323 14.7801H70.2201V22.1631H67.8857V22.2174ZM70.2743 12.663H75.4316C77.1687 12.663 78.5802 12.2287 79.6116 11.4144C80.643 10.5458 81.1859 9.40578 81.1859 7.99433C81.1859 6.5286 80.6973 5.44288 79.6659 4.62858C78.6887 3.81429 77.2773 3.43427 75.5401 3.43427H70.2201L70.2743 12.663Z" fill="#FFFFEB"/>
<path d="M99.9148 22.2174V1.26282H115.061V3.43427H102.249V10.6001H113.704V12.7715H102.249V20.1002H115.169V22.2717H99.9148V22.2174Z" fill="#FFFFEB"/>
<path d="M131.944 22.2174V1.26282H140.955C143.507 1.26282 145.515 1.96854 146.927 3.37998C148.013 4.46571 148.555 5.87717 148.555 7.56005C148.555 9.24292 148.013 10.6001 146.981 11.6315C145.95 12.663 144.538 13.3687 142.855 13.6944L149.316 22.2717H146.384L140.304 14.1287H134.332V22.2717H131.944V22.2174ZM134.332 11.9572H140.793C142.367 11.9572 143.67 11.5772 144.701 10.7629C145.678 10.0029 146.221 8.91721 146.221 7.56005C146.221 6.25717 145.733 5.28001 144.81 4.52C143.887 3.75999 142.584 3.43427 140.901 3.43427H134.441V11.9572H134.332Z" fill="#FFFFEB"/>
<path d="M165.601 22.2174V1.26282H167.99V10.6001H180.096V1.26282H182.484V22.2174H180.096V12.7715H167.99V22.2174H165.601Z" fill="#FFFFEB"/>
<path d="M208.705 22.5432C206.045 22.5432 203.928 21.7289 202.353 20.1546C200.779 18.5803 199.965 16.3002 199.965 13.4231V1.20862H202.353V13.2602C202.353 15.5402 202.896 17.2774 204.036 18.526C205.176 19.7203 206.75 20.3717 208.759 20.3717C210.713 20.3717 212.288 19.7746 213.428 18.5803C214.568 17.386 215.111 15.7031 215.111 13.4231V1.20862H217.499V13.2059C217.499 16.1917 216.685 18.4717 215.111 20.1003C213.536 21.7832 211.365 22.5432 208.705 22.5432Z" fill="#FFFFEB"/>
<path d="M235.034 22.2174V1.26282H237.422L245.077 12.7173L252.731 1.26282H255.12V22.2174H252.731V5.22572L245.077 16.463H244.968L237.314 5.28001V22.2174H235.034Z" fill="#FFFFEB"/>
<path d="M271.243 22.2175L280.797 1.1001H283.023L292.577 22.2175H290.026L287.583 16.6803H276.183L273.686 22.2175H271.243ZM277.051 14.5631H286.606L281.829 3.86869L277.051 14.5631Z" fill="#FFFFEB"/>
<path d="M308.646 22.2174V1.26282H310.872L324.063 18.0916V1.26282H326.343V22.2174H324.443L310.926 5.00858V22.2174H308.646Z" fill="#FFFFEB"/>
</svg>
