<svg width="121" height="37" viewBox="0 0 121 37" fill="none" xmlns="http://www.w3.org/2000/svg">
<g clip-path="url(#clip0_7404_3969)">
<path d="M75.0494 28.8374C68.0263 33.9402 57.8467 36.6627 49.0823 36.6627C36.7931 36.6627 25.7298 32.1823 17.3599 24.7303C16.7023 24.1443 17.2915 23.3457 18.0806 23.8021C27.1133 28.9826 38.2819 32.0993 49.8188 32.0993C57.5994 32.0993 66.1587 30.5124 74.0288 27.2195C75.2177 26.7217 76.212 27.987 75.0494 28.8374Z" fill="#FFFFEB"/>
<path d="M77.969 25.5444C77.0747 24.4139 72.0349 25.0103 69.7728 25.2748C69.0836 25.3578 68.9784 24.7666 69.5992 24.3413C73.6131 21.5566 80.1996 22.3604 80.9677 23.2938C81.7357 24.2324 80.7678 30.7406 76.9958 33.8468C76.4171 34.3239 75.8647 34.0698 76.1225 33.4372C76.9695 31.3525 78.8686 26.6801 77.969 25.5444Z" fill="#FFFFEB"/>
<path d="M69.9306 4.68225V1.97529C69.9306 1.56562 70.2463 1.29077 70.6251 1.29077H82.9195C83.314 1.29077 83.6297 1.5708 83.6297 1.97529V4.29332C83.6244 4.68225 83.293 5.19045 82.7038 5.99424L76.333 14.9604C78.7003 14.9034 81.1992 15.2508 83.3456 16.4435C83.8296 16.7132 83.9611 17.1073 83.9979 17.4962V20.3847C83.9979 20.7788 83.556 21.2403 83.0931 21.0018C79.3106 19.0468 74.2865 18.8342 70.1042 21.0225C69.6781 21.2507 69.231 20.7944 69.231 20.4003V17.657C69.231 17.2162 69.2362 16.4643 69.6834 15.7953L77.0642 5.36158H70.6408C70.2463 5.36158 69.9306 5.08674 69.9306 4.68225Z" fill="#FFFFEB"/>
<path d="M25.0827 21.5723H21.3423C20.9846 21.5463 20.7005 21.2819 20.6742 20.9448V2.022C20.6742 1.64344 20.9951 1.34266 21.3949 1.34266H24.8828C25.2458 1.35821 25.5351 1.63306 25.5614 1.97532V4.44893H25.6298C26.5399 2.05829 28.2497 0.943359 30.5539 0.943359C32.8949 0.943359 34.3574 2.05829 35.4096 4.44893C36.3144 2.05829 38.3714 0.943359 40.5756 0.943359C42.1434 0.943359 43.8584 1.58121 44.9053 3.01247C46.0889 4.6045 45.8469 6.91734 45.8469 8.94497L45.8417 20.8878C45.8417 21.2663 45.5208 21.5723 45.1209 21.5723H41.3858C41.0123 21.5463 40.7124 21.2508 40.7124 20.8878V10.8585C40.7124 10.0599 40.7861 8.06858 40.6072 7.31146C40.3284 6.04095 39.4919 5.68313 38.4082 5.68313C37.5034 5.68313 36.5564 6.2795 36.1724 7.23368C35.7884 8.18785 35.8252 9.78506 35.8252 10.8585V20.8878C35.8252 21.2663 35.5043 21.5723 35.1045 21.5723H31.3693C30.9905 21.5463 30.6959 21.2508 30.6959 20.8878L30.6907 10.8585C30.6907 8.74791 31.0431 5.64165 28.3865 5.64165C25.6982 5.64165 25.8034 8.67012 25.8034 10.8585V20.8878C25.8034 21.2663 25.4825 21.5723 25.0827 21.5723Z" fill="#FFFFEB"/>
<path d="M94.2143 0.943359C99.7644 0.943359 102.768 5.64165 102.768 11.6156C102.768 17.3874 99.4488 21.9664 94.2143 21.9664C88.7642 21.9664 85.7971 17.2681 85.7971 11.4134C85.7971 5.52238 88.801 0.943359 94.2143 0.943359ZM94.2459 4.80674C91.4893 4.80674 91.3157 8.50937 91.3157 10.817C91.3157 13.1299 91.2788 18.0667 94.2143 18.0667C97.113 18.0667 97.2498 14.0841 97.2498 11.6571C97.2498 10.0599 97.1814 8.15155 96.6922 6.63731C96.2713 5.32013 95.4348 4.80674 94.2459 4.80674Z" fill="#FFFFEB"/>
<path d="M109.965 21.5723H106.24C105.867 21.5463 105.567 21.2508 105.567 20.8878L105.562 1.95977C105.593 1.61232 105.904 1.34266 106.282 1.34266H109.749C110.075 1.35821 110.344 1.57602 110.417 1.87161V4.76526H110.486C111.533 2.17757 113 0.943359 115.584 0.943359C117.262 0.943359 118.898 1.53972 119.95 3.17323C120.928 4.68747 120.928 7.23368 120.928 9.06424V20.9759C120.886 21.3078 120.576 21.5723 120.208 21.5723H116.457C116.115 21.5463 115.831 21.2974 115.794 20.9759V10.6978C115.794 8.62864 116.036 5.60016 113.453 5.60016C112.543 5.60016 111.706 6.20171 111.291 7.1144C110.765 8.27083 110.696 9.42206 110.696 10.6978V20.8878C110.691 21.2663 110.365 21.5723 109.965 21.5723Z" fill="#FFFFEB"/>
<path d="M60.1298 12.5335V11.7349C57.4258 11.7349 54.5692 12.3053 54.5692 15.4479C54.5692 17.0399 55.4056 18.1185 56.8418 18.1185C57.894 18.1185 58.8357 17.4807 59.4301 16.4435C60.1666 15.1679 60.1298 13.9699 60.1298 12.5335ZM63.9018 21.5204C63.6545 21.7382 63.2968 21.7538 63.018 21.6086C61.7764 20.5921 61.5555 20.1202 60.8716 19.1505C58.8199 21.2144 57.3679 21.8315 54.706 21.8315C51.56 21.8315 49.1085 19.918 49.1085 16.0857C49.1085 13.0936 50.7551 11.0556 53.0962 10.0599C55.1268 9.17831 57.9624 9.02274 60.1298 8.77901V8.30192C60.1298 7.42553 60.1982 6.38838 59.6774 5.63126C59.2197 4.95193 58.3464 4.6719 57.5783 4.6719C56.1527 4.6719 54.8796 5.39271 54.5692 6.88621C54.5061 7.2181 54.2588 7.5448 53.9221 7.56036L50.2922 7.17661C49.9871 7.1092 49.6504 6.86547 49.7346 6.40394C50.571 2.06865 54.5429 0.761841 58.0992 0.761841C59.9194 0.761841 62.2972 1.23893 63.7334 2.5976C65.5537 4.27259 65.38 6.50765 65.38 8.93977V14.6856C65.38 16.4124 66.106 17.1696 66.7899 18.103C67.0319 18.4349 67.0845 18.8342 66.7794 19.0831C66.0166 19.7106 64.6593 20.8774 63.9123 21.5308L63.9018 21.5204Z" fill="#FFFFEB"/>
<path d="M11.0943 12.5335V11.7349C8.39026 11.7349 5.53367 12.3053 5.53367 15.4479C5.53367 17.0399 6.37013 18.1185 7.80631 18.1185C8.85847 18.1185 9.80014 17.4807 10.3946 16.4435C11.1311 15.1679 11.0943 13.9699 11.0943 12.5335ZM14.8663 21.5204C14.619 21.7382 14.2613 21.7538 13.9824 21.6086C12.7409 20.5921 12.52 20.1202 11.8361 19.1505C9.78436 21.2144 8.33239 21.8315 5.67044 21.8315C2.52451 21.8315 0.072998 19.918 0.072998 16.0857C0.072998 13.0936 1.71962 11.0556 4.06065 10.0599C6.09131 9.17831 8.92686 9.02274 11.0943 8.77901V8.30192C11.0943 7.42553 11.1627 6.38838 10.6419 5.63126C10.1842 4.95193 9.31089 4.6719 8.54282 4.6719C7.11716 4.6719 5.84405 5.39271 5.53367 6.88621C5.47054 7.2181 5.22328 7.5448 4.88659 7.56036L1.25667 7.17661C0.951544 7.1092 0.614855 6.86547 0.699028 6.40394C1.53549 2.06865 5.50736 0.761841 9.06364 0.761841C10.8839 0.761841 13.2617 1.23893 14.6979 2.5976C16.5181 4.27259 16.3445 6.50765 16.3445 8.93977V14.6856C16.3445 16.4124 17.0705 17.1696 17.7544 18.103C17.9964 18.4349 18.049 18.8342 17.7439 19.0831C16.9811 19.7106 15.6238 20.8774 14.8768 21.5308L14.8663 21.5204Z" fill="#FFFFEB"/>
</g>
<defs>
<clipPath id="clip0_7404_3969">
<rect width="121" height="36" fill="white" transform="translate(0 0.713135)"/>
</clipPath>
</defs>
</svg>
