<svg width="93" height="93" viewBox="0 0 93 93" fill="none" xmlns="http://www.w3.org/2000/svg">
<rect width="93" height="93" rx="4" fill="white"/>
<g clip-path="url(#clip0_115_32)">
<path d="M27.3496 55.2047C27.3496 59.0559 24.237 62.1685 20.3858 62.1685C16.5347 62.1685 13.4221 59.0559 13.4221 55.2047C13.4221 51.3535 16.5347 48.241 20.3858 48.241H27.3496V55.2047ZM30.8315 55.2047C30.8315 51.3535 33.9441 48.241 37.7953 48.241C41.6465 48.241 44.7591 51.3535 44.7591 55.2047V72.6142C44.7591 76.4654 41.6465 79.578 37.7953 79.578C33.9441 79.578 30.8315 76.4654 30.8315 72.6142V55.2047Z" fill="#E01E5A"/>
<path d="M37.7952 27.2441C33.9441 27.2441 30.8315 24.1315 30.8315 20.2803C30.8315 16.4291 33.9441 13.3165 37.7952 13.3165C41.6464 13.3165 44.759 16.4291 44.759 20.2803V27.2441H37.7952ZM37.7952 30.7787C41.6464 30.7787 44.759 33.8913 44.759 37.7425C44.759 41.5937 41.6464 44.7063 37.7952 44.7063H20.333C16.4819 44.7063 13.3693 41.5937 13.3693 37.7425C13.3693 33.8913 16.4819 30.7787 20.333 30.7787H37.7952Z" fill="#36C5F0"/>
<path d="M65.7031 37.7425C65.7031 33.8913 68.8157 30.7787 72.6669 30.7787C76.5181 30.7787 79.6307 33.8913 79.6307 37.7425C79.6307 41.5937 76.5181 44.7063 72.6669 44.7063H65.7031V37.7425ZM62.2213 37.7425C62.2213 41.5937 59.1087 44.7063 55.2575 44.7063C51.4063 44.7063 48.2937 41.5937 48.2937 37.7425V20.2803C48.2937 16.4291 51.4063 13.3165 55.2575 13.3165C59.1087 13.3165 62.2213 16.4291 62.2213 20.2803V37.7425Z" fill="#2EB67D"/>
<path d="M55.2575 65.6504C59.1087 65.6504 62.2213 68.763 62.2213 72.6142C62.2213 76.4654 59.1087 79.578 55.2575 79.578C51.4063 79.578 48.2937 76.4654 48.2937 72.6142V65.6504H55.2575ZM55.2575 62.1685C51.4063 62.1685 48.2937 59.0559 48.2937 55.2047C48.2937 51.3535 51.4063 48.241 55.2575 48.241H72.7197C76.5709 48.241 79.6835 51.3535 79.6835 55.2047C79.6835 59.0559 76.5709 62.1685 72.7197 62.1685H55.2575Z" fill="#ECB22E"/>
</g>
<defs>
<clipPath id="clip0_115_32">
<rect width="67" height="67" fill="white" transform="translate(13 13)"/>
</clipPath>
</defs>
</svg>
