<svg width="93" height="93" viewBox="0 0 93 93" fill="none" xmlns="http://www.w3.org/2000/svg">
<rect width="93" height="93" rx="4" fill="white"/>
<g clip-path="url(#clip0_115_14)">
<path d="M15.7727 72H26.9091V45.2121L11 33.394V67.2727C11 69.8885 13.1398 72 15.7727 72Z" fill="#4285F4"/>
<path d="M65.0909 72H76.2272C78.8682 72 81 69.8806 81 67.2727V33.394L65.0909 45.2121" fill="#34A853"/>
<path d="M65.0909 24.7273V45.2121L81 33.394V27.0909C81 21.2449 74.2625 17.9121 69.5454 21.4182" fill="#FBBC04"/>
<path d="M26.9091 45.2121V24.7273L46 38.9091L65.0909 24.7273V45.2121L46 59.3939" fill="#EA4335"/>
<path d="M11 27.0909V33.394L26.9091 45.2121V24.7273L22.4545 21.4182C17.7295 17.9121 11 21.2449 11 27.0909Z" fill="#C5221F"/>
</g>
<defs>
<clipPath id="clip0_115_14">
<rect width="70" height="52" fill="white" transform="translate(11 20)"/>
</clipPath>
</defs>
</svg>
