<?xml version="1.0" encoding="UTF-8" standalone="no"?>
<svg xmlns="http://www.w3.org/2000/svg" xmlns:xlink="http://www.w3.org/1999/xlink" width="256" height="256" version="1.0">
  <defs>
    <linearGradient id="b">
      <stop offset="0" stop-color="#b8b8b8"/>
      <stop offset="1" stop-color="#b8b8b8" stop-opacity="0"/>
    </linearGradient>
    <linearGradient id="a">
      <stop offset="0" stop-color="#fff"/>
      <stop offset="1" stop-color="#fff" stop-opacity="0"/>
    </linearGradient>
    <linearGradient xlink:href="#a" id="d" x1="-344.15295" x2="-395.84943" y1="274.711" y2="425.39993" gradientTransform="matrix(-.59146 0 0 .59146 210.0216 142.2324)" gradientUnits="userSpaceOnUse"/>
    <linearGradient xlink:href="#b" id="c" x1="85.985443" x2="68.308311" y1="76.305641" y2="58.80706" gradientTransform="translate(373.64199 318.34399)" gradientUnits="userSpaceOnUse"/>
  </defs>
  <g transform="translate(-373.642 -318.344)">
    <rect width="235.00784" height="234.98955" x="-619.14587" y="328.84921" fill="#79d624" fill-rule="evenodd" rx="35.487503" ry="35.487503" transform="scale(-1 1)"/>
    <path stroke="#000" d="M531.22876 496.24852v15.71301l-5.71382.35711c-8.42575.11346-12.82542 13.34943-.71423 14.99878 4.05092.70698 7.97005.47806 13.21322 0 10.12738-1.47787 12.1512-2.40771 12.14187-10.35629-.11904-3.53696-.23809-7.77473-.35712-13.21322-.57632-6.43225-4.52996-17.51504-11.42765-17.14147-6.29772-.0169-12.69503-.61048-17.49857-2.14268-8.31679-2.63935-11.40374-1.39128-17.85569-13.92743-1.80072 5.06386-3.81486 7.76792-4.28537 12.14185-1.19033 7.52329-5.4863 10.07753-11.42764 9.99919-7.50859-.74183-15.01626-2.49096-23.2124-4.28536-7.39479-1.62821-13.90577-1.76245-21.42682-4.64248-11.91689-5.01293-12.87089-18.79617-15.71302-31.06891-2.46217-11.54237-4.2071-23.91303-5.71382-36.0685-1.58386-10.93054 1.96701-18.09561 14.64166-18.56992l18.21282.35713c5.0221-.48956 9.85742-1.19706 9.28495-8.21363l-.35711-20.71259c.5104-1.39341 2.46441-13.98925 16.42723-14.28456l17.49858.71423c6.07367 1.02242 16.29405 2.91058 19.99837 14.28454 11.97674.28419 24.4602.0616 34.64005 2.14269 10.77989 4.21889 28.00405 1.99352 25.7122 19.28414 2.35654.83844 2.69783 26.86734 3.21402 50.71017.11129 14.46699-.35617 29.22336-2.14268 44.63924-.0974 15.29308-4.9038 28.70265-9.64207 42.13942-2.90487 8.40907-6.85345 15.8904-18.21281 16.78437-11.54351 1.42211-22.24918 1.16853-32.85447.71421-10.02008-.28958-15.3331-6.85522-16.78436-18.56991v-12.14187c.0103-8.07386 4.41794-15.13301 16.78436-20.35549l13.57032.71423z"/>
    <path fill="#79d624" d="m532.3001 447.50247 20.89117.17856c.64711-10.88375-4.0402-13.0038-9.99919-13.03465-10.71509 1.06516-10.29163 7.19331-10.89198 12.85609z"/>
    <path d="m424.27317 394.64963 35.35426-34.99716c-2.9488 7.26131-1.73318 20.59357-2.32123 30.53323.15536 1.47638-.93338 2.3307-2.67836 2.8569-10.10368.44843-19.8256-1.39373-30.35467 1.60703z"/>
    <path fill="url(#c)" d="m424.27317 394.64963 35.35426-34.99716c-2.9488 7.26131-1.73318 20.59357-2.32123 30.53323.15536 1.47638-.93338 2.3307-2.67836 2.8569-10.10368.44843-19.8256-1.39373-30.35467 1.60703z"/>
    <path fill="url(#d)" fill-rule="evenodd" d="M557.05665 338.89518H446.22721c-29.33688 0-52.95465 23.80974-52.95465 53.38507v108.12736c.9496 23.08605 4.60229 8.49154 11.55502-17.07471 8.08056-29.71315 34.39648-55.68287 66.44461-75.1457 24.46133-14.85525 51.84109-24.34125 101.67955-25.24367 28.26482-.51176 25.7695-36.68291-15.89509-44.04835z" opacity=".55364805"/>
  </g>
</svg>