<svg width="48" height="48" viewBox="0 0 48 48" fill="none" xmlns="http://www.w3.org/2000/svg">
<g clip-path="url(#clip0_25_9)">
<path fill-rule="evenodd" clip-rule="evenodd" d="M12 30.99V36L-0.0100098 23.99L2.50599 21.491L12 30.99ZM17.01 36H12L24.011 48.01L26.517 45.505L17.01 36ZM45.497 26.503L48 24L24 0L21.497 2.503L30.98 12H25.248L18.628 5.386L16.122 7.889L20.244 12.011H17.375V30.636H36V27.77L40.122 31.892L42.625 29.386L36 22.747V17.015L45.497 26.503ZM13.253 10.747L10.75 13.253L13.436 15.939L15.939 13.433L13.253 10.747ZM34.567 32.061L32.072 34.564L34.758 37.25L37.264 34.747L34.567 32.061ZM7.87799 16.121L5.37499 18.625L12 25.253V20.241L7.87799 16.121ZM27.756 36H22.747L29.375 42.625L31.878 40.122L27.756 36Z" fill="#FF6363"/>
</g>
<defs>
<clipPath id="clip0_25_9">
<rect width="48" height="48" fill="white"/>
</clipPath>
</defs>
</svg>
