<svg width="24" height="24" viewBox="0 0 24 24" fill="none" xmlns="http://www.w3.org/2000/svg">
<path fill-rule="evenodd" clip-rule="evenodd" d="M3.33333 23H19.6667C20.9553 23 22 21.9553 22 20.6667V4.33333C22 3.04467 20.9553 2 19.6667 2H3.33333C2.04467 2 1 3.04467 1 4.33333V20.6667C1 21.9553 2.04467 23 3.33333 23Z" fill="#007EBB"/>
<path fill-rule="evenodd" clip-rule="evenodd" d="M18.9955 19.9521H15.8792V14.6443C15.8792 13.1891 15.3263 12.3759 14.1745 12.3759C12.9215 12.3759 12.2668 13.2222 12.2668 14.6443V19.9521H9.26358V9.84096H12.2668V11.2029C12.2668 11.2029 13.1698 9.53205 15.3154 9.53205C17.4601 9.53205 18.9955 10.8417 18.9955 13.5503V19.9521ZM5.68075 8.51699C4.65779 8.51699 3.82886 7.68155 3.82886 6.65119C3.82886 5.62084 4.65779 4.7854 5.68075 4.7854C6.70371 4.7854 7.53215 5.62084 7.53215 6.65119C7.53215 7.68155 6.70371 8.51699 5.68075 8.51699ZM4.13002 19.9521H7.2616V9.84096H4.13002V19.9521Z" fill="white"/>
</svg>
