<svg width="24" height="24" viewBox="0 0 24 24" fill="none" xmlns="http://www.w3.org/2000/svg">
<path d="M12.5 8.8H5.27561C4.56421 8.8 4 8.2231 4 7.52347V3.27653C4 2.56462 4.57648 2 5.27561 2H11.2244C11.9358 2 12.5 2.57689 12.5 3.27653V8.8Z" fill="#FD5402"/>
<path d="M19.7244 15.6H12.5V8.80005H19.7244C20.4235 8.80005 21 9.3759 21 10.0743V14.3259C21 15.0365 20.4235 15.6 19.7244 15.6Z" fill="#FD5402"/>
<path d="M11.2244 22.4H5.27561C4.57648 22.4 4 21.8241 4 21.1257V16.8742C4 16.1759 4.57648 15.6 5.27561 15.6H12.5V21.1257C12.5 21.8241 11.9235 22.4 11.2244 22.4Z" fill="#FD5402"/>
</svg>
