<svg width="85" height="63" viewBox="0 0 85 63" fill="none" xmlns="http://www.w3.org/2000/svg">
<g clip-path="url(#clip0_641_1182)">
<path d="M84.4068 61.0066C84.4068 61.9247 83.7371 62.5408 82.9443 62.5408V62.5352C82.129 62.5408 81.4717 61.9247 81.4717 61.0069C81.4717 60.0893 82.129 59.4749 82.9443 59.4749C83.7373 59.4746 84.4068 60.0891 84.4068 61.0066ZM85 61.0066C85 59.7468 84.0278 59.0155 82.9443 59.0155C81.8533 59.0155 80.8811 59.7468 80.8811 61.0066C80.8811 62.2657 81.8536 63 82.9443 63C84.028 63 85 62.2657 85 61.0066ZM82.6033 61.1751H82.8234L83.3334 62.0766H83.8936L83.3286 61.1371C83.6205 61.1162 83.8607 60.9762 83.8607 60.5806C83.8607 60.0891 83.524 59.9311 82.9537 59.9311H82.1288V62.0766H82.6031V61.1751M82.6033 60.8119V60.2953H82.9332C83.1126 60.2953 83.3571 60.3099 83.3571 60.5302C83.3571 60.77 83.2307 60.8119 83.019 60.8119H82.6033Z" fill="#FFFFEB"/>
<path d="M71.1561 50.0316L73.7192 57.0898H68.5137L71.1561 50.0316ZM68.4111 47.2834L62.5045 62.3478H66.6754L67.6097 59.6859H74.5998L75.484 62.3478H80.0119L74.0612 47.2814L68.4111 47.2834ZM56.5526 62.3534H60.7842V47.2787L56.5519 47.2778L56.5526 62.3534ZM27.176 47.2778L23.6455 59.2256L20.2635 47.2787L15.6976 47.2778L20.5278 62.3534H26.6241L31.4932 47.2778H27.176ZM44.2807 50.5604H46.0994C48.738 50.5604 50.4445 51.7528 50.4445 54.8472C50.4445 57.9424 48.738 59.135 46.0994 59.135H44.2807V50.5604ZM40.0847 47.2778V62.3534H46.9449C50.6 62.3534 51.7935 61.7418 53.084 60.3698C53.9955 59.4065 54.5852 57.2924 54.5852 54.9814C54.5852 52.8617 54.0862 50.9723 53.2163 49.795C51.6489 47.6894 49.391 47.2778 46.0213 47.2778H40.0847ZM0 47.2568V62.3534H4.26741V50.8905L7.57396 50.8915C8.66881 50.8915 9.44926 51.1661 9.97648 51.7331C10.6452 52.45 10.9182 53.6074 10.9182 55.7244V62.3534H15.0534V54.0124C15.0534 48.0595 11.2839 47.2568 7.59573 47.2568H0ZM33.2742 47.2778L33.2759 62.3534H37.5056V47.2778H33.2742Z" fill="#FFFFEB"/>
<path d="M11.3724 17.2608C11.3724 17.2608 16.8149 9.17765 27.6819 8.34141V5.40887C15.6453 6.38192 5.22217 16.6436 5.22217 16.6436C5.22217 16.6436 11.1257 33.8223 27.6819 35.3952V32.2782C15.5322 30.7396 11.3724 17.2608 11.3724 17.2608ZM27.6819 26.0791V28.9337C18.4994 27.2858 15.9506 17.6775 15.9506 17.6775C15.9506 17.6775 20.3595 12.7612 27.6819 11.9639V15.0963C27.6763 15.0963 27.6725 15.0946 27.6679 15.0946C23.8247 14.6303 20.8224 18.2443 20.8224 18.2443C20.8224 18.2443 22.5051 24.3282 27.6819 26.0791ZM27.6819 0V5.40887C28.0352 5.3816 28.3886 5.35848 28.7438 5.3463C42.4281 4.88205 51.3443 16.6436 51.3443 16.6436C51.3443 16.6436 41.1037 29.1781 30.4349 29.1781C29.4571 29.1781 28.5417 29.0868 27.6819 28.9335V32.2782C28.4171 32.3721 29.1794 32.4274 29.9749 32.4274C39.903 32.4274 47.0827 27.3236 54.0349 21.283C55.1875 22.2122 59.9065 24.4728 60.8765 25.4624C54.2663 31.0332 38.8608 35.5238 30.127 35.5238C29.2851 35.5238 28.4766 35.4724 27.6819 35.3952V40.0952H65.418V0H27.6819ZM27.6819 11.9639V8.34141C28.0316 8.31682 28.384 8.29808 28.7438 8.28664C38.5842 7.97551 45.0401 16.7987 45.0401 16.7987C45.0401 16.7987 38.0671 26.547 30.5906 26.547C29.5146 26.547 28.5501 26.3729 27.6819 26.0791V15.0963C31.5128 15.5622 32.2835 17.2656 34.5867 21.1303L39.709 16.7826C39.709 16.7826 35.9698 11.8463 29.6665 11.8463C28.9813 11.846 28.3257 11.8945 27.6819 11.9639Z" fill="#FFFFEB"/>
</g>
<defs>
<clipPath id="clip0_641_1182">
<rect width="85" height="63" fill="white"/>
</clipPath>
</defs>
</svg>
