<svg width="102" height="40" viewBox="0 0 102 40" fill="none" xmlns="http://www.w3.org/2000/svg">
<g clip-path="url(#clip0_640_1154)">
<mask id="mask0_640_1154" style="mask-type:luminance" maskUnits="userSpaceOnUse" x="0" y="0" width="102" height="40">
<path d="M101.429 0H0V40H101.429V0Z" fill="white"/>
</mask>
<g mask="url(#mask0_640_1154)">
<path d="M41.2824 4.54933V0.469443H26.6909V20.985H41.2704V16.9341H31.2066V12.6784H40.2671V8.77433H31.2066V4.54933H41.2807H41.2824ZM58.7671 0.469443V13.6753L48.8388 0.469443H44.613V20.985H49.1269V8.12905L58.7671 20.985H63.2828V0.469443H58.7671ZM71.7653 16.9051V0.469443H67.2496V20.9833H80.3919V16.9034H71.7653V16.9051ZM18.2084 0.469443L11.4151 13.6275L4.62194 0.469443H0.0874023V20.985H4.60136V10.3039L10.1169 20.985H12.7134L18.2084 10.3414V20.985H22.724V0.469443H18.2084ZM90.9788 17.1833C87.3892 17.1833 84.4805 14.2335 84.4805 10.5958C84.4805 6.95801 87.3892 4.00819 90.9788 4.00819C94.5684 4.00819 97.477 6.95801 97.477 10.5958C97.477 14.2335 94.5666 17.1833 90.9788 17.1833ZM90.9788 0C85.206 0 80.5274 4.74394 80.5274 10.5958C80.5274 16.4476 85.206 21.1915 90.9788 21.1915C96.7516 21.1915 101.429 16.4476 101.429 10.5958C101.429 4.74394 96.7499 0 90.9788 0Z" fill="#FFFFEB"/>
<path d="M7.46211 30.7032L4.5054 38.3782H4.4488L1.40634 30.7032H0.133789L3.74907 39.8258H5.09023L8.71923 30.7032H7.46211Z" fill="#FFFFEB"/>
<path d="M21.1017 39.8258H14.6892V30.7032H20.9748V31.7462H15.8897V34.6124H19.9321V35.6418H15.8897V38.7828H21.1017V39.8258Z" fill="#FFFFEB"/>
<path d="M33.6574 37.6834V30.7032H34.8151V39.8258H33.8289L28.6015 32.499V39.8258H27.4438V30.7032H28.7301L33.6574 37.6834Z" fill="#FFFFEB"/>
<path d="M44.1843 39.8258V31.7462H40.9138V30.7032H48.7394V31.7462H45.4123V39.8258H44.1843Z" fill="#FFFFEB"/>
<path d="M54.4385 36.3365V30.7032H55.6664V36.3502C55.6664 38.088 56.5085 38.9432 58.0812 38.9432C59.6539 38.9432 60.5234 38.088 60.5234 36.3655V30.7032H61.7376V36.3365C61.7376 39.0013 60.1084 39.9999 58.0812 39.9999C56.054 39.9999 54.4385 39.0013 54.4385 36.3365Z" fill="#FFFFEB"/>
<path d="M71.8649 35.1485C73.393 35.1485 74.079 34.5698 74.079 33.4397C74.079 32.3967 73.393 31.731 71.8649 31.731H69.493V35.1485H71.8649ZM74.1648 39.8259C73.9933 39.5801 73.8646 38.9143 73.7926 37.8423C73.736 36.8283 73.2644 36.1489 72.0364 36.1489H69.4947V39.8276H68.2805V30.705H71.9369C74.2231 30.705 75.3224 31.7771 75.3224 33.3988C75.3224 34.8037 74.3791 35.5411 73.2798 35.6726C74.3791 35.8894 74.9074 36.5705 74.9931 37.6425C75.108 38.9758 75.1509 39.4964 75.451 39.8293H74.1648V39.8259Z" fill="#FFFFEB"/>
<path d="M88.1764 39.8258H81.7622V30.7032H88.0478V31.7462H82.9627V34.6124H87.0051V35.6418H82.9627V38.7828H88.1764V39.8258Z" fill="#FFFFEB"/>
<path d="M94.6473 36.4954C94.7194 38.1615 95.8462 39.015 97.3605 39.015C98.7034 39.015 99.5455 38.4363 99.5455 37.436C99.5455 36.5961 99.0035 36.1898 97.8322 35.9594L96.0468 35.6111C94.7194 35.3499 93.8036 34.6261 93.8036 33.2076C93.8036 31.6149 95.0469 30.5292 97.0175 30.5292C99.2745 30.5292 100.574 31.7463 100.588 33.8016L99.4597 33.8597C99.4168 32.354 98.5165 31.4988 97.0312 31.4988C95.7312 31.4988 95.0024 32.1219 95.0024 33.1342C95.0024 34.0321 95.5872 34.3223 96.6299 34.5237L98.2575 34.8429C99.9005 35.1622 100.729 35.886 100.729 37.3489C100.729 39.0287 99.3002 39.9983 97.3571 39.9983C95.143 39.9983 93.5291 38.7675 93.5291 36.5671L94.6439 36.4954H94.6473Z" fill="#FFFFEB"/>
<path d="M100.811 25.4473H0V26.2274H100.811V25.4473Z" fill="#FFFFEB"/>
</g>
</g>
<defs>
<clipPath id="clip0_640_1154">
<rect width="102" height="40" fill="white"/>
</clipPath>
</defs>
</svg>
