<svg width="200" height="31" viewBox="0 0 200 31" fill="none" xmlns="http://www.w3.org/2000/svg">
<g clip-path="url(#clip0_641_1187)">
<path d="M12.2557 20.0171C18.153 20.0171 22.9864 24.3496 22.9727 30.5661H1.53859C1.52788 24.3527 6.35974 20.0171 12.2557 20.0171Z" fill="#FFFFEB"/>
<path d="M21.0958 5.31514C19.7408 5.31514 18.7763 5.89532 17.8807 7.15667L15.3147 10.7855V0.426514H9.19065V10.7855L6.62468 7.15667C5.73363 5.89532 4.7691 5.31514 3.40956 5.31514C1.36719 5.31514 0.00612404 6.79951 0 8.63049C0 10.1977 0.745601 11.218 2.3256 12.2201L12.2481 18.5117L22.1705 12.2201C23.7505 11.218 24.5022 10.1977 24.4962 8.63049C24.4977 6.79951 23.1381 5.31514 21.0958 5.31514Z" fill="#FFFFEB"/>
<path d="M35.507 7.01799C33.2274 7.01799 31.7791 5.62855 31.7791 3.49015C31.7791 1.35176 33.2626 0 35.507 0C37.7868 0 39.2351 1.38793 39.2351 3.52632C39.2351 5.66472 37.7516 7.01799 35.507 7.01799ZM38.8371 8.37426V30.5659H32.1771V8.37125L38.8371 8.37426Z" fill="#FFFFEB"/>
<path d="M48.7166 8.37121V12.5049H49.0428C50.3105 9.58283 52.5181 7.94324 56.0654 7.94324C60.879 7.94324 63.8461 10.7583 63.8461 16.209V30.5659H57.1862V17.4205C57.1862 14.3569 55.848 12.9675 53.2056 12.9675C50.4497 12.9675 48.8988 14.4639 48.8988 17.5985V30.5659H42.239V8.37121H48.7166Z" fill="#FFFFEB"/>
<path d="M72.3141 23.5479C72.5682 25.4724 73.7625 26.47 75.8982 26.47C78.2499 26.47 79.2281 25.5793 79.2281 24.3315C79.2281 23.126 78.6158 22.4072 76.5855 22.1948L73.6904 21.8737C68.5142 21.3041 66.3784 19.0241 66.3784 15.243C66.3784 11.0386 69.5935 7.93872 75.8247 7.93872C81.9058 7.93872 84.7658 10.7899 85.1271 15.0999H78.9739C78.8301 13.4256 77.8166 12.4642 75.6808 12.4642C73.473 12.4642 72.4963 13.3548 72.4963 14.6011C72.4963 15.6695 73.1836 16.2753 74.8846 16.4893L78.1411 16.9218C83.2455 17.5985 85.4165 19.6344 85.4165 23.5841C85.4165 27.9302 81.9778 30.994 75.8614 30.994C69.5277 30.994 66.3416 28.0011 65.9099 23.5479H72.3141Z" fill="#FFFFEB"/>
<path d="M89.2593 24.0469V13.5733H86.3994V9.22722C90.0921 8.97707 91.5391 7.6238 91.6845 4.2738H95.9192V8.37127H100.953V13.5733H95.9192V22.9422C95.9192 25.1514 96.8607 25.8281 98.7057 25.8281C99.2654 25.8218 99.8233 25.7623 100.371 25.6503V30.6021C99.2953 30.8747 98.1877 31.0065 97.0766 30.9939C91.614 30.9939 89.2593 28.5708 89.2593 24.0469Z" fill="#FFFFEB"/>
<path d="M115.934 26.8619H115.651C114.601 29.4615 112.61 30.9941 109.172 30.9941C104.683 30.9941 102.259 28.2514 102.259 24.7236C102.259 21.4458 104.141 19.1657 109.244 18.2436L113.08 17.5654C115.035 17.2098 115.723 16.5331 115.723 15.3923C115.723 13.8613 114.637 12.9706 112.538 12.9706C110.222 12.9706 109.063 14.0029 108.845 15.7842H102.506C103.193 11.01 106.74 7.94788 112.785 7.94788C119.299 7.94788 122.377 11.1909 122.377 16.1775V30.5705H115.934V26.8619ZM115.717 20.3413C115.138 20.7693 114.377 21.0948 113.328 21.3389L111.338 21.8031C109.602 22.1949 108.95 22.9785 108.95 24.19C108.95 25.7574 110.072 26.6479 111.953 26.6479C114.198 26.6479 115.718 25.4424 115.718 22.5867L115.717 20.3413Z" fill="#FFFFEB"/>
<path d="M136.852 7.94324C143.875 7.94324 147.784 11.7197 148.29 17.7763H141.707C141.382 15.0336 139.87 13.287 136.821 13.287C133.418 13.287 131.501 15.3892 131.501 19.345C131.501 23.548 133.564 25.6502 136.893 25.6502C139.717 25.6502 141.487 24.0106 141.816 21.0539H148.439C147.826 27.2536 143.59 31 136.676 31C129.076 31 124.768 26.5108 124.768 19.5636C124.763 12.5395 129.542 7.94324 136.852 7.94324Z" fill="#FFFFEB"/>
<path d="M163.757 26.8619H163.467C162.419 29.4615 160.428 30.9941 156.99 30.9941C152.501 30.9941 150.076 28.2514 150.076 24.7236C150.076 21.4458 151.959 19.1657 157.062 18.2436L160.898 17.5654C162.853 17.2098 163.541 16.5331 163.541 15.3923C163.541 13.8613 162.454 12.9706 160.355 12.9706C158.038 12.9706 156.881 14.0029 156.663 15.7842H150.33C151.017 11.01 154.564 7.94788 160.609 7.94788C167.123 7.94788 170.201 11.1909 170.201 16.1775V30.5705H163.757V26.8619ZM163.541 20.3413C162.962 20.7693 162.201 21.0948 161.151 21.3389L159.161 21.8031C157.423 22.1949 156.772 22.9785 156.772 24.19C156.772 25.7574 157.895 26.6479 159.776 26.6479C162.021 26.6479 163.541 25.4424 163.541 22.5867V20.3413Z" fill="#FFFFEB"/>
<path d="M179.718 8.37121V13.7511H180.043C181.165 9.23017 182.8 7.9794 184.965 7.9794C185.421 7.97776 185.874 8.05006 186.306 8.19338V14.3569C185.706 14.2675 185.101 14.2197 184.496 14.2138C181.346 14.2138 180.081 15.4615 180.081 18.9517V30.5659H173.421V8.37121H179.718Z" fill="#FFFFEB"/>
<path d="M188.31 8.62142C190.047 7.94329 190.769 6.55385 190.879 4.2738H194.97V8.37127H200V13.5733H194.97V22.9422C194.97 25.1514 195.91 25.8281 197.756 25.8281C198.316 25.822 198.873 25.7623 199.421 25.6503V30.6021C198.345 30.8748 197.237 31.0066 196.126 30.9939C190.661 30.9939 188.31 28.5708 188.31 24.0469V8.62142Z" fill="#FFFFEB"/>
</g>
<defs>
<clipPath id="clip0_641_1187">
<rect width="200" height="31" fill="white"/>
</clipPath>
</defs>
</svg>
