<svg width="198" height="28" viewBox="0 0 198 28" fill="none" xmlns="http://www.w3.org/2000/svg">
<g clip-path="url(#clip0_641_1205)">
<path d="M4.48696 7.76222C4.48696 4.68222 2.92323 2.13733 0 0H6.79436C7.99208 0.910182 8.96251 2.0845 9.62975 3.43109C10.297 4.77769 10.6429 6.26005 10.6406 7.76222C10.6429 9.2644 10.297 10.7468 9.62975 12.0934C8.96251 13.4399 7.99208 14.6143 6.79436 15.5244C9.00042 16.4422 10.2555 18.6822 10.2555 21.8882V27.9969H4.10343V21.8882C4.10343 18.8347 2.6426 16.6973 0.00155906 15.526C2.92479 13.3871 4.48852 10.8438 4.48852 7.76378L4.48696 7.76222ZM17.82 7.76222C17.82 4.68222 16.2563 2.13733 13.333 0H20.129C21.3264 0.910343 22.2965 2.08473 22.9635 3.43132C23.6305 4.7779 23.9762 6.26018 23.9736 7.76222C23.9762 9.26427 23.6305 10.7465 22.9635 12.0931C22.2965 13.4397 21.3264 14.6141 20.129 15.5244C22.3335 16.4422 23.5901 18.6822 23.5901 21.8882V27.9969H17.4365V21.8882C17.4365 18.8347 15.9741 16.6973 13.333 15.526C16.2563 13.3871 17.82 10.8438 17.82 7.76378V7.76222ZM31.1562 7.76222C31.1562 4.68222 29.5924 2.13733 26.6692 0H33.4636C34.6613 0.910182 35.6317 2.0845 36.299 3.43109C36.9662 4.77769 37.3121 6.26005 37.3097 7.76222C37.3121 9.2644 36.9662 10.7468 36.299 12.0934C35.6317 13.4399 34.6613 14.6143 33.4636 15.5244C35.6696 16.4422 36.9247 18.6822 36.9247 21.8882V27.9969H30.7711V21.8882C30.7711 18.8347 29.3102 16.6973 26.6692 15.526C29.5924 13.3871 31.1562 10.8438 31.1562 7.76378V7.76222ZM56.0511 22.9102H51.3865V5.08978H62.8486C68.3614 5.08978 71.0789 7.12756 71.0789 10.4611C71.0789 12.726 69.7459 14.4309 67.2592 15.2973C69.8223 15.6784 70.976 17.0271 70.976 19.446V22.9071H66.2583V19.6498C66.2583 17.612 65.2324 16.7984 62.5399 16.7984H56.0543V22.9102H56.0511ZM62.5898 7.686H56.0511V14.2038H62.5384C64.8972 14.2038 66.3581 12.9049 66.3581 10.8687C66.3581 8.85733 65.0017 7.686 62.5898 7.686ZM79.1797 5.08978H74.5135V22.9102H79.1797V5.08978ZM93.4872 17.1033H87.7951V22.9071H83.1273V5.08978H93.5885C99.1013 5.08978 102 7.38111 102 11.0476C102 14.8384 99.0514 17.1033 93.4872 17.1033ZM93.3843 7.686H87.7951V14.5071H93.3328C95.7431 14.5071 97.2305 13.286 97.2305 11.0724C97.2305 8.90867 95.7431 7.686 93.3843 7.686ZM115.128 17.1033H109.436V22.9071H104.768V5.08978H115.23C120.743 5.08978 123.641 7.38111 123.641 11.0476C123.641 14.8384 120.691 17.1033 115.128 17.1033ZM115.026 7.686H109.436V14.5071H114.974C117.384 14.5071 118.872 13.286 118.872 11.0724C118.872 8.90867 117.384 7.686 115.026 7.686ZM131.076 5.08978V20.2596H142.717V22.9102H126.41V5.08978H131.076ZM150.304 5.08978H145.638V22.9102H150.304V5.08978ZM157.33 11.046V22.9102H154.253V5.08978H157.744L170.461 16.9509V5.08978H173.538V22.9102H170.051L157.33 11.046ZM188.77 7.17733C184.333 7.17733 181.437 9.97733 181.437 14.1509C181.437 18.2731 184.205 20.8196 188.513 20.8196H188.82C190.283 20.8196 191.923 20.5131 193.437 20.0309V15.2196H185.899V12.6747H198V21.0482C195.488 22.3471 191.692 23.366 188.616 23.366H188.206C181.128 23.366 176.565 19.6482 176.565 14.252C176.565 8.90711 181.257 4.63244 188.462 4.63244H188.872C191.873 4.63244 195.308 5.57356 197.847 7.04978L196.513 9.212C194.232 7.966 191.513 7.17733 189.078 7.17733H188.77Z" fill="#FFFFEB"/>
</g>
<defs>
<clipPath id="clip0_641_1205">
<rect width="198" height="28" fill="white"/>
</clipPath>
</defs>
</svg>
