<svg width="108" height="22" viewBox="0 0 108 22" fill="none" xmlns="http://www.w3.org/2000/svg">
<path d="M39.6409 0.706909H43.7341L50.6941 13.4337L57.654 0.70692H61.6587V21.6193H58.3191V5.59153L52.2162 16.6901H49.0834L42.9805 5.59153V21.6193H39.6409V0.706909Z" fill="#FFFFEB"/>
<path d="M72.4309 21.9929C70.8842 21.9929 69.5247 21.6468 68.3525 20.9547C67.1801 20.2626 66.2663 19.3041 65.6113 18.0792C64.9561 16.8543 64.6285 15.4502 64.6287 13.8669C64.6287 12.2637 64.9488 10.8446 65.5892 9.6097C66.2295 8.37505 67.1186 7.40906 68.2564 6.71174C69.3943 6.01486 70.7021 5.66633 72.1798 5.66614C73.6475 5.66614 74.911 6.01715 75.9701 6.71918C77.0289 7.4214 77.8441 8.40481 78.4156 9.66941C78.9869 10.9342 79.2726 12.418 79.2727 14.1208V15.0468H67.9387C68.1456 16.3217 68.6555 17.325 69.4682 18.0567C70.2809 18.7887 71.3079 19.1547 72.5492 19.1546C73.5441 19.1546 74.4012 19.0052 75.1204 18.7065C75.8394 18.4077 76.5142 17.9547 77.1449 17.3473L78.9181 19.543C77.1545 21.1764 74.9921 21.993 72.4309 21.9929ZM74.8692 9.58719C74.1696 8.86532 73.2534 8.50432 72.1207 8.50419C71.0172 8.50419 70.0936 8.87269 69.35 9.60969C68.606 10.3466 68.1356 11.3375 67.9387 12.5822H76.0662C75.9675 11.3075 75.5686 10.3092 74.8692 9.58719Z" fill="#FFFFEB"/>
<path d="M83.322 8.80316H80.2483V6.03969H83.322V1.46887H86.5433V6.03969H91.2129V8.80316H86.5433V15.8087C86.5433 16.9738 86.7404 17.8053 87.1344 18.3032C87.5283 18.8013 88.2031 19.0503 89.1589 19.0501C89.5823 19.0501 89.9419 19.0327 90.2376 18.9978C90.5332 18.9631 90.8582 18.9158 91.2129 18.8559V21.5894C90.8082 21.7077 90.3959 21.7976 89.979 21.8584C89.502 21.9294 89.0204 21.9643 88.5382 21.9629C85.0606 21.9629 83.3218 20.041 83.322 16.1971V8.80316Z" fill="#FFFFEB"/>
<path d="M108 21.6193H104.838V19.4385C104.276 20.2551 103.562 20.885 102.695 21.328C101.828 21.771 100.843 21.9926 99.7395 21.9929C98.3801 21.9929 97.1758 21.6418 96.1266 20.9396C95.0774 20.2376 94.2523 19.2717 93.6514 18.0419C93.0504 16.812 92.75 15.4054 92.75 13.8221C92.75 12.2288 93.0554 10.8196 93.6662 9.59463C94.2769 8.3699 95.1217 7.40893 96.2005 6.71174C97.2792 6.01486 98.518 5.66633 99.9168 5.66614C100.971 5.66614 101.917 5.8728 102.754 6.28614C103.58 6.69007 104.296 7.29271 104.838 8.04121V6.03966H108V21.6193ZM104.779 11.4918C104.434 10.6055 103.889 9.90589 103.146 9.39298C102.402 8.88019 101.542 8.6238 100.567 8.6238C99.1877 8.6238 98.0893 9.09182 97.2718 10.0279C96.454 10.964 96.0452 12.2287 96.0453 13.822C96.0453 15.4255 96.4394 16.6951 97.2275 17.6311C98.0155 18.5672 99.0844 19.0352 100.434 19.0352C101.429 19.0352 102.316 18.7762 103.094 18.2584C103.872 17.7408 104.434 17.0437 104.779 16.1672V11.4918Z" fill="#FFFFEB"/>
<path d="M23.5049 0C20.8195 0 18.7202 2.04459 16.8199 4.64185C14.2085 1.28074 12.0245 0 9.41098 0C4.08259 0 0 7.00965 0 14.429C0 19.0717 2.22199 22 5.94378 22C8.62248 22 10.549 20.7234 13.9739 14.6717C13.9739 14.6717 15.4015 12.1232 16.3837 10.3677C16.7278 10.9294 17.0903 11.5346 17.4711 12.1834L19.0771 14.9145C22.2056 20.2065 23.9487 22 27.1072 22C30.733 22 32.7508 19.0317 32.7508 14.2924C32.7508 6.52414 28.5762 0 23.5049 0ZM11.3622 13.0331C8.58545 17.4331 7.62484 18.4193 6.07886 18.4193C4.48785 18.4193 3.54225 17.0074 3.54225 14.4897C3.54225 9.10345 6.19894 3.59586 9.36595 3.59586C11.081 3.59586 12.5142 4.59708 14.7095 7.77395C12.6249 11.006 11.3622 13.0331 11.3622 13.0331ZM21.8421 12.4792L19.9219 9.24193C19.4022 8.38762 18.9028 7.60127 18.4237 6.88287C20.1544 4.18269 21.5819 2.83725 23.2798 2.83725C26.807 2.83725 29.6288 8.0869 29.6288 14.5352C29.6288 16.9931 28.8324 18.4193 27.1823 18.4193C25.6007 18.4193 24.8451 17.3634 21.8421 12.4792Z" fill="#FFFFEB"/>
</svg>
