<svg width="128" height="24" viewBox="0 0 128 24" fill="none" xmlns="http://www.w3.org/2000/svg">
<g clip-path="url(#clip0_653_1285)">
<path d="M120.395 23.0345C118.785 23.0345 117.386 22.7313 116.2 22.1247C115.012 21.508 114.087 20.5829 113.422 19.3495C112.768 18.1167 112.441 16.5898 112.441 14.7687C112.441 13.0378 112.783 11.5458 113.468 10.2927C114.152 9.02945 115.097 8.06945 116.305 7.41272C117.512 6.75672 118.885 6.42872 120.425 6.42872C121.903 6.42872 123.217 6.74691 124.364 7.38327C125.511 8.02036 126.401 8.94545 127.034 10.1585C127.679 11.3731 128.001 12.8255 128.001 14.5156C128.001 15.1222 127.996 15.6044 127.986 15.9622H115.958V12.8291H125.073L123.352 13.4116C123.352 12.5956 123.232 11.9142 122.99 11.3673C122.759 10.8102 122.417 10.3924 121.964 10.1138C121.512 9.83527 120.963 9.696 120.319 9.696C119.645 9.696 119.051 9.86036 118.538 10.1891C118.035 10.5069 117.643 10.9844 117.362 11.6215C117.089 12.2578 116.953 13.0236 116.953 13.9189V15.4549C116.953 16.3705 117.094 17.1465 117.376 17.7829C117.658 18.4193 118.06 18.9018 118.583 19.2305C119.107 19.5484 119.726 19.7073 120.44 19.7073C121.225 19.7073 121.874 19.5084 122.387 19.1105C122.9 18.7033 123.222 18.1313 123.352 17.3945H127.925C127.784 18.5487 127.387 19.5487 126.733 20.3945C126.089 21.2396 125.228 21.8905 124.152 22.3473C123.075 22.8055 121.823 23.0345 120.395 23.0345ZM106.501 1.20654H111.074V22.6014H106.501V1.20654ZM98.72 23.0345C97.8549 23.0345 97.0802 22.8854 96.3961 22.5873C95.7196 22.286 95.1284 21.8248 94.6747 21.2444C94.2024 20.6371 93.8504 19.8909 93.6187 19.0058L94.102 19.14V22.6014H89.5746V6.86182H94.1473V10.3833L93.6342 10.4727C93.8659 9.62691 94.2179 8.90582 94.6902 8.30945C95.1735 7.70291 95.762 7.24036 96.4557 6.92182C97.1501 6.59454 97.9299 6.43054 98.795 6.42982C100.093 6.42982 101.22 6.76291 102.176 7.42909C103.132 8.09527 103.866 9.05527 104.38 10.3091C104.892 11.5527 105.149 13.0298 105.149 14.7404C105.149 16.4415 104.887 17.9185 104.364 19.1716C103.842 20.4153 103.092 21.3698 102.115 22.0353C101.15 22.7022 100.018 23.0345 98.72 23.0345ZM97.3009 19.5884C97.9851 19.5884 98.5589 19.3895 99.0223 18.9916C99.4946 18.5938 99.8466 18.032 100.078 17.3062C100.32 16.5796 100.44 15.7244 100.44 14.7404C100.44 13.7556 100.32 12.9 100.078 12.1735C99.8466 11.4484 99.4946 10.8865 99.0223 10.488C98.5589 10.0807 97.9851 9.87709 97.3009 9.87709C96.6271 9.87709 96.0489 10.0807 95.5663 10.488C95.0926 10.8858 94.735 11.4527 94.4938 12.1887C94.2525 12.9153 94.1318 13.7658 94.1318 14.7404C94.1318 15.7244 94.2525 16.5796 94.4938 17.3062C94.7365 18.032 95.094 18.5938 95.5663 18.9916C96.0489 19.3895 96.6271 19.5884 97.3009 19.5884ZM89.5746 1.20763H94.1473V6.86182H89.5746V1.20763ZM78.0965 23.0345C77.1005 23.0345 76.2052 22.8407 75.4107 22.4531C74.6466 22.0846 74.003 21.5106 73.5536 20.7971C73.1115 20.0705 72.8901 19.2247 72.8893 18.2596C72.8893 16.7876 73.327 15.664 74.2024 14.8887C75.0778 14.1033 76.3406 13.5909 77.9906 13.3516L80.7525 12.9633C81.3057 12.8833 81.7434 12.784 82.0656 12.6655C82.3878 12.5469 82.6243 12.3876 82.7751 12.1876C82.9252 11.9789 83.0006 11.7153 83.0013 11.3967C83.0013 11.0695 82.9109 10.7713 82.7299 10.5022C82.5592 10.2236 82.2973 10.0047 81.9442 9.84545C81.6022 9.67672 81.1847 9.59236 80.6918 9.59236C79.9084 9.59236 79.2794 9.796 78.8049 10.2033C78.3326 10.6011 78.0763 11.1484 78.0358 11.8451H73.3131C73.3528 10.7905 73.6746 9.85527 74.2786 9.03927C74.8921 8.21454 75.7421 7.57309 76.8286 7.11491C77.9152 6.65672 79.1731 6.428 80.6024 6.42872C82.1009 6.42872 83.3684 6.67236 84.4049 7.15963C85.4407 7.63745 86.2205 8.324 86.7442 9.21927C87.2768 10.1138 87.5431 11.1829 87.5431 12.4265V18.9916C87.5431 19.6971 87.5935 20.3535 87.6943 20.9607C87.8046 21.5571 87.9606 21.9353 88.1622 22.0953V22.6014H83.4096C83.2911 22.1255 83.2052 21.6422 83.1525 21.1549C83.0912 20.5895 83.0562 20.0217 83.0477 19.4531L83.787 19.14C83.5868 19.8613 83.226 20.5292 82.731 21.0949C82.2278 21.6818 81.5786 22.1545 80.7834 22.5131C80 22.86 79.1036 23.0338 78.0965 23.0345ZM79.7881 19.7225C80.4318 19.7225 81 19.5833 81.4929 19.3047C81.9858 19.0153 82.3632 18.6174 82.6251 18.1113C82.8972 17.6044 83.0333 17.0273 83.0333 16.38V14.3215L83.4096 14.5298C83.1727 14.8426 82.8621 15.0936 82.5048 15.2607C82.1517 15.4309 81.6735 15.5753 81.0703 15.6938L79.9084 15.9175C79.1338 16.0673 78.5504 16.2964 78.1583 16.6047C77.7758 16.9124 77.5845 17.3451 77.5845 17.9029C77.5845 18.4593 77.7905 18.9018 78.2024 19.2305C78.6151 19.5578 79.1437 19.7225 79.7881 19.7225ZM57.3373 6.86182H62.1969L66.3768 20.364H64.9136L68.928 6.86182H73.6507L68.1423 22.6014H63.0565L57.3373 6.86182ZM50.1903 23.0345C48.6102 23.0345 47.2217 22.6964 46.0248 22.02C44.8375 21.3436 43.9168 20.3789 43.2629 19.1258C42.6192 17.872 42.2973 16.4047 42.2973 14.724C42.2973 13.0433 42.6192 11.5815 43.2629 10.3385C43.9176 9.08472 44.8382 8.11963 46.0248 7.44327C47.2217 6.76691 48.6102 6.42872 50.1903 6.42872C51.7704 6.42872 53.1534 6.76691 54.3393 7.44327C55.5273 8.11963 56.4432 9.08436 57.0869 10.3375C57.7408 11.5811 58.0678 13.0433 58.0678 14.724C58.0678 16.4047 57.7405 17.872 57.0858 19.1258C56.4421 20.3789 55.5269 21.3436 54.3404 22.02C53.1531 22.6964 51.7697 23.0345 50.1903 23.0345ZM50.1903 19.5731C50.8538 19.5731 51.4221 19.3942 51.8951 19.0364C52.3674 18.6676 52.7297 18.1255 52.982 17.4098C53.2336 16.684 53.3594 15.7887 53.3594 14.724C53.3594 13.1429 53.0824 11.9444 52.5285 11.1284C51.9753 10.3029 51.1955 9.89018 50.1892 9.89018C49.5264 9.89018 48.953 10.0742 48.4689 10.4422C47.9966 10.8 47.6347 11.3418 47.3831 12.0676C47.1315 12.7847 47.0058 13.6702 47.0058 14.724C47.0058 15.7778 47.1315 16.668 47.3831 17.3945C47.6347 18.1211 47.9966 18.6684 48.4689 19.0364C48.9522 19.3942 49.526 19.5731 50.1903 19.5731ZM28.9324 1.20654H33.6706V19.2676L32.8253 18.2978H39.2099C43.2474 18.2978 42.6957 22.6014 42.6957 22.6014H28.9324V1.20654Z" fill="#FFFFEB"/>
<mask id="mask0_653_1285" style="mask-type:alpha" maskUnits="userSpaceOnUse" x="0" y="0" width="22" height="23">
<path fill-rule="evenodd" clip-rule="evenodd" d="M6.51476 0.965454C10.112 0.965454 13.0295 3.85636 13.0295 7.42364V9.87818H15.1978C18.795 9.87818 21.7126 12.7691 21.7126 16.3364C21.7126 19.9036 18.7961 22.7935 15.1978 22.7935H0V7.42254C0 3.85745 2.91641 0.965454 6.51476 0.965454Z" fill="url(#paint0_linear_653_1285)"/>
</mask>
<g mask="url(#mask0_653_1285)">
<g filter="url(#filter0_f_653_1285)">
<path d="M9.52508 27.1484C17.6425 27.1484 24.223 20.6427 24.223 12.6175C24.223 4.59226 17.6425 -1.91345 9.52508 -1.91345C1.40764 -1.91345 -5.17285 4.59226 -5.17285 12.6175C-5.17285 20.6427 1.40764 27.1484 9.52508 27.1484Z" fill="#FFFFEB"/>
</g>
<g filter="url(#filter1_f_653_1285)">
<path d="M11.1394 19.1738C21.5355 19.1738 29.9631 12.668 29.9631 4.64285C29.9631 -3.38235 21.5355 -9.88806 11.1394 -9.88806C0.743341 -9.88806 -7.68433 -3.38235 -7.68433 4.64285C-7.68433 12.668 0.743341 19.1738 11.1394 19.1738Z" fill="#FFFFEB"/>
</g>
<g filter="url(#filter2_f_653_1285)">
<path d="M14.2092 14.6705C22.3266 14.6705 28.9071 8.957 28.9071 1.90904C28.9071 -5.13892 22.3266 -10.8524 14.2092 -10.8524C6.09172 -10.8524 -0.48877 -5.13892 -0.48877 1.90904C-0.48877 8.957 6.09172 14.6705 14.2092 14.6705Z" fill="#FFFFEB"/>
</g>
<g filter="url(#filter3_f_653_1285)">
<path d="M11.401 13.3788C16.283 13.3788 20.2407 9.46611 20.2407 4.63954C20.2407 -0.187027 16.283 -4.09973 11.401 -4.09973C6.51896 -4.09973 2.56128 -0.187027 2.56128 4.63954C2.56128 9.46611 6.51896 13.3788 11.401 13.3788Z" fill="#FFFFEB"/>
</g>
</g>
</g>
<defs>
<filter id="filter0_f_653_1285" x="-11.1429" y="-7.88345" width="41.3358" height="41.0018" filterUnits="userSpaceOnUse" color-interpolation-filters="sRGB">
<feFlood flood-opacity="0" result="BackgroundImageFix"/>
<feBlend mode="normal" in="SourceGraphic" in2="BackgroundImageFix" result="shape"/>
<feGaussianBlur stdDeviation="2.985" result="effect1_foregroundBlur_653_1285"/>
</filter>
<filter id="filter1_f_653_1285" x="-13.6543" y="-15.8581" width="49.5875" height="41.0018" filterUnits="userSpaceOnUse" color-interpolation-filters="sRGB">
<feFlood flood-opacity="0" result="BackgroundImageFix"/>
<feBlend mode="normal" in="SourceGraphic" in2="BackgroundImageFix" result="shape"/>
<feGaussianBlur stdDeviation="2.985" result="effect1_foregroundBlur_653_1285"/>
</filter>
<filter id="filter2_f_653_1285" x="-6.45877" y="-16.8224" width="41.3358" height="37.4629" filterUnits="userSpaceOnUse" color-interpolation-filters="sRGB">
<feFlood flood-opacity="0" result="BackgroundImageFix"/>
<feBlend mode="normal" in="SourceGraphic" in2="BackgroundImageFix" result="shape"/>
<feGaussianBlur stdDeviation="2.985" result="effect1_foregroundBlur_653_1285"/>
</filter>
<filter id="filter3_f_653_1285" x="-3.40872" y="-10.0697" width="29.6194" height="29.4185" filterUnits="userSpaceOnUse" color-interpolation-filters="sRGB">
<feFlood flood-opacity="0" result="BackgroundImageFix"/>
<feBlend mode="normal" in="SourceGraphic" in2="BackgroundImageFix" result="shape"/>
<feGaussianBlur stdDeviation="2.985" result="effect1_foregroundBlur_653_1285"/>
</filter>
<linearGradient id="paint0_linear_653_1285" x1="7.30703" y1="4.80109" x2="13.7898" y2="22.8323" gradientUnits="userSpaceOnUse">
<stop offset="0.025" stop-color="#FF8E63"/>
<stop offset="0.56" stop-color="#FF7EB0"/>
<stop offset="0.95" stop-color="#4B73FF"/>
</linearGradient>
<clipPath id="clip0_653_1285">
<rect width="128" height="24" fill="white"/>
</clipPath>
</defs>
</svg>
