<svg width="388" height="67" viewBox="0 0 388 67" fill="none" xmlns="http://www.w3.org/2000/svg">
<g clip-path="url(#clip0_718_46193)">
<path d="M152.273 0L152.28 23.1333C152.28 23.1435 152.282 23.1533 152.288 23.1616C152.294 23.1699 152.302 23.1763 152.312 23.1799C152.321 23.1835 152.332 23.1841 152.343 23.1818C152.353 23.1794 152.362 23.1742 152.37 23.1667C156.167 19.0333 161.247 17.57 166.797 18.3267C175.587 19.53 181.08 26.7567 182.563 35.1733C183.537 40.6978 183.437 46.1989 182.263 51.6767C181.588 54.8278 180.361 57.63 178.583 60.0833C175.952 63.7167 172.372 65.9056 167.843 66.65C167.097 66.7722 166.352 66.8889 165.61 67H163.26C159.004 66.6467 155.379 64.9822 152.383 62.0067C152.375 61.9981 152.365 61.9922 152.353 61.9896C152.341 61.987 152.329 61.9879 152.318 61.9922C152.307 61.9965 152.298 62.0039 152.291 62.0136C152.284 62.0233 152.28 62.0348 152.28 62.0467V65.73C152.28 65.7769 152.261 65.8218 152.227 65.8549C152.193 65.8881 152.148 65.9067 152.1 65.9067H144.51C144.468 65.9067 144.427 65.8895 144.397 65.8588C144.367 65.8282 144.35 65.7867 144.35 65.7433V4.62667C144.35 4.57501 144.364 4.52437 144.389 4.47988C144.415 4.43539 144.452 4.39863 144.497 4.37333L152.173 0C152.207 0 152.24 0 152.273 0ZM152.297 42.5033C152.283 49.0811 152.279 52.6133 152.283 53.1C152.284 53.302 152.344 53.4992 152.457 53.6667C155.497 58.2233 160.72 60.5267 166.063 59.28C173.587 57.5267 175.103 48.9033 175.117 42.5467C175.13 36.1867 173.643 27.56 166.13 25.7767C160.79 24.51 155.557 26.7933 152.5 31.3367C152.386 31.5037 152.325 31.7009 152.323 31.9033C152.319 32.39 152.31 35.9233 152.297 42.5033Z" fill="#FFFFEB"/>
<path d="M246.74 66.9999H244.337C243.039 66.8422 242.162 66.691 241.707 66.5466C237.123 65.0866 235.54 60.9433 235.533 56.4999C235.524 49.6799 235.524 39.6522 235.533 26.4166C235.533 26.3636 235.512 26.3127 235.475 26.2752C235.437 26.2377 235.386 26.2166 235.333 26.2166H228.163C228.138 26.2166 228.114 26.2117 228.091 26.2021C228.068 26.1926 228.047 26.1786 228.029 26.1609C228.011 26.1433 227.997 26.1224 227.988 26.0993C227.978 26.0763 227.973 26.0515 227.973 26.0266V19.4733C227.973 19.4229 227.993 19.3745 228.029 19.3389C228.065 19.3033 228.113 19.2833 228.163 19.2833H235.317C235.373 19.2833 235.428 19.2611 235.468 19.2218C235.508 19.1824 235.53 19.129 235.53 19.0733V4.6766C235.53 4.62391 235.544 4.57213 235.57 4.52649C235.596 4.48085 235.634 4.44295 235.68 4.4166L243.277 0.0299325C243.29 0.0224879 243.305 0.018655 243.321 0.018803C243.336 0.0189509 243.351 0.0230747 243.365 0.0307773C243.378 0.0384798 243.389 0.0495016 243.397 0.0627814C243.405 0.0760611 243.41 0.0911515 243.41 0.106599V19.0899C243.41 19.1412 243.43 19.1904 243.467 19.2266C243.503 19.2629 243.552 19.2833 243.603 19.2833H254.73C254.778 19.2833 254.824 19.3022 254.857 19.336C254.891 19.3697 254.91 19.4155 254.91 19.4633V26.0166C254.91 26.0429 254.905 26.0689 254.895 26.0931C254.885 26.1174 254.87 26.1394 254.851 26.158C254.833 26.1766 254.811 26.1913 254.787 26.2014C254.762 26.2114 254.736 26.2166 254.71 26.2166H243.527C243.494 26.2166 243.463 26.2296 243.439 26.2527C243.416 26.2758 243.403 26.3072 243.403 26.3399C243.412 43.6533 243.411 52.4955 243.4 52.8666C243.347 54.5199 243.643 56.9866 244.603 58.1833C246.47 60.5099 250.227 59.5333 252.553 58.5966C252.573 58.5889 252.594 58.5851 252.615 58.5855C252.636 58.5859 252.657 58.5904 252.676 58.5988C252.696 58.6071 252.713 58.6192 252.727 58.6343C252.742 58.6494 252.753 58.6672 252.76 58.6866L254.93 64.5866C254.951 64.6443 254.949 64.7077 254.926 64.7644C254.903 64.8211 254.859 64.8671 254.803 64.8933C252.252 66.0888 249.564 66.791 246.74 66.9999Z" fill="#FFFFEB"/>
<path d="M388 64.2534V65.9034H380.3C380.265 65.9036 380.23 65.894 380.2 65.8758C380.17 65.8575 380.146 65.8313 380.13 65.8001L365.863 37.8201C365.857 37.8065 365.847 37.7948 365.835 37.7859C365.823 37.777 365.809 37.7712 365.794 37.7689C365.779 37.7666 365.764 37.7679 365.749 37.7728C365.734 37.7776 365.721 37.7858 365.71 37.7967L359.12 44.6467C359.03 44.7388 358.98 44.862 358.98 44.9901V65.7367C358.98 65.7818 358.962 65.8251 358.931 65.8569C358.9 65.8888 358.858 65.9067 358.813 65.9067H351.117C351.095 65.9067 351.073 65.8979 351.058 65.8823C351.042 65.8667 351.033 65.8455 351.033 65.8234V4.9634C351.033 4.92087 351.045 4.87902 351.066 4.84212C351.088 4.80523 351.119 4.77461 351.157 4.7534L358.76 0.3634C358.782 0.350542 358.808 0.343765 358.833 0.34375C358.859 0.343735 358.884 0.350481 358.907 0.363312C358.929 0.376143 358.947 0.394609 358.96 0.416856C358.973 0.439103 358.98 0.464351 358.98 0.490067V35.1867C358.98 35.197 358.984 35.2069 358.99 35.2153C358.996 35.2237 359.004 35.2302 359.013 35.2341C359.023 35.238 359.033 35.239 359.043 35.2371C359.053 35.2352 359.063 35.2305 359.07 35.2234L373.95 19.3967C373.984 19.361 374.024 19.3325 374.07 19.313C374.115 19.2935 374.164 19.2834 374.213 19.2834H383.36C383.374 19.2832 383.388 19.2872 383.399 19.2949C383.411 19.3025 383.42 19.3136 383.426 19.3265C383.431 19.3394 383.432 19.3536 383.43 19.3673C383.427 19.381 383.42 19.3936 383.41 19.4034L371.473 31.8067C371.439 31.8416 371.417 31.8863 371.41 31.9347C371.403 31.9831 371.411 32.0328 371.433 32.0767L388 64.2534Z" fill="#FFFFEB"/>
<path d="M73.7834 67.0001H71.01C69.6034 66.8334 68.6656 66.7056 68.1967 66.6167C63.1056 65.6545 58.8989 63.219 55.5767 59.3101C55.5422 59.2682 55.5254 59.2146 55.5297 59.161C55.5341 59.1074 55.5593 59.058 55.6 59.0234L60.98 54.4001C61.0193 54.3664 61.0699 54.3493 61.1211 54.3524C61.1722 54.3555 61.2197 54.3786 61.2534 54.4167C65.1534 58.8667 70.92 61.0434 76.71 59.2901C77.8534 58.9434 79.2567 58.2301 80.0467 57.2267C81.6734 55.1634 81.38 52.1801 79.6634 50.2501C78.2167 48.6234 76.2134 47.3245 73.6534 46.3534C69.8067 44.8901 65.09 43.1434 61.2834 40.4101C56.8834 37.2501 55.1067 32.4934 56.4967 27.2401C57.8034 22.3101 62.66 19.3967 67.5234 18.5167C74.88 17.1901 82.3334 19.2167 87.2734 25.0734C87.2874 25.0894 87.298 25.1081 87.3046 25.1284C87.3112 25.1487 87.3136 25.1702 87.3117 25.1916C87.3099 25.213 87.3037 25.234 87.2937 25.2531C87.2837 25.2723 87.27 25.2894 87.2534 25.3034L82.12 29.5934C82.0771 29.6297 82.0225 29.6497 81.9658 29.6497C81.9091 29.6497 81.854 29.6297 81.81 29.5934C81.39 29.2434 80.7567 28.5601 80.29 28.2101C76.6534 25.4634 71.59 24.3167 67.1567 26.0767C64.9234 26.9634 63.8456 28.499 63.9234 30.6834C63.9867 32.5201 65.05 33.9667 66.56 34.8567C68.29 35.8767 70.0234 36.7834 72.0167 37.5534C77.0734 39.5134 81.1667 41.0767 84.93 44.2234C87.6467 46.5001 88.7567 49.8367 88.8634 53.4434C89.0867 61.0801 83.4634 65.7967 76.4334 66.6901C75.5534 66.8012 74.67 66.9045 73.7834 67.0001Z" fill="#FFFFEB"/>
<path d="M207.757 67H204.937C198.666 66.5178 193.509 63.9533 189.467 59.3067C189.436 59.2704 189.421 59.2233 189.424 59.1759C189.428 59.1284 189.45 59.0843 189.487 59.0533L194.883 54.4133C194.92 54.382 194.967 54.3663 195.016 54.3694C195.064 54.3725 195.11 54.3942 195.143 54.43C199.21 58.8433 205.077 61.2667 211.01 59.15C212.532 58.6055 213.618 57.8178 214.267 56.7867C215.733 54.46 215.057 51.5967 213.063 49.7133C211.928 48.6422 210.937 47.9033 210.09 47.4967C208.423 46.6922 205.99 45.6789 202.79 44.4567C199.013 43.0133 194.007 40.38 191.89 37.1233C190.021 34.25 189.511 31.0189 190.36 27.43C191.323 23.3567 194.86 20.5367 198.797 19.2033C201.883 18.1567 205.24 17.9767 208.427 18.3167C213.498 18.8544 217.749 21.0889 221.18 25.02C221.208 25.0527 221.222 25.0953 221.219 25.1384C221.216 25.1815 221.196 25.2217 221.163 25.25L216.04 29.6533C216.002 29.6857 215.953 29.7023 215.903 29.6998C215.853 29.6973 215.806 29.676 215.77 29.64C212.71 26.4911 208.934 25.0422 204.443 25.2933C202.077 25.4233 198.713 26.4767 198.013 29.13C197.4 31.47 198.37 33.5867 200.433 34.82C202.529 36.0667 204.464 37.0211 206.24 37.6833C210.553 39.29 214.28 40.7933 217.77 43.3567C220.23 45.1667 221.663 47.2666 222.38 50.1433C222.724 51.53 222.84 53.1089 222.727 54.88C222.487 58.5667 220.927 61.4944 218.047 63.6633C214.977 65.9767 211.58 66.61 207.757 67Z" fill="#FFFFEB"/>
<path d="M278.947 67H276.343C275.21 66.8433 273.91 66.7667 272.903 66.5167C265.854 64.7744 262.059 60.1822 261.517 52.74C261.33 50.1867 261.636 47.7522 262.433 45.4367C264.5 39.4267 271.083 36.3067 277.083 35.9067C281.954 35.58 286.506 36.54 290.737 38.7867C290.753 38.7958 290.772 38.8004 290.791 38.7999C290.81 38.7994 290.829 38.7938 290.845 38.7837C290.862 38.7737 290.875 38.7594 290.885 38.7424C290.895 38.7254 290.9 38.7062 290.9 38.6867C290.963 33.0333 291.09 26.68 283.95 25.3933C278.287 24.3733 272.11 26.18 267.39 29.62C267.377 29.6288 267.363 29.6346 267.347 29.637C267.332 29.6394 267.317 29.6382 267.302 29.6337C267.288 29.6292 267.274 29.6214 267.264 29.6109C267.253 29.6004 267.245 29.5876 267.24 29.5733L264.947 23.3433C264.927 23.2871 264.926 23.226 264.945 23.1698C264.964 23.1136 265.001 23.0656 265.05 23.0333C270.097 19.74 275.718 18.1167 281.913 18.1633C288.55 18.2133 294.503 20.29 297.05 26.8733C298.107 29.6067 298.357 32.5067 298.357 35.9833C298.354 48.5411 298.354 58.4544 298.357 65.7233C298.357 65.7478 298.352 65.7721 298.342 65.7948C298.333 65.8174 298.319 65.838 298.302 65.8553C298.285 65.8727 298.264 65.8864 298.241 65.8958C298.219 65.9052 298.195 65.91 298.17 65.91H291.013C290.981 65.91 290.951 65.897 290.928 65.8739C290.906 65.8507 290.893 65.8194 290.893 65.7867V61.75C290.893 61.7388 290.89 61.7279 290.884 61.7186C290.878 61.7093 290.869 61.7021 290.858 61.6978C290.848 61.6935 290.837 61.6924 290.826 61.6946C290.815 61.6967 290.805 61.7021 290.797 61.71C287.506 64.8411 283.556 66.6044 278.947 67ZM290.89 46C290.89 45.9451 290.876 45.8911 290.849 45.8433C290.822 45.7954 290.784 45.7552 290.737 45.7267C286.861 43.3956 282.644 42.41 278.087 42.77C274.103 43.0867 269.37 45.5233 269.003 50.0833C268.888 51.5189 268.94 52.6622 269.16 53.5133C270.143 57.3267 273.043 59.39 276.927 59.86C282.413 60.5267 287.247 58.22 290.743 53.9967C290.838 53.8824 290.89 53.7385 290.89 53.59V46Z" fill="#FFFFEB"/>
<path d="M327.927 66.9999H324.753C322.916 66.8399 321.461 66.6022 320.39 66.2866C306.917 62.3133 305.183 45.6233 307.523 34.1866C308.114 31.2999 309.178 28.6733 310.713 26.3066C314.87 19.9033 321.34 17.5966 328.767 18.2833C334.773 18.8366 339.483 21.8266 341.99 27.5099C342.286 28.1811 342.491 28.6355 342.607 28.8733C342.615 28.8902 342.619 28.9086 342.619 28.9273C342.62 28.946 342.616 28.9647 342.609 28.9822C342.602 28.9997 342.591 29.0157 342.578 29.029C342.564 29.0424 342.548 29.0529 342.53 29.0599L335.353 31.6999C335.304 31.7172 335.25 31.7155 335.203 31.6951C335.155 31.6746 335.117 31.6371 335.097 31.5899C334.143 29.3433 332.873 27.5733 330.7 26.4699C328.43 25.3199 325.163 25.3299 322.757 26.0933C314.523 28.6966 314.167 40.9466 315.137 47.8766C316.16 55.1833 320.423 60.8099 328.627 59.2699C332.25 58.5899 334.363 56.1999 335.57 52.7399C335.584 52.6991 335.614 52.6655 335.653 52.6462C335.692 52.6269 335.738 52.6235 335.78 52.6366L342.823 54.9966C342.87 55.0119 342.909 55.045 342.931 55.0886C342.954 55.1323 342.958 55.1831 342.943 55.2299C340.987 61.3233 336.537 65.4566 330.153 66.6333C329.422 66.7688 328.68 66.8911 327.927 66.9999Z" fill="#FFFFEB"/>
<path d="M41.9733 19.2666H0.433323C0.383617 19.2666 0.343323 19.3069 0.343323 19.3566V24.8099C0.343323 24.8596 0.383617 24.8999 0.433323 24.8999H41.9733C42.023 24.8999 42.0633 24.8596 42.0633 24.8099V19.3566C42.0633 19.3069 42.023 19.2666 41.9733 19.2666Z" fill="#FFFFEB"/>
<path d="M115.253 67.0001H112.013C108.127 66.5934 104.82 65.8434 101.863 63.1968C97.7233 59.4901 96.5667 52.7968 96.56 47.5834C96.5422 32.8746 96.5389 23.4723 96.55 19.3768C96.55 19.352 96.5598 19.3283 96.5773 19.3108C96.5948 19.2933 96.6186 19.2834 96.6433 19.2834H104.333C104.365 19.2834 104.396 19.2964 104.418 19.3196C104.441 19.3427 104.453 19.3741 104.453 19.4068C104.436 31.629 104.44 41.3801 104.467 48.6601C104.471 49.7579 104.669 51.0679 105.06 52.5901C106.01 56.2868 108.633 58.8001 112.363 59.4768C113.41 59.6679 114.736 59.6768 116.34 59.5034C122.727 58.8201 125.107 54.0534 125.183 48.1668C125.214 45.9512 125.221 36.3912 125.203 19.4868C125.203 19.4329 125.224 19.3811 125.262 19.343C125.299 19.3049 125.35 19.2834 125.403 19.2834H133.027C133.048 19.2834 133.068 19.2919 133.083 19.3069C133.098 19.3219 133.107 19.3422 133.107 19.3634V65.7334C133.107 65.7803 133.088 65.8252 133.055 65.8584C133.022 65.8915 132.977 65.9101 132.93 65.9101H125.363C125.324 65.9101 125.285 65.8943 125.257 65.8662C125.229 65.838 125.213 65.7999 125.213 65.7601V61.6234C125.213 61.6102 125.209 61.5973 125.201 61.5864C125.194 61.5755 125.183 61.5673 125.171 61.5629C125.158 61.5584 125.145 61.558 125.133 61.5617C125.121 61.5654 125.111 61.573 125.103 61.5834C122.603 64.7057 119.32 66.5112 115.253 67.0001Z" fill="#FFFFEB"/>
<path d="M41.9666 29.9834H0.446642C0.393255 29.9834 0.349976 30.0267 0.349976 30.0801V35.5467C0.349976 35.6001 0.393255 35.6434 0.446642 35.6434H41.9666C42.02 35.6434 42.0633 35.6001 42.0633 35.5467V30.0801C42.0633 30.0267 42.02 29.9834 41.9666 29.9834Z" fill="#FFFFEB"/>
<path d="M21.2 40.7335C33.4778 40.7423 40.39 40.7412 41.9366 40.7301C41.9676 40.7301 41.9973 40.7424 42.0191 40.7643C42.041 40.7862 42.0533 40.8158 42.0533 40.8468V66.7468C42.0531 66.7686 42.0472 66.7899 42.0362 66.8088C42.0253 66.8276 42.0097 66.8433 41.991 66.8544C41.9722 66.8654 41.9509 66.8715 41.9291 66.8719C41.9073 66.8723 41.8858 66.8671 41.8666 66.8568C33.5844 62.2212 26.76 58.3912 21.3933 55.3668C21.3111 55.3201 21.2433 55.2968 21.19 55.2968C21.1366 55.2968 21.07 55.3201 20.99 55.3668C15.6189 58.3846 8.78998 62.2068 0.503317 66.8335C0.484136 66.8438 0.462618 66.849 0.440841 66.8485C0.419064 66.8481 0.397765 66.8421 0.379 66.831C0.360235 66.82 0.344638 66.8043 0.333717 66.7854C0.322795 66.7666 0.316917 66.7452 0.31665 66.7235L0.34665 40.8235C0.34665 40.7925 0.358942 40.7628 0.380821 40.741C0.402701 40.7191 0.432375 40.7068 0.463317 40.7068C2.00998 40.7179 8.92221 40.7268 21.2 40.7335Z" fill="#FFFFEB"/>
</g>
<defs>
<clipPath id="clip0_718_46193">
<rect width="388" height="67" fill="white"/>
</clipPath>
</defs>
</svg>
