<svg width="129" height="35" viewBox="0 0 129 35" fill="none" xmlns="http://www.w3.org/2000/svg">
<g clip-path="url(#clip0_11636_466)">
<path d="M13.7199 0C6.17136 0 0.000488281 6.22673 0.000488281 13.8436C0.000488281 21.4605 6.17136 27.6872 13.7199 27.6872C21.2685 27.6872 27.4394 21.4895 27.4394 13.8436C27.4394 6.19777 21.3115 0 13.7199 0ZM13.7199 22.7348C9.02719 22.7348 5.25291 18.854 5.25291 13.8436C5.25291 8.83326 9.02719 4.95242 13.7199 4.95242C18.4127 4.95242 22.1869 8.83326 22.1869 13.8436C22.1869 18.854 18.4127 22.7348 13.7199 22.7348Z" fill="#FFFFEB"/>
<path d="M41.3169 7.68929C38.8342 7.68929 36.4376 8.68846 35.1747 10.3827V8.08027H30.2236V35H35.1747V25.2689C36.4376 26.8473 38.7624 27.6872 41.3169 27.6872C46.6554 27.6872 50.8458 23.4588 50.8458 17.681C50.8458 11.9032 46.6554 7.6748 41.3169 7.6748V7.68929ZM40.4845 23.343C37.6574 23.343 35.146 21.113 35.146 17.6955C35.146 14.278 37.6574 12.048 40.4845 12.048C43.3116 12.048 45.823 14.278 45.823 17.6955C45.823 21.113 43.3116 23.343 40.4845 23.343Z" fill="#FFFFEB"/>
<path d="M62.513 7.68933C57.1027 7.68933 52.8262 11.9612 52.8262 17.6955C52.8262 23.4299 56.5574 27.7017 62.6565 27.7017C67.6506 27.7017 70.8509 24.6608 71.8411 21.2433H67.0048C66.3877 22.6624 64.68 23.6616 62.6278 23.6616C60.0734 23.6616 58.136 21.8515 57.6768 19.2739H72.085V17.319C72.085 12.0915 68.4686 7.70381 62.513 7.70381V7.68933ZM57.7198 15.7262C58.2508 13.3079 60.2312 11.7295 62.6422 11.7295C65.1966 11.7295 67.134 13.4237 67.3636 15.7262H57.7198Z" fill="#FFFFEB"/>
<path d="M85.2735 7.68924C83.0634 7.68924 80.7386 8.68841 79.6766 10.3392V8.06574H74.7256V27.2962H79.6766V16.9424C79.6766 13.9449 81.2839 11.9755 83.8671 11.9755C86.2637 11.9755 87.5696 13.8146 87.5696 16.3922V27.2817H92.5207V15.5813C92.5207 10.8171 89.6218 7.66028 85.2735 7.66028V7.68924Z" fill="#FFFFEB"/>
<path d="M105.207 0.390991L94.415 27.3107H99.7105L101.992 21.4315H114.262L116.544 27.3107H121.926L111.234 0.390991H105.207ZM103.729 16.957L108.149 5.69095L112.526 16.957H103.714H103.729Z" fill="#FFFFEB"/>
<path d="M129.001 0.390991H123.963V27.3107H129.001V0.390991Z" fill="#FFFFEB"/>
</g>
<defs>
<clipPath id="clip0_11636_466">
<rect width="129" height="35" fill="white" transform="translate(0.000488281)"/>
</clipPath>
</defs>
</svg>
