<svg width="138" height="29" viewBox="0 0 138 29" fill="none" xmlns="http://www.w3.org/2000/svg">
<g clip-path="url(#clip0_11636_464)">
<path fill-rule="evenodd" clip-rule="evenodd" d="M31.4982 28.4868L15.7493 0.523071L0.000488281 28.4868H31.4982ZM47.3831 27.2139L60.5446 1.79422H54.8517L45.7727 20.2549L36.6936 1.79422H31.0007L44.1622 27.2139H47.3831ZM137.078 1.79422V27.214H132.365V1.79422H137.078ZM110.844 17.7262C110.844 15.7451 111.249 14.0027 112.059 12.499C112.869 10.9953 113.998 9.83772 115.446 9.0262C116.894 8.21468 118.588 7.80892 120.527 7.80892C122.246 7.80892 123.792 8.19081 125.167 8.95458C126.541 9.71836 127.634 10.8521 128.444 12.3558C129.254 13.8595 129.671 15.6974 129.696 17.8694V18.9793H115.815C115.912 20.5546 116.367 21.7957 117.177 22.7027C118.011 23.5859 119.129 24.0274 120.527 24.0274C121.411 24.0274 122.221 23.7887 122.957 23.3114C123.694 22.834 124.246 22.1896 124.614 21.3781L129.438 21.7361C128.849 23.5261 127.744 24.9583 126.124 26.0323C124.504 27.1064 122.639 27.6434 120.527 27.6434C118.588 27.6434 116.894 27.2377 115.446 26.4262C113.998 25.6147 112.869 24.457 112.059 22.9533C111.249 21.4496 110.844 19.7073 110.844 17.7262ZM124.835 15.9361C124.663 14.3846 124.185 13.2509 123.399 12.5348C122.614 11.7949 121.657 11.4249 120.527 11.4249C119.226 11.4249 118.171 11.8188 117.361 12.6064C116.551 13.3941 116.048 14.504 115.851 15.9361H124.835ZM102.891 12.5348C103.677 13.1793 104.168 14.0743 104.364 15.22L109.224 14.9694C109.052 13.5134 108.549 12.2484 107.715 11.1743C106.88 10.1002 105.8 9.27682 104.474 8.70396C103.174 8.10722 101.738 7.80892 100.166 7.80892C98.2271 7.80892 96.5338 8.21468 95.0851 9.0262C93.637 9.83772 92.5077 10.9953 91.6977 12.499C90.8878 14.0027 90.4828 15.7451 90.4828 17.7262C90.4828 19.7073 90.8878 21.4496 91.6977 22.9533C92.5077 24.457 93.637 25.6147 95.0851 26.4262C96.5338 27.2377 98.2271 27.6434 100.166 27.6434C101.786 27.6434 103.259 27.3451 104.585 26.7484C105.911 26.1278 106.99 25.2566 107.825 24.1348C108.66 23.013 109.163 21.7002 109.335 20.1965L104.438 19.9817C104.266 21.2467 103.787 22.2253 103.002 22.9175C102.216 23.5859 101.271 23.92 100.166 23.92C98.6449 23.92 97.4664 23.383 96.6315 22.3089C95.7973 21.2348 95.3802 19.7073 95.3802 17.7262C95.3802 15.7451 95.7973 14.2176 96.6315 13.1434C97.4664 12.0694 98.6449 11.5324 100.166 11.5324C101.222 11.5324 102.13 11.8665 102.891 12.5348ZM78.9833 8.23766H83.3692L83.4959 11.8898C83.8072 10.856 84.2398 10.0533 84.7944 9.48142C85.5982 8.65229 86.7195 8.23766 88.1568 8.23766H89.9478V12.1467H88.1204C87.0968 12.1467 86.2566 12.2888 85.5982 12.5731C84.9648 12.8574 84.4777 13.3074 84.1367 13.9234C83.82 14.5394 83.6616 15.3212 83.6616 16.2688V27.2139H78.9833V8.23766ZM58.7533 12.499C57.9432 14.0027 57.5382 15.7451 57.5382 17.7262C57.5382 19.7073 57.9432 21.4496 58.7533 22.9533C59.5633 24.457 60.6925 25.6147 62.1408 26.4262C63.589 27.2377 65.2828 27.6434 67.222 27.6434C69.3327 27.6434 71.1985 27.1064 72.8184 26.0323C74.439 24.9583 75.5434 23.5261 76.1323 21.7361L71.309 21.3781C70.9411 22.1896 70.3886 22.834 69.6521 23.3114C68.9156 23.7887 68.1057 24.0274 67.222 24.0274C65.8228 24.0274 64.7059 23.5859 63.8713 22.7027C63.0612 21.7957 62.6071 20.5546 62.509 18.9793H76.3904V17.8694C76.3654 15.6974 75.9483 13.8595 75.1384 12.3558C74.3285 10.8521 73.2362 9.71836 71.8616 8.95458C70.487 8.19081 68.9405 7.80892 67.222 7.80892C65.2828 7.80892 63.589 8.21468 62.1408 9.0262C60.6925 9.83772 59.5633 10.9953 58.7533 12.499ZM70.0941 12.5348C70.8791 13.2509 71.3582 14.3846 71.53 15.9361H62.5458C62.7422 14.504 63.2454 13.3941 64.0554 12.6064C64.8655 11.8188 65.921 11.4249 67.222 11.4249C68.3509 11.4249 69.3084 11.7949 70.0941 12.5348Z" fill="#FFFFEB"/>
</g>
<defs>
<clipPath id="clip0_11636_464">
<rect width="138" height="28" fill="white" transform="translate(0.000488281 0.5)"/>
</clipPath>
</defs>
</svg>
