<svg width="140" height="32" viewBox="0 0 140 32" fill="none" xmlns="http://www.w3.org/2000/svg">
<path d="M13.3763 10.3482H2.0074C0.887891 10.3482 0 9.4703 0 8.4056V1.94262C0 0.859238 0.907194 0 2.0074 0H11.3689C12.4884 0 13.3763 0.877916 13.3763 1.94262V10.3482Z" fill="#FFFFEB"/>
<path d="M25.5696 21.6207H13.3886V10.3317H25.5696C26.7484 10.3317 27.7204 11.2877 27.7204 12.4471V19.5053C27.7204 20.685 26.7484 21.6207 25.5696 21.6207Z" fill="#FFFFEB"/>
<path d="M11.3689 32H2.0074C0.907194 32 0 31.1237 0 30.0608V23.5909C0 22.5281 0.907194 21.6517 2.0074 21.6517H13.3763V30.0608C13.3763 31.1237 12.4691 32 11.3689 32Z" fill="#FFFFEB"/>
<path d="M50.4188 9.51717L49.4936 10.368H48.5685L48.2806 9.29027C48.2188 9.02555 47.9516 8.85538 47.6432 8.85538H41.7218C41.3517 8.85538 41.064 9.12009 41.064 9.42263V11.2946C41.064 11.616 41.3517 11.8618 41.7218 11.8618H45.2171V20.6352H41.1462C40.7761 20.6352 40.4882 20.9 40.4882 21.2025V23.0745C40.4882 23.3958 40.7761 23.6416 41.1462 23.6416H53.9552C54.3253 23.6416 54.6131 23.377 54.6131 23.0745V21.2025C54.6131 20.881 54.3253 20.6352 53.9552 20.6352H49.247V14.4334C49.247 12.6938 50.3572 11.7862 52.5366 11.7862H56.073C56.443 11.7862 56.7308 11.5215 56.7308 11.2189V9.15791C56.7308 8.83647 56.443 8.59066 56.073 8.59066H53.9757C52.4337 8.57176 51.2207 8.83647 50.4188 9.51717Z" fill="#FFFFEB"/>
<path d="M65.6177 8.58972C60.4494 8.58972 57.6806 11.2257 57.6806 16.5763C57.6806 21.9465 60.4289 24.5824 65.5152 24.5824C69.453 24.5824 71.9962 23.0088 72.673 20.3137C72.7755 19.94 72.4474 19.586 72.0372 19.586H69.5761C69.3095 19.586 69.0634 19.7433 68.9609 19.9793C68.5301 21.14 67.2995 21.6907 65.6382 21.6907C63.0541 21.6907 61.8235 20.3334 61.6595 17.1664H72.8781C73.4934 11.2453 70.9297 8.58972 65.6177 8.58972ZM61.7825 14.7664C62.1722 12.4453 63.3822 11.3634 65.5972 11.3634C67.9559 11.3634 69.0634 12.5633 69.1249 14.7664H61.7825Z" fill="#FFFFEB"/>
<path d="M84.9247 8.58972C83.5897 8.58972 82.6278 8.8722 81.8818 9.55015L80.959 10.3976H80.1147L79.8006 9.30534C79.7221 9.06052 79.4865 8.8722 79.192 8.8722H77.4251C77.0718 8.8722 76.7969 9.13585 76.7969 9.43716V28.7213C76.7969 29.0414 77.0718 29.2862 77.4251 29.2862H80.0166C80.37 29.2862 80.6449 29.0225 80.6449 28.7213V24.5405L80.3111 22.2995L81.1749 22.1112L82.0976 22.9585C82.824 23.5989 83.7075 23.919 85.0229 23.919C88.8316 23.919 91.1286 21.3955 91.1286 16.2544C91.109 11.1132 88.8316 8.58972 84.9247 8.58972ZM83.6486 20.8305C81.705 20.8305 80.6252 19.8702 80.6252 18.0435V14.4277C80.6252 12.601 81.6854 11.6405 83.6486 11.6405C86.0241 11.6405 87.1039 13.0718 87.1039 16.2168C87.0842 19.3993 86.0241 20.8305 83.6486 20.8305Z" fill="#FFFFEB"/>
<path d="M138.899 10.8022V8.85418C138.899 8.51967 138.619 8.26386 138.259 8.26386H131.318V4.48588C131.318 4.15137 131.037 3.89557 130.677 3.89557H128.038C127.678 3.89557 127.397 4.17105 127.397 4.48588V8.26386H123.296C122.936 8.26386 122.656 8.53933 122.656 8.85418V10.8022C122.656 11.1367 122.936 11.3925 123.296 11.3925H127.397V17.1776C127.397 21.6049 129.518 23.6513 134.078 23.6513H137.799C138.159 23.6513 138.439 23.3757 138.439 23.0609V21.113C138.439 20.7784 138.159 20.5226 137.799 20.5226H134.679C132.197 20.5226 131.318 19.5585 131.318 17.1579V11.4122H138.259C138.619 11.3925 138.899 11.117 138.899 10.8022Z" fill="#FFFFEB"/>
<path d="M106.749 20.6161H102.739V3.52816C102.739 3.20358 102.464 2.95538 102.11 2.95538H94.2461C93.8922 2.95538 93.617 3.22267 93.617 3.52816V5.41833C93.617 5.7429 93.8922 5.99111 94.2461 5.99111H98.8857V20.6161H93.676C93.3221 20.6161 93.0469 20.8833 93.0469 21.1889V23.079C93.0469 23.4036 93.3221 23.6518 93.676 23.6518H106.749C107.103 23.6518 107.379 23.3845 107.379 23.079V21.1889C107.379 20.8642 107.103 20.6161 106.749 20.6161Z" fill="#FFFFEB"/>
<path d="M118.087 2.71393H114.529C114.173 2.71393 113.896 2.98641 113.896 3.29781V5.76958C113.896 6.10045 114.173 6.35347 114.529 6.35347H118.087C118.443 6.35347 118.72 6.08099 118.72 5.76958V3.29781C118.7 2.96694 118.423 2.71393 118.087 2.71393Z" fill="#FFFFEB"/>
<path d="M118.567 20.715V9.1736C118.567 8.84273 118.29 8.58972 117.934 8.58972H109.968C109.613 8.58972 109.336 8.8622 109.336 9.1736V11.1004C109.336 11.4313 109.613 11.6843 109.968 11.6843H114.693V20.715H109.968C109.613 20.715 109.336 20.9875 109.336 21.299V23.2257C109.336 23.5566 109.613 23.8096 109.968 23.8096H123.41C123.766 23.8096 124.042 23.5371 124.042 23.2257V21.299C124.042 20.968 123.766 20.715 123.41 20.715H118.567Z" fill="#FFFFEB"/>
</svg>
