<svg width="511" height="586" viewBox="0 0 511 586" fill="none" xmlns="http://www.w3.org/2000/svg">
<rect x="2.5" y="2.5" width="506" height="581" rx="47.5" fill="black"/>
<rect x="2.5" y="2.5" width="506" height="581" rx="47.5" stroke="white" stroke-width="5"/>
<path d="M114.262 117.8H154.262V77.8H114.262V117.8ZM170.501 115H165.842L176.311 85.9091H181.382L191.85 115H187.191L178.967 91.1932H178.74L170.501 115ZM171.282 103.608H186.396V107.301H171.282V103.608ZM203.527 115.426C201.765 115.426 200.193 114.976 198.811 114.077C197.438 113.168 196.358 111.875 195.572 110.199C194.796 108.513 194.407 106.491 194.407 104.134C194.407 101.776 194.8 99.7585 195.586 98.0824C196.382 96.4062 197.471 95.1231 198.853 94.233C200.236 93.3428 201.803 92.8977 203.555 92.8977C204.909 92.8977 205.998 93.125 206.822 93.5795C207.655 94.0246 208.299 94.5455 208.754 95.142C209.218 95.7386 209.578 96.2642 209.833 96.7188H210.089V85.9091H214.336V115H210.189V111.605H209.833C209.578 112.069 209.208 112.599 208.725 113.196C208.252 113.793 207.599 114.313 206.765 114.759C205.932 115.204 204.852 115.426 203.527 115.426ZM204.464 111.804C205.686 111.804 206.718 111.482 207.561 110.838C208.413 110.185 209.057 109.28 209.493 108.125C209.938 106.97 210.16 105.625 210.16 104.091C210.16 102.576 209.942 101.25 209.507 100.114C209.071 98.9773 208.432 98.0919 207.589 97.4574C206.746 96.8229 205.705 96.5057 204.464 96.5057C203.186 96.5057 202.12 96.8371 201.268 97.5C200.416 98.1629 199.772 99.0672 199.336 100.213C198.91 101.359 198.697 102.652 198.697 104.091C198.697 105.549 198.915 106.861 199.35 108.026C199.786 109.19 200.43 110.114 201.282 110.795C202.144 111.468 203.205 111.804 204.464 111.804ZM239.063 93.1818L231.151 115H226.605L218.679 93.1818H223.239L228.765 109.972H228.992L234.503 93.1818H239.063ZM251.502 115.44C249.457 115.44 247.672 114.972 246.147 114.034C244.623 113.097 243.439 111.785 242.596 110.099C241.753 108.414 241.332 106.444 241.332 104.19C241.332 101.927 241.753 99.9479 242.596 98.2528C243.439 96.5578 244.623 95.2415 246.147 94.304C247.672 93.3665 249.457 92.8977 251.502 92.8977C253.548 92.8977 255.333 93.3665 256.858 94.304C258.382 95.2415 259.566 96.5578 260.409 98.2528C261.252 99.9479 261.673 101.927 261.673 104.19C261.673 106.444 261.252 108.414 260.409 110.099C259.566 111.785 258.382 113.097 256.858 114.034C255.333 114.972 253.548 115.44 251.502 115.44ZM251.517 111.875C252.842 111.875 253.941 111.525 254.812 110.824C255.683 110.123 256.327 109.19 256.744 108.026C257.17 106.861 257.383 105.578 257.383 104.176C257.383 102.784 257.17 101.506 256.744 100.341C256.327 99.1667 255.683 98.2244 254.812 97.5142C253.941 96.804 252.842 96.4489 251.517 96.4489C250.181 96.4489 249.074 96.804 248.193 97.5142C247.322 98.2244 246.673 99.1667 246.247 100.341C245.83 101.506 245.622 102.784 245.622 104.176C245.622 105.578 245.83 106.861 246.247 108.026C246.673 109.19 247.322 110.123 248.193 110.824C249.074 111.525 250.181 111.875 251.517 111.875ZM275.604 115.44C273.492 115.44 271.674 114.962 270.15 114.006C268.634 113.04 267.47 111.709 266.655 110.014C265.841 108.319 265.434 106.378 265.434 104.19C265.434 101.974 265.85 100.019 266.684 98.3239C267.517 96.6193 268.691 95.2888 270.206 94.3324C271.721 93.3759 273.507 92.8977 275.561 92.8977C277.219 92.8977 278.696 93.2055 279.993 93.821C281.291 94.4271 282.337 95.2794 283.132 96.3778C283.937 97.4763 284.416 98.7595 284.567 100.227H280.434C280.206 99.2045 279.685 98.3239 278.871 97.5852C278.066 96.8466 276.987 96.4773 275.632 96.4773C274.449 96.4773 273.412 96.7898 272.522 97.4148C271.641 98.0303 270.954 98.911 270.462 100.057C269.97 101.193 269.723 102.538 269.723 104.091C269.723 105.682 269.965 107.055 270.448 108.21C270.931 109.366 271.613 110.26 272.493 110.895C273.383 111.529 274.43 111.847 275.632 111.847C276.437 111.847 277.167 111.7 277.82 111.406C278.483 111.103 279.037 110.672 279.482 110.114C279.936 109.555 280.254 108.883 280.434 108.097H284.567C284.416 109.508 283.956 110.767 283.189 111.875C282.422 112.983 281.395 113.854 280.107 114.489C278.828 115.123 277.328 115.44 275.604 115.44ZM295.458 115.483C294.076 115.483 292.826 115.227 291.708 114.716C290.591 114.195 289.706 113.442 289.052 112.457C288.408 111.473 288.086 110.265 288.086 108.835C288.086 107.604 288.323 106.591 288.797 105.795C289.27 105 289.909 104.37 290.714 103.906C291.519 103.442 292.419 103.092 293.413 102.855C294.407 102.618 295.421 102.438 296.453 102.315C297.76 102.164 298.82 102.041 299.635 101.946C300.449 101.842 301.041 101.676 301.41 101.449C301.779 101.222 301.964 100.852 301.964 100.341V100.241C301.964 99.0009 301.614 98.0398 300.913 97.358C300.222 96.6761 299.19 96.3352 297.816 96.3352C296.386 96.3352 295.26 96.6525 294.436 97.2869C293.621 97.9119 293.058 98.608 292.745 99.375L288.754 98.4659C289.227 97.1402 289.919 96.0701 290.828 95.2557C291.746 94.4318 292.802 93.8352 293.995 93.4659C295.189 93.0871 296.443 92.8977 297.76 92.8977C298.631 92.8977 299.554 93.0019 300.529 93.2102C301.514 93.4091 302.433 93.7784 303.285 94.3182C304.147 94.858 304.852 95.6297 305.402 96.6335C305.951 97.6278 306.225 98.9205 306.225 100.511V115H302.078V112.017H301.907C301.633 112.566 301.221 113.106 300.672 113.636C300.122 114.167 299.417 114.607 298.555 114.957C297.693 115.308 296.661 115.483 295.458 115.483ZM296.382 112.074C297.556 112.074 298.56 111.842 299.393 111.378C300.236 110.914 300.875 110.308 301.311 109.56C301.756 108.802 301.978 107.992 301.978 107.131V104.318C301.827 104.47 301.533 104.612 301.098 104.744C300.672 104.867 300.184 104.976 299.635 105.071C299.085 105.156 298.55 105.237 298.029 105.312C297.509 105.379 297.073 105.436 296.723 105.483C295.899 105.587 295.146 105.762 294.464 106.009C293.792 106.255 293.252 106.61 292.845 107.074C292.447 107.528 292.248 108.134 292.248 108.892C292.248 109.943 292.636 110.739 293.413 111.278C294.19 111.809 295.179 112.074 296.382 112.074ZM322.067 93.1818V96.5909H310.15V93.1818H322.067ZM313.346 87.9545H317.593V108.594C317.593 109.418 317.716 110.038 317.962 110.455C318.208 110.862 318.525 111.141 318.914 111.293C319.311 111.435 319.742 111.506 320.206 111.506C320.547 111.506 320.846 111.482 321.101 111.435C321.357 111.387 321.556 111.349 321.698 111.321L322.465 114.83C322.219 114.924 321.868 115.019 321.414 115.114C320.959 115.218 320.391 115.275 319.709 115.284C318.592 115.303 317.55 115.104 316.584 114.688C315.618 114.271 314.837 113.627 314.24 112.756C313.644 111.884 313.346 110.791 313.346 109.474V87.9545ZM335.934 115.44C333.785 115.44 331.933 114.981 330.38 114.062C328.837 113.134 327.644 111.832 326.801 110.156C325.967 108.471 325.551 106.496 325.551 104.233C325.551 101.998 325.967 100.028 326.801 98.3239C327.644 96.6193 328.818 95.2888 330.324 94.3324C331.839 93.3759 333.609 92.8977 335.636 92.8977C336.867 92.8977 338.06 93.1013 339.216 93.5085C340.371 93.9157 341.408 94.5549 342.326 95.4261C343.245 96.2973 343.969 97.429 344.5 98.821C345.03 100.204 345.295 101.884 345.295 103.864V105.369H327.951V102.188H341.133C341.133 101.07 340.906 100.08 340.451 99.2188C339.997 98.3475 339.358 97.661 338.534 97.1591C337.719 96.6572 336.763 96.4062 335.664 96.4062C334.471 96.4062 333.43 96.6998 332.539 97.2869C331.659 97.8646 330.977 98.6222 330.494 99.5597C330.02 100.488 329.784 101.496 329.784 102.585V105.071C329.784 106.529 330.039 107.77 330.551 108.793C331.072 109.815 331.796 110.597 332.724 111.136C333.652 111.667 334.736 111.932 335.977 111.932C336.782 111.932 337.516 111.818 338.179 111.591C338.842 111.354 339.414 111.004 339.897 110.54C340.38 110.076 340.75 109.503 341.005 108.821L345.025 109.545C344.703 110.729 344.126 111.766 343.292 112.656C342.468 113.537 341.431 114.223 340.181 114.716C338.941 115.199 337.525 115.44 335.934 115.44ZM357.738 117.8H397.738V77.8H357.738V117.8ZM120.218 338.273V215.545H128.08V338.273H120.218ZM144.811 253.61C144.3 249.072 142.19 245.556 138.483 243.063C134.776 240.538 130.109 239.276 124.484 239.276C120.457 239.276 116.974 239.915 114.033 241.194C111.093 242.44 108.808 244.166 107.178 246.371C105.58 248.544 104.781 251.021 104.781 253.802C104.781 256.135 105.324 258.148 106.411 259.842C107.529 261.536 108.984 262.958 110.773 264.109C112.595 265.228 114.545 266.17 116.622 266.938C118.7 267.673 120.697 268.28 122.615 268.759L132.203 271.252C135.335 272.019 138.547 273.058 141.839 274.368C145.131 275.679 148.183 277.404 150.995 279.546C153.808 281.687 156.077 284.34 157.803 287.504C159.561 290.668 160.44 294.455 160.44 298.866C160.44 304.427 159.001 309.365 156.125 313.679C153.28 317.994 149.142 321.398 143.708 323.891C138.307 326.384 131.771 327.63 124.101 327.63C116.75 327.63 110.39 326.463 105.021 324.13C99.6512 321.797 95.4485 318.489 92.4122 314.207C89.376 309.892 87.6981 304.778 87.3785 298.866H102.24C102.528 302.413 103.678 305.37 105.692 307.735C107.737 310.068 110.342 311.81 113.506 312.96C116.702 314.079 120.202 314.638 124.005 314.638C128.192 314.638 131.915 313.983 135.175 312.673C138.467 311.33 141.056 309.477 142.941 307.112C144.827 304.714 145.77 301.918 145.77 298.722C145.77 295.814 144.939 293.433 143.277 291.579C141.647 289.725 139.426 288.191 136.613 286.977C133.833 285.762 130.685 284.691 127.169 283.765L115.567 280.6C107.705 278.459 101.473 275.311 96.8707 271.156C92.3004 267.001 90.0152 261.504 90.0152 254.665C90.0152 249.008 91.5493 244.07 94.6175 239.851C97.6857 235.632 101.841 232.357 107.082 230.023C112.323 227.658 118.236 226.476 124.82 226.476C131.468 226.476 137.332 227.642 142.414 229.975C147.528 232.309 151.555 235.521 154.495 239.612C157.435 243.67 158.969 248.337 159.097 253.61H144.811ZM174.738 306.824V294.839L217.165 227.818H226.609V245.46H220.617L190.27 293.496V294.263H248.422V306.824H174.738ZM221.288 326V303.18L221.384 297.715V227.818H235.43V326H221.288ZM299.311 327.63C291.736 327.598 285.264 325.6 279.895 321.637C274.526 317.674 270.419 311.906 267.574 304.331C264.73 296.756 263.308 287.632 263.308 276.957C263.308 266.314 264.73 257.222 267.574 249.679C270.451 242.136 274.574 236.384 279.943 232.42C285.344 228.457 291.8 226.476 299.311 226.476C306.821 226.476 313.261 228.473 318.631 232.468C324 236.431 328.107 242.184 330.951 249.727C333.828 257.238 335.266 266.314 335.266 276.957C335.266 287.664 333.844 296.804 330.999 304.379C328.155 311.922 324.048 317.69 318.679 321.685C313.309 325.648 306.853 327.63 299.311 327.63ZM299.311 314.83C305.958 314.83 311.152 311.586 314.891 305.098C318.663 298.61 320.548 289.23 320.548 276.957C320.548 268.807 319.685 261.92 317.96 256.295C316.266 250.638 313.821 246.355 310.625 243.447C307.461 240.506 303.689 239.036 299.311 239.036C292.695 239.036 287.501 242.296 283.73 248.816C279.959 255.336 278.057 264.716 278.025 276.957C278.025 285.139 278.872 292.058 280.566 297.715C282.292 303.34 284.737 307.607 287.901 310.515C291.065 313.392 294.868 314.83 299.311 314.83Z" fill="white"/>
<path d="M360.733 295.545L351.358 330.375H347.565L356.94 295.545H360.733ZM374.927 326V304.182H379.004V307.733H379.273C379.728 306.53 380.471 305.593 381.504 304.92C382.536 304.239 383.772 303.898 385.211 303.898C386.669 303.898 387.891 304.239 388.876 304.92C389.87 305.602 390.604 306.54 391.077 307.733H391.305C391.826 306.568 392.654 305.64 393.791 304.949C394.927 304.248 396.281 303.898 397.853 303.898C399.832 303.898 401.447 304.518 402.697 305.759C403.956 306.999 404.586 308.869 404.586 311.369V326H400.339V311.767C400.339 310.29 399.936 309.22 399.131 308.557C398.327 307.894 397.365 307.562 396.248 307.562C394.865 307.562 393.791 307.989 393.023 308.841C392.256 309.684 391.873 310.768 391.873 312.094V326H387.64V311.497C387.64 310.313 387.271 309.362 386.532 308.642C385.793 307.922 384.832 307.562 383.648 307.562C382.844 307.562 382.1 307.776 381.418 308.202C380.746 308.618 380.202 309.201 379.785 309.949C379.378 310.697 379.174 311.563 379.174 312.548V326H374.927ZM419.469 326.44C417.423 326.44 415.638 325.972 414.114 325.034C412.589 324.097 411.405 322.785 410.563 321.099C409.72 319.414 409.298 317.444 409.298 315.19C409.298 312.927 409.72 310.948 410.563 309.253C411.405 307.558 412.589 306.241 414.114 305.304C415.638 304.366 417.423 303.898 419.469 303.898C421.514 303.898 423.299 304.366 424.824 305.304C426.349 306.241 427.532 307.558 428.375 309.253C429.218 310.948 429.639 312.927 429.639 315.19C429.639 317.444 429.218 319.414 428.375 321.099C427.532 322.785 426.349 324.097 424.824 325.034C423.299 325.972 421.514 326.44 419.469 326.44ZM419.483 322.875C420.809 322.875 421.907 322.525 422.778 321.824C423.65 321.123 424.294 320.19 424.71 319.026C425.136 317.861 425.349 316.578 425.349 315.176C425.349 313.784 425.136 312.506 424.71 311.341C424.294 310.167 423.65 309.224 422.778 308.514C421.907 307.804 420.809 307.449 419.483 307.449C418.148 307.449 417.04 307.804 416.159 308.514C415.288 309.224 414.639 310.167 414.213 311.341C413.796 312.506 413.588 313.784 413.588 315.176C413.588 316.578 413.796 317.861 414.213 319.026C414.639 320.19 415.288 321.123 416.159 321.824C417.04 322.525 418.148 322.875 419.483 322.875Z" fill="white" fill-opacity="0.5"/>
<rect x="36" y="422" width="439" height="71" rx="15" fill="#EB635C"/>
<path d="M95.4375 451.841C95.3163 450.765 94.8163 449.932 93.9375 449.341C93.0587 448.742 91.9527 448.443 90.6193 448.443C89.6648 448.443 88.839 448.595 88.142 448.898C87.4451 449.193 86.9034 449.602 86.517 450.125C86.1383 450.64 85.9489 451.227 85.9489 451.886C85.9489 452.439 86.0777 452.917 86.3352 453.318C86.6004 453.72 86.9451 454.057 87.3693 454.33C87.8011 454.595 88.2633 454.818 88.7557 455C89.2481 455.174 89.7216 455.318 90.1761 455.432L92.4489 456.023C93.1913 456.205 93.9527 456.451 94.733 456.761C95.5133 457.072 96.2367 457.481 96.9034 457.989C97.5701 458.496 98.108 459.125 98.517 459.875C98.9337 460.625 99.142 461.523 99.142 462.568C99.142 463.886 98.8011 465.057 98.1193 466.08C97.4451 467.102 96.464 467.909 95.1761 468.5C93.8958 469.091 92.3466 469.386 90.5284 469.386C88.786 469.386 87.2784 469.11 86.0057 468.557C84.733 468.004 83.7367 467.22 83.017 466.205C82.2973 465.182 81.8996 463.97 81.8239 462.568H85.3466C85.4148 463.409 85.6875 464.11 86.1648 464.67C86.6496 465.223 87.267 465.636 88.017 465.909C88.7746 466.174 89.6042 466.307 90.5057 466.307C91.4981 466.307 92.3807 466.152 93.1534 465.841C93.9337 465.523 94.5473 465.083 94.9943 464.523C95.4413 463.955 95.6648 463.292 95.6648 462.534C95.6648 461.845 95.4678 461.28 95.0739 460.841C94.6875 460.402 94.161 460.038 93.4943 459.75C92.8352 459.462 92.089 459.208 91.2557 458.989L88.5057 458.239C86.642 457.731 85.1648 456.985 84.0739 456C82.9905 455.015 82.4489 453.712 82.4489 452.091C82.4489 450.75 82.8125 449.58 83.5398 448.58C84.267 447.58 85.2519 446.803 86.4943 446.25C87.7367 445.689 89.1383 445.409 90.6989 445.409C92.2746 445.409 93.6648 445.686 94.8693 446.239C96.0814 446.792 97.036 447.553 97.733 448.523C98.4299 449.485 98.7936 450.591 98.8239 451.841H95.4375ZM103.065 475.545V451.545H106.384V454.375H106.668C106.865 454.011 107.149 453.591 107.52 453.114C107.891 452.636 108.406 452.22 109.065 451.864C109.724 451.5 110.596 451.318 111.679 451.318C113.088 451.318 114.346 451.674 115.452 452.386C116.558 453.098 117.425 454.125 118.054 455.466C118.69 456.807 119.009 458.42 119.009 460.307C119.009 462.193 118.694 463.811 118.065 465.159C117.437 466.5 116.573 467.534 115.474 468.261C114.376 468.981 113.122 469.341 111.713 469.341C110.652 469.341 109.785 469.163 109.111 468.807C108.444 468.451 107.921 468.034 107.543 467.557C107.164 467.08 106.872 466.655 106.668 466.284H106.463V475.545H103.065ZM106.395 460.273C106.395 461.5 106.573 462.576 106.929 463.5C107.285 464.424 107.8 465.148 108.474 465.67C109.149 466.186 109.974 466.443 110.952 466.443C111.967 466.443 112.815 466.174 113.497 465.636C114.179 465.091 114.694 464.352 115.043 463.42C115.399 462.489 115.577 461.439 115.577 460.273C115.577 459.121 115.402 458.087 115.054 457.17C114.713 456.254 114.198 455.53 113.509 455C112.827 454.47 111.974 454.205 110.952 454.205C109.967 454.205 109.134 454.458 108.452 454.966C107.777 455.473 107.266 456.182 106.918 457.091C106.569 458 106.395 459.061 106.395 460.273ZM130.168 469.352C128.531 469.352 127.103 468.977 125.884 468.227C124.664 467.477 123.717 466.428 123.043 465.08C122.368 463.731 122.031 462.155 122.031 460.352C122.031 458.542 122.368 456.958 123.043 455.602C123.717 454.246 124.664 453.193 125.884 452.443C127.103 451.693 128.531 451.318 130.168 451.318C131.804 451.318 133.232 451.693 134.452 452.443C135.671 453.193 136.618 454.246 137.293 455.602C137.967 456.958 138.304 458.542 138.304 460.352C138.304 462.155 137.967 463.731 137.293 465.08C136.618 466.428 135.671 467.477 134.452 468.227C133.232 468.977 131.804 469.352 130.168 469.352ZM130.179 466.5C131.24 466.5 132.118 466.22 132.815 465.659C133.512 465.098 134.027 464.352 134.361 463.42C134.702 462.489 134.872 461.462 134.872 460.341C134.872 459.227 134.702 458.205 134.361 457.273C134.027 456.333 133.512 455.58 132.815 455.011C132.118 454.443 131.24 454.159 130.179 454.159C129.111 454.159 128.224 454.443 127.52 455.011C126.823 455.58 126.304 456.333 125.963 457.273C125.63 458.205 125.463 459.227 125.463 460.341C125.463 461.462 125.63 462.489 125.963 463.42C126.304 464.352 126.823 465.098 127.52 465.659C128.224 466.22 129.111 466.5 130.179 466.5ZM145.494 458.636V469H142.097V451.545H145.358V454.386H145.574C145.975 453.462 146.604 452.72 147.46 452.159C148.324 451.598 149.411 451.318 150.722 451.318C151.911 451.318 152.953 451.568 153.847 452.068C154.741 452.561 155.434 453.295 155.926 454.273C156.419 455.25 156.665 456.458 156.665 457.898V469H153.267V458.307C153.267 457.042 152.938 456.053 152.278 455.341C151.619 454.621 150.714 454.261 149.562 454.261C148.775 454.261 148.074 454.432 147.46 454.773C146.854 455.114 146.373 455.614 146.017 456.273C145.669 456.924 145.494 457.712 145.494 458.636ZM174.301 455.807L171.222 456.352C171.093 455.958 170.888 455.583 170.608 455.227C170.335 454.871 169.964 454.58 169.494 454.352C169.025 454.125 168.438 454.011 167.733 454.011C166.771 454.011 165.968 454.227 165.324 454.659C164.68 455.083 164.358 455.633 164.358 456.307C164.358 456.89 164.574 457.36 165.006 457.716C165.438 458.072 166.134 458.364 167.097 458.591L169.869 459.227C171.475 459.598 172.672 460.17 173.46 460.943C174.248 461.716 174.642 462.72 174.642 463.955C174.642 465 174.339 465.932 173.733 466.75C173.134 467.561 172.297 468.197 171.222 468.659C170.153 469.121 168.915 469.352 167.506 469.352C165.551 469.352 163.956 468.936 162.722 468.102C161.487 467.261 160.729 466.068 160.449 464.523L163.733 464.023C163.938 464.879 164.358 465.527 164.994 465.966C165.631 466.398 166.46 466.614 167.483 466.614C168.597 466.614 169.487 466.383 170.153 465.92C170.82 465.451 171.153 464.879 171.153 464.205C171.153 463.659 170.949 463.201 170.54 462.83C170.138 462.458 169.521 462.178 168.688 461.989L165.733 461.341C164.104 460.97 162.9 460.379 162.119 459.568C161.347 458.758 160.96 457.731 160.96 456.489C160.96 455.458 161.248 454.557 161.824 453.784C162.4 453.011 163.195 452.409 164.21 451.977C165.225 451.538 166.388 451.318 167.699 451.318C169.585 451.318 171.07 451.727 172.153 452.545C173.237 453.356 173.953 454.443 174.301 455.807ZM185.73 469.352C184.094 469.352 182.666 468.977 181.446 468.227C180.226 467.477 179.279 466.428 178.605 465.08C177.931 463.731 177.594 462.155 177.594 460.352C177.594 458.542 177.931 456.958 178.605 455.602C179.279 454.246 180.226 453.193 181.446 452.443C182.666 451.693 184.094 451.318 185.73 451.318C187.366 451.318 188.795 451.693 190.014 452.443C191.234 453.193 192.181 454.246 192.855 455.602C193.529 456.958 193.866 458.542 193.866 460.352C193.866 462.155 193.529 463.731 192.855 465.08C192.181 466.428 191.234 467.477 190.014 468.227C188.795 468.977 187.366 469.352 185.73 469.352ZM185.741 466.5C186.802 466.5 187.681 466.22 188.378 465.659C189.075 465.098 189.59 464.352 189.923 463.42C190.264 462.489 190.435 461.462 190.435 460.341C190.435 459.227 190.264 458.205 189.923 457.273C189.59 456.333 189.075 455.58 188.378 455.011C187.681 454.443 186.802 454.159 185.741 454.159C184.673 454.159 183.787 454.443 183.082 455.011C182.385 455.58 181.866 456.333 181.526 457.273C181.192 458.205 181.026 459.227 181.026 460.341C181.026 461.462 181.192 462.489 181.526 463.42C181.866 464.352 182.385 465.098 183.082 465.659C183.787 466.22 184.673 466.5 185.741 466.5ZM197.659 469V451.545H200.943V454.318H201.125C201.443 453.379 202.004 452.64 202.807 452.102C203.617 451.557 204.534 451.284 205.557 451.284C205.769 451.284 206.019 451.292 206.307 451.307C206.602 451.322 206.833 451.341 207 451.364V454.614C206.864 454.576 206.621 454.534 206.273 454.489C205.924 454.436 205.576 454.409 205.227 454.409C204.424 454.409 203.708 454.58 203.08 454.92C202.458 455.254 201.966 455.72 201.602 456.318C201.239 456.909 201.057 457.583 201.057 458.341V469H197.659ZM225.761 469.352C224.125 469.352 222.697 468.977 221.477 468.227C220.258 467.477 219.311 466.428 218.636 465.08C217.962 463.731 217.625 462.155 217.625 460.352C217.625 458.542 217.962 456.958 218.636 455.602C219.311 454.246 220.258 453.193 221.477 452.443C222.697 451.693 224.125 451.318 225.761 451.318C227.398 451.318 228.826 451.693 230.045 452.443C231.265 453.193 232.212 454.246 232.886 455.602C233.561 456.958 233.898 458.542 233.898 460.352C233.898 462.155 233.561 463.731 232.886 465.08C232.212 466.428 231.265 467.477 230.045 468.227C228.826 468.977 227.398 469.352 225.761 469.352ZM225.773 466.5C226.833 466.5 227.712 466.22 228.409 465.659C229.106 465.098 229.621 464.352 229.955 463.42C230.295 462.489 230.466 461.462 230.466 460.341C230.466 459.227 230.295 458.205 229.955 457.273C229.621 456.333 229.106 455.58 228.409 455.011C227.712 454.443 226.833 454.159 225.773 454.159C224.705 454.159 223.818 454.443 223.114 455.011C222.417 455.58 221.898 456.333 221.557 457.273C221.223 458.205 221.057 459.227 221.057 460.341C221.057 461.462 221.223 462.489 221.557 463.42C221.898 464.352 222.417 465.098 223.114 465.659C223.818 466.22 224.705 466.5 225.773 466.5ZM248.747 461.761V451.545H252.156V469H248.815V465.977H248.634C248.232 466.909 247.588 467.686 246.702 468.307C245.823 468.92 244.728 469.227 243.418 469.227C242.296 469.227 241.304 468.981 240.44 468.489C239.584 467.989 238.91 467.25 238.418 466.273C237.933 465.295 237.69 464.087 237.69 462.648V451.545H241.088V462.239C241.088 463.428 241.418 464.375 242.077 465.08C242.736 465.784 243.592 466.136 244.645 466.136C245.281 466.136 245.914 465.977 246.543 465.659C247.179 465.341 247.705 464.86 248.122 464.216C248.546 463.572 248.755 462.754 248.747 461.761ZM256.722 469V451.545H260.006V454.318H260.188C260.506 453.379 261.066 452.64 261.869 452.102C262.68 451.557 263.597 451.284 264.619 451.284C264.831 451.284 265.081 451.292 265.369 451.307C265.665 451.322 265.896 451.341 266.062 451.364V454.614C265.926 454.576 265.684 454.534 265.335 454.489C264.987 454.436 264.638 454.409 264.29 454.409C263.487 454.409 262.771 454.58 262.142 454.92C261.521 455.254 261.028 455.72 260.665 456.318C260.301 456.909 260.119 457.583 260.119 458.341V469H256.722ZM277.472 475.545V451.545H280.79V454.375H281.074C281.271 454.011 281.555 453.591 281.926 453.114C282.297 452.636 282.813 452.22 283.472 451.864C284.131 451.5 285.002 451.318 286.085 451.318C287.494 451.318 288.752 451.674 289.858 452.386C290.964 453.098 291.831 454.125 292.46 455.466C293.097 456.807 293.415 458.42 293.415 460.307C293.415 462.193 293.1 463.811 292.472 465.159C291.843 466.5 290.979 467.534 289.881 468.261C288.782 468.981 287.528 469.341 286.119 469.341C285.059 469.341 284.191 469.163 283.517 468.807C282.85 468.451 282.328 468.034 281.949 467.557C281.57 467.08 281.278 466.655 281.074 466.284H280.869V475.545H277.472ZM280.801 460.273C280.801 461.5 280.979 462.576 281.335 463.5C281.691 464.424 282.206 465.148 282.881 465.67C283.555 466.186 284.381 466.443 285.358 466.443C286.373 466.443 287.222 466.174 287.903 465.636C288.585 465.091 289.1 464.352 289.449 463.42C289.805 462.489 289.983 461.439 289.983 460.273C289.983 459.121 289.809 458.087 289.46 457.17C289.119 456.254 288.604 455.53 287.915 455C287.233 454.47 286.381 454.205 285.358 454.205C284.373 454.205 283.54 454.458 282.858 454.966C282.184 455.473 281.672 456.182 281.324 457.091C280.975 458 280.801 459.061 280.801 460.273ZM297.222 469V451.545H300.506V454.318H300.688C301.006 453.379 301.566 452.64 302.369 452.102C303.18 451.557 304.097 451.284 305.119 451.284C305.331 451.284 305.581 451.292 305.869 451.307C306.165 451.322 306.396 451.341 306.562 451.364V454.614C306.426 454.576 306.184 454.534 305.835 454.489C305.487 454.436 305.138 454.409 304.79 454.409C303.987 454.409 303.271 454.58 302.642 454.92C302.021 455.254 301.528 455.72 301.165 456.318C300.801 456.909 300.619 457.583 300.619 458.341V469H297.222ZM316.23 469.352C314.594 469.352 313.166 468.977 311.946 468.227C310.726 467.477 309.779 466.428 309.105 465.08C308.431 463.731 308.094 462.155 308.094 460.352C308.094 458.542 308.431 456.958 309.105 455.602C309.779 454.246 310.726 453.193 311.946 452.443C313.166 451.693 314.594 451.318 316.23 451.318C317.866 451.318 319.295 451.693 320.514 452.443C321.734 453.193 322.681 454.246 323.355 455.602C324.029 456.958 324.366 458.542 324.366 460.352C324.366 462.155 324.029 463.731 323.355 465.08C322.681 466.428 321.734 467.477 320.514 468.227C319.295 468.977 317.866 469.352 316.23 469.352ZM316.241 466.5C317.302 466.5 318.181 466.22 318.878 465.659C319.575 465.098 320.09 464.352 320.423 463.42C320.764 462.489 320.935 461.462 320.935 460.341C320.935 459.227 320.764 458.205 320.423 457.273C320.09 456.333 319.575 455.58 318.878 455.011C318.181 454.443 317.302 454.159 316.241 454.159C315.173 454.159 314.287 454.443 313.582 455.011C312.885 455.58 312.366 456.333 312.026 457.273C311.692 458.205 311.526 459.227 311.526 460.341C311.526 461.462 311.692 462.489 312.026 463.42C312.366 464.352 312.885 465.098 313.582 465.659C314.287 466.22 315.173 466.5 316.241 466.5ZM335.477 475.909C334.091 475.909 332.898 475.727 331.898 475.364C330.905 475 330.095 474.519 329.466 473.92C328.837 473.322 328.367 472.667 328.057 471.955L330.977 470.75C331.182 471.083 331.455 471.436 331.795 471.807C332.144 472.186 332.614 472.508 333.205 472.773C333.803 473.038 334.572 473.17 335.511 473.17C336.799 473.17 337.864 472.856 338.705 472.227C339.545 471.606 339.966 470.614 339.966 469.25V465.818H339.75C339.545 466.189 339.25 466.602 338.864 467.057C338.485 467.511 337.962 467.905 337.295 468.239C336.629 468.572 335.761 468.739 334.693 468.739C333.314 468.739 332.072 468.417 330.966 467.773C329.867 467.121 328.996 466.163 328.352 464.898C327.716 463.625 327.398 462.061 327.398 460.205C327.398 458.348 327.712 456.758 328.341 455.432C328.977 454.106 329.848 453.091 330.955 452.386C332.061 451.674 333.314 451.318 334.716 451.318C335.799 451.318 336.674 451.5 337.341 451.864C338.008 452.22 338.527 452.636 338.898 453.114C339.277 453.591 339.568 454.011 339.773 454.375H340.023V451.545H343.352V469.386C343.352 470.886 343.004 472.117 342.307 473.08C341.61 474.042 340.667 474.754 339.477 475.216C338.295 475.678 336.962 475.909 335.477 475.909ZM335.443 465.92C336.42 465.92 337.246 465.693 337.92 465.239C338.602 464.777 339.117 464.117 339.466 463.261C339.822 462.398 340 461.364 340 460.159C340 458.985 339.826 457.951 339.477 457.057C339.129 456.163 338.617 455.466 337.943 454.966C337.269 454.458 336.436 454.205 335.443 454.205C334.42 454.205 333.568 454.47 332.886 455C332.205 455.523 331.689 456.235 331.341 457.136C331 458.038 330.83 459.045 330.83 460.159C330.83 461.303 331.004 462.307 331.352 463.17C331.701 464.034 332.216 464.708 332.898 465.193C333.587 465.678 334.436 465.92 335.443 465.92ZM347.909 469V451.545H351.193V454.318H351.375C351.693 453.379 352.254 452.64 353.057 452.102C353.867 451.557 354.784 451.284 355.807 451.284C356.019 451.284 356.269 451.292 356.557 451.307C356.852 451.322 357.083 451.341 357.25 451.364V454.614C357.114 454.576 356.871 454.534 356.523 454.489C356.174 454.436 355.826 454.409 355.477 454.409C354.674 454.409 353.958 454.58 353.33 454.92C352.708 455.254 352.216 455.72 351.852 456.318C351.489 456.909 351.307 457.583 351.307 458.341V469H347.909ZM365.114 469.386C364.008 469.386 363.008 469.182 362.114 468.773C361.22 468.356 360.511 467.754 359.989 466.966C359.473 466.178 359.216 465.212 359.216 464.068C359.216 463.083 359.405 462.273 359.784 461.636C360.163 461 360.674 460.496 361.318 460.125C361.962 459.754 362.682 459.473 363.477 459.284C364.273 459.095 365.083 458.951 365.909 458.852C366.955 458.731 367.803 458.633 368.455 458.557C369.106 458.473 369.58 458.341 369.875 458.159C370.17 457.977 370.318 457.682 370.318 457.273V457.193C370.318 456.201 370.038 455.432 369.477 454.886C368.924 454.341 368.098 454.068 367 454.068C365.856 454.068 364.955 454.322 364.295 454.83C363.644 455.33 363.193 455.886 362.943 456.5L359.75 455.773C360.129 454.712 360.682 453.856 361.409 453.205C362.144 452.545 362.989 452.068 363.943 451.773C364.898 451.47 365.902 451.318 366.955 451.318C367.652 451.318 368.39 451.402 369.17 451.568C369.958 451.727 370.693 452.023 371.375 452.455C372.064 452.886 372.629 453.504 373.068 454.307C373.508 455.102 373.727 456.136 373.727 457.409V469H370.409V466.614H370.273C370.053 467.053 369.723 467.485 369.284 467.909C368.845 468.333 368.28 468.686 367.591 468.966C366.902 469.246 366.076 469.386 365.114 469.386ZM365.852 466.659C366.792 466.659 367.595 466.473 368.261 466.102C368.936 465.731 369.447 465.246 369.795 464.648C370.152 464.042 370.33 463.394 370.33 462.705V460.455C370.208 460.576 369.973 460.689 369.625 460.795C369.284 460.894 368.894 460.981 368.455 461.057C368.015 461.125 367.587 461.189 367.17 461.25C366.754 461.303 366.405 461.348 366.125 461.386C365.466 461.47 364.864 461.61 364.318 461.807C363.78 462.004 363.348 462.288 363.023 462.659C362.705 463.023 362.545 463.508 362.545 464.114C362.545 464.955 362.856 465.591 363.477 466.023C364.098 466.447 364.89 466.659 365.852 466.659ZM378.253 469V451.545H381.514V454.386H381.73C382.094 453.424 382.688 452.674 383.514 452.136C384.34 451.591 385.329 451.318 386.48 451.318C387.647 451.318 388.624 451.591 389.412 452.136C390.207 452.682 390.795 453.432 391.173 454.386H391.355C391.772 453.455 392.435 452.712 393.344 452.159C394.253 451.598 395.336 451.318 396.594 451.318C398.177 451.318 399.469 451.814 400.469 452.807C401.476 453.799 401.98 455.295 401.98 457.295V469H398.582V457.614C398.582 456.432 398.26 455.576 397.616 455.045C396.973 454.515 396.204 454.25 395.31 454.25C394.204 454.25 393.344 454.591 392.73 455.273C392.116 455.947 391.81 456.814 391.81 457.875V469H388.423V457.398C388.423 456.451 388.128 455.689 387.537 455.114C386.946 454.538 386.177 454.25 385.23 454.25C384.586 454.25 383.991 454.42 383.446 454.761C382.908 455.095 382.473 455.561 382.139 456.159C381.813 456.758 381.651 457.451 381.651 458.239V469H378.253ZM419.614 455.807L416.534 456.352C416.405 455.958 416.201 455.583 415.92 455.227C415.648 454.871 415.277 454.58 414.807 454.352C414.337 454.125 413.75 454.011 413.045 454.011C412.083 454.011 411.28 454.227 410.636 454.659C409.992 455.083 409.67 455.633 409.67 456.307C409.67 456.89 409.886 457.36 410.318 457.716C410.75 458.072 411.447 458.364 412.409 458.591L415.182 459.227C416.788 459.598 417.985 460.17 418.773 460.943C419.561 461.716 419.955 462.72 419.955 463.955C419.955 465 419.652 465.932 419.045 466.75C418.447 467.561 417.61 468.197 416.534 468.659C415.466 469.121 414.227 469.352 412.818 469.352C410.864 469.352 409.269 468.936 408.034 468.102C406.799 467.261 406.042 466.068 405.761 464.523L409.045 464.023C409.25 464.879 409.67 465.527 410.307 465.966C410.943 466.398 411.773 466.614 412.795 466.614C413.909 466.614 414.799 466.383 415.466 465.92C416.133 465.451 416.466 464.879 416.466 464.205C416.466 463.659 416.261 463.201 415.852 462.83C415.451 462.458 414.833 462.178 414 461.989L411.045 461.341C409.417 460.97 408.212 460.379 407.432 459.568C406.659 458.758 406.273 457.731 406.273 456.489C406.273 455.458 406.561 454.557 407.136 453.784C407.712 453.011 408.508 452.409 409.523 451.977C410.538 451.538 411.701 451.318 413.011 451.318C414.898 451.318 416.383 451.727 417.466 452.545C418.549 453.356 419.265 454.443 419.614 455.807ZM427.974 445.727L427.679 462.307H424.531L424.236 445.727H427.974ZM426.111 469.216C425.482 469.216 424.944 468.996 424.497 468.557C424.05 468.11 423.83 467.572 423.838 466.943C423.83 466.322 424.05 465.792 424.497 465.352C424.944 464.905 425.482 464.682 426.111 464.682C426.724 464.682 427.255 464.905 427.702 465.352C428.149 465.792 428.376 466.322 428.384 466.943C428.376 467.36 428.266 467.742 428.054 468.091C427.849 468.432 427.577 468.705 427.236 468.909C426.895 469.114 426.52 469.216 426.111 469.216Z" fill="white"/>
</svg>
