<svg width="511" height="586" viewBox="0 0 511 586" fill="none" xmlns="http://www.w3.org/2000/svg">
<rect x="2.5" y="2.5" width="506" height="581" rx="47.5" fill="black"/>
<rect x="2.5" y="2.5" width="506" height="581" rx="47.5" stroke="white" stroke-width="5"/>
<path d="M113.637 116.8H153.637V76.8H113.637V116.8ZM178.882 114.48C176.216 114.48 173.842 113.867 171.762 112.64C169.682 111.387 168.056 109.68 166.882 107.52C165.709 105.333 165.122 102.827 165.122 100C165.122 97.1733 165.709 94.68 166.882 92.52C168.056 90.3333 169.669 88.6267 171.722 87.4C173.776 86.1467 176.136 85.52 178.802 85.52C180.536 85.52 182.189 85.84 183.762 86.48C185.336 87.0933 186.736 87.96 187.962 89.08C189.216 90.1733 190.176 91.4533 190.842 92.92L187.322 94.52C186.816 93.4267 186.122 92.48 185.242 91.68C184.362 90.88 183.362 90.2533 182.242 89.8C181.149 89.3467 180.002 89.12 178.802 89.12C176.936 89.12 175.269 89.5867 173.802 90.52C172.336 91.4533 171.189 92.7333 170.362 94.36C169.536 95.9867 169.122 97.8667 169.122 100C169.122 102.133 169.536 104.027 170.362 105.68C171.216 107.333 172.376 108.627 173.842 109.56C175.336 110.467 177.029 110.92 178.922 110.92C180.149 110.92 181.309 110.68 182.402 110.2C183.496 109.693 184.469 109.013 185.322 108.16C186.202 107.28 186.909 106.28 187.442 105.16L190.962 106.72C190.296 108.24 189.349 109.587 188.122 110.76C186.896 111.933 185.482 112.853 183.882 113.52C182.309 114.16 180.642 114.48 178.882 114.48ZM194.95 114V86H198.71V114H194.95ZM208.79 114V103.76H212.55V114H208.79ZM208.79 103.76C208.79 101.947 208.576 100.573 208.15 99.64C207.723 98.68 207.136 98.0133 206.39 97.64C205.67 97.2667 204.843 97.0667 203.91 97.04C202.256 97.04 200.976 97.6133 200.07 98.76C199.163 99.9067 198.71 101.52 198.71 103.6H197.11C197.11 101.493 197.416 99.6933 198.03 98.2C198.67 96.68 199.563 95.52 200.71 94.72C201.883 93.92 203.27 93.52 204.87 93.52C206.443 93.52 207.803 93.84 208.95 94.48C210.096 95.12 210.99 96.12 211.63 97.48C212.27 98.8133 212.576 100.573 212.55 102.76V103.76H208.79ZM229.611 114L229.451 110.52V103.56C229.451 102.093 229.278 100.867 228.931 99.88C228.611 98.8933 228.105 98.1467 227.411 97.64C226.745 97.1333 225.851 96.88 224.731 96.88C223.691 96.88 222.785 97.0933 222.011 97.52C221.265 97.9467 220.638 98.6133 220.131 99.52L216.771 98.24C217.251 97.3333 217.851 96.5333 218.571 95.84C219.291 95.12 220.158 94.56 221.171 94.16C222.185 93.7333 223.371 93.52 224.731 93.52C226.625 93.52 228.198 93.8933 229.451 94.64C230.705 95.3867 231.638 96.4667 232.251 97.88C232.891 99.2933 233.198 101.04 233.171 103.12L233.131 114H229.611ZM223.731 114.48C221.358 114.48 219.505 113.947 218.171 112.88C216.865 111.787 216.211 110.28 216.211 108.36C216.211 106.307 216.891 104.747 218.251 103.68C219.638 102.587 221.558 102.04 224.011 102.04H229.571V105.04H225.051C223.211 105.04 221.918 105.333 221.171 105.92C220.425 106.48 220.051 107.267 220.051 108.28C220.051 109.213 220.398 109.947 221.091 110.48C221.811 110.987 222.798 111.24 224.051 111.24C225.145 111.24 226.091 111.013 226.891 110.56C227.691 110.08 228.318 109.413 228.771 108.56C229.225 107.707 229.451 106.733 229.451 105.64H230.771C230.771 108.36 230.185 110.52 229.011 112.12C227.865 113.693 226.105 114.48 223.731 114.48ZM237.956 114V94H241.516L241.676 96.76C242.316 95.6933 243.116 94.8933 244.076 94.36C245.036 93.8 246.143 93.52 247.396 93.52C248.996 93.52 250.356 93.8933 251.476 94.64C252.596 95.36 253.41 96.4667 253.916 97.96C254.503 96.52 255.33 95.4267 256.396 94.68C257.463 93.9067 258.73 93.52 260.196 93.52C262.463 93.52 264.236 94.2667 265.516 95.76C266.796 97.2267 267.423 99.4933 267.396 102.56V114H263.636V103.76C263.636 101.947 263.436 100.573 263.036 99.64C262.663 98.68 262.156 98.0133 261.516 97.64C260.876 97.2667 260.13 97.0667 259.276 97.04C257.783 97.04 256.623 97.6133 255.796 98.76C254.996 99.9067 254.596 101.52 254.596 103.6V114H250.796V103.76C250.796 101.947 250.61 100.573 250.236 99.64C249.863 98.68 249.343 98.0133 248.676 97.64C248.036 97.2667 247.29 97.0667 246.436 97.04C244.943 97.04 243.783 97.6133 242.956 98.76C242.156 99.9067 241.756 101.52 241.756 103.6V114H237.956ZM272.453 122V94H276.013L276.253 97.68V122H272.453ZM282.813 114.48C281.133 114.48 279.667 114.04 278.413 113.16C277.187 112.28 276.24 111.053 275.573 109.48C274.907 107.907 274.573 106.08 274.573 104C274.573 101.893 274.907 100.067 275.573 98.52C276.24 96.9467 277.187 95.72 278.413 94.84C279.667 93.96 281.133 93.52 282.813 93.52C284.6 93.52 286.173 93.96 287.533 94.84C288.893 95.72 289.947 96.9467 290.693 98.52C291.467 100.067 291.853 101.893 291.853 104C291.853 106.08 291.467 107.907 290.693 109.48C289.947 111.053 288.893 112.28 287.533 113.16C286.173 114.04 284.6 114.48 282.813 114.48ZM281.893 111.04C283.093 111.04 284.147 110.747 285.053 110.16C285.96 109.547 286.667 108.72 287.173 107.68C287.707 106.613 287.973 105.387 287.973 104C287.973 102.613 287.72 101.4 287.213 100.36C286.707 99.2933 286 98.4667 285.093 97.88C284.187 97.2667 283.133 96.96 281.933 96.96C280.84 96.96 279.853 97.2667 278.973 97.88C278.12 98.4667 277.453 99.2933 276.973 100.36C276.493 101.427 276.253 102.64 276.253 104C276.253 105.387 276.493 106.613 276.973 107.68C277.453 108.72 278.12 109.547 278.973 110.16C279.827 110.747 280.8 111.04 281.893 111.04ZM296.243 114V94H300.043V114H296.243ZM298.163 89.76C297.55 89.76 297.017 89.5333 296.563 89.08C296.11 88.6 295.883 88.0533 295.883 87.44C295.883 86.8 296.11 86.2667 296.563 85.84C297.017 85.3867 297.55 85.16 298.163 85.16C298.803 85.16 299.337 85.3867 299.763 85.84C300.217 86.2667 300.443 86.8 300.443 87.44C300.443 88.0533 300.217 88.6 299.763 89.08C299.337 89.5333 298.803 89.76 298.163 89.76ZM314.653 114.48C312.653 114.48 310.893 114.04 309.373 113.16C307.853 112.253 306.653 111.013 305.773 109.44C304.919 107.867 304.493 106.053 304.493 104C304.493 101.947 304.919 100.133 305.773 98.56C306.626 96.9867 307.813 95.76 309.333 94.88C310.853 93.9733 312.599 93.52 314.573 93.52C316.546 93.52 318.293 93.9733 319.813 94.88C321.333 95.76 322.519 96.9867 323.373 98.56C324.226 100.133 324.653 101.947 324.653 104C324.653 106.053 324.226 107.867 323.373 109.44C322.519 111.013 321.333 112.253 319.813 113.16C318.319 114.04 316.599 114.48 314.653 114.48ZM314.653 111C315.853 111 316.919 110.707 317.853 110.12C318.786 109.507 319.506 108.68 320.013 107.64C320.546 106.6 320.813 105.387 320.813 104C320.813 102.613 320.546 101.4 320.013 100.36C319.506 99.32 318.773 98.5067 317.813 97.92C316.853 97.3067 315.773 97 314.573 97C313.346 97 312.266 97.3067 311.333 97.92C310.399 98.5067 309.666 99.32 309.133 100.36C308.599 101.4 308.333 102.613 308.333 104C308.333 105.387 308.599 106.6 309.133 107.64C309.666 108.68 310.413 109.507 311.373 110.12C312.333 110.707 313.426 111 314.653 111ZM328.816 114V94H332.376L332.616 97.68V114H328.816ZM342.656 114V103.76H346.456V114H342.656ZM342.656 103.76C342.656 101.947 342.442 100.573 342.016 99.64C341.616 98.68 341.042 98.0133 340.296 97.64C339.576 97.2667 338.736 97.0667 337.776 97.04C336.149 97.04 334.882 97.6133 333.976 98.76C333.069 99.9067 332.616 101.52 332.616 103.6H330.976C330.976 101.493 331.282 99.6933 331.896 98.2C332.536 96.68 333.429 95.52 334.576 94.72C335.749 93.92 337.136 93.52 338.736 93.52C340.309 93.52 341.669 93.84 342.816 94.48C343.989 95.12 344.882 96.12 345.496 97.48C346.136 98.8133 346.456 100.573 346.456 102.76V103.76H342.656ZM358.363 116.8H398.363V76.8H358.363V116.8ZM132.212 320.895C126.182 320.895 120.872 319.995 116.282 318.195C111.782 316.395 108.137 314.01 105.347 311.04C102.557 308.07 100.667 304.92 99.6773 301.59L111.422 297.81C112.682 300.96 114.977 303.75 118.307 306.18C121.637 308.52 125.777 309.69 130.727 309.69C136.487 309.78 141.032 308.655 144.362 306.315C147.782 303.885 149.492 300.78 149.492 297C149.492 293.49 148.007 290.61 145.037 288.36C142.067 286.02 138.197 284.265 133.427 283.095L123.707 280.665C119.747 279.585 116.147 278.055 112.907 276.075C109.757 274.005 107.282 271.44 105.482 268.38C103.682 265.32 102.782 261.675 102.782 257.445C102.782 249.705 105.302 243.63 110.342 239.22C115.472 234.81 122.807 232.605 132.347 232.605C137.837 232.605 142.607 233.505 146.657 235.305C150.707 237.015 154.037 239.31 156.647 242.19C159.257 245.07 161.102 248.175 162.182 251.505L150.302 255.555C149.042 252.135 146.747 249.345 143.417 247.185C140.087 244.935 136.082 243.81 131.402 243.81C126.452 243.81 122.537 244.98 119.657 247.32C116.867 249.66 115.472 252.81 115.472 256.77C115.472 260.37 116.597 263.115 118.847 265.005C121.097 266.895 124.022 268.29 127.622 269.19L137.612 271.62C145.532 273.51 151.652 276.75 155.972 281.34C160.292 285.93 162.452 290.925 162.452 296.325C162.452 301.005 161.282 305.19 158.942 308.88C156.602 312.57 153.182 315.495 148.682 317.655C144.272 319.815 138.782 320.895 132.212 320.895ZM126.812 337.905V218.7H138.017V337.905H126.812ZM176.431 324V313.335C176.431 310.545 177.061 307.665 178.321 304.695C179.671 301.635 181.561 298.62 183.991 295.65C186.511 292.68 189.481 289.935 192.901 287.415L211.126 273.915C213.286 272.385 215.221 270.63 216.931 268.65C218.731 266.58 220.126 264.465 221.116 262.305C222.196 260.055 222.736 257.85 222.736 255.69C222.736 252.81 222.016 250.2 220.576 247.86C219.136 245.43 217.111 243.54 214.501 242.19C211.891 240.75 208.786 240.03 205.186 240.03C201.766 240.03 198.751 240.705 196.141 242.055C193.621 243.315 191.506 245.025 189.796 247.185C188.086 249.345 186.871 251.64 186.151 254.07L172.516 251.505C173.506 247.365 175.441 243.495 178.321 239.895C181.201 236.295 184.891 233.415 189.391 231.255C193.891 229.005 198.976 227.88 204.646 227.88C211.126 227.88 216.706 229.095 221.386 231.525C226.156 233.865 229.846 237.15 232.456 241.38C235.066 245.52 236.371 250.29 236.371 255.69C236.371 260.91 234.931 265.725 232.051 270.135C229.261 274.545 225.211 278.82 219.901 282.96L203.026 295.65C199.696 298.17 197.041 300.78 195.061 303.48C193.171 306.18 192.001 309.06 191.551 312.12H237.586V324H176.431ZM288.407 325.62C281.117 325.62 274.637 323.55 268.967 319.41C263.297 315.18 258.842 309.42 255.602 302.13C252.452 294.75 250.877 286.29 250.877 276.75C250.877 267.21 252.452 258.795 255.602 251.505C258.842 244.125 263.252 238.365 268.832 234.225C274.502 229.995 281.027 227.88 288.407 227.88C295.787 227.88 302.267 229.995 307.847 234.225C313.517 238.365 317.972 244.125 321.212 251.505C324.452 258.795 326.072 267.21 326.072 276.75C326.072 286.29 324.452 294.75 321.212 302.13C318.062 309.42 313.652 315.18 307.982 319.41C302.312 323.55 295.787 325.62 288.407 325.62ZM288.407 313.47C293.177 313.47 297.407 311.895 301.097 308.745C304.877 305.595 307.802 301.275 309.872 295.785C311.942 290.295 312.977 283.95 312.977 276.75C312.977 269.55 311.942 263.205 309.872 257.715C307.802 252.135 304.877 247.77 301.097 244.62C297.407 241.47 293.177 239.895 288.407 239.895C283.637 239.895 279.407 241.47 275.717 244.62C272.027 247.77 269.147 252.135 267.077 257.715C265.007 263.205 263.972 269.55 263.972 276.75C263.972 283.95 265.007 290.34 267.077 295.92C269.147 301.41 272.027 305.73 275.717 308.88C279.407 311.94 283.637 313.47 288.407 313.47Z" fill="white"/>
<path d="M336.082 327.36L347.122 294.12H350.922L339.962 327.36H336.082ZM363.943 324V304H367.503L367.663 306.76C368.303 305.693 369.103 304.893 370.063 304.36C371.023 303.8 372.129 303.52 373.383 303.52C374.983 303.52 376.343 303.893 377.463 304.64C378.583 305.36 379.396 306.467 379.903 307.96C380.489 306.52 381.316 305.427 382.383 304.68C383.449 303.907 384.716 303.52 386.183 303.52C388.449 303.52 390.223 304.267 391.503 305.76C392.783 307.227 393.409 309.493 393.383 312.56V324H389.623V313.76C389.623 311.947 389.423 310.573 389.023 309.64C388.649 308.68 388.143 308.013 387.503 307.64C386.863 307.267 386.116 307.067 385.263 307.04C383.769 307.04 382.609 307.613 381.783 308.76C380.983 309.907 380.583 311.52 380.583 313.6V324H376.783V313.76C376.783 311.947 376.596 310.573 376.223 309.64C375.849 308.68 375.329 308.013 374.663 307.64C374.023 307.267 373.276 307.067 372.423 307.04C370.929 307.04 369.769 307.613 368.943 308.76C368.143 309.907 367.743 311.52 367.743 313.6V324H363.943ZM407.28 324.48C405.28 324.48 403.52 324.04 402 323.16C400.48 322.253 399.28 321.013 398.4 319.44C397.546 317.867 397.12 316.053 397.12 314C397.12 311.947 397.546 310.133 398.4 308.56C399.253 306.987 400.44 305.76 401.96 304.88C403.48 303.973 405.226 303.52 407.2 303.52C409.173 303.52 410.92 303.973 412.44 304.88C413.96 305.76 415.146 306.987 416 308.56C416.853 310.133 417.28 311.947 417.28 314C417.28 316.053 416.853 317.867 416 319.44C415.146 321.013 413.96 322.253 412.44 323.16C410.946 324.04 409.226 324.48 407.28 324.48ZM407.28 321C408.48 321 409.546 320.707 410.48 320.12C411.413 319.507 412.133 318.68 412.64 317.64C413.173 316.6 413.44 315.387 413.44 314C413.44 312.613 413.173 311.4 412.64 310.36C412.133 309.32 411.4 308.507 410.44 307.92C409.48 307.307 408.4 307 407.2 307C405.973 307 404.893 307.307 403.96 307.92C403.026 308.507 402.293 309.32 401.76 310.36C401.226 311.4 400.96 312.613 400.96 314C400.96 315.387 401.226 316.6 401.76 317.64C402.293 318.68 403.04 319.507 404 320.12C404.96 320.707 406.053 321 407.28 321Z" fill="white" fill-opacity="0.5"/>
<rect x="36" y="422" width="439" height="71" rx="15" fill="#15857A"/>
<path d="M70.8168 468.5V446.1H78.0168C79.5528 446.1 80.8648 446.335 81.9528 446.804C83.0621 447.273 83.9154 447.967 84.5128 448.884C85.1314 449.801 85.4408 450.932 85.4408 452.276C85.4408 453.3 85.1954 454.217 84.7048 455.028C84.2354 455.817 83.5741 456.468 82.7208 456.98C83.8301 457.513 84.6728 458.228 85.2488 459.124C85.8461 460.02 86.1448 461.087 86.1448 462.324C86.1448 463.625 85.8461 464.745 85.2488 465.684C84.6728 466.601 83.8514 467.305 82.7848 467.796C81.7181 468.265 80.4381 468.5 78.9448 468.5H70.8168ZM73.9208 465.652H78.7528C80.0754 465.652 81.0994 465.343 81.8248 464.724C82.5714 464.084 82.9448 463.231 82.9448 462.164C82.9448 460.969 82.5181 460.052 81.6648 459.412C80.8328 458.751 79.6594 458.42 78.1448 458.42H73.9208V465.652ZM73.9208 455.732H78.5288C79.6808 455.732 80.5874 455.423 81.2488 454.804C81.9314 454.185 82.2728 453.332 82.2728 452.244C82.2728 451.113 81.8888 450.249 81.1208 449.652C80.3528 449.033 79.2754 448.724 77.8888 448.724H73.9208V455.732ZM100.523 468.5L100.331 465.556V452.5H103.339V468.5H100.523ZM89.2593 460.692V452.5H92.2993V460.692H89.2593ZM92.2993 460.692C92.2993 462.121 92.4593 463.22 92.7793 463.988C93.1206 464.756 93.5899 465.289 94.1873 465.588C94.7846 465.887 95.4566 466.047 96.2033 466.068C97.5046 466.068 98.5179 465.609 99.2433 464.692C99.9686 463.775 100.331 462.484 100.331 460.82H101.643C101.643 462.505 101.387 463.956 100.875 465.172C100.385 466.367 99.6806 467.284 98.7633 467.924C97.8459 468.564 96.7259 468.884 95.4033 468.884C94.1659 468.884 93.0779 468.628 92.1393 468.116C91.2219 467.604 90.5073 466.804 89.9953 465.716C89.5046 464.628 89.2593 463.22 89.2593 461.492V460.692H92.2993ZM109.533 475.284C109.063 475.284 108.541 475.199 107.965 475.028C107.41 474.857 106.834 474.633 106.237 474.356L107.357 471.86C107.826 472.073 108.231 472.233 108.573 472.34C108.935 472.447 109.223 472.5 109.437 472.5C109.97 472.5 110.418 472.351 110.781 472.052C111.165 471.753 111.474 471.337 111.709 470.804L113.565 466.42L119.261 452.5H122.525L114.941 470.484C114.535 471.465 114.109 472.319 113.661 473.044C113.213 473.769 112.658 474.324 111.997 474.708C111.357 475.092 110.535 475.284 109.533 475.284ZM112.733 468.5L105.725 452.5H108.957L114.749 466.388L115.677 468.5H112.733ZM139.267 468.884C138.115 468.884 137.069 468.713 136.131 468.372C135.192 468.031 134.403 467.561 133.763 466.964C133.123 466.367 132.632 465.716 132.291 465.012L135.011 463.764C135.224 464.063 135.491 464.404 135.811 464.788C136.131 465.151 136.557 465.46 137.091 465.716C137.624 465.972 138.285 466.1 139.075 466.1C140.419 466.1 141.485 465.716 142.275 464.948C143.085 464.18 143.491 463.209 143.491 462.036C143.491 461.161 143.256 460.425 142.787 459.828C142.317 459.209 141.624 458.74 140.707 458.42C139.811 458.1 138.712 457.94 137.411 457.94H136.611V455.572H137.347C138.669 455.572 139.885 455.721 140.995 456.02C142.125 456.319 143.117 456.767 143.971 457.364C144.824 457.94 145.485 458.644 145.955 459.476C146.424 460.308 146.659 461.257 146.659 462.324C146.659 463.647 146.317 464.809 145.635 465.812C144.973 466.793 144.077 467.551 142.947 468.084C141.837 468.617 140.611 468.884 139.267 468.884ZM136.611 457.556V455.284H137.411C139.16 455.284 140.525 454.985 141.507 454.388C142.488 453.791 142.979 452.948 142.979 451.86C142.979 451.241 142.808 450.687 142.467 450.196C142.147 449.684 141.688 449.279 141.091 448.98C140.515 448.66 139.821 448.5 139.01 448.5C138.499 448.5 137.997 448.585 137.507 448.756C137.037 448.905 136.6 449.14 136.195 449.46C135.789 449.759 135.437 450.153 135.139 450.644L132.515 449.46C132.877 448.671 133.389 447.999 134.051 447.444C134.712 446.889 135.48 446.463 136.355 446.164C137.229 445.865 138.157 445.716 139.139 445.716C140.483 445.716 141.677 445.972 142.723 446.484C143.768 446.996 144.589 447.7 145.187 448.596C145.805 449.492 146.115 450.505 146.115 451.636C146.115 452.596 145.88 453.449 145.411 454.196C144.963 454.921 144.333 455.54 143.523 456.052C142.712 456.543 141.773 456.916 140.707 457.172C139.661 457.428 138.531 457.556 137.315 457.556H136.611ZM158.335 468.884C156.607 468.884 155.071 468.393 153.727 467.412C152.383 466.409 151.327 465.044 150.559 463.316C149.812 461.567 149.439 459.561 149.439 457.3C149.439 455.039 149.812 453.044 150.559 451.316C151.327 449.567 152.372 448.201 153.695 447.22C155.039 446.217 156.585 445.716 158.335 445.716C160.084 445.716 161.62 446.217 162.943 447.22C164.287 448.201 165.343 449.567 166.111 451.316C166.879 453.044 167.263 455.039 167.263 457.3C167.263 459.561 166.879 461.567 166.111 463.316C165.364 465.044 164.319 466.409 162.975 467.412C161.631 468.393 160.084 468.884 158.335 468.884ZM158.335 466.004C159.465 466.004 160.468 465.631 161.343 464.884C162.239 464.137 162.932 463.113 163.423 461.812C163.913 460.511 164.159 459.007 164.159 457.3C164.159 455.593 163.913 454.089 163.423 452.788C162.932 451.465 162.239 450.431 161.343 449.684C160.468 448.937 159.465 448.564 158.335 448.564C157.204 448.564 156.201 448.937 155.327 449.684C154.452 450.431 153.769 451.465 153.279 452.788C152.788 454.089 152.543 455.593 152.543 457.3C152.543 459.007 152.788 460.521 153.279 461.844C153.769 463.145 154.452 464.169 155.327 464.916C156.201 465.641 157.204 466.004 158.335 466.004ZM178.549 468.5V446.1H181.59V465.524L181.43 468.5H178.549ZM186.838 468.884C185.494 468.884 184.32 468.532 183.318 467.828C182.336 467.124 181.579 466.143 181.046 464.884C180.512 463.625 180.246 462.164 180.246 460.5C180.246 458.815 180.512 457.353 181.046 456.116C181.579 454.857 182.336 453.876 183.318 453.172C184.32 452.468 185.494 452.116 186.838 452.116C188.267 452.116 189.526 452.468 190.614 453.172C191.702 453.876 192.544 454.857 193.142 456.116C193.76 457.353 194.069 458.815 194.069 460.5C194.069 462.164 193.76 463.625 193.142 464.884C192.544 466.143 191.702 467.124 190.614 467.828C189.526 468.532 188.267 468.884 186.838 468.884ZM186.102 466.132C187.062 466.132 187.904 465.897 188.63 465.428C189.355 464.937 189.92 464.276 190.326 463.444C190.752 462.591 190.966 461.609 190.966 460.5C190.966 459.391 190.763 458.42 190.358 457.588C189.952 456.735 189.387 456.073 188.662 455.604C187.936 455.113 187.094 454.868 186.134 454.868C185.259 454.868 184.47 455.113 183.766 455.604C183.083 456.073 182.55 456.735 182.166 457.588C181.782 458.441 181.59 459.412 181.59 460.5C181.59 461.609 181.782 462.591 182.166 463.444C182.55 464.276 183.083 464.937 183.766 465.428C184.448 465.897 185.227 466.132 186.102 466.132ZM204.625 468.884C203.025 468.884 201.617 468.532 200.401 467.828C199.185 467.103 198.225 466.111 197.521 464.852C196.839 463.593 196.497 462.143 196.497 460.5C196.497 458.857 196.839 457.407 197.521 456.148C198.204 454.889 199.153 453.908 200.369 453.204C201.585 452.479 202.983 452.116 204.561 452.116C206.14 452.116 207.537 452.479 208.753 453.204C209.969 453.908 210.919 454.889 211.601 456.148C212.284 457.407 212.625 458.857 212.625 460.5C212.625 462.143 212.284 463.593 211.601 464.852C210.919 466.111 209.969 467.103 208.753 467.828C207.559 468.532 206.183 468.884 204.625 468.884ZM204.625 466.1C205.585 466.1 206.439 465.865 207.185 465.396C207.932 464.905 208.508 464.244 208.913 463.412C209.34 462.58 209.553 461.609 209.553 460.5C209.553 459.391 209.34 458.42 208.913 457.588C208.508 456.756 207.921 456.105 207.153 455.636C206.385 455.145 205.521 454.9 204.561 454.9C203.58 454.9 202.716 455.145 201.969 455.636C201.223 456.105 200.636 456.756 200.209 457.588C199.783 458.42 199.569 459.391 199.569 460.5C199.569 461.609 199.783 462.58 200.209 463.412C200.636 464.244 201.233 464.905 202.001 465.396C202.769 465.865 203.644 466.1 204.625 466.1ZM223.188 468.884C221.588 468.884 220.18 468.532 218.964 467.828C217.748 467.103 216.788 466.111 216.084 464.852C215.401 463.593 215.06 462.143 215.06 460.5C215.06 458.857 215.401 457.407 216.084 456.148C216.766 454.889 217.716 453.908 218.932 453.204C220.148 452.479 221.545 452.116 223.124 452.116C224.702 452.116 226.1 452.479 227.316 453.204C228.532 453.908 229.481 454.889 230.164 456.148C230.846 457.407 231.188 458.857 231.188 460.5C231.188 462.143 230.846 463.593 230.164 464.852C229.481 466.111 228.532 467.103 227.316 467.828C226.121 468.532 224.745 468.884 223.188 468.884ZM223.188 466.1C224.148 466.1 225.001 465.865 225.748 465.396C226.494 464.905 227.07 464.244 227.476 463.412C227.902 462.58 228.116 461.609 228.116 460.5C228.116 459.391 227.902 458.42 227.476 457.588C227.07 456.756 226.484 456.105 225.716 455.636C224.948 455.145 224.084 454.9 223.124 454.9C222.142 454.9 221.278 455.145 220.532 455.636C219.785 456.105 219.198 456.756 218.772 457.588C218.345 458.42 218.132 459.391 218.132 460.5C218.132 461.609 218.345 462.58 218.772 463.412C219.198 464.244 219.796 464.905 220.564 465.396C221.332 465.865 222.206 466.1 223.188 466.1ZM237.462 463.668L235.574 461.588L243.99 452.5H247.702L237.462 463.668ZM234.518 468.5V446.1H237.558V468.5H234.518ZM244.662 468.5L238.774 459.732L240.758 457.62L248.31 468.5H244.662ZM256.246 468.884C255.116 468.884 254.102 468.713 253.206 468.372C252.332 468.031 251.585 467.572 250.966 466.996C250.369 466.42 249.921 465.769 249.622 465.044L252.246 463.892C252.588 464.553 253.1 465.097 253.782 465.524C254.465 465.951 255.222 466.164 256.054 466.164C256.972 466.164 257.729 465.993 258.326 465.652C258.924 465.311 259.222 464.831 259.222 464.212C259.222 463.615 258.998 463.145 258.55 462.804C258.102 462.463 257.452 462.185 256.598 461.972L255.094 461.588C253.601 461.183 252.438 460.575 251.606 459.764C250.796 458.953 250.39 458.036 250.39 457.012C250.39 455.455 250.892 454.249 251.894 453.396C252.897 452.543 254.38 452.116 256.342 452.116C257.302 452.116 258.177 452.255 258.966 452.532C259.777 452.809 260.46 453.204 261.014 453.716C261.59 454.228 261.996 454.836 262.23 455.54L259.67 456.692C259.414 456.052 258.977 455.583 258.358 455.284C257.74 454.964 257.014 454.804 256.182 454.804C255.329 454.804 254.657 454.996 254.166 455.38C253.676 455.743 253.43 456.255 253.43 456.916C253.43 457.279 253.633 457.631 254.038 457.972C254.465 458.292 255.084 458.559 255.894 458.772L257.622 459.188C258.668 459.444 259.532 459.839 260.214 460.372C260.897 460.884 261.409 461.471 261.75 462.132C262.092 462.772 262.262 463.444 262.262 464.148C262.262 465.108 261.996 465.951 261.462 466.676C260.95 467.38 260.236 467.924 259.318 468.308C258.422 468.692 257.398 468.884 256.246 468.884ZM274.837 468.5V450.74C274.837 449.055 275.242 447.785 276.053 446.932C276.864 446.057 278.09 445.62 279.733 445.62C280.224 445.62 280.757 445.705 281.333 445.876C281.909 446.025 282.496 446.239 283.093 446.516L281.973 448.852C281.525 448.639 281.13 448.489 280.789 448.404C280.469 448.297 280.192 448.244 279.957 448.244C279.253 448.244 278.73 448.479 278.389 448.948C278.048 449.396 277.877 450.1 277.877 451.06V468.5H274.837ZM271.989 455.028V452.5H282.293V455.028H271.989ZM292.313 468.884C290.713 468.884 289.305 468.532 288.089 467.828C286.873 467.103 285.913 466.111 285.209 464.852C284.526 463.593 284.185 462.143 284.185 460.5C284.185 458.857 284.526 457.407 285.209 456.148C285.891 454.889 286.841 453.908 288.057 453.204C289.273 452.479 290.67 452.116 292.249 452.116C293.827 452.116 295.225 452.479 296.441 453.204C297.657 453.908 298.606 454.889 299.289 456.148C299.971 457.407 300.313 458.857 300.313 460.5C300.313 462.143 299.971 463.593 299.289 464.852C298.606 466.111 297.657 467.103 296.441 467.828C295.246 468.532 293.87 468.884 292.313 468.884ZM292.313 466.1C293.273 466.1 294.126 465.865 294.873 465.396C295.619 464.905 296.195 464.244 296.601 463.412C297.027 462.58 297.241 461.609 297.241 460.5C297.241 459.391 297.027 458.42 296.601 457.588C296.195 456.756 295.609 456.105 294.841 455.636C294.073 455.145 293.209 454.9 292.249 454.9C291.267 454.9 290.403 455.145 289.657 455.636C288.91 456.105 288.323 456.756 287.897 457.588C287.47 458.42 287.257 459.391 287.257 460.5C287.257 461.609 287.47 462.58 287.897 463.412C288.323 464.244 288.921 464.905 289.689 465.396C290.457 465.865 291.331 466.1 292.313 466.1ZM305.499 459.892C305.499 458.164 305.83 456.756 306.491 455.668C307.153 454.58 308.006 453.769 309.051 453.236C310.097 452.703 311.195 452.436 312.347 452.436V455.316C311.387 455.316 310.47 455.465 309.595 455.764C308.742 456.041 308.038 456.511 307.483 457.172C306.95 457.812 306.683 458.687 306.683 459.796L305.499 459.892ZM303.643 468.5V452.5H306.683V468.5H303.643ZM329.844 468.884C328.244 468.884 326.836 468.532 325.62 467.828C324.404 467.103 323.444 466.111 322.74 464.852C322.057 463.593 321.716 462.143 321.716 460.5C321.716 458.857 322.057 457.407 322.74 456.148C323.423 454.889 324.372 453.908 325.588 453.204C326.804 452.479 328.201 452.116 329.78 452.116C331.359 452.116 332.756 452.479 333.972 453.204C335.188 453.908 336.137 454.889 336.82 456.148C337.503 457.407 337.844 458.857 337.844 460.5C337.844 462.143 337.503 463.593 336.82 464.852C336.137 466.111 335.188 467.103 333.972 467.828C332.777 468.532 331.401 468.884 329.844 468.884ZM329.844 466.1C330.804 466.1 331.657 465.865 332.404 465.396C333.151 464.905 333.727 464.244 334.132 463.412C334.559 462.58 334.772 461.609 334.772 460.5C334.772 459.391 334.559 458.42 334.132 457.588C333.727 456.756 333.14 456.105 332.372 455.636C331.604 455.145 330.74 454.9 329.78 454.9C328.799 454.9 327.935 455.145 327.188 455.636C326.441 456.105 325.855 456.756 325.428 457.588C325.001 458.42 324.788 459.391 324.788 460.5C324.788 461.609 325.001 462.58 325.428 463.412C325.855 464.244 326.452 464.905 327.22 465.396C327.988 465.865 328.863 466.1 329.844 466.1ZM352.055 468.5L351.863 465.556V452.5H354.871V468.5H352.055ZM340.791 460.692V452.5H343.831V460.692H340.791ZM343.831 460.692C343.831 462.121 343.991 463.22 344.311 463.988C344.652 464.756 345.121 465.289 345.719 465.588C346.316 465.887 346.988 466.047 347.735 466.068C349.036 466.068 350.049 465.609 350.775 464.692C351.5 463.775 351.863 462.484 351.863 460.82H353.175C353.175 462.505 352.919 463.956 352.407 465.172C351.916 466.367 351.212 467.284 350.295 467.924C349.377 468.564 348.257 468.884 346.935 468.884C345.697 468.884 344.609 468.628 343.671 468.116C342.753 467.604 342.039 466.804 341.527 465.716C341.036 464.628 340.791 463.22 340.791 461.492V460.692H343.831ZM360.968 459.892C360.968 458.164 361.299 456.756 361.96 455.668C362.621 454.58 363.475 453.769 364.52 453.236C365.565 452.703 366.664 452.436 367.816 452.436V455.316C366.856 455.316 365.939 455.465 365.064 455.764C364.211 456.041 363.507 456.511 362.952 457.172C362.419 457.812 362.152 458.687 362.152 459.796L360.968 459.892ZM359.112 468.5V452.5H362.152V468.5H359.112ZM381.025 463.668L379.137 461.588L387.553 452.5H391.265L381.025 463.668ZM378.081 468.5V446.1H381.121V468.5H378.081ZM388.225 468.5L382.337 459.732L384.321 457.62L391.873 468.5H388.225ZM394.273 468.5V452.5H397.313V468.5H394.273ZM395.809 449.108C395.318 449.108 394.891 448.927 394.529 448.564C394.166 448.18 393.985 447.743 393.985 447.252C393.985 446.74 394.166 446.313 394.529 445.972C394.891 445.609 395.318 445.428 395.809 445.428C396.321 445.428 396.747 445.609 397.089 445.972C397.451 446.313 397.633 446.74 397.633 447.252C397.633 447.743 397.451 448.18 397.089 448.564C396.747 448.927 396.321 449.108 395.809 449.108ZM413.48 468.5L413.352 465.524V446.1H416.36V468.5H413.48ZM408.104 468.884C406.654 468.884 405.384 468.532 404.296 467.828C403.23 467.124 402.387 466.143 401.768 464.884C401.171 463.625 400.872 462.164 400.872 460.5C400.872 458.815 401.171 457.353 401.768 456.116C402.387 454.857 403.23 453.876 404.296 453.172C405.384 452.468 406.654 452.116 408.104 452.116C409.448 452.116 410.611 452.468 411.592 453.172C412.595 453.876 413.363 454.857 413.896 456.116C414.43 457.353 414.696 458.815 414.696 460.5C414.696 462.164 414.43 463.625 413.896 464.884C413.363 466.143 412.595 467.124 411.592 467.828C410.611 468.532 409.448 468.884 408.104 468.884ZM408.808 466.132C409.704 466.132 410.494 465.897 411.176 465.428C411.859 464.937 412.392 464.276 412.776 463.444C413.16 462.591 413.352 461.609 413.352 460.5C413.352 459.391 413.16 458.42 412.776 457.588C412.392 456.735 411.859 456.073 411.176 455.604C410.494 455.113 409.694 454.868 408.776 454.868C407.838 454.868 407.006 455.113 406.28 455.604C405.555 456.073 404.99 456.735 404.584 457.588C404.179 458.42 403.976 459.391 403.976 460.5C403.976 461.609 404.179 462.591 404.584 463.444C405.011 464.276 405.587 464.937 406.312 465.428C407.038 465.897 407.87 466.132 408.808 466.132ZM426.309 468.884C425.178 468.884 424.165 468.713 423.269 468.372C422.394 468.031 421.647 467.572 421.029 466.996C420.431 466.42 419.983 465.769 419.685 465.044L422.309 463.892C422.65 464.553 423.162 465.097 423.845 465.524C424.527 465.951 425.285 466.164 426.117 466.164C427.034 466.164 427.791 465.993 428.389 465.652C428.986 465.311 429.285 464.831 429.285 464.212C429.285 463.615 429.061 463.145 428.613 462.804C428.165 462.463 427.514 462.185 426.661 461.972L425.157 461.588C423.663 461.183 422.501 460.575 421.669 459.764C420.858 458.953 420.453 458.036 420.453 457.012C420.453 455.455 420.954 454.249 421.957 453.396C422.959 452.543 424.442 452.116 426.405 452.116C427.365 452.116 428.239 452.255 429.029 452.532C429.839 452.809 430.522 453.204 431.077 453.716C431.653 454.228 432.058 454.836 432.293 455.54L429.733 456.692C429.477 456.052 429.039 455.583 428.421 455.284C427.802 454.964 427.077 454.804 426.245 454.804C425.391 454.804 424.719 454.996 424.229 455.38C423.738 455.743 423.493 456.255 423.493 456.916C423.493 457.279 423.695 457.631 424.101 457.972C424.527 458.292 425.146 458.559 425.957 458.772L427.685 459.188C428.73 459.444 429.594 459.839 430.277 460.372C430.959 460.884 431.471 461.471 431.813 462.132C432.154 462.772 432.325 463.444 432.325 464.148C432.325 465.108 432.058 465.951 431.525 466.676C431.013 467.38 430.298 467.924 429.381 468.308C428.485 468.692 427.461 468.884 426.309 468.884ZM436.703 461.78L436.543 446.1H439.839L439.711 461.78H436.703ZM438.207 468.98C437.652 468.98 437.183 468.788 436.799 468.404C436.415 467.999 436.223 467.519 436.223 466.964C436.223 466.431 436.415 465.972 436.799 465.588C437.183 465.183 437.652 464.98 438.207 464.98C438.74 464.98 439.199 465.183 439.583 465.588C439.988 465.972 440.191 466.431 440.191 466.964C440.191 467.519 439.988 467.999 439.583 468.404C439.199 468.788 438.74 468.98 438.207 468.98Z" fill="white"/>
</svg>
