<svg width="511" height="586" viewBox="0 0 511 586" fill="none" xmlns="http://www.w3.org/2000/svg">
<rect x="2.5" y="2.5" width="506" height="581" rx="47.5" fill="black"/>
<rect x="2.5" y="2.5" width="506" height="581" rx="47.5" stroke="white" stroke-width="5"/>
<path d="M134.203 117.8H174.203V77.8H134.203V117.8ZM187.985 115V85.9091H198.354C200.618 85.9091 202.493 86.321 203.979 87.1449C205.466 87.9687 206.579 89.0956 207.317 90.5256C208.056 91.946 208.425 93.5464 208.425 95.3267C208.425 97.1165 208.051 98.7263 207.303 100.156C206.565 101.577 205.447 102.704 203.951 103.537C202.464 104.361 200.594 104.773 198.34 104.773H191.21V101.051H197.942C199.372 101.051 200.532 100.805 201.423 100.312C202.313 99.8106 202.966 99.1288 203.383 98.267C203.799 97.4053 204.008 96.4252 204.008 95.3267C204.008 94.2282 203.799 93.2528 203.383 92.4006C202.966 91.5483 202.308 90.8807 201.408 90.3977C200.518 89.9148 199.344 89.6733 197.886 89.6733H192.374V115H187.985ZM219.384 115.483C218.002 115.483 216.752 115.227 215.634 114.716C214.517 114.195 213.631 113.442 212.978 112.457C212.334 111.473 212.012 110.265 212.012 108.835C212.012 107.604 212.249 106.591 212.722 105.795C213.196 105 213.835 104.37 214.64 103.906C215.445 103.442 216.344 103.092 217.339 102.855C218.333 102.618 219.346 102.438 220.379 102.315C221.685 102.164 222.746 102.041 223.56 101.946C224.375 101.842 224.967 101.676 225.336 101.449C225.705 101.222 225.89 100.852 225.89 100.341V100.241C225.89 99.0009 225.54 98.0398 224.839 97.358C224.147 96.6761 223.115 96.3352 221.742 96.3352C220.312 96.3352 219.185 96.6525 218.362 97.2869C217.547 97.9119 216.984 98.608 216.671 99.375L212.68 98.4659C213.153 97.1402 213.844 96.0701 214.754 95.2557C215.672 94.4318 216.728 93.8352 217.921 93.4659C219.114 93.0871 220.369 92.8977 221.685 92.8977C222.557 92.8977 223.48 93.0019 224.455 93.2102C225.44 93.4091 226.359 93.7784 227.211 94.3182C228.073 94.858 228.778 95.6297 229.327 96.6335C229.877 97.6278 230.151 98.9205 230.151 100.511V115H226.004V112.017H225.833C225.558 112.566 225.147 113.106 224.597 113.636C224.048 114.167 223.343 114.607 222.481 114.957C221.619 115.308 220.587 115.483 219.384 115.483ZM220.308 112.074C221.482 112.074 222.486 111.842 223.319 111.378C224.162 110.914 224.801 110.308 225.237 109.56C225.682 108.802 225.904 107.992 225.904 107.131V104.318C225.753 104.47 225.459 104.612 225.023 104.744C224.597 104.867 224.11 104.976 223.56 105.071C223.011 105.156 222.476 105.237 221.955 105.312C221.434 105.379 220.999 105.436 220.648 105.483C219.825 105.587 219.072 105.762 218.39 106.009C217.718 106.255 217.178 106.61 216.771 107.074C216.373 107.528 216.174 108.134 216.174 108.892C216.174 109.943 216.562 110.739 217.339 111.278C218.115 111.809 219.105 112.074 220.308 112.074ZM235.808 115V93.1818H239.913V96.6477H240.141C240.538 95.4735 241.239 94.5502 242.243 93.8778C243.256 93.196 244.402 92.8551 245.68 92.8551C245.946 92.8551 246.258 92.8646 246.618 92.8835C246.987 92.9025 247.276 92.9261 247.484 92.9545V97.017C247.314 96.9697 247.011 96.9176 246.575 96.8608C246.14 96.7945 245.704 96.7614 245.268 96.7614C244.265 96.7614 243.37 96.9744 242.584 97.4006C241.807 97.8172 241.192 98.3996 240.737 99.1477C240.283 99.8864 240.055 100.729 240.055 101.676V115H235.808ZM262.634 93.1818V96.5909H250.716V93.1818H262.634ZM253.912 87.9545H258.159V108.594C258.159 109.418 258.282 110.038 258.528 110.455C258.775 110.862 259.092 111.141 259.48 111.293C259.878 111.435 260.309 111.506 260.773 111.506C261.114 111.506 261.412 111.482 261.668 111.435C261.923 111.387 262.122 111.349 262.264 111.321L263.031 114.83C262.785 114.924 262.435 115.019 261.98 115.114C261.526 115.218 260.957 115.275 260.276 115.284C259.158 115.303 258.116 115.104 257.151 114.688C256.185 114.271 255.403 113.627 254.807 112.756C254.21 111.884 253.912 110.791 253.912 109.474V87.9545ZM271.579 102.045V115H267.332V93.1818H271.408V96.733H271.678C272.18 95.5777 272.966 94.6496 274.036 93.9489C275.116 93.2481 276.475 92.8977 278.113 92.8977C279.6 92.8977 280.902 93.2102 282.019 93.8352C283.137 94.4508 284.003 95.3693 284.619 96.5909C285.234 97.8125 285.542 99.3229 285.542 101.122V115H281.295V101.634C281.295 100.052 280.883 98.8163 280.059 97.9261C279.235 97.0265 278.103 96.5767 276.664 96.5767C275.679 96.5767 274.803 96.7898 274.036 97.2159C273.279 97.642 272.677 98.267 272.232 99.0909C271.797 99.9053 271.579 100.89 271.579 102.045ZM300.641 115.44C298.492 115.44 296.64 114.981 295.087 114.062C293.544 113.134 292.351 111.832 291.508 110.156C290.674 108.471 290.258 106.496 290.258 104.233C290.258 101.998 290.674 100.028 291.508 98.3239C292.351 96.6193 293.525 95.2888 295.031 94.3324C296.546 93.3759 298.317 92.8977 300.343 92.8977C301.574 92.8977 302.767 93.1013 303.923 93.5085C305.078 93.9157 306.115 94.5549 307.033 95.4261C307.952 96.2973 308.676 97.429 309.207 98.821C309.737 100.204 310.002 101.884 310.002 103.864V105.369H292.658V102.188H305.84C305.84 101.07 305.613 100.08 305.158 99.2188C304.704 98.3475 304.065 97.661 303.241 97.1591C302.426 96.6572 301.47 96.4062 300.371 96.4062C299.178 96.4062 298.137 96.6998 297.246 97.2869C296.366 97.8646 295.684 98.6222 295.201 99.5597C294.728 100.488 294.491 101.496 294.491 102.585V105.071C294.491 106.529 294.746 107.77 295.258 108.793C295.779 109.815 296.503 110.597 297.431 111.136C298.359 111.667 299.443 111.932 300.684 111.932C301.489 111.932 302.223 111.818 302.886 111.591C303.549 111.354 304.121 111.004 304.604 110.54C305.087 110.076 305.457 109.503 305.712 108.821L309.732 109.545C309.41 110.729 308.833 111.766 307.999 112.656C307.175 113.537 306.138 114.223 304.888 114.716C303.648 115.199 302.232 115.44 300.641 115.44ZM314.714 115V93.1818H318.82V96.6477H319.047C319.445 95.4735 320.145 94.5502 321.149 93.8778C322.162 93.196 323.308 92.8551 324.587 92.8551C324.852 92.8551 325.164 92.8646 325.524 92.8835C325.893 92.9025 326.182 92.9261 326.391 92.9545V97.017C326.22 96.9697 325.917 96.9176 325.482 96.8608C325.046 96.7945 324.61 96.7614 324.175 96.7614C323.171 96.7614 322.276 96.9744 321.49 97.4006C320.714 97.8172 320.098 98.3996 319.643 99.1477C319.189 99.8864 318.962 100.729 318.962 101.676V115H314.714ZM337.797 117.8H377.797V77.8H337.797V117.8ZM121.47 338.273V215.545H129.332V338.273H121.47ZM146.063 253.61C145.552 249.072 143.443 245.556 139.735 243.063C136.028 240.538 131.362 239.276 125.737 239.276C121.71 239.276 118.226 239.915 115.286 241.194C112.345 242.44 110.06 244.166 108.43 246.371C106.832 248.544 106.033 251.021 106.033 253.802C106.033 256.135 106.577 258.148 107.663 259.842C108.782 261.536 110.236 262.958 112.026 264.109C113.848 265.228 115.797 266.17 117.875 266.938C119.952 267.673 121.949 268.28 123.867 268.759L133.455 271.252C136.587 272.019 139.799 273.058 143.091 274.368C146.383 275.679 149.435 277.404 152.248 279.546C155.06 281.687 157.329 284.34 159.055 287.504C160.813 290.668 161.692 294.455 161.692 298.866C161.692 304.427 160.254 309.365 157.377 313.679C154.533 317.994 150.394 321.398 144.961 323.891C139.56 326.384 133.024 327.63 125.353 327.63C118.002 327.63 111.642 326.463 106.273 324.13C100.904 321.797 96.7009 318.489 93.6647 314.207C90.6285 309.892 88.9506 304.778 88.6309 298.866H103.492C103.78 302.413 104.931 305.37 106.944 307.735C108.99 310.068 111.594 311.81 114.758 312.96C117.954 314.079 121.454 314.638 125.257 314.638C129.444 314.638 133.168 313.983 136.427 312.673C139.719 311.33 142.308 309.477 144.194 307.112C146.079 304.714 147.022 301.918 147.022 298.722C147.022 295.814 146.191 293.433 144.529 291.579C142.899 289.725 140.678 288.191 137.866 286.977C135.085 285.762 131.937 284.691 128.421 283.765L116.82 280.6C108.958 278.459 102.725 275.311 98.1231 271.156C93.5528 267.001 91.2677 261.504 91.2677 254.665C91.2677 249.008 92.8018 244.07 95.8699 239.851C98.9381 235.632 103.093 232.357 108.334 230.023C113.576 227.658 119.489 226.476 126.072 226.476C132.72 226.476 138.585 227.642 143.666 229.975C148.78 232.309 152.807 235.521 155.747 239.612C158.688 243.67 160.222 248.337 160.35 253.61H146.063ZM212.329 327.342C207.95 327.278 203.636 326.479 199.385 324.945C195.166 323.411 191.331 320.854 187.879 317.275C184.428 313.695 181.663 308.885 179.586 302.845C177.54 296.804 176.518 289.262 176.518 280.217C176.518 271.652 177.365 264.045 179.058 257.397C180.784 250.75 183.261 245.141 186.489 240.57C189.717 235.968 193.616 232.468 198.187 230.071C202.757 227.674 207.887 226.476 213.575 226.476C219.424 226.476 224.618 227.626 229.156 229.928C233.694 232.229 237.37 235.409 240.182 239.468C243.027 243.527 244.833 248.145 245.6 253.322H230.978C229.987 249.232 228.021 245.892 225.081 243.303C222.141 240.714 218.306 239.42 213.575 239.42C206.384 239.42 200.775 242.552 196.748 248.816C192.753 255.08 190.74 263.789 190.708 274.944H191.427C193.121 272.163 195.198 269.798 197.659 267.848C200.152 265.867 202.933 264.349 206.001 263.294C209.101 262.207 212.361 261.664 215.781 261.664C221.47 261.664 226.615 263.054 231.218 265.835C235.852 268.583 239.543 272.387 242.292 277.245C245.04 282.103 246.415 287.664 246.415 293.928C246.415 300.192 244.992 305.865 242.148 310.947C239.335 316.028 235.372 320.055 230.259 323.028C225.145 325.968 219.169 327.406 212.329 327.342ZM212.281 314.878C216.052 314.878 219.424 313.951 222.396 312.097C225.369 310.244 227.718 307.751 229.444 304.619C231.17 301.487 232.032 297.987 232.032 294.12C232.032 290.348 231.186 286.913 229.492 283.812C227.83 280.712 225.529 278.251 222.588 276.43C219.68 274.608 216.356 273.697 212.617 273.697C209.772 273.697 207.135 274.24 204.706 275.327C202.309 276.414 200.2 277.916 198.378 279.833C196.557 281.751 195.118 283.956 194.064 286.449C193.041 288.91 192.53 291.515 192.53 294.263C192.53 297.939 193.377 301.343 195.07 304.475C196.796 307.607 199.145 310.132 202.118 312.049C205.122 313.935 208.51 314.878 212.281 314.878ZM298.058 327.63C290.484 327.598 284.012 325.6 278.642 321.637C273.273 317.674 269.166 311.906 266.322 304.331C263.477 296.756 262.055 287.632 262.055 276.957C262.055 266.314 263.477 257.222 266.322 249.679C269.198 242.136 273.321 236.384 278.69 232.42C284.092 228.457 290.548 226.476 298.058 226.476C305.569 226.476 312.009 228.473 317.378 232.468C322.748 236.431 326.854 242.184 329.699 249.727C332.575 257.238 334.014 266.314 334.014 276.957C334.014 287.664 332.591 296.804 329.747 304.379C326.902 311.922 322.796 317.69 317.426 321.685C312.057 325.648 305.601 327.63 298.058 327.63ZM298.058 314.83C304.706 314.83 309.9 311.586 313.639 305.098C317.41 298.61 319.296 289.23 319.296 276.957C319.296 268.807 318.433 261.92 316.707 256.295C315.013 250.638 312.568 246.355 309.372 243.447C306.208 240.506 302.437 239.036 298.058 239.036C291.443 239.036 286.249 242.296 282.478 248.816C278.706 255.336 276.805 264.716 276.773 276.957C276.773 285.139 277.62 292.058 279.314 297.715C281.04 303.34 283.484 307.607 286.649 310.515C289.813 313.392 293.616 314.83 298.058 314.83Z" fill="white"/>
<path d="M359.481 295.545L350.106 330.375H346.313L355.688 295.545H359.481ZM373.674 326V304.182H377.751V307.733H378.021C378.476 306.53 379.219 305.593 380.251 304.92C381.283 304.239 382.519 303.898 383.959 303.898C385.417 303.898 386.638 304.239 387.623 304.92C388.618 305.602 389.352 306.54 389.825 307.733H390.052C390.573 306.568 391.402 305.64 392.538 304.949C393.674 304.248 395.029 303.898 396.601 303.898C398.58 303.898 400.194 304.518 401.444 305.759C402.704 306.999 403.334 308.869 403.334 311.369V326H399.086V311.767C399.086 310.29 398.684 309.22 397.879 308.557C397.074 307.894 396.113 307.562 394.995 307.562C393.613 307.562 392.538 307.989 391.771 308.841C391.004 309.684 390.62 310.768 390.62 312.094V326H386.388V311.497C386.388 310.313 386.018 309.362 385.28 308.642C384.541 307.922 383.58 307.562 382.396 307.562C381.591 307.562 380.848 307.776 380.166 308.202C379.494 308.618 378.949 309.201 378.532 309.949C378.125 310.697 377.922 311.563 377.922 312.548V326H373.674ZM418.216 326.44C416.171 326.44 414.386 325.972 412.861 325.034C411.337 324.097 410.153 322.785 409.31 321.099C408.467 319.414 408.046 317.444 408.046 315.19C408.046 312.927 408.467 310.948 409.31 309.253C410.153 307.558 411.337 306.241 412.861 305.304C414.386 304.366 416.171 303.898 418.216 303.898C420.262 303.898 422.047 304.366 423.571 305.304C425.096 306.241 426.28 307.558 427.123 309.253C427.965 310.948 428.387 312.927 428.387 315.19C428.387 317.444 427.965 319.414 427.123 321.099C426.28 322.785 425.096 324.097 423.571 325.034C422.047 325.972 420.262 326.44 418.216 326.44ZM418.231 322.875C419.556 322.875 420.655 322.525 421.526 321.824C422.397 321.123 423.041 320.19 423.458 319.026C423.884 317.861 424.097 316.578 424.097 315.176C424.097 313.784 423.884 312.506 423.458 311.341C423.041 310.167 422.397 309.224 421.526 308.514C420.655 307.804 419.556 307.449 418.231 307.449C416.895 307.449 415.787 307.804 414.907 308.514C414.035 309.224 413.387 310.167 412.961 311.341C412.544 312.506 412.336 313.784 412.336 315.176C412.336 316.578 412.544 317.861 412.961 319.026C413.387 320.19 414.035 321.123 414.907 321.824C415.787 322.525 416.895 322.875 418.231 322.875Z" fill="white" fill-opacity="0.5"/>
<rect x="36" y="422" width="439" height="71" rx="15" fill="#DF9A57"/>
<path d="M140.453 451.841C140.332 450.765 139.832 449.932 138.953 449.341C138.074 448.742 136.968 448.443 135.635 448.443C134.68 448.443 133.855 448.595 133.158 448.898C132.461 449.193 131.919 449.602 131.533 450.125C131.154 450.64 130.964 451.227 130.964 451.886C130.964 452.439 131.093 452.917 131.351 453.318C131.616 453.72 131.961 454.057 132.385 454.33C132.817 454.595 133.279 454.818 133.771 455C134.264 455.174 134.737 455.318 135.192 455.432L137.464 456.023C138.207 456.205 138.968 456.451 139.749 456.761C140.529 457.072 141.252 457.481 141.919 457.989C142.586 458.496 143.124 459.125 143.533 459.875C143.949 460.625 144.158 461.523 144.158 462.568C144.158 463.886 143.817 465.057 143.135 466.08C142.461 467.102 141.48 467.909 140.192 468.5C138.911 469.091 137.362 469.386 135.544 469.386C133.802 469.386 132.294 469.11 131.021 468.557C129.749 468.004 128.752 467.22 128.033 466.205C127.313 465.182 126.915 463.97 126.839 462.568H130.362C130.43 463.409 130.703 464.11 131.18 464.67C131.665 465.223 132.283 465.636 133.033 465.909C133.79 466.174 134.62 466.307 135.521 466.307C136.514 466.307 137.396 466.152 138.169 465.841C138.949 465.523 139.563 465.083 140.01 464.523C140.457 463.955 140.68 463.292 140.68 462.534C140.68 461.845 140.483 461.28 140.089 460.841C139.703 460.402 139.177 460.038 138.51 459.75C137.851 459.462 137.105 459.208 136.271 458.989L133.521 458.239C131.658 457.731 130.18 456.985 129.089 456C128.006 455.015 127.464 453.712 127.464 452.091C127.464 450.75 127.828 449.58 128.555 448.58C129.283 447.58 130.268 446.803 131.51 446.25C132.752 445.689 134.154 445.409 135.714 445.409C137.29 445.409 138.68 445.686 139.885 446.239C141.097 446.792 142.052 447.553 142.749 448.523C143.446 449.485 143.809 450.591 143.839 451.841H140.453ZM148.081 475.545V451.545H151.399V454.375H151.683C151.88 454.011 152.164 453.591 152.536 453.114C152.907 452.636 153.422 452.22 154.081 451.864C154.74 451.5 155.611 451.318 156.695 451.318C158.104 451.318 159.361 451.674 160.467 452.386C161.573 453.098 162.441 454.125 163.07 455.466C163.706 456.807 164.024 458.42 164.024 460.307C164.024 462.193 163.71 463.811 163.081 465.159C162.452 466.5 161.589 467.534 160.49 468.261C159.392 468.981 158.138 469.341 156.729 469.341C155.668 469.341 154.801 469.163 154.126 468.807C153.46 468.451 152.937 468.034 152.558 467.557C152.179 467.08 151.888 466.655 151.683 466.284H151.479V475.545H148.081ZM151.411 460.273C151.411 461.5 151.589 462.576 151.945 463.5C152.301 464.424 152.816 465.148 153.49 465.67C154.164 466.186 154.99 466.443 155.967 466.443C156.982 466.443 157.831 466.174 158.513 465.636C159.195 465.091 159.71 464.352 160.058 463.42C160.414 462.489 160.592 461.439 160.592 460.273C160.592 459.121 160.418 458.087 160.07 457.17C159.729 456.254 159.214 455.53 158.524 455C157.842 454.47 156.99 454.205 155.967 454.205C154.982 454.205 154.149 454.458 153.467 454.966C152.793 455.473 152.282 456.182 151.933 457.091C151.585 458 151.411 459.061 151.411 460.273ZM175.354 469.352C173.634 469.352 172.153 468.985 170.911 468.25C169.676 467.508 168.721 466.466 168.047 465.125C167.38 463.777 167.047 462.197 167.047 460.386C167.047 458.598 167.38 457.023 168.047 455.659C168.721 454.295 169.661 453.231 170.865 452.466C172.077 451.701 173.494 451.318 175.115 451.318C176.1 451.318 177.054 451.481 177.979 451.807C178.903 452.133 179.732 452.644 180.467 453.341C181.202 454.038 181.782 454.943 182.206 456.057C182.63 457.163 182.842 458.508 182.842 460.091V461.295H168.967V458.75H179.513C179.513 457.856 179.331 457.064 178.967 456.375C178.604 455.678 178.092 455.129 177.433 454.727C176.782 454.326 176.017 454.125 175.138 454.125C174.183 454.125 173.35 454.36 172.638 454.83C171.933 455.292 171.388 455.898 171.001 456.648C170.623 457.39 170.433 458.197 170.433 459.068V461.057C170.433 462.223 170.638 463.216 171.047 464.034C171.464 464.852 172.043 465.477 172.786 465.909C173.528 466.333 174.395 466.545 175.388 466.545C176.032 466.545 176.619 466.455 177.149 466.273C177.679 466.083 178.138 465.803 178.524 465.432C178.911 465.061 179.206 464.602 179.411 464.057L182.626 464.636C182.369 465.583 181.907 466.413 181.24 467.125C180.581 467.83 179.751 468.379 178.751 468.773C177.759 469.159 176.626 469.352 175.354 469.352ZM193.964 469.352C192.275 469.352 190.821 468.97 189.601 468.205C188.389 467.432 187.457 466.367 186.805 465.011C186.154 463.655 185.828 462.102 185.828 460.352C185.828 458.58 186.161 457.015 186.828 455.659C187.495 454.295 188.434 453.231 189.646 452.466C190.858 451.701 192.286 451.318 193.93 451.318C195.256 451.318 196.438 451.564 197.476 452.057C198.514 452.542 199.351 453.223 199.987 454.102C200.631 454.981 201.014 456.008 201.135 457.182H197.828C197.646 456.364 197.23 455.659 196.578 455.068C195.934 454.477 195.071 454.182 193.987 454.182C193.04 454.182 192.211 454.432 191.499 454.932C190.794 455.424 190.245 456.129 189.851 457.045C189.457 457.955 189.26 459.03 189.26 460.273C189.26 461.545 189.453 462.644 189.839 463.568C190.226 464.492 190.771 465.208 191.476 465.716C192.188 466.223 193.025 466.477 193.987 466.477C194.631 466.477 195.214 466.36 195.737 466.125C196.268 465.883 196.711 465.538 197.067 465.091C197.43 464.644 197.684 464.106 197.828 463.477H201.135C201.014 464.606 200.646 465.614 200.033 466.5C199.419 467.386 198.597 468.083 197.567 468.591C196.544 469.098 195.343 469.352 193.964 469.352ZM204.768 469V451.545H208.166V469H204.768ZM206.484 448.852C205.893 448.852 205.386 448.655 204.962 448.261C204.545 447.86 204.337 447.383 204.337 446.83C204.337 446.269 204.545 445.792 204.962 445.398C205.386 444.996 205.893 444.795 206.484 444.795C207.075 444.795 207.579 444.996 207.996 445.398C208.42 445.792 208.632 446.269 208.632 446.83C208.632 447.383 208.42 447.86 207.996 448.261C207.579 448.655 207.075 448.852 206.484 448.852ZM217.817 469.386C216.711 469.386 215.711 469.182 214.817 468.773C213.923 468.356 213.214 467.754 212.692 466.966C212.177 466.178 211.919 465.212 211.919 464.068C211.919 463.083 212.108 462.273 212.487 461.636C212.866 461 213.377 460.496 214.021 460.125C214.665 459.754 215.385 459.473 216.18 459.284C216.976 459.095 217.786 458.951 218.612 458.852C219.658 458.731 220.506 458.633 221.158 458.557C221.809 458.473 222.283 458.341 222.578 458.159C222.874 457.977 223.021 457.682 223.021 457.273V457.193C223.021 456.201 222.741 455.432 222.18 454.886C221.627 454.341 220.802 454.068 219.703 454.068C218.559 454.068 217.658 454.322 216.999 454.83C216.347 455.33 215.896 455.886 215.646 456.5L212.453 455.773C212.832 454.712 213.385 453.856 214.112 453.205C214.847 452.545 215.692 452.068 216.646 451.773C217.601 451.47 218.605 451.318 219.658 451.318C220.355 451.318 221.093 451.402 221.874 451.568C222.661 451.727 223.396 452.023 224.078 452.455C224.768 452.886 225.332 453.504 225.771 454.307C226.211 455.102 226.43 456.136 226.43 457.409V469H223.112V466.614H222.976C222.756 467.053 222.427 467.485 221.987 467.909C221.548 468.333 220.983 468.686 220.294 468.966C219.605 469.246 218.779 469.386 217.817 469.386ZM218.555 466.659C219.495 466.659 220.298 466.473 220.964 466.102C221.639 465.731 222.15 465.246 222.499 464.648C222.855 464.042 223.033 463.394 223.033 462.705V460.455C222.911 460.576 222.677 460.689 222.328 460.795C221.987 460.894 221.597 460.981 221.158 461.057C220.718 461.125 220.29 461.189 219.874 461.25C219.457 461.303 219.108 461.348 218.828 461.386C218.169 461.47 217.567 461.61 217.021 461.807C216.483 462.004 216.052 462.288 215.726 462.659C215.408 463.023 215.249 463.508 215.249 464.114C215.249 464.955 215.559 465.591 216.18 466.023C216.802 466.447 217.593 466.659 218.555 466.659ZM234.354 445.727V469H230.956V445.727H234.354ZM247.393 469V451.545H250.791V469H247.393ZM249.109 448.852C248.518 448.852 248.011 448.655 247.587 448.261C247.17 447.86 246.962 447.383 246.962 446.83C246.962 446.269 247.17 445.792 247.587 445.398C248.011 444.996 248.518 444.795 249.109 444.795C249.7 444.795 250.204 444.996 250.621 445.398C251.045 445.792 251.257 446.269 251.257 446.83C251.257 447.383 251.045 447.86 250.621 448.261C250.204 448.655 249.7 448.852 249.109 448.852ZM258.76 458.636V469H255.362V451.545H258.624V454.386H258.839C259.241 453.462 259.87 452.72 260.726 452.159C261.589 451.598 262.677 451.318 263.987 451.318C265.177 451.318 266.218 451.568 267.112 452.068C268.006 452.561 268.699 453.295 269.192 454.273C269.684 455.25 269.93 456.458 269.93 457.898V469H266.533V458.307C266.533 457.042 266.203 456.053 265.544 455.341C264.885 454.621 263.98 454.261 262.828 454.261C262.04 454.261 261.339 454.432 260.726 454.773C260.12 455.114 259.639 455.614 259.283 456.273C258.934 456.924 258.76 457.712 258.76 458.636ZM288.794 451.545L282.464 469H278.828L272.487 451.545H276.135L280.555 464.977H280.737L285.146 451.545H288.794ZM291.987 469V451.545H295.385V469H291.987ZM293.703 448.852C293.112 448.852 292.605 448.655 292.18 448.261C291.764 447.86 291.555 447.383 291.555 446.83C291.555 446.269 291.764 445.792 292.18 445.398C292.605 444.996 293.112 444.795 293.703 444.795C294.294 444.795 294.798 444.996 295.214 445.398C295.639 445.792 295.851 446.269 295.851 446.83C295.851 447.383 295.639 447.86 295.214 448.261C294.798 448.655 294.294 448.852 293.703 448.852ZM308.104 451.545V454.273H298.57V451.545H308.104ZM301.126 447.364H304.524V463.875C304.524 464.534 304.623 465.03 304.82 465.364C305.017 465.689 305.27 465.913 305.581 466.034C305.899 466.148 306.244 466.205 306.615 466.205C306.888 466.205 307.126 466.186 307.331 466.148C307.536 466.11 307.695 466.08 307.808 466.057L308.422 468.864C308.225 468.939 307.945 469.015 307.581 469.091C307.217 469.174 306.763 469.22 306.217 469.227C305.323 469.242 304.49 469.083 303.717 468.75C302.945 468.417 302.32 467.902 301.842 467.205C301.365 466.508 301.126 465.633 301.126 464.58V447.364ZM319.197 469.352C317.478 469.352 315.997 468.985 314.754 468.25C313.519 467.508 312.565 466.466 311.891 465.125C311.224 463.777 310.891 462.197 310.891 460.386C310.891 458.598 311.224 457.023 311.891 455.659C312.565 454.295 313.504 453.231 314.709 452.466C315.921 451.701 317.338 451.318 318.959 451.318C319.944 451.318 320.898 451.481 321.822 451.807C322.747 452.133 323.576 452.644 324.311 453.341C325.046 454.038 325.625 454.943 326.05 456.057C326.474 457.163 326.686 458.508 326.686 460.091V461.295H312.811V458.75H323.357C323.357 457.856 323.175 457.064 322.811 456.375C322.447 455.678 321.936 455.129 321.277 454.727C320.625 454.326 319.86 454.125 318.982 454.125C318.027 454.125 317.194 454.36 316.482 454.83C315.777 455.292 315.232 455.898 314.845 456.648C314.466 457.39 314.277 458.197 314.277 459.068V461.057C314.277 462.223 314.482 463.216 314.891 464.034C315.307 464.852 315.887 465.477 316.629 465.909C317.372 466.333 318.239 466.545 319.232 466.545C319.875 466.545 320.463 466.455 320.993 466.273C321.523 466.083 321.982 465.803 322.368 465.432C322.754 465.061 323.05 464.602 323.254 464.057L326.47 464.636C326.213 465.583 325.75 466.413 325.084 467.125C324.425 467.83 323.595 468.379 322.595 468.773C321.603 469.159 320.47 469.352 319.197 469.352ZM343.536 455.807L340.456 456.352C340.327 455.958 340.123 455.583 339.842 455.227C339.57 454.871 339.198 454.58 338.729 454.352C338.259 454.125 337.672 454.011 336.967 454.011C336.005 454.011 335.202 454.227 334.558 454.659C333.914 455.083 333.592 455.633 333.592 456.307C333.592 456.89 333.808 457.36 334.24 457.716C334.672 458.072 335.369 458.364 336.331 458.591L339.104 459.227C340.71 459.598 341.907 460.17 342.695 460.943C343.482 461.716 343.876 462.72 343.876 463.955C343.876 465 343.573 465.932 342.967 466.75C342.369 467.561 341.532 468.197 340.456 468.659C339.388 469.121 338.149 469.352 336.74 469.352C334.786 469.352 333.191 468.936 331.956 468.102C330.721 467.261 329.964 466.068 329.683 464.523L332.967 464.023C333.172 464.879 333.592 465.527 334.229 465.966C334.865 466.398 335.695 466.614 336.717 466.614C337.831 466.614 338.721 466.383 339.388 465.92C340.054 465.451 340.388 464.879 340.388 464.205C340.388 463.659 340.183 463.201 339.774 462.83C339.373 462.458 338.755 462.178 337.922 461.989L334.967 461.341C333.339 460.97 332.134 460.379 331.354 459.568C330.581 458.758 330.195 457.731 330.195 456.489C330.195 455.458 330.482 454.557 331.058 453.784C331.634 453.011 332.429 452.409 333.445 451.977C334.46 451.538 335.623 451.318 336.933 451.318C338.82 451.318 340.304 451.727 341.388 452.545C342.471 453.356 343.187 454.443 343.536 455.807ZM353.797 471.24H385.797V439.24H353.797V471.24Z" fill="white"/>
</svg>
